M48
; DRILL file {KiCad 7.0.2-0} date 2023 July 08, Saturday 17:29:16
; FORMAT={-:-/ absolute / metric / decimal}
; #@! TF.CreationDate,2023-07-08T17:29:16+12:00
; #@! TF.GenerationSoftware,Kicad,Pcbnew,7.0.2-0
; #@! TF.FileFunction,Plated,1,4,PTH
FMAT,2
METRIC
; #@! TA.AperFunction,Plated,PTH,ViaDrill
T1C0.300
; #@! TA.AperFunction,Plated,PTH,ComponentDrill
T2C0.300
; #@! TA.AperFunction,Plated,PTH,ViaDrill
T3C0.400
; #@! TA.AperFunction,Plated,PTH,ComponentDrill
T4C0.500
; #@! TA.AperFunction,Plated,PTH,ComponentDrill
T5C0.550
; #@! TA.AperFunction,Plated,PTH,ComponentDrill
T6C0.750
; #@! TA.AperFunction,Plated,PTH,ComponentDrill
T7C0.900
; #@! TA.AperFunction,Plated,PTH,ComponentDrill
T8C1.000
; #@! TA.AperFunction,Plated,PTH,ComponentDrill
T9C1.100
; #@! TA.AperFunction,Plated,PTH,ComponentDrill
T10C1.200
; #@! TA.AperFunction,Plated,PTH,ComponentDrill
T11C3.200
%
G90
G05
T1
X1.016Y57.658
X1.27Y15.24
X1.778Y44.45
X1.778Y38.608
X1.778Y32.258
X3.81Y66.04
X3.81Y15.24
X3.81Y9.398
X5.588Y33.782
X5.588Y32.766
X5.651Y35.623
X6.604Y36.576
X6.858Y24.14
X6.858Y9.144
X7.366Y13.97
X7.366Y12.192
X7.62Y73.914
X7.62Y24.13
X8.128Y23.114
X8.128Y18.796
X9.906Y65.786
X10.16Y1.016
X10.414Y52.832
X11.176Y48.514
X11.43Y45.466
X11.582Y69.723
X12.192Y66.294
X12.446Y18.796
X12.7Y12.446
X13.208Y66.294
X13.208Y28.956
X14.224Y9.144
X14.224Y6.096
X14.224Y3.048
X14.732Y14.732
X15.24Y74.422
X15.494Y3.81
X16.205Y61.036
X16.256Y24.424
X16.764Y41.91
X16.764Y16.002
X17.526Y29.21
X17.78Y9.398
X17.78Y2.54
X18.542Y46.482
X18.542Y44.45
X18.542Y37.338
X18.542Y33.274
X18.796Y29.21
X19.05Y41.656
X19.304Y18.796
X19.558Y49.276
X19.812Y23.114
X20.066Y7.112
X20.32Y51.562
X20.574Y11.684
X20.828Y27.178
X21.082Y65.278
X21.082Y46.482
X21.082Y44.45
X22.352Y56.642
X22.352Y39.116
X22.352Y33.274
X22.352Y29.21
X22.352Y9.652
X22.9Y9.104
X23.114Y60.198
X23.114Y52.832
X23.114Y13.462
X23.368Y19.355
X23.876Y13.716
X24.13Y49.53
X24.13Y45.72
X24.13Y16.764
X24.308Y25.222
X24.638Y13.97
X24.74Y20.828
X24.74Y18.034
X25.146Y22.098
X25.146Y11.43
X26.06Y19.355
X26.162Y39.116
X26.416Y28.448
X26.416Y9.144
X26.67Y55.88
X26.924Y18.034
X27.432Y9.144
X27.686Y72.898
X27.686Y27.178
X27.94Y33.274
X28.194Y19.558
X28.194Y14.224
X28.684Y16.974
X28.829Y28.829
X29.21Y8.128
X29.337Y21.463
X29.464Y45.72
X29.464Y28.194
X29.718Y56.134
X29.718Y0.762
X30.141Y17.276
X30.226Y27.686
X30.48Y25.146
X30.734Y26.67
X30.734Y18.288
X30.734Y16.256
X30.988Y60.198
X31.496Y33.274
X31.75Y15.494
X32.258Y19.05
X33.02Y10.922
X33.274Y60.198
X34.798Y27.94
X35.814Y23.114
X36.83Y72.898
X37.084Y55.88
X37.338Y42.164
X38.354Y17.526
X38.608Y31.75
X38.862Y21.59
X39.37Y26.67
X39.878Y53.848
X39.878Y43.18
X40.132Y34.29
X40.184Y16.644
X40.894Y24.892
X41.148Y59.944
X41.148Y12.7
X41.148Y9.144
X41.164Y37.575
X41.91Y56.388
X41.91Y0.762
X42.418Y27.432
X42.672Y20.828
X43.434Y44.45
X43.688Y60.706
X43.688Y50.038
X43.942Y21.082
X44.196Y17.018
X45.974Y17.272
X46.482Y25.146
X46.482Y21.082
X46.736Y41.148
X47.244Y39.624
X47.244Y31.496
X47.244Y28.956
X47.752Y21.082
X48.26Y55.372
X48.768Y16.256
X48.768Y12.7
X48.768Y7.366
T2
X26.416Y60.863
X26.416Y59.563
X26.416Y58.263
X27.716Y60.863
X27.716Y59.563
X27.716Y58.263
X36.546Y60.863
X36.546Y59.563
X36.546Y58.263
X37.846Y60.863
X37.846Y59.563
X37.846Y58.263
T3
X9.474Y73.482
X10.363Y73.482
X11.252Y73.482
T4
X1.296Y71.12
X1.664Y4.064
X1.999Y72.817
X1.999Y69.423
X2.367Y5.761
X2.367Y2.367
X3.696Y73.52
X3.696Y68.72
X4.064Y6.464
X4.064Y1.664
X5.393Y72.817
X5.393Y69.423
X5.761Y5.761
X5.761Y2.367
X6.096Y71.12
X6.464Y4.064
X43.401Y71.201
X43.434Y3.95
X44.104Y72.898
X44.104Y69.504
X44.137Y5.647
X44.137Y2.253
X45.801Y73.601
X45.801Y68.801
X45.834Y6.35
X45.834Y1.55
X47.498Y72.898
X47.498Y69.504
X47.531Y5.647
X47.531Y2.253
X48.201Y71.201
X48.234Y3.95
T6
X6.768Y45.45
X6.768Y43.45
X25.686Y68.416
X27.686Y68.416
X29.686Y68.416
X34.83Y68.416
X36.83Y68.416
X38.83Y68.416
T7
X5.588Y61.722
X5.588Y57.722
X5.588Y53.722
T8
X20.838Y5.1
X20.838Y2.56
X23.378Y5.1
X23.378Y2.56
X25.146Y64.516
X25.918Y5.1
X25.918Y2.56
X27.686Y64.516
X28.458Y5.1
X28.458Y2.56
X30.226Y64.516
X32.522Y5.08
X32.522Y2.54
X33.528Y50.8
X33.528Y45.8
X34.29Y64.516
X35.062Y5.08
X35.062Y2.54
X36.83Y64.516
X37.602Y5.08
X37.602Y2.54
X39.37Y64.516
X40.142Y5.08
X40.142Y2.54
T9
X2.794Y35.56
X9.144Y39.37
X9.144Y31.75
X13.122Y38.1
X13.122Y35.56
X13.122Y33.02
X46.99Y35.814
T10
X1.338Y63.722
X1.338Y51.722
X7.338Y63.722
X7.338Y51.722
T11
X3.696Y71.12
X4.064Y4.064
X45.801Y71.201
X45.834Y3.95
T4
G00X3.089Y28.94
M15
G01X2.439Y28.94
M16
G05
G00X3.089Y21.94
M15
G01X2.439Y21.94
M16
G05
T5
G00X5.464Y28.09
M15
G01X5.464Y27.79
M16
G05
G00X5.464Y23.09
M15
G01X5.464Y22.79
M16
G05
T0
M30
