%TF.GenerationSoftware,KiCad,Pcbnew,7.0.2-0*%
%TF.CreationDate,2023-07-08T16:01:00+12:00*%
%TF.ProjectId,RpiFly v3,52706946-6c79-4207-9633-2e6b69636164,rev?*%
%TF.SameCoordinates,PX753dac0PY7a91ee0*%
%TF.FileFunction,Paste,Top*%
%TF.FilePolarity,Positive*%
%FSLAX46Y46*%
G04 Gerber Fmt 4.6, Leading zero omitted, Abs format (unit mm)*
G04 Created by KiCad (PCBNEW 7.0.2-0) date 2023-07-08 16:01:00*
%MOMM*%
%LPD*%
G01*
G04 APERTURE LIST*
G04 Aperture macros list*
%AMRoundRect*
0 Rectangle with rounded corners*
0 $1 Rounding radius*
0 $2 $3 $4 $5 $6 $7 $8 $9 X,Y pos of 4 corners*
0 Add a 4 corners polygon primitive as box body*
4,1,4,$2,$3,$4,$5,$6,$7,$8,$9,$2,$3,0*
0 Add four circle primitives for the rounded corners*
1,1,$1+$1,$2,$3*
1,1,$1+$1,$4,$5*
1,1,$1+$1,$6,$7*
1,1,$1+$1,$8,$9*
0 Add four rect primitives between the rounded corners*
20,1,$1+$1,$2,$3,$4,$5,0*
20,1,$1+$1,$4,$5,$6,$7,0*
20,1,$1+$1,$6,$7,$8,$9,0*
20,1,$1+$1,$8,$9,$2,$3,0*%
%AMFreePoly0*
4,1,14,0.266715,0.088284,0.363284,-0.008285,0.375000,-0.036569,0.375000,-0.060000,0.363284,-0.088284,0.335000,-0.100000,-0.335000,-0.100000,-0.363284,-0.088284,-0.375000,-0.060000,-0.375000,0.060000,-0.363284,0.088284,-0.335000,0.100000,0.238431,0.100000,0.266715,0.088284,0.266715,0.088284,$1*%
%AMFreePoly1*
4,1,14,0.363284,0.088284,0.375000,0.060000,0.375000,0.036569,0.363284,0.008285,0.266715,-0.088284,0.238431,-0.100000,-0.335000,-0.100000,-0.363284,-0.088284,-0.375000,-0.060000,-0.375000,0.060000,-0.363284,0.088284,-0.335000,0.100000,0.335000,0.100000,0.363284,0.088284,0.363284,0.088284,$1*%
%AMFreePoly2*
4,1,14,0.088284,0.363284,0.100000,0.335000,0.100000,-0.335000,0.088284,-0.363284,0.060000,-0.375000,-0.060000,-0.375000,-0.088284,-0.363284,-0.100000,-0.335000,-0.100000,0.238431,-0.088284,0.266715,0.008285,0.363284,0.036569,0.375000,0.060000,0.375000,0.088284,0.363284,0.088284,0.363284,$1*%
%AMFreePoly3*
4,1,14,-0.008285,0.363284,0.088284,0.266715,0.100000,0.238431,0.100000,-0.335000,0.088284,-0.363284,0.060000,-0.375000,-0.060000,-0.375000,-0.088284,-0.363284,-0.100000,-0.335000,-0.100000,0.335000,-0.088284,0.363284,-0.060000,0.375000,-0.036569,0.375000,-0.008285,0.363284,-0.008285,0.363284,$1*%
%AMFreePoly4*
4,1,14,0.363284,0.088284,0.375000,0.060000,0.375000,-0.060000,0.363284,-0.088284,0.335000,-0.100000,-0.238431,-0.100000,-0.266715,-0.088284,-0.363284,0.008285,-0.375000,0.036569,-0.375000,0.060000,-0.363284,0.088284,-0.335000,0.100000,0.335000,0.100000,0.363284,0.088284,0.363284,0.088284,$1*%
%AMFreePoly5*
4,1,14,0.363284,0.088284,0.375000,0.060000,0.375000,-0.060000,0.363284,-0.088284,0.335000,-0.100000,-0.335000,-0.100000,-0.363284,-0.088284,-0.375000,-0.060000,-0.375000,-0.036569,-0.363284,-0.008285,-0.266715,0.088284,-0.238431,0.100000,0.335000,0.100000,0.363284,0.088284,0.363284,0.088284,$1*%
%AMFreePoly6*
4,1,14,0.088284,0.363284,0.100000,0.335000,0.100000,-0.238431,0.088284,-0.266715,-0.008285,-0.363284,-0.036569,-0.375000,-0.060000,-0.375000,-0.088284,-0.363284,-0.100000,-0.335000,-0.100000,0.335000,-0.088284,0.363284,-0.060000,0.375000,0.060000,0.375000,0.088284,0.363284,0.088284,0.363284,$1*%
%AMFreePoly7*
4,1,14,0.088284,0.363284,0.100000,0.335000,0.100000,-0.335000,0.088284,-0.363284,0.060000,-0.375000,0.036569,-0.375000,0.008285,-0.363284,-0.088284,-0.266715,-0.100000,-0.238431,-0.100000,0.335000,-0.088284,0.363284,-0.060000,0.375000,0.060000,0.375000,0.088284,0.363284,0.088284,0.363284,$1*%
G04 Aperture macros list end*
%ADD10RoundRect,0.200000X0.200000X0.275000X-0.200000X0.275000X-0.200000X-0.275000X0.200000X-0.275000X0*%
%ADD11RoundRect,0.225000X-0.250000X0.225000X-0.250000X-0.225000X0.250000X-0.225000X0.250000X0.225000X0*%
%ADD12RoundRect,0.200000X-0.275000X0.200000X-0.275000X-0.200000X0.275000X-0.200000X0.275000X0.200000X0*%
%ADD13RoundRect,0.250000X0.475000X-0.475000X0.475000X0.475000X-0.475000X0.475000X-0.475000X-0.475000X0*%
%ADD14RoundRect,0.062500X0.062500X-0.375000X0.062500X0.375000X-0.062500X0.375000X-0.062500X-0.375000X0*%
%ADD15RoundRect,0.062500X0.375000X-0.062500X0.375000X0.062500X-0.375000X0.062500X-0.375000X-0.062500X0*%
%ADD16RoundRect,0.200000X-0.200000X-0.275000X0.200000X-0.275000X0.200000X0.275000X-0.200000X0.275000X0*%
%ADD17RoundRect,0.150000X-0.512500X-0.150000X0.512500X-0.150000X0.512500X0.150000X-0.512500X0.150000X0*%
%ADD18RoundRect,0.225000X-0.335876X-0.017678X-0.017678X-0.335876X0.335876X0.017678X0.017678X0.335876X0*%
%ADD19RoundRect,0.222500X0.297500X0.222500X-0.297500X0.222500X-0.297500X-0.222500X0.297500X-0.222500X0*%
%ADD20RoundRect,0.150000X0.737500X0.150000X-0.737500X0.150000X-0.737500X-0.150000X0.737500X-0.150000X0*%
%ADD21RoundRect,0.225000X0.250000X-0.225000X0.250000X0.225000X-0.250000X0.225000X-0.250000X-0.225000X0*%
%ADD22R,1.300000X1.550000*%
%ADD23RoundRect,0.218750X-0.218750X-0.256250X0.218750X-0.256250X0.218750X0.256250X-0.218750X0.256250X0*%
%ADD24RoundRect,0.225000X-0.225000X-0.250000X0.225000X-0.250000X0.225000X0.250000X-0.225000X0.250000X0*%
%ADD25RoundRect,0.225000X0.335876X0.017678X0.017678X0.335876X-0.335876X-0.017678X-0.017678X-0.335876X0*%
%ADD26R,4.500000X2.000000*%
%ADD27RoundRect,0.112500X-0.112500X0.187500X-0.112500X-0.187500X0.112500X-0.187500X0.112500X0.187500X0*%
%ADD28RoundRect,0.225000X-0.017678X0.335876X-0.335876X0.017678X0.017678X-0.335876X0.335876X-0.017678X0*%
%ADD29RoundRect,0.225000X0.225000X0.250000X-0.225000X0.250000X-0.225000X-0.250000X0.225000X-0.250000X0*%
%ADD30RoundRect,0.100000X-0.175000X-0.100000X0.175000X-0.100000X0.175000X0.100000X-0.175000X0.100000X0*%
%ADD31RoundRect,0.100000X-0.100000X-0.175000X0.100000X-0.175000X0.100000X0.175000X-0.100000X0.175000X0*%
%ADD32O,1.550000X0.890000*%
%ADD33O,0.950000X1.250000*%
%ADD34R,1.350000X0.400000*%
%ADD35R,1.550000X1.200000*%
%ADD36R,1.550000X1.500000*%
%ADD37RoundRect,0.150000X0.150000X-0.650000X0.150000X0.650000X-0.150000X0.650000X-0.150000X-0.650000X0*%
%ADD38RoundRect,0.249999X0.000000X-0.558616X0.558616X0.000000X0.000000X0.558616X-0.558616X0.000000X0*%
%ADD39RoundRect,0.050000X-0.238649X-0.309359X0.309359X0.238649X0.238649X0.309359X-0.309359X-0.238649X0*%
%ADD40RoundRect,0.050000X0.238649X-0.309359X0.309359X-0.238649X-0.238649X0.309359X-0.309359X0.238649X0*%
%ADD41RoundRect,0.225000X0.017678X-0.335876X0.335876X-0.017678X-0.017678X0.335876X-0.335876X0.017678X0*%
%ADD42RoundRect,0.200000X0.275000X-0.200000X0.275000X0.200000X-0.275000X0.200000X-0.275000X-0.200000X0*%
%ADD43RoundRect,0.160000X-0.195000X-0.160000X0.195000X-0.160000X0.195000X0.160000X-0.195000X0.160000X0*%
%ADD44FreePoly0,0.000000*%
%ADD45RoundRect,0.050000X-0.325000X-0.050000X0.325000X-0.050000X0.325000X0.050000X-0.325000X0.050000X0*%
%ADD46FreePoly1,0.000000*%
%ADD47FreePoly2,0.000000*%
%ADD48RoundRect,0.050000X-0.050000X-0.325000X0.050000X-0.325000X0.050000X0.325000X-0.050000X0.325000X0*%
%ADD49FreePoly3,0.000000*%
%ADD50FreePoly4,0.000000*%
%ADD51FreePoly5,0.000000*%
%ADD52FreePoly6,0.000000*%
%ADD53FreePoly7,0.000000*%
%ADD54RoundRect,0.150000X-0.625000X0.150000X-0.625000X-0.150000X0.625000X-0.150000X0.625000X0.150000X0*%
%ADD55RoundRect,0.250000X-0.650000X0.350000X-0.650000X-0.350000X0.650000X-0.350000X0.650000X0.350000X0*%
%ADD56RoundRect,0.112500X-0.187500X-0.112500X0.187500X-0.112500X0.187500X0.112500X-0.187500X0.112500X0*%
%ADD57RoundRect,0.087500X-0.225000X-0.087500X0.225000X-0.087500X0.225000X0.087500X-0.225000X0.087500X0*%
%ADD58RoundRect,0.087500X-0.087500X-0.225000X0.087500X-0.225000X0.087500X0.225000X-0.087500X0.225000X0*%
%ADD59R,1.600000X5.700000*%
G04 APERTURE END LIST*
D10*
%TO.C,R6*%
X37401000Y17780000D03*
X35751000Y17780000D03*
%TD*%
D11*
%TO.C,C26*%
X15240000Y44209000D03*
X15240000Y42659000D03*
%TD*%
D12*
%TO.C,R19*%
X6604000Y39433000D03*
X6604000Y37783000D03*
%TD*%
D13*
%TO.C,U7*%
X18912000Y44566000D03*
X20712000Y44566000D03*
X18912000Y46366000D03*
X20712000Y46366000D03*
D14*
X18062000Y43028500D03*
X18562000Y43028500D03*
X19062000Y43028500D03*
X19562000Y43028500D03*
X20062000Y43028500D03*
X20562000Y43028500D03*
X21062000Y43028500D03*
X21562000Y43028500D03*
D15*
X22249500Y43716000D03*
X22249500Y44216000D03*
X22249500Y44716000D03*
X22249500Y45216000D03*
X22249500Y45716000D03*
X22249500Y46216000D03*
X22249500Y46716000D03*
X22249500Y47216000D03*
D14*
X21562000Y47903500D03*
X21062000Y47903500D03*
X20562000Y47903500D03*
X20062000Y47903500D03*
X19562000Y47903500D03*
X19062000Y47903500D03*
X18562000Y47903500D03*
X18062000Y47903500D03*
D15*
X17374500Y47216000D03*
X17374500Y46716000D03*
X17374500Y46216000D03*
X17374500Y45716000D03*
X17374500Y45216000D03*
X17374500Y44716000D03*
X17374500Y44216000D03*
X17374500Y43716000D03*
%TD*%
D16*
%TO.C,R4*%
X11036800Y26517600D03*
X12686800Y26517600D03*
%TD*%
D17*
%TO.C,U3*%
X15131700Y66294000D03*
X15131700Y65344000D03*
X15131700Y64394000D03*
X17406700Y64394000D03*
X17406700Y65344000D03*
X17406700Y66294000D03*
%TD*%
D18*
%TO.C,C3*%
X29423992Y16042008D03*
X30520008Y14945992D03*
%TD*%
D19*
%TO.C,U5*%
X27666000Y58533000D03*
X27666000Y59563000D03*
X27666000Y60593000D03*
X26466000Y58533000D03*
X26466000Y59563000D03*
X26466000Y60593000D03*
D20*
X29628500Y57658000D03*
X29628500Y58928000D03*
X29628500Y60198000D03*
X29628500Y61468000D03*
X24503500Y61468000D03*
X24503500Y60198000D03*
X24503500Y58928000D03*
X24503500Y57658000D03*
%TD*%
D21*
%TO.C,C14*%
X20167600Y66408000D03*
X20167600Y67958000D03*
%TD*%
D12*
%TO.C,R27*%
X24130000Y48577000D03*
X24130000Y46927000D03*
%TD*%
D22*
%TO.C,S2*%
X43724000Y46063000D03*
X43724000Y54013000D03*
X48224000Y46063000D03*
X48224000Y54013000D03*
%TD*%
D11*
%TO.C,C29*%
X43434000Y27445000D03*
X43434000Y25895000D03*
%TD*%
D23*
%TO.C,D2*%
X11658500Y9144000D03*
X13233500Y9144000D03*
%TD*%
D24*
%TO.C,C30*%
X36055000Y20828000D03*
X37605000Y20828000D03*
%TD*%
D16*
%TO.C,R22*%
X20257000Y52832000D03*
X21907000Y52832000D03*
%TD*%
D24*
%TO.C,C18*%
X19799000Y29210000D03*
X21349000Y29210000D03*
%TD*%
D10*
%TO.C,R10*%
X9969000Y6096000D03*
X8319000Y6096000D03*
%TD*%
D25*
%TO.C,C6*%
X20868008Y23327992D03*
X19771992Y24424008D03*
%TD*%
D16*
%TO.C,R17*%
X19495000Y56642000D03*
X21145000Y56642000D03*
%TD*%
D26*
%TO.C,Y1*%
X45398000Y12700000D03*
X36898000Y12700000D03*
%TD*%
D27*
%TO.C,D5*%
X7874000Y29244000D03*
X7874000Y27144000D03*
%TD*%
D11*
%TO.C,C16*%
X11201400Y68618400D03*
X11201400Y67068400D03*
%TD*%
%TO.C,C28*%
X24130000Y44717000D03*
X24130000Y43167000D03*
%TD*%
D28*
%TO.C,C5*%
X18582008Y17820008D03*
X17485992Y16723992D03*
%TD*%
D19*
%TO.C,U6*%
X37796000Y58533000D03*
X37796000Y59563000D03*
X37796000Y60593000D03*
X36596000Y58533000D03*
X36596000Y59563000D03*
X36596000Y60593000D03*
D20*
X39758500Y57658000D03*
X39758500Y58928000D03*
X39758500Y60198000D03*
X39758500Y61468000D03*
X34633500Y61468000D03*
X34633500Y60198000D03*
X34633500Y58928000D03*
X34633500Y57658000D03*
%TD*%
D10*
%TO.C,R23*%
X36131000Y55880000D03*
X34481000Y55880000D03*
%TD*%
D24*
%TO.C,C33*%
X36055000Y31750000D03*
X37605000Y31750000D03*
%TD*%
D29*
%TO.C,C11*%
X38367000Y9144000D03*
X36817000Y9144000D03*
%TD*%
D25*
%TO.C,C9*%
X18582008Y23327992D03*
X17485992Y24424008D03*
%TD*%
D10*
%TO.C,R21*%
X25717000Y55880000D03*
X24067000Y55880000D03*
%TD*%
D30*
%TO.C,U8*%
X44541000Y23668000D03*
X44541000Y23068000D03*
D31*
X44866000Y22443000D03*
X45466000Y22443000D03*
X46066000Y22443000D03*
D30*
X46391000Y23068000D03*
X46391000Y23668000D03*
D31*
X46066000Y24293000D03*
X45466000Y24293000D03*
X44866000Y24293000D03*
%TD*%
D10*
%TO.C,R13*%
X47624000Y16256000D03*
X45974000Y16256000D03*
%TD*%
%TO.C,R12*%
X13779000Y47752000D03*
X12129000Y47752000D03*
%TD*%
D32*
%TO.C,J1*%
X2764000Y28940000D03*
D33*
X5464000Y27940000D03*
X5464000Y22940000D03*
D32*
X2764000Y21940000D03*
D34*
X5464000Y26740000D03*
X5464000Y26090000D03*
X5464000Y25440000D03*
X5464000Y24790000D03*
X5464000Y24140000D03*
D35*
X2764000Y28340000D03*
D36*
X2764000Y26440000D03*
X2764000Y24440000D03*
D35*
X2764000Y22540000D03*
%TD*%
D10*
%TO.C,R15*%
X21094200Y64185800D03*
X19444200Y64185800D03*
%TD*%
D24*
%TO.C,C19*%
X14960000Y29210000D03*
X16510000Y29210000D03*
%TD*%
D18*
%TO.C,C2*%
X31455992Y17312008D03*
X32552008Y16215992D03*
%TD*%
D37*
%TO.C,U2*%
X10033000Y14688000D03*
X11303000Y14688000D03*
X12573000Y14688000D03*
X13843000Y14688000D03*
X13843000Y21888000D03*
X12573000Y21888000D03*
X11303000Y21888000D03*
X10033000Y21888000D03*
%TD*%
D38*
%TO.C,U1*%
X23615299Y19363171D03*
X24746670Y18231800D03*
X24746670Y20494542D03*
X25878041Y19363171D03*
D39*
X20477513Y18770969D03*
X20760356Y18488126D03*
X21043198Y18205284D03*
X21326041Y17922441D03*
X21608884Y17639598D03*
X21891726Y17356756D03*
X22174569Y17073913D03*
X22457412Y16791070D03*
X22740255Y16508227D03*
X23023097Y16225385D03*
X23305940Y15942542D03*
X23588783Y15659699D03*
X23871625Y15376857D03*
X24154468Y15094014D03*
D40*
X25338872Y15094014D03*
X25621715Y15376857D03*
X25904557Y15659699D03*
X26187400Y15942542D03*
X26470243Y16225385D03*
X26753085Y16508227D03*
X27035928Y16791070D03*
X27318771Y17073913D03*
X27601614Y17356756D03*
X27884456Y17639598D03*
X28167299Y17922441D03*
X28450142Y18205284D03*
X28732984Y18488126D03*
X29015827Y18770969D03*
D39*
X29015827Y19955373D03*
X28732984Y20238216D03*
X28450142Y20521058D03*
X28167299Y20803901D03*
X27884456Y21086744D03*
X27601614Y21369586D03*
X27318771Y21652429D03*
X27035928Y21935272D03*
X26753085Y22218115D03*
X26470243Y22500957D03*
X26187400Y22783800D03*
X25904557Y23066643D03*
X25621715Y23349485D03*
X25338872Y23632328D03*
D40*
X24154468Y23632328D03*
X23871625Y23349485D03*
X23588783Y23066643D03*
X23305940Y22783800D03*
X23023097Y22500957D03*
X22740255Y22218115D03*
X22457412Y21935272D03*
X22174569Y21652429D03*
X21891726Y21369586D03*
X21608884Y21086744D03*
X21326041Y20803901D03*
X21043198Y20521058D03*
X20760356Y20238216D03*
X20477513Y19955373D03*
%TD*%
D10*
%TO.C,R18*%
X25463000Y9144000D03*
X23813000Y9144000D03*
%TD*%
D41*
%TO.C,C10*%
X24597992Y26629992D03*
X25694008Y27726008D03*
%TD*%
D10*
%TO.C,R1*%
X33591000Y13970000D03*
X31941000Y13970000D03*
%TD*%
%TO.C,R11*%
X9969000Y3048000D03*
X8319000Y3048000D03*
%TD*%
D11*
%TO.C,C17*%
X9652000Y68618400D03*
X9652000Y67068400D03*
%TD*%
D42*
%TO.C,R14*%
X10439400Y70625200D03*
X10439400Y72275200D03*
%TD*%
D10*
%TO.C,R9*%
X9969000Y9144000D03*
X8319000Y9144000D03*
%TD*%
D21*
%TO.C,C21*%
X31750000Y57137000D03*
X31750000Y58687000D03*
%TD*%
D43*
%TO.C,U10*%
X35574000Y35476000D03*
X35574000Y34676000D03*
X36454000Y35476000D03*
X36454000Y34676000D03*
D44*
X34514000Y36076000D03*
D45*
X34514000Y35676000D03*
X34514000Y35276000D03*
X34514000Y34876000D03*
X34514000Y34476000D03*
D46*
X34514000Y34076000D03*
D47*
X35014000Y33576000D03*
D48*
X35414000Y33576000D03*
X35814000Y33576000D03*
X36214000Y33576000D03*
X36614000Y33576000D03*
D49*
X37014000Y33576000D03*
D50*
X37514000Y34076000D03*
D45*
X37514000Y34476000D03*
X37514000Y34876000D03*
X37514000Y35276000D03*
X37514000Y35676000D03*
D51*
X37514000Y36076000D03*
D52*
X37014000Y36576000D03*
D48*
X36614000Y36576000D03*
X36214000Y36576000D03*
X35814000Y36576000D03*
X35414000Y36576000D03*
D53*
X35014000Y36576000D03*
%TD*%
D54*
%TO.C,J9*%
X5399000Y17740000D03*
X5399000Y16740000D03*
X5399000Y15740000D03*
X5399000Y14740000D03*
X5399000Y13740000D03*
X5399000Y12740000D03*
D55*
X1524000Y19040000D03*
X1524000Y11440000D03*
%TD*%
D21*
%TO.C,C32*%
X39624000Y31737000D03*
X39624000Y33287000D03*
%TD*%
D10*
%TO.C,R24*%
X39941000Y42164000D03*
X38291000Y42164000D03*
%TD*%
D29*
%TO.C,C12*%
X45479000Y9144000D03*
X43929000Y9144000D03*
%TD*%
D56*
%TO.C,D6*%
X4538000Y49276000D03*
X6638000Y49276000D03*
%TD*%
D21*
%TO.C,C34*%
X17780000Y6845000D03*
X17780000Y8395000D03*
%TD*%
D42*
%TO.C,R2*%
X44958000Y42355000D03*
X44958000Y44005000D03*
%TD*%
D21*
%TO.C,C20*%
X11430000Y42659000D03*
X11430000Y44209000D03*
%TD*%
D11*
%TO.C,C15*%
X12522200Y65392600D03*
X12522200Y63842600D03*
%TD*%
%TO.C,C23*%
X32004000Y61735000D03*
X32004000Y60185000D03*
%TD*%
D25*
%TO.C,C1*%
X22646008Y25359992D03*
X21549992Y26456008D03*
%TD*%
D11*
%TO.C,C25*%
X44958000Y27445000D03*
X44958000Y25895000D03*
%TD*%
D23*
%TO.C,D4*%
X11658500Y3048000D03*
X13233500Y3048000D03*
%TD*%
D21*
%TO.C,C22*%
X41910000Y57378000D03*
X41910000Y58928000D03*
%TD*%
D42*
%TO.C,R25*%
X48006000Y22289000D03*
X48006000Y23939000D03*
%TD*%
D57*
%TO.C,U9*%
X36937500Y24118000D03*
X36937500Y23618000D03*
X36937500Y23118000D03*
X36937500Y22618000D03*
D58*
X37600000Y22455500D03*
X38100000Y22455500D03*
X38600000Y22455500D03*
D57*
X39262500Y22618000D03*
X39262500Y23118000D03*
X39262500Y23618000D03*
X39262500Y24118000D03*
D58*
X38600000Y24280500D03*
X38100000Y24280500D03*
X37600000Y24280500D03*
%TD*%
D12*
%TO.C,R20*%
X6604000Y35623000D03*
X6604000Y33973000D03*
%TD*%
D16*
%TO.C,R8*%
X12066000Y49276000D03*
X13716000Y49276000D03*
%TD*%
D12*
%TO.C,R28*%
X41148000Y36639000D03*
X41148000Y34989000D03*
%TD*%
D22*
%TO.C,S3*%
X43724000Y56731000D03*
X43724000Y64681000D03*
X48224000Y56731000D03*
X48224000Y64681000D03*
%TD*%
D23*
%TO.C,D1*%
X19532500Y58420000D03*
X21107500Y58420000D03*
%TD*%
D12*
%TO.C,R16*%
X17399000Y62674000D03*
X17399000Y61024000D03*
%TD*%
D16*
%TO.C,R3*%
X11036800Y24993600D03*
X12686800Y24993600D03*
%TD*%
%TO.C,R7*%
X36767000Y26670000D03*
X38417000Y26670000D03*
%TD*%
D41*
%TO.C,C7*%
X29423992Y22565992D03*
X30520008Y23662008D03*
%TD*%
D12*
%TO.C,R5*%
X48260000Y44005000D03*
X48260000Y42355000D03*
%TD*%
D42*
%TO.C,R29*%
X17780000Y3493000D03*
X17780000Y5143000D03*
%TD*%
D11*
%TO.C,C24*%
X41910000Y62497000D03*
X41910000Y60947000D03*
%TD*%
D10*
%TO.C,R26*%
X41719000Y20828000D03*
X40069000Y20828000D03*
%TD*%
D11*
%TO.C,C31*%
X39370000Y36589000D03*
X39370000Y35039000D03*
%TD*%
D41*
%TO.C,C8*%
X25867992Y25359992D03*
X26964008Y26456008D03*
%TD*%
D28*
%TO.C,C4*%
X21884008Y14010008D03*
X20787992Y12913992D03*
%TD*%
D23*
%TO.C,D3*%
X11658500Y6096000D03*
X13233500Y6096000D03*
%TD*%
D11*
%TO.C,C27*%
X40894000Y23889000D03*
X40894000Y22339000D03*
%TD*%
D59*
%TO.C,L1*%
X18021800Y70891400D03*
X13321800Y70891400D03*
%TD*%
D11*
%TO.C,C13*%
X8128000Y21857000D03*
X8128000Y20307000D03*
%TD*%
M02*
