%TF.GenerationSoftware,KiCad,Pcbnew,7.0.2-0*%
%TF.CreationDate,2023-07-08T17:29:12+12:00*%
%TF.ProjectId,RpiFly v3,52706946-6c79-4207-9633-2e6b69636164,rev?*%
%TF.SameCoordinates,PX753dac0PY7a91ee0*%
%TF.FileFunction,Copper,L4,Bot*%
%TF.FilePolarity,Positive*%
%FSLAX46Y46*%
G04 Gerber Fmt 4.6, Leading zero omitted, Abs format (unit mm)*
G04 Created by KiCad (PCBNEW 7.0.2-0) date 2023-07-08 17:29:12*
%MOMM*%
%LPD*%
G01*
G04 APERTURE LIST*
G04 Aperture macros list*
%AMRoundRect*
0 Rectangle with rounded corners*
0 $1 Rounding radius*
0 $2 $3 $4 $5 $6 $7 $8 $9 X,Y pos of 4 corners*
0 Add a 4 corners polygon primitive as box body*
4,1,4,$2,$3,$4,$5,$6,$7,$8,$9,$2,$3,0*
0 Add four circle primitives for the rounded corners*
1,1,$1+$1,$2,$3*
1,1,$1+$1,$4,$5*
1,1,$1+$1,$6,$7*
1,1,$1+$1,$8,$9*
0 Add four rect primitives between the rounded corners*
20,1,$1+$1,$2,$3,$4,$5,0*
20,1,$1+$1,$4,$5,$6,$7,0*
20,1,$1+$1,$6,$7,$8,$9,0*
20,1,$1+$1,$8,$9,$2,$3,0*%
G04 Aperture macros list end*
%TA.AperFunction,ComponentPad*%
%ADD10C,0.600000*%
%TD*%
%TA.AperFunction,SMDPad,CuDef*%
%ADD11R,1.800000X3.100000*%
%TD*%
%TA.AperFunction,ComponentPad*%
%ADD12C,2.200000*%
%TD*%
%TA.AperFunction,ComponentPad*%
%ADD13C,2.286000*%
%TD*%
%TA.AperFunction,ComponentPad*%
%ADD14C,0.800000*%
%TD*%
%TA.AperFunction,ComponentPad*%
%ADD15C,6.400000*%
%TD*%
%TA.AperFunction,ComponentPad*%
%ADD16R,1.700000X1.700000*%
%TD*%
%TA.AperFunction,ComponentPad*%
%ADD17O,1.700000X1.700000*%
%TD*%
%TA.AperFunction,ComponentPad*%
%ADD18RoundRect,0.250000X0.350000X0.625000X-0.350000X0.625000X-0.350000X-0.625000X0.350000X-0.625000X0*%
%TD*%
%TA.AperFunction,ComponentPad*%
%ADD19O,1.200000X1.750000*%
%TD*%
%TA.AperFunction,ComponentPad*%
%ADD20O,1.750000X1.200000*%
%TD*%
%TA.AperFunction,ComponentPad*%
%ADD21RoundRect,0.250000X-0.625000X0.350000X-0.625000X-0.350000X0.625000X-0.350000X0.625000X0.350000X0*%
%TD*%
%TA.AperFunction,ComponentPad*%
%ADD22C,2.000000*%
%TD*%
%TA.AperFunction,ComponentPad*%
%ADD23C,1.700000*%
%TD*%
%TA.AperFunction,ComponentPad*%
%ADD24O,1.550000X0.890000*%
%TD*%
%TA.AperFunction,ComponentPad*%
%ADD25O,0.950000X1.250000*%
%TD*%
%TA.AperFunction,ComponentPad*%
%ADD26R,2.000000X1.905000*%
%TD*%
%TA.AperFunction,ComponentPad*%
%ADD27O,2.000000X1.905000*%
%TD*%
%TA.AperFunction,ComponentPad*%
%ADD28R,2.200000X2.200000*%
%TD*%
%TA.AperFunction,ComponentPad*%
%ADD29O,2.200000X2.200000*%
%TD*%
%TA.AperFunction,ViaPad*%
%ADD30C,0.600000*%
%TD*%
%TA.AperFunction,ViaPad*%
%ADD31C,0.450000*%
%TD*%
%TA.AperFunction,ViaPad*%
%ADD32C,0.500000*%
%TD*%
%TA.AperFunction,ViaPad*%
%ADD33C,0.800000*%
%TD*%
%TA.AperFunction,Conductor*%
%ADD34C,0.120000*%
%TD*%
%TA.AperFunction,Conductor*%
%ADD35C,0.200000*%
%TD*%
%TA.AperFunction,Conductor*%
%ADD36C,0.150000*%
%TD*%
%TA.AperFunction,Conductor*%
%ADD37C,0.300000*%
%TD*%
G04 APERTURE END LIST*
D10*
%TO.P,U5,9*%
%TO.N,N/C*%
X27716000Y58263000D03*
X27716000Y59563000D03*
X27716000Y60863000D03*
D11*
X27066000Y59563000D03*
D10*
X26416000Y58263000D03*
X26416000Y59563000D03*
X26416000Y60863000D03*
%TD*%
%TO.P,U6,9*%
%TO.N,N/C*%
X36546000Y60863000D03*
X37846000Y60863000D03*
X36546000Y59563000D03*
X37846000Y59563000D03*
X36546000Y58263000D03*
X37846000Y58263000D03*
D11*
X37196000Y59563000D03*
%TD*%
D12*
%TO.P,H6,1*%
%TO.N,N/C*%
X2794000Y35560000D03*
%TD*%
%TO.P,H5,1*%
%TO.N,N/C*%
X46990000Y35814000D03*
%TD*%
D13*
%TO.P,BZ1,2,+*%
%TO.N,GND*%
X33528000Y50800000D03*
%TO.P,BZ1,1,-*%
%TO.N,GPIO_11 (BUZZER)*%
X33528000Y45800000D03*
%TD*%
D14*
%TO.P,H2,1*%
%TO.N,GND*%
X43400944Y71200944D03*
X44103888Y72898000D03*
X44103888Y69503888D03*
X45800944Y73600944D03*
D15*
X45800944Y71200944D03*
D14*
X45800944Y68800944D03*
X47498000Y72898000D03*
X47498000Y69503888D03*
X48200944Y71200944D03*
%TD*%
D16*
%TO.P,J4,1,Pin_1*%
%TO.N,+3V3*%
X25146000Y64516000D03*
D17*
%TO.P,J4,2,Pin_2*%
%TO.N,P_SWITCH_2_IN*%
X27686000Y64516000D03*
%TO.P,J4,3,Pin_3*%
%TO.N,/Connectors/P_SWITCH_2_V+*%
X30226000Y64516000D03*
%TD*%
D18*
%TO.P,J6,1,Pin_1*%
%TO.N,/Connectors/P_SWITCH_2_V+*%
X29686000Y68416000D03*
D19*
%TO.P,J6,2,Pin_2*%
%TO.N,GND*%
X27686000Y68416000D03*
%TO.P,J6,3,Pin_3*%
%TO.N,P_SWITCH_2_OUT*%
X25686000Y68416000D03*
%TD*%
D18*
%TO.P,J5,1,Pin_1*%
%TO.N,/Connectors/P_SWITCH_1_V+*%
X38830000Y68416000D03*
D19*
%TO.P,J5,2,Pin_2*%
%TO.N,GND*%
X36830000Y68416000D03*
%TO.P,J5,3,Pin_3*%
%TO.N,P_SWITCH_1_OUT*%
X34830000Y68416000D03*
%TD*%
D20*
%TO.P,J2,2*%
%TO.N,GND*%
X6768000Y43450000D03*
D21*
%TO.P,J2,1*%
%TO.N,VS*%
X6768000Y45450000D03*
%TD*%
D16*
%TO.P,J3,1,Pin_1*%
%TO.N,+3V3*%
X34290000Y64516000D03*
D17*
%TO.P,J3,2,Pin_2*%
%TO.N,P_SWITCH_1_IN*%
X36830000Y64516000D03*
%TO.P,J3,3,Pin_3*%
%TO.N,/Connectors/P_SWITCH_1_V+*%
X39370000Y64516000D03*
%TD*%
D22*
%TO.P,S1,*%
%TO.N,*%
X7338000Y63722000D03*
X1338000Y63722000D03*
X7338000Y51722000D03*
X1338000Y51722000D03*
D23*
%TO.P,S1,1*%
%TO.N,VSS*%
X5588000Y61722000D03*
%TO.P,S1,2*%
%TO.N,Net-(D5-K)*%
X5588000Y57722000D03*
%TO.P,S1,3*%
%TO.N,unconnected-(S1-Pad3)*%
X5588000Y53722000D03*
%TD*%
D24*
%TO.P,J1,6*%
%TO.N,unconnected-(J1-Pad6)*%
X2764000Y28940000D03*
D25*
X5464000Y27940000D03*
X5464000Y22940000D03*
D24*
X2764000Y21940000D03*
%TD*%
D26*
%TO.P,U4,1,GND*%
%TO.N,GND*%
X13122000Y38100000D03*
D27*
%TO.P,U4,2,VO*%
%TO.N,Net-(U4-VO)*%
X13122000Y35560000D03*
%TO.P,U4,3,VI*%
%TO.N,Net-(U4-VI)*%
X13122000Y33020000D03*
%TD*%
D14*
%TO.P,H4,1*%
%TO.N,N/C*%
X43434000Y3950000D03*
X44136944Y5647056D03*
X44136944Y2252944D03*
X45834000Y6350000D03*
D15*
X45834000Y3950000D03*
D14*
X45834000Y1550000D03*
X47531056Y5647056D03*
X47531056Y2252944D03*
X48234000Y3950000D03*
%TD*%
D16*
%TO.P,J7,1,Pin_1*%
%TO.N,Net-(J7-Pin_1)*%
X20838000Y5100000D03*
D17*
%TO.P,J7,2,Pin_2*%
%TO.N,GND*%
X20838000Y2560000D03*
%TO.P,J7,3,Pin_3*%
%TO.N,GPIO_3 (CSN)*%
X23378000Y5100000D03*
%TO.P,J7,4,Pin_4*%
%TO.N,GPIO_5 (CE)*%
X23378000Y2560000D03*
%TO.P,J7,5,Pin_5*%
%TO.N,GPIO_7 (MOSI)*%
X25918000Y5100000D03*
%TO.P,J7,6,Pin_6*%
%TO.N,GPIO_6 (SCK)*%
X25918000Y2560000D03*
%TO.P,J7,7,Pin_7*%
%TO.N,GPIO_2 (IRQ)*%
X28458000Y5100000D03*
%TO.P,J7,8,Pin_8*%
%TO.N,GPIO_4 (MISO)*%
X28458000Y2560000D03*
%TD*%
D14*
%TO.P,H1,1*%
%TO.N,GND*%
X6096000Y71120000D03*
X5393056Y72817056D03*
X5393056Y69422944D03*
X3696000Y73520000D03*
D15*
X3696000Y71120000D03*
D14*
X3696000Y68720000D03*
X1998944Y72817056D03*
X1998944Y69422944D03*
X1296000Y71120000D03*
%TD*%
D28*
%TO.P,D7,1,K*%
%TO.N,VSS*%
X9144000Y39370000D03*
D29*
%TO.P,D7,2,A*%
%TO.N,GND*%
X9144000Y31750000D03*
%TD*%
D14*
%TO.P,H3,1*%
%TO.N,N/C*%
X1664000Y4064000D03*
X2366944Y5761056D03*
X2366944Y2366944D03*
X4064000Y6464000D03*
D15*
X4064000Y4064000D03*
D14*
X4064000Y1664000D03*
X5761056Y5761056D03*
X5761056Y2366944D03*
X6464000Y4064000D03*
%TD*%
D16*
%TO.P,J8,1,Pin_1*%
%TO.N,GND*%
X32522000Y5080000D03*
D17*
%TO.P,J8,2,Pin_2*%
%TO.N,+3V3*%
X32522000Y2540000D03*
%TO.P,J8,3,Pin_3*%
%TO.N,GPIO_ADC0 (OUT 5)*%
X35062000Y5080000D03*
%TO.P,J8,4,Pin_4*%
%TO.N,+3.3VA*%
X35062000Y2540000D03*
%TO.P,J8,5,Pin_5*%
%TO.N,GPIO_15 (OUT 4)*%
X37602000Y5080000D03*
%TO.P,J8,6,Pin_6*%
%TO.N,GPIO_12 (OUT 1)*%
X37602000Y2540000D03*
%TO.P,J8,7,Pin_7*%
%TO.N,GPIO_14 (OUT 3)*%
X40142000Y5080000D03*
%TO.P,J8,8,Pin_8*%
%TO.N,GPIO_13 (OUT 2)*%
X40142000Y2540000D03*
%TD*%
D30*
%TO.N,GND*%
X10414000Y52832000D03*
X12446000Y18796000D03*
X33020000Y10922000D03*
D31*
X28194000Y14224000D03*
D30*
%TO.N,/RUN*%
X48260000Y55372000D03*
D31*
%TO.N,SWCLK*%
X28684000Y16974000D03*
%TO.N,GND*%
X40184000Y16644000D03*
%TO.N,SWD*%
X30141307Y17275784D03*
%TO.N,/RUN*%
X30734000Y18288000D03*
%TO.N,GPIO_3 (CSN)*%
X15494000Y3810000D03*
D30*
%TO.N,/QSPI_SS*%
X12700000Y12446000D03*
%TO.N,SWD*%
X7366000Y12192000D03*
%TO.N,SWCLK*%
X7366000Y13970000D03*
%TO.N,GND*%
X3810000Y15240000D03*
D31*
%TO.N,GPIO_10 (LED)*%
X24638000Y13970000D03*
%TO.N,GPIO_8 (LED)*%
X23114000Y13462000D03*
%TO.N,GPIO_9 (LED)*%
X23876000Y13716000D03*
%TO.N,GND*%
X19050000Y41656000D03*
%TO.N,+3V3*%
X19304000Y18796000D03*
%TO.N,+1V1*%
X24130000Y16764000D03*
X26924000Y18034000D03*
%TO.N,GPIO_ADC0 (OUT 5)*%
X28194000Y19558000D03*
%TO.N,GPIO_11 (BUZZER)*%
X25146000Y22098000D03*
%TO.N,GND*%
X38608000Y31750000D03*
X40132000Y34290000D03*
%TO.N,+3V3*%
X41164500Y37575500D03*
%TO.N,GPIO_22 (PSWITCH 1)*%
X41148000Y59944000D03*
%TO.N,GPIO_23 (PSENSE 1)*%
X33274000Y60198000D03*
%TO.N,GPIO_24 (PSWITCH 2)*%
X30988000Y60198000D03*
D30*
%TO.N,GPIO_25 (PSENSE 2)*%
X23114000Y60198000D03*
%TO.N,GND*%
X29718000Y56134000D03*
%TO.N,+3V3*%
X11176000Y48514000D03*
%TO.N,GND*%
X16764000Y41910000D03*
X1016000Y57658000D03*
X1778000Y44450000D03*
%TO.N,+3V3*%
X20320000Y51562000D03*
%TO.N,GPIO_25 (PSENSE 2)*%
X23114000Y52832000D03*
%TO.N,GND*%
X43688000Y60706000D03*
X39878000Y53848000D03*
X37084000Y55880000D03*
X41910000Y56388000D03*
X43688000Y50038000D03*
%TO.N,/QSPI_SS*%
X46736000Y41148000D03*
%TO.N,+3V3*%
X43434000Y44450000D03*
X39878000Y43180000D03*
%TO.N,GPIO_23 (PSENSE 1)*%
X37338000Y42164000D03*
%TO.N,GND*%
X46482000Y25146000D03*
X47244000Y28956000D03*
X34798000Y27940000D03*
X42418000Y27432000D03*
%TO.N,+3V3*%
X39370000Y26670000D03*
%TO.N,GND*%
X35814000Y23114000D03*
X38862000Y21590000D03*
X40894000Y24892000D03*
%TO.N,+3V3*%
X42672000Y20828000D03*
%TO.N,GND*%
X43942000Y21082000D03*
X46482000Y21082000D03*
%TO.N,+3V3*%
X47752000Y21082000D03*
X38354000Y17526000D03*
%TO.N,GND*%
X32258000Y19050000D03*
X31750000Y15494000D03*
%TO.N,+3V3*%
X30734000Y16256000D03*
%TO.N,GND*%
X41148000Y9144000D03*
X41148000Y12700000D03*
%TO.N,/RUN*%
X45974000Y17272000D03*
%TO.N,GND*%
X44196000Y17018000D03*
%TO.N,+3V3*%
X48768000Y16256000D03*
%TO.N,GND*%
X48768000Y12700000D03*
X48768000Y7366000D03*
%TO.N,+3.3VA*%
X29718000Y762000D03*
%TO.N,GND*%
X29210000Y8128000D03*
%TO.N,+3.3VA*%
X22900233Y9103767D03*
X22352000Y9652000D03*
%TO.N,+3V3*%
X27432000Y9144000D03*
X26416000Y9144000D03*
%TO.N,GND*%
X25146000Y11430000D03*
X20574000Y11684000D03*
X20066000Y7112000D03*
X17780000Y9398000D03*
%TO.N,+3.3VA*%
X17780000Y2540000D03*
%TO.N,GND*%
X10160000Y1016000D03*
%TO.N,GPIO_10 (LED)*%
X14224000Y3048000D03*
%TO.N,GPIO_9 (LED)*%
X14224000Y6096000D03*
%TO.N,GPIO_8 (LED)*%
X14224000Y9144000D03*
%TO.N,GND*%
X6858000Y9144000D03*
%TO.N,+3.3VA*%
X3810000Y9398000D03*
%TO.N,GND*%
X1270000Y15240000D03*
X31496000Y33274000D03*
X27940000Y33274000D03*
X47244000Y31496000D03*
%TO.N,+3V3*%
X47244000Y39624000D03*
%TO.N,GND*%
X36830000Y72898000D03*
X27686000Y72898000D03*
X3810000Y66040000D03*
X15240000Y74422000D03*
X12192000Y66294000D03*
X9906000Y65786000D03*
X13208000Y66294000D03*
%TO.N,Net-(D1-A)*%
X21082000Y65278000D03*
%TO.N,GND*%
X22352000Y56642000D03*
X26670000Y55880000D03*
X24130000Y45720000D03*
%TO.N,+3V3*%
X24130000Y49530000D03*
%TO.N,GND*%
X19558000Y49276000D03*
X29464000Y45720000D03*
X22352000Y33274000D03*
X26162000Y39116000D03*
X22352000Y39116000D03*
X18542000Y33274000D03*
X18542000Y37338000D03*
X1778000Y32258000D03*
X1778000Y38608000D03*
X13208000Y28956000D03*
%TO.N,+3.3VA*%
X5588000Y33782000D03*
X5588000Y32766000D03*
%TO.N,Net-(U4-VO)*%
X6604000Y36576000D03*
X5651000Y35623000D03*
%TO.N,GND*%
X41910000Y762000D03*
X7620000Y73914000D03*
X11430000Y45466000D03*
X8128000Y18796000D03*
D32*
X26060400Y19354800D03*
X16205200Y61036200D03*
X7620000Y24130000D03*
X24739600Y18034000D03*
X20828000Y27178000D03*
X18542000Y46482000D03*
X26416000Y28448000D03*
X22352000Y29210000D03*
X30480000Y25146000D03*
X21082000Y44450000D03*
X14732000Y14732000D03*
X24739600Y20828000D03*
X21082000Y46482000D03*
X16256000Y24424008D03*
X17526000Y29210000D03*
X16764000Y16002000D03*
X23368000Y19354800D03*
X27686000Y27178000D03*
X6858000Y24140000D03*
X18542000Y44450000D03*
%TO.N,+3V3*%
X19812000Y23114000D03*
X18796000Y29210000D03*
D33*
X9474200Y73482200D03*
X11252200Y73482200D03*
X10363200Y73482200D03*
D32*
X8128000Y23114000D03*
X29337353Y21462647D03*
X24307800Y25222200D03*
%TO.N,GPIO_25 (PSENSE 2)*%
X28829000Y28829000D03*
%TO.N,GPIO_23 (PSENSE 1)*%
X30226000Y27686000D03*
%TO.N,GPIO_22 (PSWITCH 1)*%
X30734000Y26670000D03*
%TO.N,GPIO_24 (PSWITCH 2)*%
X29464000Y28194000D03*
%TO.N,Net-(D1-A)*%
X11582400Y69723000D03*
%TD*%
D34*
%TO.N,SWD*%
X30141307Y17275784D02*
X29768045Y17275784D01*
X29768045Y17275784D02*
X27176261Y14684000D01*
X27176261Y14684000D02*
X21507762Y14684000D01*
X8971000Y10587000D02*
X7366000Y12192000D01*
X17410762Y10587000D02*
X8971000Y10587000D01*
X21507762Y14684000D02*
X17410762Y10587000D01*
D35*
%TO.N,/RUN*%
X48514000Y24638000D02*
X48768000Y24892000D01*
X48768000Y24892000D02*
X48768000Y54864000D01*
X48768000Y54864000D02*
X48260000Y55372000D01*
D36*
%TO.N,SWCLK*%
X28684000Y16974000D02*
X26950000Y15240000D01*
X17272000Y10922000D02*
X10414000Y10922000D01*
X26950000Y15240000D02*
X21590000Y15240000D01*
X21590000Y15240000D02*
X17272000Y10922000D01*
X10414000Y10922000D02*
X7366000Y13970000D01*
D37*
%TO.N,/QSPI_SS*%
X46736000Y41148000D02*
X46130529Y41148000D01*
X46130529Y41148000D02*
X30728529Y25746000D01*
X30728529Y25746000D02*
X30231471Y25746000D01*
X30231471Y25746000D02*
X29880000Y25394529D01*
X29880000Y25394529D02*
X29880000Y24131040D01*
X29880000Y24131040D02*
X17940960Y12192000D01*
X17940960Y12192000D02*
X12954000Y12192000D01*
X12954000Y12192000D02*
X12700000Y12446000D01*
D36*
%TO.N,GPIO_8 (LED)*%
X23114000Y13462000D02*
X23114000Y12954000D01*
X23114000Y12954000D02*
X20320000Y10160000D01*
X20320000Y10160000D02*
X20303000Y10177000D01*
X20303000Y10177000D02*
X15257000Y10177000D01*
X15257000Y10177000D02*
X14224000Y9144000D01*
D37*
%TO.N,GPIO_11 (BUZZER)*%
X25146000Y35814000D02*
X25146000Y22098000D01*
X33528000Y44196000D02*
X25146000Y35814000D01*
X33528000Y45800000D02*
X33528000Y44196000D01*
D36*
%TO.N,+1V1*%
X25654000Y16764000D02*
X24130000Y16764000D01*
X26924000Y18034000D02*
X25654000Y16764000D01*
%TO.N,GPIO_9 (LED)*%
X24130000Y13462000D02*
X24130000Y13298248D01*
X24130000Y13298248D02*
X16927752Y6096000D01*
X23876000Y13716000D02*
X24130000Y13462000D01*
X16927752Y6096000D02*
X14224000Y6096000D01*
%TO.N,GPIO_10 (LED)*%
X24638000Y13970000D02*
X24638000Y12954000D01*
X14732000Y4572000D02*
X14224000Y4064000D01*
X24638000Y12954000D02*
X16256000Y4572000D01*
X16256000Y4572000D02*
X14732000Y4572000D01*
X14224000Y4064000D02*
X14224000Y3048000D01*
%TO.N,GPIO_ADC0 (OUT 5)*%
X28194000Y19558000D02*
X28565491Y19558000D01*
X35062000Y13061491D02*
X35062000Y5080000D01*
X28565491Y19558000D02*
X35062000Y13061491D01*
%TO.N,GPIO_3 (CSN)*%
X22088000Y3810000D02*
X23378000Y5100000D01*
X15494000Y3810000D02*
X22088000Y3810000D01*
D34*
%TO.N,/RUN*%
X48516000Y24636000D02*
X48514000Y24638000D01*
D35*
X30736000Y18290000D02*
X45974000Y18290000D01*
X45974000Y18290000D02*
X46734000Y18290000D01*
X45974000Y18290000D02*
X45974000Y17272000D01*
X46736000Y18288000D02*
X48260000Y19812000D01*
D34*
X48260000Y19812000D02*
X48516000Y20068000D01*
X30734000Y18288000D02*
X30736000Y18290000D01*
X46734000Y18290000D02*
X46736000Y18288000D01*
D35*
X48516000Y20068000D02*
X48516000Y24636000D01*
%TO.N,GPIO_25 (PSENSE 2)*%
X27898000Y48048000D02*
X23114000Y52832000D01*
X23114000Y52832000D02*
X23114000Y60198000D01*
X35560000Y35560000D02*
X35560000Y46228000D01*
X33740000Y48048000D02*
X27898000Y48048000D01*
X28829000Y28829000D02*
X35560000Y35560000D01*
X35560000Y46228000D02*
X33740000Y48048000D01*
%TO.N,GPIO_23 (PSENSE 1)*%
X36830000Y34486314D02*
X36830000Y42164000D01*
X36830000Y42164000D02*
X37338000Y42164000D01*
X30226000Y27882314D02*
X36830000Y34486314D01*
X36830000Y42164000D02*
X36830000Y54864000D01*
X30226000Y27686000D02*
X30226000Y27882314D01*
X36830000Y54864000D02*
X33274000Y58420000D01*
X33274000Y58420000D02*
X33274000Y60198000D01*
%TO.N,GPIO_22 (PSWITCH 1)*%
X41130141Y38844141D02*
X41130141Y59907729D01*
X40640000Y36576000D02*
X40640000Y38354000D01*
X30734000Y26670000D02*
X40640000Y36576000D01*
X40640000Y38354000D02*
X41130141Y38844141D01*
%TO.N,GPIO_24 (PSWITCH 2)*%
X30988000Y57150000D02*
X30988000Y60198000D01*
X36322000Y35052000D02*
X36322000Y51816000D01*
X36322000Y51816000D02*
X30988000Y57150000D01*
X29464000Y28194000D02*
X36322000Y35052000D01*
%TO.N,Net-(D1-A)*%
X15900400Y65227200D02*
X21082000Y65227200D01*
X11582400Y69723000D02*
X11582400Y69545200D01*
X11582400Y69545200D02*
X15900400Y65227200D01*
%TD*%
%TA.AperFunction,Conductor*%
%TO.N,GND*%
G36*
X44747096Y74963815D02*
G01*
X44792851Y74911011D01*
X44802795Y74841853D01*
X44773770Y74778297D01*
X44714992Y74740523D01*
X44712150Y74739725D01*
X44659140Y74725522D01*
X44652988Y74723523D01*
X44296984Y74586865D01*
X44291060Y74584228D01*
X43951298Y74411111D01*
X43945677Y74407865D01*
X43625883Y74200188D01*
X43620634Y74196374D01*
X43365592Y73989848D01*
X44263250Y73092190D01*
X44201433Y73133495D01*
X44128512Y73148000D01*
X44079264Y73148000D01*
X44006343Y73133495D01*
X43923648Y73078240D01*
X43868393Y72995545D01*
X43848990Y72898000D01*
X43868393Y72800455D01*
X43909696Y72738640D01*
X43012040Y73636296D01*
X42805514Y73381254D01*
X42801700Y73376005D01*
X42594023Y73056211D01*
X42590777Y73050590D01*
X42417660Y72710828D01*
X42415023Y72704904D01*
X42278365Y72348900D01*
X42276366Y72342747D01*
X42177670Y71974407D01*
X42176322Y71968065D01*
X42116670Y71591436D01*
X42115993Y71584993D01*
X42096036Y71204188D01*
X42096036Y71197701D01*
X42115993Y70816896D01*
X42116670Y70810453D01*
X42176322Y70433824D01*
X42177670Y70427482D01*
X42276366Y70059142D01*
X42278365Y70052989D01*
X42415023Y69696985D01*
X42417660Y69691061D01*
X42590777Y69351299D01*
X42594023Y69345678D01*
X42801701Y69025883D01*
X42805525Y69020619D01*
X43012039Y68765594D01*
X43012040Y68765594D01*
X43909700Y69663255D01*
X43868393Y69601433D01*
X43848990Y69503888D01*
X43868393Y69406343D01*
X43923648Y69323648D01*
X44006343Y69268393D01*
X44079264Y69253888D01*
X44128512Y69253888D01*
X44201433Y69268393D01*
X44263248Y69309697D01*
X43365592Y68412041D01*
X43365593Y68412040D01*
X43620618Y68205526D01*
X43625882Y68201702D01*
X43945677Y67994024D01*
X43951298Y67990778D01*
X44291060Y67817661D01*
X44296984Y67815024D01*
X44652988Y67678366D01*
X44659141Y67676367D01*
X45027481Y67577671D01*
X45033823Y67576323D01*
X45410452Y67516671D01*
X45416895Y67515994D01*
X45797700Y67496036D01*
X45804188Y67496036D01*
X46184992Y67515994D01*
X46191435Y67516671D01*
X46568064Y67576323D01*
X46574406Y67577671D01*
X46942746Y67676367D01*
X46948899Y67678366D01*
X47304903Y67815024D01*
X47310827Y67817661D01*
X47650589Y67990778D01*
X47656210Y67994024D01*
X47976005Y68201702D01*
X47981259Y68205519D01*
X48236293Y68412042D01*
X47338635Y69309700D01*
X47400455Y69268393D01*
X47473376Y69253888D01*
X47522624Y69253888D01*
X47595545Y69268393D01*
X47678240Y69323648D01*
X47733495Y69406343D01*
X47752898Y69503888D01*
X47733495Y69601433D01*
X47692188Y69663253D01*
X48589846Y68765595D01*
X48796369Y69020629D01*
X48800186Y69025883D01*
X49007864Y69345678D01*
X49011110Y69351299D01*
X49184227Y69691061D01*
X49186864Y69696985D01*
X49323522Y70052989D01*
X49325521Y70059141D01*
X49339725Y70112150D01*
X49376090Y70171811D01*
X49438937Y70202340D01*
X49508312Y70194045D01*
X49562190Y70149560D01*
X49583465Y70083008D01*
X49583500Y70080057D01*
X49583500Y55087782D01*
X49563815Y55020743D01*
X49511011Y54974988D01*
X49441853Y54965044D01*
X49378297Y54994069D01*
X49344939Y55040329D01*
X49292536Y55166841D01*
X49220450Y55260786D01*
X49220448Y55260788D01*
X49196282Y55292282D01*
X49171237Y55311500D01*
X49159042Y55322195D01*
X49090700Y55390537D01*
X49057215Y55451860D01*
X49055161Y55464335D01*
X49045368Y55551252D01*
X49045368Y55551255D01*
X48985789Y55721522D01*
X48889816Y55874262D01*
X48889815Y55874263D01*
X48889814Y55874265D01*
X48762264Y56001815D01*
X48699867Y56041022D01*
X48609522Y56097789D01*
X48439255Y56157368D01*
X48439253Y56157369D01*
X48439251Y56157369D01*
X48260000Y56177566D01*
X48080748Y56157369D01*
X48080745Y56157369D01*
X48080745Y56157368D01*
X47910478Y56097789D01*
X47910476Y56097789D01*
X47910476Y56097788D01*
X47757735Y56001815D01*
X47630185Y55874265D01*
X47534212Y55721524D01*
X47474631Y55551252D01*
X47454434Y55372000D01*
X47474631Y55192749D01*
X47474631Y55192747D01*
X47474632Y55192745D01*
X47534211Y55022478D01*
X47550909Y54995903D01*
X47630185Y54869736D01*
X47757735Y54742186D01*
X47757737Y54742185D01*
X47757738Y54742184D01*
X47910478Y54646211D01*
X48080745Y54586632D01*
X48080748Y54586632D01*
X48084454Y54585335D01*
X48141230Y54544613D01*
X48166978Y54479660D01*
X48167500Y54468293D01*
X48167500Y40089281D01*
X48147815Y40022242D01*
X48095011Y39976487D01*
X48025853Y39966543D01*
X47962297Y39995568D01*
X47938506Y40023309D01*
X47873815Y40126264D01*
X47746264Y40253815D01*
X47683867Y40293022D01*
X47593522Y40349789D01*
X47423255Y40409368D01*
X47423253Y40409369D01*
X47423251Y40409369D01*
X47415066Y40410291D01*
X47350653Y40437358D01*
X47311098Y40494953D01*
X47308961Y40564790D01*
X47341269Y40621192D01*
X47365816Y40645738D01*
X47461789Y40798478D01*
X47521368Y40968745D01*
X47541565Y41148000D01*
X47521368Y41327255D01*
X47461789Y41497522D01*
X47365816Y41650262D01*
X47365815Y41650263D01*
X47365814Y41650265D01*
X47238264Y41777815D01*
X47175096Y41817506D01*
X47085522Y41873789D01*
X46915255Y41933368D01*
X46915253Y41933369D01*
X46915251Y41933369D01*
X46736000Y41953566D01*
X46556748Y41933369D01*
X46556745Y41933369D01*
X46556745Y41933368D01*
X46386478Y41873789D01*
X46386476Y41873789D01*
X46386476Y41873788D01*
X46296904Y41817506D01*
X46230932Y41798500D01*
X46216033Y41798500D01*
X46194823Y41800842D01*
X46122266Y41798561D01*
X46118371Y41798500D01*
X46089604Y41798500D01*
X46085742Y41798013D01*
X46085721Y41798011D01*
X46085210Y41797946D01*
X46073588Y41797032D01*
X46027959Y41795598D01*
X46007580Y41789677D01*
X45988536Y41785733D01*
X45974168Y41783918D01*
X45967470Y41783071D01*
X45925019Y41766264D01*
X45913972Y41762482D01*
X45870127Y41749744D01*
X45851859Y41738940D01*
X45834393Y41730383D01*
X45814658Y41722569D01*
X45777731Y41695740D01*
X45767971Y41689329D01*
X45728665Y41666083D01*
X45713654Y41651072D01*
X45698865Y41638442D01*
X45681693Y41625966D01*
X45652586Y41590782D01*
X45644725Y41582144D01*
X41983392Y37920811D01*
X41922069Y37887326D01*
X41852377Y37892310D01*
X41796444Y37934182D01*
X41790727Y37942506D01*
X41735308Y38030704D01*
X41619704Y38146308D01*
X41543820Y38193990D01*
X41497531Y38246322D01*
X41486883Y38315375D01*
X41515258Y38379224D01*
X41534305Y38397354D01*
X41558423Y38415859D01*
X41654677Y38541300D01*
X41715185Y38687379D01*
X41715184Y38687380D01*
X41718276Y38694843D01*
X41717856Y38707677D01*
X41735823Y38844141D01*
X41731702Y38875444D01*
X41730641Y38891629D01*
X41730641Y44450001D01*
X42628434Y44450001D01*
X42648631Y44270749D01*
X42648631Y44270747D01*
X42648632Y44270745D01*
X42708211Y44100478D01*
X42708212Y44100477D01*
X42804185Y43947736D01*
X42931735Y43820186D01*
X42931737Y43820185D01*
X42931738Y43820184D01*
X43084478Y43724211D01*
X43254745Y43664632D01*
X43434000Y43644435D01*
X43613255Y43664632D01*
X43783522Y43724211D01*
X43936262Y43820184D01*
X44063816Y43947738D01*
X44159789Y44100478D01*
X44219368Y44270745D01*
X44239565Y44450000D01*
X44238585Y44458694D01*
X44219368Y44629252D01*
X44219368Y44629255D01*
X44159789Y44799522D01*
X44063816Y44952262D01*
X44063815Y44952263D01*
X44063814Y44952265D01*
X43936264Y45079815D01*
X43873867Y45119021D01*
X43783522Y45175789D01*
X43613255Y45235368D01*
X43613253Y45235369D01*
X43613251Y45235369D01*
X43434000Y45255566D01*
X43254748Y45235369D01*
X43254745Y45235369D01*
X43254745Y45235368D01*
X43084478Y45175789D01*
X43084476Y45175789D01*
X43084476Y45175788D01*
X42931735Y45079815D01*
X42804185Y44952265D01*
X42727982Y44830988D01*
X42708211Y44799522D01*
X42669844Y44689875D01*
X42648631Y44629252D01*
X42628434Y44450001D01*
X41730641Y44450001D01*
X41730641Y59471906D01*
X41749647Y59537878D01*
X41805789Y59627225D01*
X41859786Y59781539D01*
X41878091Y59944000D01*
X41859786Y60106461D01*
X41805789Y60260775D01*
X41718808Y60399204D01*
X41603204Y60514808D01*
X41464775Y60601789D01*
X41464772Y60601791D01*
X41310461Y60655787D01*
X41148000Y60674092D01*
X40985538Y60655787D01*
X40831227Y60601791D01*
X40692794Y60514807D01*
X40577193Y60399206D01*
X40490209Y60260773D01*
X40436213Y60106462D01*
X40417908Y59944000D01*
X40436213Y59781539D01*
X40490209Y59627228D01*
X40510635Y59594721D01*
X40529641Y59528749D01*
X40529641Y43940317D01*
X40509956Y43873278D01*
X40457152Y43827523D01*
X40387994Y43817579D01*
X40339670Y43835323D01*
X40227525Y43905787D01*
X40227522Y43905789D01*
X40057255Y43965368D01*
X40057253Y43965369D01*
X40057251Y43965369D01*
X39878000Y43985566D01*
X39698748Y43965369D01*
X39698745Y43965369D01*
X39698745Y43965368D01*
X39528478Y43905789D01*
X39528476Y43905789D01*
X39528476Y43905788D01*
X39375735Y43809815D01*
X39248185Y43682265D01*
X39160887Y43543330D01*
X39152211Y43529522D01*
X39092632Y43359255D01*
X39092631Y43359252D01*
X39072434Y43180000D01*
X39092631Y43000749D01*
X39092631Y43000747D01*
X39092632Y43000745D01*
X39152211Y42830478D01*
X39175248Y42793815D01*
X39248185Y42677736D01*
X39375735Y42550186D01*
X39375737Y42550185D01*
X39375738Y42550184D01*
X39528478Y42454211D01*
X39698745Y42394632D01*
X39878000Y42374435D01*
X40057255Y42394632D01*
X40227522Y42454211D01*
X40339669Y42524679D01*
X40406906Y42543678D01*
X40473741Y42523310D01*
X40518955Y42470042D01*
X40529641Y42419684D01*
X40529641Y39144240D01*
X40509956Y39077201D01*
X40493322Y39056559D01*
X40248965Y38812202D01*
X40236773Y38801509D01*
X40211718Y38782283D01*
X40187550Y38750785D01*
X40115462Y38656839D01*
X40054956Y38510763D01*
X40034317Y38354001D01*
X40038439Y38322699D01*
X40039500Y38306513D01*
X40039500Y36876098D01*
X40019815Y36809059D01*
X40003181Y36788417D01*
X37644357Y34429593D01*
X37583034Y34396108D01*
X37513342Y34401092D01*
X37457409Y34442964D01*
X37433737Y34501089D01*
X37431561Y34517618D01*
X37430500Y34533803D01*
X37430500Y41260293D01*
X37450185Y41327332D01*
X37502989Y41373087D01*
X37513546Y41377335D01*
X37517251Y41378632D01*
X37517255Y41378632D01*
X37687522Y41438211D01*
X37840262Y41534184D01*
X37967816Y41661738D01*
X38063789Y41814478D01*
X38123368Y41984745D01*
X38143565Y42164000D01*
X38123368Y42343255D01*
X38063789Y42513522D01*
X37967816Y42666262D01*
X37967815Y42666263D01*
X37967814Y42666265D01*
X37840264Y42793815D01*
X37687519Y42889791D01*
X37513545Y42950667D01*
X37456769Y42991388D01*
X37431022Y43056341D01*
X37430500Y43067708D01*
X37430500Y54816513D01*
X37431561Y54832699D01*
X37435682Y54864001D01*
X37432964Y54884639D01*
X37415044Y55020762D01*
X37354536Y55166841D01*
X37334656Y55192749D01*
X37282450Y55260786D01*
X37258282Y55292282D01*
X37233229Y55311506D01*
X37221035Y55322200D01*
X34280235Y58263000D01*
X35740434Y58263000D01*
X35760631Y58083746D01*
X35788675Y58003599D01*
X35795455Y57969291D01*
X35795500Y57968437D01*
X35795501Y57965128D01*
X35801909Y57905517D01*
X35852204Y57770669D01*
X35938454Y57655454D01*
X36053669Y57569204D01*
X36188517Y57518909D01*
X36248127Y57512500D01*
X36251473Y57512501D01*
X36252279Y57512457D01*
X36286600Y57505677D01*
X36366745Y57477632D01*
X36546000Y57457435D01*
X36725255Y57477632D01*
X36805014Y57505542D01*
X36845971Y57512501D01*
X37546025Y57512501D01*
X37586979Y57505543D01*
X37610693Y57497246D01*
X37666745Y57477632D01*
X37846000Y57457435D01*
X38025255Y57477632D01*
X38105397Y57505676D01*
X38139720Y57512457D01*
X38140540Y57512501D01*
X38143872Y57512501D01*
X38203483Y57518909D01*
X38338331Y57569204D01*
X38453546Y57655454D01*
X38539796Y57770669D01*
X38590091Y57905517D01*
X38596500Y57965127D01*
X38596499Y57968475D01*
X38596543Y57969279D01*
X38603323Y58003600D01*
X38631368Y58083745D01*
X38651565Y58263000D01*
X38631368Y58442255D01*
X38603458Y58522016D01*
X38596499Y58562971D01*
X38596499Y59263030D01*
X38603457Y59303983D01*
X38631368Y59383745D01*
X38651565Y59563000D01*
X38631368Y59742255D01*
X38603455Y59822023D01*
X38596499Y59862967D01*
X38596499Y60563035D01*
X38603455Y60603976D01*
X38631368Y60683745D01*
X38651565Y60863000D01*
X38631368Y61042255D01*
X38603323Y61122401D01*
X38596542Y61156733D01*
X38596499Y61157537D01*
X38596499Y61160872D01*
X38590091Y61220483D01*
X38539796Y61355331D01*
X38453546Y61470546D01*
X38338331Y61556796D01*
X38203483Y61607091D01*
X38143873Y61613500D01*
X38140575Y61613500D01*
X38139699Y61613547D01*
X38105398Y61620326D01*
X38025254Y61648369D01*
X37846000Y61668566D01*
X37666747Y61648369D01*
X37586982Y61620458D01*
X37546028Y61613500D01*
X36845973Y61613500D01*
X36805019Y61620458D01*
X36725253Y61648369D01*
X36546000Y61668566D01*
X36366743Y61648369D01*
X36286596Y61620325D01*
X36252290Y61613545D01*
X36251435Y61613500D01*
X36248128Y61613499D01*
X36244835Y61613146D01*
X36244834Y61613145D01*
X36188515Y61607091D01*
X36053669Y61556796D01*
X35938454Y61470546D01*
X35852204Y61355332D01*
X35801910Y61220485D01*
X35801909Y61220483D01*
X35795500Y61160873D01*
X35795500Y61157576D01*
X35795453Y61156700D01*
X35788674Y61122399D01*
X35760631Y61042255D01*
X35740434Y60863000D01*
X35760631Y60683746D01*
X35788541Y60603982D01*
X35795499Y60563029D01*
X35795499Y59862973D01*
X35788541Y59822021D01*
X35760631Y59742257D01*
X35740434Y59563000D01*
X35760631Y59383748D01*
X35788542Y59303983D01*
X35795500Y59263029D01*
X35795500Y58562974D01*
X35788542Y58522021D01*
X35760631Y58442255D01*
X35740434Y58263000D01*
X34280235Y58263000D01*
X33910819Y58632416D01*
X33877334Y58693739D01*
X33874500Y58720097D01*
X33874500Y59754327D01*
X33893506Y59820299D01*
X33894585Y59822016D01*
X33931789Y59881225D01*
X33985786Y60035539D01*
X34004091Y60198000D01*
X33985786Y60360461D01*
X33983728Y60366341D01*
X33931790Y60514773D01*
X33931768Y60514808D01*
X33844808Y60653204D01*
X33729204Y60768808D01*
X33590775Y60855789D01*
X33590772Y60855791D01*
X33436461Y60909787D01*
X33273999Y60928092D01*
X33111538Y60909787D01*
X32957227Y60855791D01*
X32818794Y60768807D01*
X32703193Y60653206D01*
X32616209Y60514773D01*
X32562213Y60360462D01*
X32543908Y60198000D01*
X32562213Y60035539D01*
X32616209Y59881228D01*
X32654494Y59820299D01*
X32673500Y59754327D01*
X32673500Y58467489D01*
X32672439Y58451304D01*
X32668317Y58420001D01*
X32683220Y58306807D01*
X32688955Y58263239D01*
X32749464Y58117159D01*
X32845716Y57991719D01*
X32870768Y57972497D01*
X32882964Y57961801D01*
X36193181Y54651584D01*
X36226666Y54590261D01*
X36229500Y54563903D01*
X36229500Y53057098D01*
X36209815Y52990059D01*
X36157011Y52944304D01*
X36087853Y52934360D01*
X36024297Y52963385D01*
X36017819Y52969417D01*
X31624819Y57362416D01*
X31591334Y57423739D01*
X31588500Y57450097D01*
X31588500Y59754327D01*
X31607506Y59820299D01*
X31608585Y59822016D01*
X31645789Y59881225D01*
X31699786Y60035539D01*
X31718091Y60198000D01*
X31699786Y60360461D01*
X31697728Y60366341D01*
X31645790Y60514773D01*
X31645768Y60514808D01*
X31558808Y60653204D01*
X31443204Y60768808D01*
X31304775Y60855789D01*
X31304772Y60855791D01*
X31150461Y60909787D01*
X30988000Y60928092D01*
X30825538Y60909787D01*
X30671227Y60855791D01*
X30532794Y60768807D01*
X30417193Y60653206D01*
X30330209Y60514773D01*
X30276213Y60360462D01*
X30257908Y60198000D01*
X30276213Y60035539D01*
X30330209Y59881228D01*
X30368494Y59820299D01*
X30387500Y59754327D01*
X30387500Y57197489D01*
X30386439Y57181304D01*
X30382317Y57150001D01*
X30387500Y57110640D01*
X30402956Y56993238D01*
X30463463Y56847160D01*
X30559716Y56721719D01*
X30584768Y56702497D01*
X30596963Y56691802D01*
X35685182Y51603583D01*
X35718666Y51542262D01*
X35721500Y51515904D01*
X35721500Y47215097D01*
X35701815Y47148058D01*
X35649011Y47102303D01*
X35579853Y47092359D01*
X35516297Y47121384D01*
X35509819Y47127416D01*
X34198199Y48439036D01*
X34187503Y48451232D01*
X34168281Y48476284D01*
X34042840Y48572537D01*
X33896762Y48633044D01*
X33779361Y48648500D01*
X33740000Y48653683D01*
X33712163Y48650018D01*
X33708697Y48649561D01*
X33692513Y48648500D01*
X28198097Y48648500D01*
X28131058Y48668185D01*
X28110416Y48684819D01*
X25995235Y50800000D01*
X31879920Y50800000D01*
X31900211Y50542182D01*
X31960582Y50290715D01*
X32059551Y50051786D01*
X32194674Y49831284D01*
X32199767Y49825321D01*
X33044923Y50670477D01*
X33068507Y50590156D01*
X33146239Y50469202D01*
X33254900Y50375048D01*
X33385685Y50315320D01*
X33395466Y50313914D01*
X32553320Y49471769D01*
X32559284Y49466675D01*
X32779785Y49331552D01*
X33018714Y49232583D01*
X33270181Y49172212D01*
X33528000Y49151921D01*
X33785818Y49172212D01*
X34037285Y49232583D01*
X34276214Y49331552D01*
X34496716Y49466675D01*
X34502678Y49471768D01*
X34502678Y49471769D01*
X33660533Y50313914D01*
X33670315Y50315320D01*
X33801100Y50375048D01*
X33909761Y50469202D01*
X33987493Y50590156D01*
X34011077Y50670477D01*
X34856231Y49825322D01*
X34856232Y49825322D01*
X34861325Y49831284D01*
X34996448Y50051786D01*
X35095417Y50290715D01*
X35155788Y50542182D01*
X35176079Y50800001D01*
X35155788Y51057819D01*
X35095417Y51309286D01*
X34996448Y51548215D01*
X34861325Y51768716D01*
X34856231Y51774681D01*
X34011076Y50929526D01*
X33987493Y51009844D01*
X33909761Y51130798D01*
X33801100Y51224952D01*
X33670315Y51284680D01*
X33660532Y51286087D01*
X34502679Y52128233D01*
X34496716Y52133326D01*
X34276214Y52268449D01*
X34037285Y52367418D01*
X33785818Y52427789D01*
X33528000Y52448080D01*
X33270181Y52427789D01*
X33018714Y52367418D01*
X32779785Y52268449D01*
X32559285Y52133327D01*
X32553320Y52128233D01*
X33395467Y51286087D01*
X33385685Y51284680D01*
X33254900Y51224952D01*
X33146239Y51130798D01*
X33068507Y51009844D01*
X33044923Y50929524D01*
X32199767Y51774680D01*
X32194673Y51768715D01*
X32059551Y51548215D01*
X31960582Y51309286D01*
X31900211Y51057819D01*
X31879920Y50800000D01*
X25995235Y50800000D01*
X23944700Y52850535D01*
X23911215Y52911858D01*
X23909161Y52924334D01*
X23904761Y52963385D01*
X23899368Y53011255D01*
X23839789Y53181522D01*
X23743816Y53334262D01*
X23736383Y53346092D01*
X23739475Y53348035D01*
X23717334Y53388583D01*
X23714500Y53414941D01*
X23714500Y58263001D01*
X25610434Y58263001D01*
X25630631Y58083746D01*
X25658675Y58003599D01*
X25665455Y57969291D01*
X25665500Y57968437D01*
X25665501Y57965128D01*
X25671909Y57905517D01*
X25722204Y57770669D01*
X25808454Y57655454D01*
X25923669Y57569204D01*
X26058517Y57518909D01*
X26118127Y57512500D01*
X26121473Y57512501D01*
X26122279Y57512457D01*
X26156600Y57505677D01*
X26236745Y57477632D01*
X26416000Y57457435D01*
X26595255Y57477632D01*
X26675014Y57505542D01*
X26715971Y57512501D01*
X27416025Y57512501D01*
X27456979Y57505543D01*
X27480693Y57497246D01*
X27536745Y57477632D01*
X27656248Y57464168D01*
X27715999Y57457435D01*
X27715999Y57457436D01*
X27716000Y57457435D01*
X27895255Y57477632D01*
X27975397Y57505676D01*
X28009720Y57512457D01*
X28010540Y57512501D01*
X28013872Y57512501D01*
X28073483Y57518909D01*
X28208331Y57569204D01*
X28323546Y57655454D01*
X28409796Y57770669D01*
X28460091Y57905517D01*
X28466500Y57965127D01*
X28466499Y57968475D01*
X28466543Y57969279D01*
X28473323Y58003600D01*
X28501368Y58083745D01*
X28521565Y58263000D01*
X28501368Y58442255D01*
X28473458Y58522016D01*
X28466499Y58562971D01*
X28466499Y59263030D01*
X28473457Y59303983D01*
X28501368Y59383745D01*
X28521565Y59563000D01*
X28501368Y59742255D01*
X28501367Y59742257D01*
X28473458Y59822017D01*
X28466499Y59862972D01*
X28466499Y60563029D01*
X28473458Y60603984D01*
X28490682Y60653206D01*
X28501368Y60683745D01*
X28521565Y60863000D01*
X28501368Y61042255D01*
X28473323Y61122401D01*
X28466542Y61156733D01*
X28466499Y61157537D01*
X28466499Y61160872D01*
X28460091Y61220483D01*
X28409796Y61355331D01*
X28323546Y61470546D01*
X28208331Y61556796D01*
X28073483Y61607091D01*
X28013873Y61613500D01*
X28010575Y61613500D01*
X28009699Y61613547D01*
X27975398Y61620326D01*
X27895254Y61648369D01*
X27716000Y61668566D01*
X27536747Y61648369D01*
X27456982Y61620458D01*
X27416028Y61613500D01*
X26715973Y61613500D01*
X26675019Y61620458D01*
X26595253Y61648369D01*
X26416000Y61668566D01*
X26236743Y61648369D01*
X26156596Y61620325D01*
X26122290Y61613545D01*
X26121435Y61613500D01*
X26118128Y61613499D01*
X26114835Y61613146D01*
X26114834Y61613145D01*
X26058515Y61607091D01*
X25923669Y61556796D01*
X25808454Y61470546D01*
X25722204Y61355332D01*
X25671910Y61220485D01*
X25671909Y61220483D01*
X25665500Y61160873D01*
X25665500Y61157576D01*
X25665453Y61156700D01*
X25658674Y61122399D01*
X25630631Y61042255D01*
X25610434Y60863000D01*
X25630631Y60683748D01*
X25658542Y60603983D01*
X25665500Y60563029D01*
X25665500Y59862973D01*
X25658542Y59822019D01*
X25630631Y59742254D01*
X25610434Y59563001D01*
X25630631Y59383748D01*
X25658542Y59303983D01*
X25665500Y59263029D01*
X25665500Y58562974D01*
X25658542Y58522021D01*
X25630631Y58442255D01*
X25610434Y58263001D01*
X23714500Y58263001D01*
X23714500Y59615060D01*
X23734185Y59682099D01*
X23738998Y59688072D01*
X23743812Y59695735D01*
X23743816Y59695738D01*
X23839789Y59848478D01*
X23899368Y60018745D01*
X23919565Y60198000D01*
X23899368Y60377255D01*
X23839789Y60547522D01*
X23743816Y60700262D01*
X23743815Y60700263D01*
X23743814Y60700265D01*
X23616264Y60827815D01*
X23553867Y60867021D01*
X23463522Y60923789D01*
X23293255Y60983368D01*
X23293253Y60983369D01*
X23293251Y60983369D01*
X23114000Y61003566D01*
X22934748Y60983369D01*
X22934745Y60983369D01*
X22934745Y60983368D01*
X22764478Y60923789D01*
X22764476Y60923789D01*
X22764476Y60923788D01*
X22611735Y60827815D01*
X22484185Y60700265D01*
X22388489Y60547965D01*
X22388211Y60547522D01*
X22376752Y60514773D01*
X22328631Y60377252D01*
X22308434Y60198000D01*
X22328631Y60018749D01*
X22328631Y60018747D01*
X22328632Y60018745D01*
X22388211Y59848478D01*
X22404838Y59822017D01*
X22491617Y59683908D01*
X22488523Y59681965D01*
X22510662Y59641439D01*
X22513500Y59615060D01*
X22513500Y53414941D01*
X22493815Y53347902D01*
X22488999Y53341926D01*
X22413959Y53222500D01*
X22388211Y53181522D01*
X22328632Y53011255D01*
X22328631Y53011252D01*
X22308434Y52832000D01*
X22328631Y52652749D01*
X22328631Y52652747D01*
X22328632Y52652745D01*
X22388211Y52482478D01*
X22444979Y52392133D01*
X22484185Y52329736D01*
X22611735Y52202186D01*
X22611737Y52202185D01*
X22611738Y52202184D01*
X22764478Y52106211D01*
X22934745Y52046632D01*
X23021666Y52036839D01*
X23086081Y52009773D01*
X23095465Y52001300D01*
X24673874Y50422891D01*
X24707359Y50361568D01*
X24702375Y50291876D01*
X24660503Y50235943D01*
X24595039Y50211526D01*
X24526766Y50226378D01*
X24520221Y50230216D01*
X24479522Y50255789D01*
X24309255Y50315368D01*
X24309253Y50315369D01*
X24309251Y50315369D01*
X24130000Y50335566D01*
X23950748Y50315369D01*
X23950745Y50315369D01*
X23950745Y50315368D01*
X23780478Y50255789D01*
X23780476Y50255789D01*
X23780476Y50255788D01*
X23627735Y50159815D01*
X23500185Y50032265D01*
X23404212Y49879524D01*
X23344631Y49709252D01*
X23324434Y49530000D01*
X23344631Y49350749D01*
X23344631Y49350747D01*
X23344632Y49350745D01*
X23404211Y49180478D01*
X23427248Y49143815D01*
X23500185Y49027736D01*
X23627735Y48900186D01*
X23627737Y48900185D01*
X23627738Y48900184D01*
X23780478Y48804211D01*
X23950745Y48744632D01*
X24130000Y48724435D01*
X24309255Y48744632D01*
X24479522Y48804211D01*
X24632262Y48900184D01*
X24759816Y49027738D01*
X24855789Y49180478D01*
X24915368Y49350745D01*
X24935565Y49530000D01*
X24915368Y49709255D01*
X24855789Y49879522D01*
X24830214Y49920224D01*
X24811215Y49987458D01*
X24831583Y50054294D01*
X24884850Y50099508D01*
X24954107Y50108746D01*
X25017363Y50079074D01*
X25022890Y50073875D01*
X27439799Y47656966D01*
X27450494Y47644771D01*
X27469717Y47619718D01*
X27588711Y47528412D01*
X27593630Y47524098D01*
X27595157Y47523466D01*
X27595158Y47523465D01*
X27595159Y47523464D01*
X27741238Y47462956D01*
X27819618Y47452637D01*
X27897999Y47442318D01*
X27897999Y47442319D01*
X27898000Y47442318D01*
X27929302Y47446440D01*
X27945487Y47447500D01*
X32631342Y47447500D01*
X32698381Y47427815D01*
X32744136Y47375011D01*
X32754080Y47305853D01*
X32725055Y47242297D01*
X32696132Y47217773D01*
X32558985Y47133730D01*
X32362275Y46965725D01*
X32194270Y46769015D01*
X32059104Y46548443D01*
X31960104Y46309441D01*
X31899715Y46057897D01*
X31879418Y45800000D01*
X31899715Y45542104D01*
X31960104Y45290560D01*
X31982966Y45235368D01*
X32059103Y45051559D01*
X32119952Y44952262D01*
X32194270Y44830986D01*
X32362275Y44634276D01*
X32558985Y44466271D01*
X32622873Y44427120D01*
X32669748Y44375308D01*
X32681171Y44306379D01*
X32653514Y44242216D01*
X32645764Y44233712D01*
X24746484Y36334432D01*
X24729831Y36321090D01*
X24680133Y36268167D01*
X24677428Y36265375D01*
X24657089Y36245035D01*
X24654713Y36241973D01*
X24654702Y36241960D01*
X24654378Y36241541D01*
X24646806Y36232677D01*
X24615550Y36199393D01*
X24605322Y36180788D01*
X24594645Y36164533D01*
X24581636Y36147762D01*
X24563506Y36105868D01*
X24558370Y36095384D01*
X24536372Y36055368D01*
X24531091Y36034801D01*
X24524791Y36016400D01*
X24516364Y35996926D01*
X24509223Y35951839D01*
X24506855Y35940407D01*
X24501082Y35917916D01*
X24495500Y35896176D01*
X24495500Y35874955D01*
X24493973Y35855556D01*
X24493147Y35850338D01*
X24490653Y35834595D01*
X24494950Y35789142D01*
X24495500Y35777472D01*
X24495500Y26095057D01*
X24475815Y26028018D01*
X24423011Y25982263D01*
X24357617Y25971837D01*
X24307800Y25977450D01*
X24139743Y25958514D01*
X23980110Y25902656D01*
X23836908Y25812676D01*
X23717324Y25693092D01*
X23627344Y25549890D01*
X23571486Y25390257D01*
X23552550Y25222200D01*
X23571486Y25054144D01*
X23571486Y25054142D01*
X23571487Y25054141D01*
X23627344Y24894510D01*
X23717323Y24751310D01*
X23836910Y24631723D01*
X23980110Y24541744D01*
X24139741Y24485887D01*
X24251780Y24473264D01*
X24307799Y24466951D01*
X24307799Y24466952D01*
X24307800Y24466951D01*
X24357615Y24472564D01*
X24426437Y24460510D01*
X24477817Y24413162D01*
X24495500Y24349344D01*
X24495500Y22456676D01*
X24488542Y22415722D01*
X24434213Y22260459D01*
X24415908Y22098001D01*
X24434213Y21935539D01*
X24488209Y21781228D01*
X24488211Y21781225D01*
X24575192Y21642796D01*
X24690796Y21527192D01*
X24829225Y21440211D01*
X24829227Y21440210D01*
X24983538Y21386214D01*
X25145999Y21367909D01*
X25145999Y21367910D01*
X25146000Y21367909D01*
X25308461Y21386214D01*
X25462775Y21440211D01*
X25601204Y21527192D01*
X25716808Y21642796D01*
X25803789Y21781225D01*
X25857786Y21935539D01*
X25876091Y22098000D01*
X25857786Y22260461D01*
X25803789Y22414775D01*
X25803458Y22415722D01*
X25796500Y22456676D01*
X25796500Y35493193D01*
X25816117Y35560000D01*
X27526671Y35560000D01*
X27526936Y35555957D01*
X27528635Y35530032D01*
X27528831Y35517781D01*
X27527861Y35488779D01*
X27527861Y35488770D01*
X27527723Y35484631D01*
X27528137Y35480510D01*
X27528138Y35480498D01*
X27538664Y35375864D01*
X27539021Y35371564D01*
X27543806Y35298568D01*
X27545966Y35265620D01*
X27546757Y35261643D01*
X27546759Y35261628D01*
X27552469Y35232917D01*
X27554228Y35221148D01*
X27557466Y35188967D01*
X27557467Y35188960D01*
X27557882Y35184838D01*
X27558843Y35180803D01*
X27558845Y35180795D01*
X27582457Y35081712D01*
X27583452Y35077159D01*
X27592201Y35033177D01*
X27603519Y34976278D01*
X27604822Y34972437D01*
X27604826Y34972425D01*
X27615300Y34941567D01*
X27618501Y34930462D01*
X27626769Y34895771D01*
X27626773Y34895757D01*
X27627731Y34891739D01*
X27629214Y34887888D01*
X27629217Y34887879D01*
X27664644Y34795895D01*
X27666348Y34791189D01*
X27691894Y34715933D01*
X27698348Y34696923D01*
X27700141Y34693287D01*
X27700142Y34693285D01*
X27716022Y34661084D01*
X27720523Y34650809D01*
X27733103Y34618148D01*
X27736023Y34610566D01*
X27755113Y34575731D01*
X27783787Y34523406D01*
X27786249Y34518675D01*
X27828828Y34432335D01*
X27831081Y34428963D01*
X27831084Y34428958D01*
X27852868Y34396356D01*
X27858507Y34387059D01*
X27880825Y34346335D01*
X27883284Y34342998D01*
X27883287Y34342993D01*
X27937826Y34268972D01*
X27941099Y34264309D01*
X27957785Y34239337D01*
X27992727Y34187043D01*
X27995399Y34183996D01*
X27995403Y34183991D01*
X28023445Y34152015D01*
X28030039Y34143820D01*
X28059554Y34103762D01*
X28062439Y34100779D01*
X28124064Y34037058D01*
X28128156Y34032615D01*
X28166245Y33989184D01*
X28187242Y33965242D01*
X28190288Y33962571D01*
X28190291Y33962568D01*
X28224755Y33932343D01*
X28232128Y33925321D01*
X28263192Y33893202D01*
X28269020Y33887176D01*
X28278921Y33879357D01*
X28339241Y33831724D01*
X28344152Y33827636D01*
X28409043Y33770727D01*
X28453308Y33741150D01*
X28461228Y33735391D01*
X28505485Y33700442D01*
X28509052Y33698329D01*
X28509054Y33698328D01*
X28579610Y33656538D01*
X28585309Y33652950D01*
X28647920Y33611114D01*
X28654335Y33606828D01*
X28662614Y33602745D01*
X28705036Y33581825D01*
X28713381Y33577305D01*
X28764730Y33546891D01*
X28768534Y33545278D01*
X28768538Y33545276D01*
X28841009Y33514546D01*
X28847439Y33511600D01*
X28918923Y33476348D01*
X28975585Y33457114D01*
X28984134Y33453856D01*
X29042128Y33429264D01*
X29116578Y33408871D01*
X29118832Y33408253D01*
X29125916Y33406084D01*
X29198278Y33381519D01*
X29260232Y33369196D01*
X29268786Y33367176D01*
X29332729Y33349660D01*
X29408297Y33339498D01*
X29415934Y33338226D01*
X29487620Y33323966D01*
X29491660Y33323702D01*
X29491662Y33323701D01*
X29498676Y33323242D01*
X29553972Y33319618D01*
X29562339Y33318782D01*
X29631347Y33309500D01*
X29704273Y33309500D01*
X29712383Y33309234D01*
X29782000Y33304671D01*
X29854239Y33309406D01*
X29856143Y33309500D01*
X29857244Y33309500D01*
X29930842Y33314427D01*
X30076380Y33323966D01*
X30077453Y33324181D01*
X30077685Y33324203D01*
X30078487Y33324311D01*
X30082634Y33324588D01*
X30225658Y33353659D01*
X30365722Y33381519D01*
X30368833Y33382576D01*
X30373192Y33383602D01*
X30373828Y33383777D01*
X30377903Y33384604D01*
X30512821Y33431453D01*
X30645077Y33476348D01*
X30648724Y33478148D01*
X30652476Y33479701D01*
X30644809Y33476202D01*
X30656169Y33480989D01*
X30654803Y33480462D01*
X30658616Y33482079D01*
X30662537Y33483440D01*
X30787220Y33546446D01*
X30909665Y33606828D01*
X30913039Y33609084D01*
X30916557Y33611114D01*
X30916088Y33610823D01*
X30925540Y33616342D01*
X30931459Y33619332D01*
X31044040Y33696615D01*
X31154957Y33770727D01*
X31160074Y33775216D01*
X31171655Y33784219D01*
X31179869Y33789856D01*
X31278824Y33879357D01*
X31376758Y33965242D01*
X31383434Y33972857D01*
X31393494Y33983070D01*
X31403333Y33991968D01*
X31487443Y34091455D01*
X31571273Y34187043D01*
X31578744Y34198226D01*
X31587144Y34209382D01*
X31597865Y34222061D01*
X31665611Y34328185D01*
X31666972Y34330268D01*
X31735172Y34432335D01*
X31742588Y34447375D01*
X31749274Y34459241D01*
X31759993Y34476030D01*
X31811611Y34587267D01*
X31812806Y34589764D01*
X31865652Y34696923D01*
X31872109Y34715947D01*
X31877048Y34728278D01*
X31885078Y34745581D01*
X31885079Y34745586D01*
X31886823Y34749342D01*
X31922150Y34863227D01*
X31923150Y34866309D01*
X31960481Y34976278D01*
X31965047Y34999241D01*
X31968225Y35011762D01*
X31976093Y35037121D01*
X31995383Y35151484D01*
X31996023Y35154967D01*
X32018034Y35265620D01*
X32019781Y35292288D01*
X32021239Y35304771D01*
X32026209Y35334230D01*
X32029973Y35446827D01*
X32030169Y35450773D01*
X32032389Y35484631D01*
X32037329Y35560000D01*
X32035363Y35589978D01*
X32035167Y35602197D01*
X32036277Y35635369D01*
X32025336Y35744120D01*
X32024979Y35748416D01*
X32023406Y35772417D01*
X32018034Y35854380D01*
X32011528Y35887088D01*
X32009770Y35898857D01*
X32006533Y35931033D01*
X32006118Y35935162D01*
X31981532Y36038325D01*
X31980556Y36042790D01*
X31960481Y36143722D01*
X31948695Y36178441D01*
X31945496Y36189543D01*
X31937229Y36224231D01*
X31936269Y36228261D01*
X31899351Y36324116D01*
X31897655Y36328800D01*
X31876293Y36391729D01*
X31865652Y36423077D01*
X31847973Y36458927D01*
X31843479Y36469184D01*
X31827977Y36509434D01*
X31823786Y36517081D01*
X31780198Y36596619D01*
X31777755Y36601312D01*
X31735172Y36687664D01*
X31732912Y36691047D01*
X31732911Y36691048D01*
X31711133Y36723640D01*
X31705491Y36732942D01*
X31693265Y36755252D01*
X31683175Y36773665D01*
X31626169Y36851034D01*
X31622897Y36855696D01*
X31609265Y36876098D01*
X31571273Y36932957D01*
X31540553Y36967987D01*
X31533954Y36976190D01*
X31506908Y37012897D01*
X31506905Y37012900D01*
X31504446Y37016238D01*
X31439934Y37082944D01*
X31435842Y37087387D01*
X31388165Y37141751D01*
X31376758Y37154758D01*
X31373717Y37157425D01*
X31373707Y37157435D01*
X31339237Y37187665D01*
X31331864Y37194687D01*
X31297861Y37229845D01*
X31294980Y37232824D01*
X31291730Y37235391D01*
X31291725Y37235395D01*
X31224768Y37288270D01*
X31219858Y37292357D01*
X31158015Y37346592D01*
X31158007Y37346598D01*
X31154957Y37349273D01*
X31151583Y37351527D01*
X31151572Y37351536D01*
X31110701Y37378846D01*
X31102745Y37384631D01*
X31061770Y37416988D01*
X31061766Y37416991D01*
X31058515Y37419558D01*
X31054945Y37421673D01*
X31054940Y37421676D01*
X30984387Y37463465D01*
X30978690Y37467052D01*
X30913042Y37510916D01*
X30913037Y37510919D01*
X30909665Y37513172D01*
X30906030Y37514965D01*
X30906026Y37514967D01*
X30858949Y37538184D01*
X30850615Y37542698D01*
X30799270Y37573109D01*
X30722997Y37605452D01*
X30716570Y37608397D01*
X30648720Y37641857D01*
X30648701Y37641865D01*
X30645077Y37643652D01*
X30641247Y37644953D01*
X30641245Y37644953D01*
X30588409Y37662889D01*
X30579863Y37666147D01*
X30525700Y37689114D01*
X30525684Y37689120D01*
X30521872Y37690736D01*
X30517874Y37691832D01*
X30517866Y37691834D01*
X30445154Y37711752D01*
X30438074Y37713921D01*
X30365722Y37738481D01*
X30361749Y37739272D01*
X30361739Y37739274D01*
X30303777Y37750803D01*
X30295210Y37752826D01*
X30235270Y37769245D01*
X30235264Y37769247D01*
X30231271Y37770340D01*
X30227170Y37770892D01*
X30227158Y37770894D01*
X30155717Y37780503D01*
X30148058Y37781778D01*
X30080361Y37795243D01*
X30080348Y37795245D01*
X30076380Y37796034D01*
X30072328Y37796300D01*
X30072325Y37796300D01*
X30010070Y37800381D01*
X30001655Y37801221D01*
X29936756Y37809949D01*
X29936744Y37809950D01*
X29932653Y37810500D01*
X29928512Y37810500D01*
X29859727Y37810500D01*
X29851617Y37810766D01*
X29786058Y37815063D01*
X29782000Y37815329D01*
X29709776Y37810596D01*
X29707855Y37810500D01*
X29706756Y37810500D01*
X29704696Y37810363D01*
X29704692Y37810362D01*
X29633157Y37805574D01*
X29490845Y37796246D01*
X29490827Y37796245D01*
X29487620Y37796034D01*
X29486533Y37795819D01*
X29486259Y37795791D01*
X29485504Y37795690D01*
X29481366Y37795412D01*
X29477301Y37794586D01*
X29477295Y37794585D01*
X29338341Y37766342D01*
X29202257Y37739273D01*
X29202249Y37739272D01*
X29198278Y37738481D01*
X29195169Y37737427D01*
X29190810Y37736400D01*
X29190160Y37736223D01*
X29186097Y37735396D01*
X29182182Y37734037D01*
X29182176Y37734035D01*
X29051178Y37688548D01*
X28922765Y37644957D01*
X28922754Y37644953D01*
X28918923Y37643652D01*
X28915284Y37641859D01*
X28911538Y37640306D01*
X28918357Y37643388D01*
X28908377Y37639225D01*
X28909192Y37639538D01*
X28905363Y37637915D01*
X28901463Y37636560D01*
X28897782Y37634701D01*
X28897775Y37634697D01*
X28776757Y37573544D01*
X28657967Y37514963D01*
X28657962Y37514961D01*
X28654336Y37513172D01*
X28650972Y37510926D01*
X28647446Y37508889D01*
X28647844Y37509137D01*
X28638491Y37503676D01*
X28636242Y37502540D01*
X28636223Y37502530D01*
X28632541Y37500668D01*
X28629133Y37498329D01*
X28629127Y37498325D01*
X28519943Y37423374D01*
X28412426Y37351535D01*
X28412410Y37351523D01*
X28409043Y37349273D01*
X28405996Y37346602D01*
X28405979Y37346588D01*
X28403914Y37344776D01*
X28392353Y37335789D01*
X28387554Y37332495D01*
X28387543Y37332487D01*
X28384131Y37330144D01*
X28381058Y37327366D01*
X28381052Y37327360D01*
X28285175Y37240644D01*
X28190286Y37157428D01*
X28190282Y37157425D01*
X28187242Y37154758D01*
X28184580Y37151724D01*
X28184567Y37151710D01*
X28180557Y37147137D01*
X28170520Y37136945D01*
X28163735Y37130809D01*
X28163720Y37130794D01*
X28160667Y37128032D01*
X28157998Y37124876D01*
X28157993Y37124870D01*
X28076556Y37028546D01*
X27995406Y36936013D01*
X27995398Y36936004D01*
X27992727Y36932957D01*
X27990471Y36929583D01*
X27990467Y36929576D01*
X27985247Y36921765D01*
X27976852Y36910618D01*
X27968813Y36901109D01*
X27968800Y36901093D01*
X27966135Y36897939D01*
X27963913Y36894459D01*
X27963909Y36894453D01*
X27898420Y36791868D01*
X27897005Y36789703D01*
X27831087Y36691047D01*
X27831078Y36691032D01*
X27828828Y36687664D01*
X27827034Y36684029D01*
X27827033Y36684025D01*
X27821412Y36672628D01*
X27814727Y36660766D01*
X27806236Y36647464D01*
X27806227Y36647450D01*
X27804007Y36643970D01*
X27802271Y36640231D01*
X27802267Y36640222D01*
X27752412Y36532788D01*
X27751146Y36530143D01*
X27718508Y36463958D01*
X27698348Y36423077D01*
X27697046Y36419245D01*
X27697045Y36419240D01*
X27691891Y36404057D01*
X27686954Y36391729D01*
X27678923Y36374423D01*
X27678918Y36374411D01*
X27677177Y36370658D01*
X27675949Y36366702D01*
X27675946Y36366692D01*
X27641852Y36256785D01*
X27640850Y36253700D01*
X27603519Y36143722D01*
X27602727Y36139746D01*
X27602723Y36139727D01*
X27598951Y36120764D01*
X27595769Y36108226D01*
X27587907Y36082879D01*
X27587219Y36078806D01*
X27587214Y36078781D01*
X27568622Y35968566D01*
X27567968Y35965004D01*
X27547103Y35860098D01*
X27545966Y35854380D01*
X27545701Y35850338D01*
X27545700Y35850328D01*
X27544218Y35827726D01*
X27542758Y35815223D01*
X27539020Y35793059D01*
X27537791Y35785770D01*
X27537652Y35781643D01*
X27537652Y35781633D01*
X27534027Y35673221D01*
X27533831Y35669257D01*
X27529438Y35602219D01*
X27526671Y35560000D01*
X25816117Y35560000D01*
X25816185Y35560232D01*
X25832819Y35580874D01*
X29875945Y39624000D01*
X33927513Y43675569D01*
X33944162Y43688906D01*
X33945936Y43690796D01*
X33945940Y43690798D01*
X33993897Y43741869D01*
X33996515Y43744571D01*
X34016911Y43764965D01*
X34019610Y43768446D01*
X34027184Y43777315D01*
X34058448Y43810607D01*
X34068675Y43829213D01*
X34079348Y43845461D01*
X34092362Y43862236D01*
X34110491Y43904132D01*
X34115631Y43914623D01*
X34129757Y43940317D01*
X34137627Y43954632D01*
X34142906Y43975195D01*
X34149204Y43993594D01*
X34157635Y44013074D01*
X34164777Y44058176D01*
X34167145Y44069603D01*
X34178500Y44113823D01*
X34178500Y44135046D01*
X34180027Y44154446D01*
X34183347Y44175405D01*
X34181310Y44196949D01*
X34194598Y44265541D01*
X34242861Y44316062D01*
X34257300Y44323175D01*
X34276441Y44331103D01*
X34497012Y44466269D01*
X34693724Y44634276D01*
X34741209Y44689875D01*
X34799716Y44728069D01*
X34869584Y44728568D01*
X34928631Y44691214D01*
X34958109Y44627867D01*
X34959500Y44609344D01*
X34959500Y35860098D01*
X34939815Y35793059D01*
X34923181Y35772417D01*
X28753759Y29602996D01*
X28692436Y29569511D01*
X28679963Y29567457D01*
X28660944Y29565314D01*
X28660941Y29565314D01*
X28660941Y29565313D01*
X28501310Y29509456D01*
X28501308Y29509456D01*
X28501308Y29509455D01*
X28358108Y29419476D01*
X28238524Y29299892D01*
X28148544Y29156690D01*
X28092686Y28997057D01*
X28073750Y28829001D01*
X28092686Y28660944D01*
X28092686Y28660942D01*
X28092687Y28660941D01*
X28148544Y28501310D01*
X28238523Y28358110D01*
X28358110Y28238523D01*
X28501310Y28148544D01*
X28654020Y28095109D01*
X28710797Y28054387D01*
X28730107Y28019022D01*
X28783542Y27866313D01*
X28783544Y27866310D01*
X28873523Y27723110D01*
X28993110Y27603523D01*
X29136310Y27513544D01*
X29295941Y27457687D01*
X29351750Y27451399D01*
X29442164Y27441211D01*
X29506578Y27414144D01*
X29537662Y27369859D01*
X29538111Y27370140D01*
X29543632Y27361353D01*
X29545321Y27358947D01*
X29545544Y27358310D01*
X29635523Y27215110D01*
X29755110Y27095523D01*
X29898310Y27005544D01*
X29922017Y26997249D01*
X29978792Y26956531D01*
X30004541Y26891579D01*
X29998106Y26839257D01*
X29997686Y26838059D01*
X29978750Y26670000D01*
X29997686Y26501944D01*
X30004108Y26483591D01*
X30007669Y26413812D01*
X29972940Y26353185D01*
X29932717Y26327346D01*
X29915599Y26320568D01*
X29878662Y26293734D01*
X29868906Y26287325D01*
X29829606Y26264082D01*
X29814596Y26249072D01*
X29799807Y26236442D01*
X29782635Y26223966D01*
X29753528Y26188782D01*
X29745667Y26180144D01*
X29480484Y25914961D01*
X29463831Y25901619D01*
X29414133Y25848696D01*
X29411428Y25845904D01*
X29391089Y25825564D01*
X29388713Y25822502D01*
X29388702Y25822489D01*
X29388378Y25822070D01*
X29380806Y25813206D01*
X29349550Y25779922D01*
X29339322Y25761317D01*
X29328645Y25745062D01*
X29315636Y25728291D01*
X29297506Y25686397D01*
X29292370Y25675913D01*
X29270372Y25635897D01*
X29265091Y25615330D01*
X29258791Y25596929D01*
X29250364Y25577455D01*
X29243223Y25532368D01*
X29240855Y25520931D01*
X29229500Y25476705D01*
X29229500Y25455484D01*
X29227973Y25436085D01*
X29224653Y25415126D01*
X29228950Y25369671D01*
X29229500Y25358001D01*
X29229500Y24451849D01*
X29209815Y24384810D01*
X29193181Y24364168D01*
X17707833Y12878819D01*
X17646510Y12845334D01*
X17620152Y12842500D01*
X13464803Y12842500D01*
X13397764Y12862185D01*
X13359810Y12900527D01*
X13329816Y12948262D01*
X13202262Y13075816D01*
X13202261Y13075817D01*
X13059545Y13165491D01*
X13049522Y13171789D01*
X12879255Y13231368D01*
X12879253Y13231369D01*
X12879251Y13231369D01*
X12699999Y13251566D01*
X12520748Y13231369D01*
X12520745Y13231369D01*
X12520745Y13231368D01*
X12350478Y13171789D01*
X12350476Y13171789D01*
X12350476Y13171788D01*
X12197735Y13075815D01*
X12070185Y12948265D01*
X11974212Y12795524D01*
X11914631Y12625252D01*
X11894434Y12446000D01*
X11914631Y12266749D01*
X11914631Y12266747D01*
X11914632Y12266745D01*
X11974211Y12096478D01*
X11974212Y12096477D01*
X12070185Y11943736D01*
X12197735Y11816186D01*
X12340479Y11726494D01*
X12386770Y11674159D01*
X12397419Y11605106D01*
X12369043Y11541258D01*
X12310654Y11502885D01*
X12274507Y11497500D01*
X10703742Y11497500D01*
X10636703Y11517185D01*
X10616061Y11533819D01*
X8201190Y13948690D01*
X8167705Y14010013D01*
X8165651Y14022488D01*
X8158362Y14087181D01*
X8151368Y14149255D01*
X8091789Y14319522D01*
X7995816Y14472262D01*
X7995815Y14472263D01*
X7995814Y14472265D01*
X7868264Y14599815D01*
X7805867Y14639022D01*
X7715522Y14695789D01*
X7545255Y14755368D01*
X7545253Y14755369D01*
X7545251Y14755369D01*
X7366000Y14775566D01*
X7186748Y14755369D01*
X7186745Y14755369D01*
X7186745Y14755368D01*
X7016478Y14695789D01*
X7016476Y14695789D01*
X7016476Y14695788D01*
X6863735Y14599815D01*
X6736185Y14472265D01*
X6640212Y14319524D01*
X6640211Y14319522D01*
X6619974Y14261687D01*
X6580631Y14149252D01*
X6560434Y13970001D01*
X6580631Y13790749D01*
X6580631Y13790747D01*
X6580632Y13790745D01*
X6640211Y13620478D01*
X6640212Y13620477D01*
X6736185Y13467736D01*
X6863735Y13340186D01*
X6863737Y13340185D01*
X6863738Y13340184D01*
X7016478Y13244211D01*
X7148424Y13198041D01*
X7205199Y13157320D01*
X7230946Y13092367D01*
X7217490Y13023805D01*
X7169102Y12973403D01*
X7148428Y12963961D01*
X7016478Y12917789D01*
X7016476Y12917789D01*
X7016476Y12917788D01*
X6863735Y12821815D01*
X6736185Y12694265D01*
X6640212Y12541524D01*
X6640211Y12541522D01*
X6580632Y12371255D01*
X6580631Y12371252D01*
X6560434Y12192001D01*
X6580631Y12012749D01*
X6580631Y12012747D01*
X6580632Y12012745D01*
X6640211Y11842478D01*
X6656733Y11816184D01*
X6736185Y11689736D01*
X6863735Y11562186D01*
X6863737Y11562185D01*
X6863738Y11562184D01*
X7016478Y11466211D01*
X7186745Y11406632D01*
X7297459Y11394158D01*
X7337420Y11389655D01*
X7401834Y11362589D01*
X7411218Y11354116D01*
X8542934Y10222400D01*
X8553629Y10210205D01*
X8571245Y10187246D01*
X8629515Y10142535D01*
X8688329Y10097404D01*
X8688330Y10097404D01*
X8688331Y10097403D01*
X8768202Y10064321D01*
X8824680Y10040926D01*
X8895276Y10031632D01*
X8971000Y10021662D01*
X8999688Y10025440D01*
X9015874Y10026500D01*
X13693468Y10026500D01*
X13760507Y10006815D01*
X13806262Y9954011D01*
X13816206Y9884853D01*
X13787181Y9821297D01*
X13759440Y9797506D01*
X13721736Y9773816D01*
X13594185Y9646265D01*
X13543237Y9565181D01*
X13498211Y9493522D01*
X13464191Y9396297D01*
X13438631Y9323252D01*
X13418434Y9144001D01*
X13438631Y8964749D01*
X13438631Y8964747D01*
X13438632Y8964745D01*
X13498211Y8794478D01*
X13514733Y8768184D01*
X13594185Y8641736D01*
X13721735Y8514186D01*
X13721737Y8514185D01*
X13721738Y8514184D01*
X13874478Y8418211D01*
X14044745Y8358632D01*
X14224000Y8338435D01*
X14403255Y8358632D01*
X14573522Y8418211D01*
X14726262Y8514184D01*
X14853816Y8641738D01*
X14949789Y8794478D01*
X15009368Y8964745D01*
X15023651Y9091515D01*
X15050717Y9155928D01*
X15059180Y9165302D01*
X15459060Y9565181D01*
X15520384Y9598666D01*
X15546742Y9601500D01*
X19320010Y9601500D01*
X19387049Y9581815D01*
X19432804Y9529011D01*
X19442748Y9459853D01*
X19413723Y9396297D01*
X19407691Y9389819D01*
X16725691Y6707819D01*
X16664368Y6674334D01*
X16638010Y6671500D01*
X14831941Y6671500D01*
X14764902Y6691185D01*
X14744260Y6707819D01*
X14726264Y6725815D01*
X14663867Y6765021D01*
X14573522Y6821789D01*
X14403255Y6881368D01*
X14403253Y6881369D01*
X14403251Y6881369D01*
X14224000Y6901566D01*
X14044748Y6881369D01*
X14044745Y6881369D01*
X14044745Y6881368D01*
X13874478Y6821789D01*
X13874476Y6821789D01*
X13874476Y6821788D01*
X13721735Y6725815D01*
X13594185Y6598265D01*
X13501339Y6450500D01*
X13498211Y6445522D01*
X13452088Y6313710D01*
X13438631Y6275252D01*
X13418434Y6096000D01*
X13438631Y5916749D01*
X13438631Y5916747D01*
X13438632Y5916745D01*
X13498211Y5746478D01*
X13513456Y5722216D01*
X13594185Y5593736D01*
X13721735Y5466186D01*
X13721737Y5466185D01*
X13721738Y5466184D01*
X13874478Y5370211D01*
X14044745Y5310632D01*
X14179186Y5295485D01*
X14223999Y5290435D01*
X14223999Y5290436D01*
X14224000Y5290435D01*
X14365774Y5306409D01*
X14434596Y5294355D01*
X14485975Y5247006D01*
X14503600Y5179396D01*
X14481874Y5112990D01*
X14451770Y5088477D01*
X14454718Y5084636D01*
X14351732Y5005612D01*
X14351728Y5005609D01*
X14321547Y4982451D01*
X14303334Y4958715D01*
X14292641Y4946523D01*
X13849477Y4503359D01*
X13837285Y4492666D01*
X13813549Y4474453D01*
X13790391Y4444272D01*
X13790388Y4444268D01*
X13757355Y4401218D01*
X13721302Y4354234D01*
X13663313Y4214236D01*
X13648500Y4101720D01*
X13648500Y4101714D01*
X13643534Y4064001D01*
X13647439Y4034347D01*
X13648500Y4018161D01*
X13648500Y3655941D01*
X13628815Y3588902D01*
X13612181Y3568260D01*
X13594185Y3550265D01*
X13498212Y3397524D01*
X13498211Y3397522D01*
X13460739Y3290434D01*
X13438631Y3227252D01*
X13418434Y3048001D01*
X13438631Y2868749D01*
X13438631Y2868747D01*
X13438632Y2868745D01*
X13498211Y2698478D01*
X13540052Y2631889D01*
X13594185Y2545736D01*
X13721735Y2418186D01*
X13721737Y2418185D01*
X13721738Y2418184D01*
X13874478Y2322211D01*
X14044745Y2262632D01*
X14179186Y2247485D01*
X14223999Y2242435D01*
X14223999Y2242436D01*
X14224000Y2242435D01*
X14403255Y2262632D01*
X14573522Y2322211D01*
X14726262Y2418184D01*
X14853816Y2545738D01*
X14949789Y2698478D01*
X15009368Y2868745D01*
X15022461Y2984952D01*
X15029053Y3043453D01*
X15056119Y3107867D01*
X15113714Y3147423D01*
X15183551Y3149560D01*
X15193228Y3146611D01*
X15331538Y3098214D01*
X15494000Y3079909D01*
X15656461Y3098214D01*
X15810775Y3152211D01*
X15911489Y3215495D01*
X15977461Y3234500D01*
X17046614Y3234500D01*
X17113653Y3214815D01*
X17159408Y3162011D01*
X17169352Y3092853D01*
X17151608Y3044528D01*
X17150184Y3042263D01*
X17150184Y3042262D01*
X17138391Y3023493D01*
X17072679Y2918913D01*
X17054211Y2889522D01*
X17026385Y2810000D01*
X16994631Y2719252D01*
X16974434Y2540000D01*
X16994631Y2360749D01*
X16994631Y2360747D01*
X16994632Y2360745D01*
X17054211Y2190478D01*
X17054212Y2190477D01*
X17150185Y2037736D01*
X17277735Y1910186D01*
X17277737Y1910185D01*
X17277738Y1910184D01*
X17430478Y1814211D01*
X17600745Y1754632D01*
X17735186Y1739485D01*
X17779999Y1734435D01*
X17779999Y1734436D01*
X17780000Y1734435D01*
X17959255Y1754632D01*
X18129522Y1814211D01*
X18282262Y1910184D01*
X18409816Y2037738D01*
X18505789Y2190478D01*
X18565368Y2360745D01*
X18585565Y2540000D01*
X18565368Y2719255D01*
X18505789Y2889522D01*
X18409816Y3042262D01*
X18409815Y3042263D01*
X18408392Y3044528D01*
X18389392Y3111765D01*
X18409760Y3178600D01*
X18463028Y3223814D01*
X18513386Y3234500D01*
X19468323Y3234500D01*
X19535362Y3214815D01*
X19581117Y3162011D01*
X19591061Y3092853D01*
X19580705Y3058095D01*
X19564569Y3023493D01*
X19507364Y2810001D01*
X19507364Y2810000D01*
X20404314Y2810000D01*
X20378507Y2769844D01*
X20338000Y2631889D01*
X20338000Y2488111D01*
X20378507Y2350156D01*
X20404314Y2310000D01*
X19507364Y2310000D01*
X19564569Y2096508D01*
X19664399Y1882424D01*
X19799893Y1688919D01*
X19966918Y1521894D01*
X20160423Y1386400D01*
X20374509Y1286570D01*
X20588000Y1229366D01*
X20588000Y2124499D01*
X20695685Y2075320D01*
X20802237Y2060000D01*
X20873763Y2060000D01*
X20980315Y2075320D01*
X21088000Y2124499D01*
X21088000Y1229367D01*
X21301490Y1286570D01*
X21515576Y1386400D01*
X21709081Y1521894D01*
X21876109Y1688922D01*
X22006119Y1874595D01*
X22060696Y1918220D01*
X22130194Y1925414D01*
X22192549Y1893891D01*
X22209265Y1874600D01*
X22339505Y1688599D01*
X22506599Y1521505D01*
X22700170Y1385965D01*
X22914337Y1286097D01*
X23142592Y1224937D01*
X23378000Y1204341D01*
X23613408Y1224937D01*
X23841663Y1286097D01*
X24055830Y1385965D01*
X24249401Y1521505D01*
X24416495Y1688599D01*
X24546426Y1874161D01*
X24601002Y1917784D01*
X24670500Y1924978D01*
X24732855Y1893455D01*
X24749571Y1874163D01*
X24879505Y1688599D01*
X25046599Y1521505D01*
X25240170Y1385965D01*
X25454337Y1286097D01*
X25666059Y1229367D01*
X25682592Y1224937D01*
X25917999Y1204341D01*
X25917999Y1204342D01*
X25918000Y1204341D01*
X26153408Y1224937D01*
X26381663Y1286097D01*
X26595830Y1385965D01*
X26789401Y1521505D01*
X26956495Y1688599D01*
X27086426Y1874161D01*
X27141002Y1917784D01*
X27210500Y1924978D01*
X27272855Y1893455D01*
X27289571Y1874163D01*
X27419505Y1688599D01*
X27586599Y1521505D01*
X27780170Y1385965D01*
X27994337Y1286097D01*
X28222592Y1224937D01*
X28458000Y1204341D01*
X28693408Y1224937D01*
X28840292Y1264294D01*
X28910141Y1262631D01*
X28968004Y1223469D01*
X28995508Y1159240D01*
X28989427Y1103567D01*
X28976326Y1066124D01*
X28932631Y941252D01*
X28912434Y762000D01*
X28932631Y582749D01*
X28932631Y582747D01*
X28932632Y582745D01*
X28981085Y444275D01*
X28992211Y412478D01*
X29006039Y390471D01*
X29025038Y323234D01*
X29004669Y256399D01*
X28951401Y211185D01*
X28901044Y200500D01*
X4884727Y200500D01*
X4817688Y220185D01*
X4771933Y272989D01*
X4761989Y342147D01*
X4791014Y405703D01*
X4849792Y443477D01*
X4852634Y444275D01*
X5209087Y539786D01*
X5571194Y678786D01*
X5916789Y854875D01*
X6242084Y1066124D01*
X6543516Y1310219D01*
X6817781Y1584484D01*
X7061876Y1885916D01*
X7273125Y2211211D01*
X7449214Y2556806D01*
X7588214Y2918913D01*
X7688602Y3293567D01*
X7749278Y3676662D01*
X7769578Y4064000D01*
X7749278Y4451338D01*
X7688602Y4834433D01*
X7588214Y5209087D01*
X7449214Y5571194D01*
X7273125Y5916789D01*
X7061876Y6242084D01*
X6817781Y6543516D01*
X6543516Y6817781D01*
X6242084Y7061876D01*
X5916789Y7273125D01*
X5913901Y7274597D01*
X5913895Y7274600D01*
X5574086Y7447741D01*
X5574077Y7447745D01*
X5571194Y7449214D01*
X5506067Y7474214D01*
X5212110Y7587054D01*
X5212102Y7587057D01*
X5209087Y7588214D01*
X5205962Y7589052D01*
X5205957Y7589053D01*
X4837566Y7687763D01*
X4837557Y7687765D01*
X4834433Y7688602D01*
X4831237Y7689109D01*
X4831224Y7689111D01*
X4454543Y7748771D01*
X4454531Y7748773D01*
X4451338Y7749278D01*
X4448103Y7749448D01*
X4448099Y7749448D01*
X4067244Y7769408D01*
X4064000Y7769578D01*
X4060756Y7769408D01*
X3679900Y7749448D01*
X3679894Y7749448D01*
X3676662Y7749278D01*
X3673470Y7748773D01*
X3673456Y7748771D01*
X3296775Y7689111D01*
X3296758Y7689108D01*
X3293567Y7688602D01*
X3290446Y7687766D01*
X3290433Y7687763D01*
X2922042Y7589053D01*
X2922031Y7589050D01*
X2918913Y7588214D01*
X2915902Y7587059D01*
X2915889Y7587054D01*
X2559837Y7450378D01*
X2559828Y7450375D01*
X2556806Y7449214D01*
X2553929Y7447749D01*
X2553913Y7447741D01*
X2214104Y7274600D01*
X2214090Y7274592D01*
X2211211Y7273125D01*
X2208491Y7271359D01*
X2208483Y7271354D01*
X1888644Y7063648D01*
X1888638Y7063645D01*
X1885916Y7061876D01*
X1883396Y7059836D01*
X1883390Y7059831D01*
X1587002Y6819821D01*
X1586991Y6819812D01*
X1584484Y6817781D01*
X1582199Y6815497D01*
X1582189Y6815487D01*
X1312513Y6545811D01*
X1312503Y6545801D01*
X1310219Y6543516D01*
X1308188Y6541009D01*
X1308179Y6540998D01*
X1068169Y6244610D01*
X1068164Y6244604D01*
X1066124Y6242084D01*
X1064355Y6239362D01*
X1064352Y6239356D01*
X856646Y5919517D01*
X856641Y5919509D01*
X854875Y5916789D01*
X853408Y5913910D01*
X853400Y5913896D01*
X680259Y5574087D01*
X680251Y5574071D01*
X678786Y5571194D01*
X677625Y5568172D01*
X677622Y5568163D01*
X540946Y5212111D01*
X540941Y5212098D01*
X539786Y5209087D01*
X531830Y5179396D01*
X441210Y4841198D01*
X404845Y4781538D01*
X341998Y4751009D01*
X272622Y4759304D01*
X218744Y4803789D01*
X197470Y4870341D01*
X197437Y4872749D01*
X180296Y9398001D01*
X3004434Y9398001D01*
X3024631Y9218749D01*
X3024631Y9218747D01*
X3024632Y9218745D01*
X3084211Y9048478D01*
X3084212Y9048477D01*
X3180185Y8895736D01*
X3307735Y8768186D01*
X3307737Y8768185D01*
X3307738Y8768184D01*
X3460478Y8672211D01*
X3630745Y8612632D01*
X3810000Y8592435D01*
X3989255Y8612632D01*
X4159522Y8672211D01*
X4312262Y8768184D01*
X4439816Y8895738D01*
X4535789Y9048478D01*
X4595368Y9218745D01*
X4615565Y9398000D01*
X4595368Y9577255D01*
X4535789Y9747522D01*
X4439816Y9900262D01*
X4439815Y9900263D01*
X4439814Y9900265D01*
X4312264Y10027815D01*
X4201513Y10097404D01*
X4159522Y10123789D01*
X3989255Y10183368D01*
X3989253Y10183369D01*
X3989251Y10183369D01*
X3809999Y10203566D01*
X3630748Y10183369D01*
X3630745Y10183369D01*
X3630745Y10183368D01*
X3460478Y10123789D01*
X3460476Y10123789D01*
X3460476Y10123788D01*
X3307735Y10027815D01*
X3180185Y9900265D01*
X3100732Y9773815D01*
X3084211Y9747522D01*
X3033116Y9601500D01*
X3024631Y9577252D01*
X3004434Y9398001D01*
X180296Y9398001D01*
X144697Y18796000D01*
X18573908Y18796000D01*
X18592213Y18633539D01*
X18646209Y18479228D01*
X18646211Y18479225D01*
X18733192Y18340796D01*
X18848796Y18225192D01*
X18987225Y18138211D01*
X18987227Y18138210D01*
X19141538Y18084214D01*
X19304000Y18065909D01*
X19466461Y18084214D01*
X19620775Y18138211D01*
X19759204Y18225192D01*
X19874808Y18340796D01*
X19961789Y18479225D01*
X20015786Y18633539D01*
X20034091Y18796000D01*
X20015786Y18958461D01*
X20001325Y18999787D01*
X19961790Y19112773D01*
X19881076Y19241228D01*
X19874808Y19251204D01*
X19759204Y19366808D01*
X19620775Y19453789D01*
X19620772Y19453791D01*
X19466461Y19507787D01*
X19304000Y19526092D01*
X19141538Y19507787D01*
X18987227Y19453791D01*
X18848794Y19366807D01*
X18733193Y19251206D01*
X18646209Y19112773D01*
X18592213Y18958462D01*
X18573908Y18796000D01*
X144697Y18796000D01*
X132970Y21891863D01*
X1484844Y21891863D01*
X1513962Y21701786D01*
X1580746Y21521463D01*
X1580748Y21521460D01*
X1682466Y21358269D01*
X1814951Y21218894D01*
X1972781Y21109042D01*
X2149492Y21033209D01*
X2337852Y20994500D01*
X2337853Y20994500D01*
X3138808Y20994500D01*
X3141950Y20994500D01*
X3285309Y21009078D01*
X3468786Y21066645D01*
X3636920Y21159966D01*
X3782826Y21285222D01*
X3860999Y21386214D01*
X3900530Y21437283D01*
X3912972Y21462648D01*
X3985217Y21609929D01*
X4033417Y21796087D01*
X4043156Y21988136D01*
X4014037Y22178214D01*
X4006353Y22198961D01*
X3947253Y22358538D01*
X3947120Y22358751D01*
X3845534Y22521731D01*
X3713049Y22661106D01*
X3555219Y22770958D01*
X3378508Y22846791D01*
X3190148Y22885500D01*
X2386050Y22885500D01*
X2382939Y22885184D01*
X2382926Y22885183D01*
X2242690Y22870922D01*
X2059213Y22813355D01*
X1891080Y22720035D01*
X1745173Y22594778D01*
X1627469Y22442718D01*
X1542783Y22270072D01*
X1529274Y22217897D01*
X1498231Y22098000D01*
X1494583Y22083912D01*
X1484844Y21891863D01*
X132970Y21891863D01*
X128056Y23189198D01*
X4488499Y23189198D01*
X4488500Y22945944D01*
X4488500Y22740527D01*
X4488816Y22737416D01*
X4488817Y22737404D01*
X4503541Y22592617D01*
X4562930Y22403327D01*
X4659217Y22229852D01*
X4788446Y22079318D01*
X4945331Y21957879D01*
X5030951Y21915881D01*
X5123456Y21870505D01*
X5315520Y21820776D01*
X5513663Y21810728D01*
X5709773Y21840770D01*
X5895820Y21909675D01*
X6064189Y22014620D01*
X6207986Y22151309D01*
X6321324Y22314146D01*
X6399563Y22496465D01*
X6439500Y22690801D01*
X6439500Y23114000D01*
X7372750Y23114000D01*
X7391686Y22945944D01*
X7391686Y22945942D01*
X7391687Y22945941D01*
X7447544Y22786310D01*
X7537523Y22643110D01*
X7657110Y22523523D01*
X7800310Y22433544D01*
X7959941Y22377687D01*
X8071980Y22365063D01*
X8127999Y22358751D01*
X8127999Y22358752D01*
X8128000Y22358751D01*
X8296059Y22377687D01*
X8455690Y22433544D01*
X8598890Y22523523D01*
X8718477Y22643110D01*
X8808456Y22786310D01*
X8864313Y22945941D01*
X8883249Y23114000D01*
X8883249Y23114001D01*
X19056750Y23114001D01*
X19075686Y22945944D01*
X19075686Y22945942D01*
X19075687Y22945941D01*
X19131544Y22786310D01*
X19221523Y22643110D01*
X19341110Y22523523D01*
X19484310Y22433544D01*
X19643941Y22377687D01*
X19755980Y22365064D01*
X19811999Y22358751D01*
X19811999Y22358752D01*
X19812000Y22358751D01*
X19980059Y22377687D01*
X20139690Y22433544D01*
X20282890Y22523523D01*
X20402477Y22643110D01*
X20492456Y22786310D01*
X20548313Y22945941D01*
X20567249Y23114000D01*
X20548313Y23282059D01*
X20492456Y23441690D01*
X20402477Y23584890D01*
X20282890Y23704477D01*
X20139690Y23794456D01*
X19980059Y23850313D01*
X19980058Y23850314D01*
X19980056Y23850314D01*
X19812000Y23869250D01*
X19643943Y23850314D01*
X19484310Y23794456D01*
X19341108Y23704476D01*
X19221524Y23584892D01*
X19131544Y23441690D01*
X19075686Y23282057D01*
X19056750Y23114001D01*
X8883249Y23114001D01*
X8864313Y23282059D01*
X8808456Y23441690D01*
X8718477Y23584890D01*
X8598890Y23704477D01*
X8455690Y23794456D01*
X8296059Y23850313D01*
X8296058Y23850314D01*
X8296056Y23850314D01*
X8127999Y23869250D01*
X7959943Y23850314D01*
X7800310Y23794456D01*
X7657108Y23704476D01*
X7537524Y23584892D01*
X7447544Y23441690D01*
X7391686Y23282057D01*
X7372750Y23114000D01*
X6439500Y23114000D01*
X6439500Y23139473D01*
X6424459Y23287379D01*
X6424458Y23287382D01*
X6424458Y23287384D01*
X6365069Y23476674D01*
X6315570Y23565854D01*
X6268784Y23650146D01*
X6268783Y23650148D01*
X6268782Y23650149D01*
X6139553Y23800683D01*
X5982668Y23922122D01*
X5804544Y24009495D01*
X5804543Y24009496D01*
X5612480Y24059224D01*
X5414337Y24069272D01*
X5414336Y24069272D01*
X5414334Y24069272D01*
X5218227Y24039231D01*
X5032182Y23970327D01*
X4863812Y23865381D01*
X4720012Y23728690D01*
X4606676Y23565855D01*
X4528437Y23383536D01*
X4488499Y23189198D01*
X128056Y23189198D01*
X106455Y28891863D01*
X1484844Y28891863D01*
X1513962Y28701786D01*
X1580746Y28521463D01*
X1580748Y28521460D01*
X1682466Y28358269D01*
X1814951Y28218894D01*
X1972781Y28109042D01*
X2149492Y28033209D01*
X2337852Y27994500D01*
X2337853Y27994500D01*
X3138808Y27994500D01*
X3141950Y27994500D01*
X3285309Y28009078D01*
X3468786Y28066645D01*
X3636920Y28159966D01*
X3670971Y28189198D01*
X4488499Y28189198D01*
X4488500Y27866313D01*
X4488500Y27740527D01*
X4488816Y27737416D01*
X4488817Y27737404D01*
X4503541Y27592617D01*
X4562930Y27403327D01*
X4659217Y27229852D01*
X4788446Y27079318D01*
X4945331Y26957879D01*
X5030951Y26915881D01*
X5123456Y26870505D01*
X5315520Y26820776D01*
X5513663Y26810728D01*
X5709773Y26840770D01*
X5895820Y26909675D01*
X6064189Y27014620D01*
X6207986Y27151309D01*
X6321324Y27314146D01*
X6399563Y27496465D01*
X6439500Y27690801D01*
X6439500Y28139473D01*
X6424459Y28287379D01*
X6424458Y28287382D01*
X6424458Y28287384D01*
X6365069Y28476674D01*
X6351395Y28501310D01*
X6268784Y28650146D01*
X6268783Y28650148D01*
X6268782Y28650149D01*
X6139553Y28800683D01*
X5982668Y28922122D01*
X5804544Y29009495D01*
X5804543Y29009496D01*
X5612480Y29059224D01*
X5414337Y29069272D01*
X5414336Y29069272D01*
X5414334Y29069272D01*
X5218227Y29039231D01*
X5032182Y28970327D01*
X4863812Y28865381D01*
X4720012Y28728690D01*
X4606676Y28565855D01*
X4528437Y28383536D01*
X4488499Y28189198D01*
X3670971Y28189198D01*
X3782826Y28285222D01*
X3858926Y28383536D01*
X3900530Y28437283D01*
X3919854Y28476678D01*
X3985217Y28609929D01*
X4033417Y28796087D01*
X4043156Y28988136D01*
X4014037Y29178214D01*
X4002264Y29210001D01*
X18040750Y29210001D01*
X18059686Y29041944D01*
X18059686Y29041942D01*
X18059687Y29041941D01*
X18115544Y28882310D01*
X18205523Y28739110D01*
X18325110Y28619523D01*
X18468310Y28529544D01*
X18627941Y28473687D01*
X18796000Y28454751D01*
X18964059Y28473687D01*
X19123690Y28529544D01*
X19266890Y28619523D01*
X19386477Y28739110D01*
X19476456Y28882310D01*
X19532313Y29041941D01*
X19551249Y29210000D01*
X19532313Y29378059D01*
X19476456Y29537690D01*
X19386477Y29680890D01*
X19266890Y29800477D01*
X19123690Y29890456D01*
X18964059Y29946313D01*
X18964058Y29946314D01*
X18964056Y29946314D01*
X18796000Y29965250D01*
X18627943Y29946314D01*
X18468310Y29890456D01*
X18325108Y29800476D01*
X18205524Y29680892D01*
X18115544Y29537690D01*
X18059686Y29378057D01*
X18040750Y29210001D01*
X4002264Y29210001D01*
X3947253Y29358538D01*
X3935087Y29378057D01*
X3845534Y29521731D01*
X3713049Y29661106D01*
X3555219Y29770958D01*
X3378508Y29846791D01*
X3190148Y29885500D01*
X2386050Y29885500D01*
X2382939Y29885184D01*
X2382926Y29885183D01*
X2242690Y29870922D01*
X2059213Y29813355D01*
X1891080Y29720035D01*
X1745173Y29594778D01*
X1627469Y29442718D01*
X1542783Y29270072D01*
X1494583Y29083912D01*
X1484844Y28891863D01*
X106455Y28891863D01*
X96576Y31500000D01*
X7558728Y31500000D01*
X7558811Y31498932D01*
X7617603Y31254044D01*
X7713982Y31021368D01*
X7845569Y30806636D01*
X8009130Y30615131D01*
X8200635Y30451570D01*
X8415367Y30319983D01*
X8648043Y30223604D01*
X8892931Y30164812D01*
X8893999Y30164729D01*
X8894000Y30164729D01*
X8894000Y31258317D01*
X8922819Y31240791D01*
X9068404Y31200000D01*
X9181622Y31200000D01*
X9293783Y31215416D01*
X9393999Y31258947D01*
X9393999Y30164729D01*
X9394000Y30164729D01*
X9395068Y30164812D01*
X9639956Y30223604D01*
X9872632Y30319983D01*
X10087364Y30451570D01*
X10278869Y30615131D01*
X10442430Y30806636D01*
X10574017Y31021368D01*
X10670396Y31254044D01*
X10729188Y31498932D01*
X10729272Y31500000D01*
X9638852Y31500000D01*
X9687559Y31637047D01*
X9697877Y31787886D01*
X9667116Y31935915D01*
X9633910Y32000000D01*
X10729271Y32000000D01*
X10729271Y32000001D01*
X10729188Y32001069D01*
X10670396Y32245957D01*
X10574017Y32478633D01*
X10442430Y32693365D01*
X10278869Y32884870D01*
X10261620Y32899602D01*
X11621500Y32899602D01*
X11661134Y32662085D01*
X11739319Y32434341D01*
X11739321Y32434336D01*
X11853928Y32222561D01*
X12001829Y32032537D01*
X12178990Y31869449D01*
X12380578Y31737745D01*
X12601095Y31641017D01*
X12834524Y31581905D01*
X13014400Y31567000D01*
X13016970Y31567000D01*
X13227030Y31567000D01*
X13229600Y31567000D01*
X13409476Y31581905D01*
X13642905Y31641017D01*
X13863422Y31737745D01*
X14065010Y31869449D01*
X14242171Y32032537D01*
X14390072Y32222561D01*
X14504679Y32434336D01*
X14582866Y32662087D01*
X14622500Y32899601D01*
X14622500Y33140399D01*
X14582866Y33377913D01*
X14504679Y33605664D01*
X14390072Y33817439D01*
X14242171Y34007463D01*
X14065010Y34170551D01*
X14041070Y34186192D01*
X13995714Y34239337D01*
X13986290Y34308569D01*
X14015792Y34371905D01*
X14041071Y34393809D01*
X14044590Y34396108D01*
X14065010Y34409449D01*
X14242171Y34572537D01*
X14390072Y34762561D01*
X14504679Y34974336D01*
X14582866Y35202087D01*
X14622500Y35439601D01*
X14622500Y35680399D01*
X14582866Y35917913D01*
X14504679Y36145664D01*
X14390072Y36357439D01*
X14311081Y36458927D01*
X14278845Y36500345D01*
X14253203Y36565340D01*
X14266770Y36633879D01*
X14315239Y36684204D01*
X14333367Y36692689D01*
X14364087Y36704147D01*
X14479188Y36790312D01*
X14565352Y36905411D01*
X14615599Y37040129D01*
X14621645Y37096368D01*
X14622000Y37102982D01*
X14622000Y37850000D01*
X13616852Y37850000D01*
X13665559Y37987047D01*
X13675877Y38137886D01*
X13645116Y38285915D01*
X13611910Y38350000D01*
X14622000Y38350000D01*
X14622000Y39097019D01*
X14621645Y39103633D01*
X14615599Y39159872D01*
X14565352Y39294590D01*
X14479188Y39409689D01*
X14364089Y39495853D01*
X14229371Y39546100D01*
X14173132Y39552146D01*
X14166518Y39552500D01*
X13372000Y39552500D01*
X13372000Y38591684D01*
X13343181Y38609209D01*
X13197596Y38650000D01*
X13084378Y38650000D01*
X12972217Y38634584D01*
X12872000Y38591054D01*
X12872000Y39552500D01*
X12077482Y39552500D01*
X12070867Y39552146D01*
X12014628Y39546100D01*
X11879910Y39495853D01*
X11764811Y39409689D01*
X11678647Y39294590D01*
X11628400Y39159872D01*
X11622354Y39103633D01*
X11622000Y39097019D01*
X11622000Y38350000D01*
X12627148Y38350000D01*
X12578441Y38212953D01*
X12568123Y38062114D01*
X12598884Y37914085D01*
X12632090Y37850000D01*
X11622000Y37850000D01*
X11622000Y37102982D01*
X11622354Y37096368D01*
X11628400Y37040129D01*
X11678647Y36905411D01*
X11764811Y36790312D01*
X11879911Y36704148D01*
X11910633Y36692689D01*
X11966567Y36650818D01*
X11990984Y36585354D01*
X11976133Y36517081D01*
X11965154Y36500346D01*
X11853931Y36357444D01*
X11853928Y36357441D01*
X11853928Y36357439D01*
X11740349Y36147563D01*
X11739319Y36145660D01*
X11661134Y35917916D01*
X11621500Y35680399D01*
X11621500Y35439602D01*
X11661134Y35202085D01*
X11732850Y34993184D01*
X11739321Y34974336D01*
X11853928Y34762561D01*
X12001829Y34572537D01*
X12178990Y34409449D01*
X12197508Y34397351D01*
X12202930Y34393808D01*
X12248286Y34340661D01*
X12257709Y34271430D01*
X12228206Y34208094D01*
X12202930Y34186192D01*
X12178991Y34170552D01*
X12001829Y34007464D01*
X11853929Y33817441D01*
X11853927Y33817439D01*
X11853928Y33817439D01*
X11742271Y33611114D01*
X11739319Y33605660D01*
X11661134Y33377916D01*
X11621500Y33140399D01*
X11621500Y32899602D01*
X10261620Y32899602D01*
X10087364Y33048431D01*
X9872632Y33180018D01*
X9639956Y33276397D01*
X9395070Y33335188D01*
X9394000Y33335273D01*
X9394000Y32241684D01*
X9365181Y32259209D01*
X9219596Y32300000D01*
X9106378Y32300000D01*
X8994217Y32284584D01*
X8894000Y32241054D01*
X8894000Y33335273D01*
X8892929Y33335188D01*
X8648043Y33276397D01*
X8415367Y33180018D01*
X8200635Y33048431D01*
X8009130Y32884870D01*
X7845569Y32693365D01*
X7713982Y32478633D01*
X7617603Y32245957D01*
X7558811Y32001069D01*
X7558728Y32000001D01*
X7558729Y32000000D01*
X8649148Y32000000D01*
X8600441Y31862953D01*
X8590123Y31712114D01*
X8620884Y31564085D01*
X8654090Y31500000D01*
X7558728Y31500000D01*
X96576Y31500000D01*
X91780Y32766001D01*
X4782434Y32766001D01*
X4802631Y32586749D01*
X4802631Y32586747D01*
X4802632Y32586745D01*
X4862211Y32416478D01*
X4862212Y32416477D01*
X4958185Y32263736D01*
X5085735Y32136186D01*
X5085737Y32136185D01*
X5085738Y32136184D01*
X5238478Y32040211D01*
X5408745Y31980632D01*
X5543186Y31965485D01*
X5587999Y31960435D01*
X5587999Y31960436D01*
X5588000Y31960435D01*
X5767255Y31980632D01*
X5937522Y32040211D01*
X6090262Y32136184D01*
X6217816Y32263738D01*
X6313789Y32416478D01*
X6373368Y32586745D01*
X6393565Y32766000D01*
X6373368Y32945255D01*
X6313789Y33115522D01*
X6255662Y33208030D01*
X6236663Y33275264D01*
X6255662Y33339971D01*
X6313789Y33432478D01*
X6373368Y33602745D01*
X6393565Y33782000D01*
X6373368Y33961255D01*
X6313789Y34131522D01*
X6217816Y34284262D01*
X6217815Y34284263D01*
X6217814Y34284265D01*
X6090264Y34411815D01*
X6014757Y34459259D01*
X5937522Y34507789D01*
X5767255Y34567368D01*
X5767251Y34567369D01*
X5767250Y34567369D01*
X5693036Y34575731D01*
X5628622Y34602798D01*
X5618080Y34618148D01*
X5616111Y34614866D01*
X5553474Y34583910D01*
X5545963Y34582830D01*
X5408749Y34567369D01*
X5408746Y34567369D01*
X5408745Y34567368D01*
X5238478Y34507789D01*
X5238476Y34507789D01*
X5238476Y34507788D01*
X5085735Y34411815D01*
X4958185Y34284265D01*
X4872599Y34148055D01*
X4862211Y34131522D01*
X4803091Y33962568D01*
X4802631Y33961252D01*
X4782434Y33782000D01*
X4802631Y33602749D01*
X4802631Y33602747D01*
X4802632Y33602745D01*
X4862211Y33432478D01*
X4914249Y33349660D01*
X4920336Y33339973D01*
X4939336Y33272736D01*
X4920336Y33208030D01*
X4862213Y33115527D01*
X4802631Y32945252D01*
X4782434Y32766001D01*
X91780Y32766001D01*
X81197Y35560001D01*
X1188551Y35560001D01*
X1208317Y35308851D01*
X1267126Y35063890D01*
X1304219Y34974341D01*
X1363534Y34831141D01*
X1495164Y34616341D01*
X1658776Y34424776D01*
X1850341Y34261164D01*
X2065141Y34129534D01*
X2297889Y34033127D01*
X2542852Y33974317D01*
X2794000Y33954551D01*
X3045148Y33974317D01*
X3290111Y34033127D01*
X3522859Y34129534D01*
X3737659Y34261164D01*
X3929224Y34424776D01*
X4092836Y34616341D01*
X4224466Y34831141D01*
X4320873Y35063889D01*
X4379683Y35308852D01*
X4399449Y35560000D01*
X4394491Y35623001D01*
X4845434Y35623001D01*
X4865631Y35443749D01*
X4865631Y35443747D01*
X4865632Y35443745D01*
X4925211Y35273478D01*
X4958092Y35221148D01*
X5021185Y35120736D01*
X5148735Y34993186D01*
X5148737Y34993185D01*
X5148738Y34993184D01*
X5301478Y34897211D01*
X5471745Y34837632D01*
X5545962Y34829270D01*
X5610376Y34802204D01*
X5620918Y34786855D01*
X5622888Y34790136D01*
X5685526Y34821092D01*
X5693036Y34822171D01*
X5745110Y34828039D01*
X5830255Y34837632D01*
X6000522Y34897211D01*
X6153262Y34993184D01*
X6280816Y35120738D01*
X6376789Y35273478D01*
X6436368Y35443745D01*
X6456565Y35623000D01*
X6455253Y35634642D01*
X6467306Y35703462D01*
X6514653Y35754843D01*
X6582263Y35772469D01*
X6592349Y35771748D01*
X6604000Y35770435D01*
X6604001Y35770436D01*
X6604003Y35770435D01*
X6680823Y35779091D01*
X6783255Y35790632D01*
X6953522Y35850211D01*
X7106262Y35946184D01*
X7233816Y36073738D01*
X7329789Y36226478D01*
X7389368Y36396745D01*
X7409565Y36576000D01*
X7389368Y36755255D01*
X7329789Y36925522D01*
X7233816Y37078262D01*
X7233815Y37078263D01*
X7233814Y37078265D01*
X7106264Y37205815D01*
X6975037Y37288270D01*
X6953522Y37301789D01*
X6783255Y37361368D01*
X6783253Y37361369D01*
X6783251Y37361369D01*
X6604000Y37381566D01*
X6424748Y37361369D01*
X6424745Y37361369D01*
X6424745Y37361368D01*
X6254478Y37301789D01*
X6254476Y37301789D01*
X6254476Y37301788D01*
X6101735Y37205815D01*
X5974185Y37078265D01*
X5880762Y36929582D01*
X5878211Y36925522D01*
X5831057Y36790763D01*
X5818631Y36755252D01*
X5798434Y36576000D01*
X5799746Y36564357D01*
X5787691Y36495535D01*
X5740342Y36444156D01*
X5672732Y36426532D01*
X5662643Y36427254D01*
X5651000Y36428566D01*
X5471748Y36408369D01*
X5471745Y36408369D01*
X5471745Y36408368D01*
X5301478Y36348789D01*
X5301476Y36348789D01*
X5301476Y36348788D01*
X5148735Y36252815D01*
X5021185Y36125265D01*
X4952781Y36016400D01*
X4925211Y35972522D01*
X4868744Y35811148D01*
X4865631Y35802252D01*
X4845434Y35623001D01*
X4394491Y35623001D01*
X4379683Y35811148D01*
X4320873Y36056111D01*
X4224466Y36288859D01*
X4092836Y36503659D01*
X3929224Y36695224D01*
X3737659Y36858836D01*
X3522859Y36990466D01*
X3402961Y37040129D01*
X3290110Y37086874D01*
X3045149Y37145683D01*
X2794000Y37165449D01*
X2542850Y37145683D01*
X2297889Y37086874D01*
X2065139Y36990465D01*
X1850342Y36858837D01*
X1658776Y36695224D01*
X1495163Y36503658D01*
X1363535Y36288861D01*
X1267126Y36056111D01*
X1208317Y35811150D01*
X1188551Y35560001D01*
X81197Y35560001D01*
X71101Y38225422D01*
X7543500Y38225422D01*
X7543501Y38222128D01*
X7543853Y38218848D01*
X7543854Y38218841D01*
X7549909Y38162516D01*
X7555955Y38146307D01*
X7600204Y38027669D01*
X7686454Y37912454D01*
X7801669Y37826204D01*
X7936517Y37775909D01*
X7996127Y37769500D01*
X10291872Y37769501D01*
X10351483Y37775909D01*
X10486331Y37826204D01*
X10601546Y37912454D01*
X10687796Y38027669D01*
X10738091Y38162517D01*
X10744500Y38222127D01*
X10744499Y40517872D01*
X10738091Y40577483D01*
X10687796Y40712331D01*
X10601546Y40827546D01*
X10486331Y40913796D01*
X10351483Y40964091D01*
X10351483Y40964092D01*
X10295166Y40970146D01*
X10295165Y40970147D01*
X10291873Y40970500D01*
X10288550Y40970500D01*
X7999439Y40970500D01*
X7999420Y40970500D01*
X7996128Y40970499D01*
X7992848Y40970147D01*
X7992840Y40970146D01*
X7936515Y40964091D01*
X7801669Y40913796D01*
X7686454Y40827546D01*
X7600204Y40712332D01*
X7549910Y40577485D01*
X7549909Y40577483D01*
X7543500Y40517873D01*
X7543500Y40514552D01*
X7543500Y40514551D01*
X7543500Y38225440D01*
X7543500Y38225422D01*
X71101Y38225422D01*
X45238Y45053123D01*
X5392500Y45053123D01*
X5392501Y45049992D01*
X5392820Y45046860D01*
X5392821Y45046859D01*
X5403000Y44947204D01*
X5458186Y44780666D01*
X5550288Y44631343D01*
X5674342Y44507289D01*
X5738191Y44467907D01*
X5784916Y44415960D01*
X5796139Y44346997D01*
X5768296Y44282915D01*
X5749750Y44264900D01*
X5730462Y44249731D01*
X5592888Y44090964D01*
X5487853Y43909037D01*
X5419143Y43710512D01*
X5417631Y43700001D01*
X5417632Y43700000D01*
X6488440Y43700000D01*
X6449722Y43657941D01*
X6399449Y43543330D01*
X6389114Y43418605D01*
X6419837Y43297281D01*
X6483394Y43200000D01*
X5421742Y43200000D01*
X5448770Y43088590D01*
X5536039Y42897495D01*
X5657892Y42726379D01*
X5809933Y42581408D01*
X5986655Y42467834D01*
X6181685Y42389756D01*
X6387962Y42350000D01*
X6518000Y42350000D01*
X6518000Y43169383D01*
X6587052Y43115637D01*
X6705424Y43075000D01*
X6799073Y43075000D01*
X6891446Y43090414D01*
X7001514Y43149981D01*
X7018000Y43167890D01*
X7018000Y42350000D01*
X7092450Y42350000D01*
X7098359Y42350282D01*
X7252120Y42364965D01*
X7453687Y42424150D01*
X7640412Y42520413D01*
X7805538Y42650270D01*
X7943111Y42809037D01*
X8048146Y42990964D01*
X8116856Y43189489D01*
X8118368Y43200000D01*
X7047560Y43200000D01*
X7086278Y43242059D01*
X7136551Y43356670D01*
X7146886Y43481395D01*
X7116163Y43602719D01*
X7052606Y43700000D01*
X8114257Y43700000D01*
X8087229Y43811411D01*
X7999960Y44002506D01*
X7878107Y44173623D01*
X7775478Y44271480D01*
X7740543Y44331989D01*
X7743868Y44401780D01*
X7784397Y44458694D01*
X7795948Y44466760D01*
X7861656Y44507288D01*
X7985712Y44631344D01*
X8077814Y44780666D01*
X8132999Y44947203D01*
X8143500Y45049991D01*
X8143499Y45850008D01*
X8132999Y45952797D01*
X8077814Y46119334D01*
X7985712Y46268656D01*
X7985711Y46268658D01*
X7861657Y46392712D01*
X7712334Y46484814D01*
X7545797Y46540000D01*
X7446141Y46550181D01*
X7446122Y46550182D01*
X7443009Y46550500D01*
X7439860Y46550500D01*
X6096140Y46550500D01*
X6096120Y46550500D01*
X6092992Y46550499D01*
X6089860Y46550180D01*
X6089858Y46550179D01*
X5990203Y46540000D01*
X5823665Y46484814D01*
X5674342Y46392712D01*
X5550288Y46268658D01*
X5458186Y46119335D01*
X5403000Y45952798D01*
X5392819Y45853142D01*
X5392817Y45853122D01*
X5392500Y45850009D01*
X5392500Y45846862D01*
X5392500Y45846861D01*
X5392500Y45053142D01*
X5392500Y45053123D01*
X45238Y45053123D01*
X32129Y48514001D01*
X10370434Y48514001D01*
X10390631Y48334749D01*
X10390631Y48334747D01*
X10390632Y48334745D01*
X10450211Y48164478D01*
X10450212Y48164477D01*
X10546185Y48011736D01*
X10673735Y47884186D01*
X10673737Y47884185D01*
X10673738Y47884184D01*
X10826478Y47788211D01*
X10996745Y47728632D01*
X11176000Y47708435D01*
X11355255Y47728632D01*
X11525522Y47788211D01*
X11678262Y47884184D01*
X11805816Y48011738D01*
X11901789Y48164478D01*
X11961368Y48334745D01*
X11981565Y48514000D01*
X11961368Y48693255D01*
X11901789Y48863522D01*
X11805816Y49016262D01*
X11805815Y49016263D01*
X11805814Y49016265D01*
X11678264Y49143815D01*
X11536990Y49232583D01*
X11525522Y49239789D01*
X11355255Y49299368D01*
X11355253Y49299369D01*
X11355251Y49299369D01*
X11176000Y49319566D01*
X10996748Y49299369D01*
X10996745Y49299369D01*
X10996745Y49299368D01*
X10826478Y49239789D01*
X10826476Y49239789D01*
X10826476Y49239788D01*
X10673735Y49143815D01*
X10546185Y49016265D01*
X10450212Y48863524D01*
X10390631Y48693252D01*
X10370434Y48514001D01*
X32129Y48514001D01*
X24169Y50615473D01*
X43599Y50682586D01*
X96230Y50728540D01*
X165350Y50738746D01*
X229015Y50709962D01*
X239395Y50699928D01*
X318256Y50614262D01*
X383667Y50563350D01*
X514485Y50461530D01*
X514487Y50461529D01*
X514491Y50461526D01*
X733190Y50343172D01*
X968386Y50262429D01*
X1213665Y50221500D01*
X1462335Y50221500D01*
X1707614Y50262429D01*
X1942810Y50343172D01*
X2161509Y50461526D01*
X2357744Y50614262D01*
X2526164Y50797215D01*
X2662173Y51005393D01*
X2762063Y51233119D01*
X2823108Y51474179D01*
X2843643Y51722000D01*
X2842047Y51741255D01*
X2827939Y51911522D01*
X2823108Y51969821D01*
X2762063Y52210881D01*
X2662173Y52438607D01*
X2526164Y52646785D01*
X2357744Y52829738D01*
X2291605Y52881216D01*
X2161514Y52982471D01*
X2161510Y52982474D01*
X2161509Y52982474D01*
X1942810Y53100828D01*
X1942806Y53100830D01*
X1942805Y53100830D01*
X1707615Y53181571D01*
X1462335Y53222500D01*
X1213665Y53222500D01*
X968384Y53181571D01*
X733194Y53100830D01*
X514485Y52982471D01*
X318255Y52829738D01*
X231052Y52735011D01*
X171165Y52699020D01*
X101327Y52701121D01*
X43711Y52740645D01*
X16610Y52805045D01*
X15824Y52818511D01*
X12402Y53722000D01*
X4232340Y53722000D01*
X4252936Y53486593D01*
X4279198Y53388583D01*
X4314097Y53258337D01*
X4413965Y53044170D01*
X4549505Y52850599D01*
X4716599Y52683505D01*
X4910170Y52547965D01*
X5124337Y52448097D01*
X5352592Y52386937D01*
X5587999Y52366341D01*
X5587999Y52366342D01*
X5588000Y52366341D01*
X5789462Y52383967D01*
X5857962Y52370201D01*
X5908145Y52321586D01*
X5924079Y52253557D01*
X5916277Y52220889D01*
X5916460Y52220842D01*
X5913938Y52210884D01*
X5913937Y52210881D01*
X5887431Y52106211D01*
X5852891Y51969817D01*
X5832356Y51722000D01*
X5852891Y51474184D01*
X5852891Y51474181D01*
X5852892Y51474179D01*
X5913937Y51233119D01*
X5958819Y51130798D01*
X6013825Y51005396D01*
X6013827Y51005393D01*
X6149836Y50797215D01*
X6318256Y50614262D01*
X6383667Y50563350D01*
X6514485Y50461530D01*
X6514487Y50461529D01*
X6514491Y50461526D01*
X6733190Y50343172D01*
X6968386Y50262429D01*
X7213665Y50221500D01*
X7462335Y50221500D01*
X7707614Y50262429D01*
X7942810Y50343172D01*
X8161509Y50461526D01*
X8357744Y50614262D01*
X8526164Y50797215D01*
X8662173Y51005393D01*
X8762063Y51233119D01*
X8823108Y51474179D01*
X8830385Y51562001D01*
X19514434Y51562001D01*
X19534631Y51382749D01*
X19534631Y51382747D01*
X19534632Y51382745D01*
X19594211Y51212478D01*
X19645534Y51130798D01*
X19690185Y51059736D01*
X19817735Y50932186D01*
X19817737Y50932185D01*
X19817738Y50932184D01*
X19970478Y50836211D01*
X20140745Y50776632D01*
X20320000Y50756435D01*
X20499255Y50776632D01*
X20669522Y50836211D01*
X20822262Y50932184D01*
X20949816Y51059738D01*
X21045789Y51212478D01*
X21105368Y51382745D01*
X21125565Y51562000D01*
X21105368Y51741255D01*
X21045789Y51911522D01*
X20949816Y52064262D01*
X20949815Y52064263D01*
X20949814Y52064265D01*
X20822264Y52191815D01*
X20700301Y52268449D01*
X20669522Y52287789D01*
X20499255Y52347368D01*
X20499253Y52347369D01*
X20499251Y52347369D01*
X20320000Y52367566D01*
X20140748Y52347369D01*
X20140745Y52347369D01*
X20140745Y52347368D01*
X19970478Y52287789D01*
X19970476Y52287789D01*
X19970476Y52287788D01*
X19817735Y52191815D01*
X19690185Y52064265D01*
X19594212Y51911524D01*
X19534631Y51741252D01*
X19514434Y51562001D01*
X8830385Y51562001D01*
X8843643Y51722000D01*
X8823108Y51969821D01*
X8762063Y52210881D01*
X8662173Y52438607D01*
X8526164Y52646785D01*
X8357744Y52829738D01*
X8291605Y52881216D01*
X8161514Y52982471D01*
X8161510Y52982474D01*
X8161509Y52982474D01*
X7942810Y53100828D01*
X7942806Y53100830D01*
X7942805Y53100830D01*
X7707615Y53181571D01*
X7462335Y53222500D01*
X7213665Y53222500D01*
X7025440Y53191092D01*
X6956075Y53199474D01*
X6902253Y53244027D01*
X6881063Y53310606D01*
X6885255Y53345491D01*
X6923063Y53486592D01*
X6943659Y53722000D01*
X6923063Y53957408D01*
X6861903Y54185663D01*
X6762035Y54399829D01*
X6626495Y54593401D01*
X6459401Y54760495D01*
X6265830Y54896035D01*
X6051663Y54995903D01*
X5958887Y55020762D01*
X5823407Y55057064D01*
X5587999Y55077660D01*
X5352592Y55057064D01*
X5124336Y54995903D01*
X4910170Y54896035D01*
X4716598Y54760495D01*
X4549505Y54593402D01*
X4413965Y54399830D01*
X4314097Y54185664D01*
X4252936Y53957408D01*
X4232340Y53722000D01*
X12402Y53722000D01*
X-2750Y57722001D01*
X4232340Y57722001D01*
X4252936Y57486593D01*
X4269778Y57423739D01*
X4314097Y57258337D01*
X4413965Y57044170D01*
X4549505Y56850599D01*
X4716599Y56683505D01*
X4910170Y56547965D01*
X5124337Y56448097D01*
X5352592Y56386937D01*
X5588000Y56366341D01*
X5823408Y56386937D01*
X6051663Y56448097D01*
X6265830Y56547965D01*
X6459401Y56683505D01*
X6626495Y56850599D01*
X6762035Y57044170D01*
X6861903Y57258337D01*
X6923063Y57486592D01*
X6943659Y57722000D01*
X6923063Y57957408D01*
X6861903Y58185663D01*
X6762035Y58399829D01*
X6626495Y58593401D01*
X6459401Y58760495D01*
X6265830Y58896035D01*
X6051663Y58995903D01*
X5990501Y59012291D01*
X5823407Y59057064D01*
X5588000Y59077660D01*
X5352592Y59057064D01*
X5124336Y58995903D01*
X4910170Y58896035D01*
X4716598Y58760495D01*
X4549505Y58593402D01*
X4413965Y58399830D01*
X4314097Y58185664D01*
X4252936Y57957408D01*
X4232340Y57722001D01*
X-2750Y57722001D01*
X-17902Y61722000D01*
X4232340Y61722000D01*
X4252936Y61486593D01*
X4288108Y61355331D01*
X4314097Y61258337D01*
X4413965Y61044170D01*
X4549505Y60850599D01*
X4716599Y60683505D01*
X4910170Y60547965D01*
X5124337Y60448097D01*
X5352592Y60386937D01*
X5588000Y60366341D01*
X5823408Y60386937D01*
X6051663Y60448097D01*
X6265830Y60547965D01*
X6459401Y60683505D01*
X6626495Y60850599D01*
X6762035Y61044170D01*
X6861903Y61258337D01*
X6923063Y61486592D01*
X6943659Y61722000D01*
X6923063Y61957408D01*
X6885256Y62098508D01*
X6886919Y62168356D01*
X6926081Y62226219D01*
X6990310Y62253723D01*
X7025436Y62252910D01*
X7213665Y62221500D01*
X7213666Y62221500D01*
X7462335Y62221500D01*
X7707614Y62262429D01*
X7942810Y62343172D01*
X8161509Y62461526D01*
X8357744Y62614262D01*
X8526164Y62797215D01*
X8662173Y63005393D01*
X8762063Y63233119D01*
X8823108Y63474179D01*
X8835309Y63621422D01*
X23795500Y63621422D01*
X23795501Y63618128D01*
X23795853Y63614848D01*
X23795854Y63614841D01*
X23801909Y63558516D01*
X23827056Y63491094D01*
X23852204Y63423669D01*
X23938454Y63308454D01*
X24053669Y63222204D01*
X24188517Y63171909D01*
X24248127Y63165500D01*
X26043872Y63165501D01*
X26103483Y63171909D01*
X26238331Y63222204D01*
X26353546Y63308454D01*
X26439796Y63423669D01*
X26488810Y63555084D01*
X26530681Y63611017D01*
X26596146Y63635434D01*
X26664419Y63620582D01*
X26692672Y63599432D01*
X26814599Y63477505D01*
X27008170Y63341965D01*
X27222337Y63242097D01*
X27450592Y63180937D01*
X27686000Y63160341D01*
X27921408Y63180937D01*
X28149663Y63242097D01*
X28363830Y63341965D01*
X28557401Y63477505D01*
X28724495Y63644599D01*
X28854427Y63830162D01*
X28909001Y63873784D01*
X28978499Y63880978D01*
X29040854Y63849455D01*
X29057572Y63830162D01*
X29187505Y63644599D01*
X29354599Y63477505D01*
X29548170Y63341965D01*
X29762337Y63242097D01*
X29990592Y63180937D01*
X30226000Y63160341D01*
X30461408Y63180937D01*
X30689663Y63242097D01*
X30903830Y63341965D01*
X31097401Y63477505D01*
X31241318Y63621422D01*
X32939500Y63621422D01*
X32939501Y63618128D01*
X32939853Y63614848D01*
X32939854Y63614841D01*
X32945909Y63558516D01*
X32971056Y63491094D01*
X32996204Y63423669D01*
X33082454Y63308454D01*
X33197669Y63222204D01*
X33332517Y63171909D01*
X33392127Y63165500D01*
X35187872Y63165501D01*
X35247483Y63171909D01*
X35382331Y63222204D01*
X35497546Y63308454D01*
X35583796Y63423669D01*
X35632810Y63555084D01*
X35674681Y63611017D01*
X35740146Y63635434D01*
X35808419Y63620582D01*
X35836672Y63599432D01*
X35958599Y63477505D01*
X36152170Y63341965D01*
X36366337Y63242097D01*
X36594592Y63180937D01*
X36830000Y63160341D01*
X37065408Y63180937D01*
X37293663Y63242097D01*
X37507830Y63341965D01*
X37701401Y63477505D01*
X37868495Y63644599D01*
X37998426Y63830161D01*
X38053002Y63873784D01*
X38122500Y63880978D01*
X38184855Y63849455D01*
X38201571Y63830163D01*
X38331505Y63644599D01*
X38498599Y63477505D01*
X38692170Y63341965D01*
X38906337Y63242097D01*
X39134592Y63180937D01*
X39370000Y63160341D01*
X39605408Y63180937D01*
X39833663Y63242097D01*
X40047830Y63341965D01*
X40241401Y63477505D01*
X40408495Y63644599D01*
X40544035Y63838170D01*
X40643903Y64052337D01*
X40705063Y64280592D01*
X40725659Y64516000D01*
X40705063Y64751408D01*
X40643903Y64979663D01*
X40544035Y65193829D01*
X40408495Y65387401D01*
X40241401Y65554495D01*
X40047830Y65690035D01*
X39833663Y65789903D01*
X39772502Y65806291D01*
X39605407Y65851064D01*
X39370000Y65871660D01*
X39134592Y65851064D01*
X38906336Y65789903D01*
X38692170Y65690035D01*
X38498598Y65554495D01*
X38331505Y65387402D01*
X38201575Y65201841D01*
X38146998Y65158216D01*
X38077500Y65151022D01*
X38015145Y65182545D01*
X37998425Y65201841D01*
X37868494Y65387402D01*
X37701404Y65554492D01*
X37701401Y65554495D01*
X37507830Y65690035D01*
X37293663Y65789903D01*
X37232501Y65806291D01*
X37065407Y65851064D01*
X36830000Y65871660D01*
X36594592Y65851064D01*
X36366336Y65789903D01*
X36152170Y65690035D01*
X35958601Y65554497D01*
X35836673Y65432569D01*
X35775350Y65399085D01*
X35705658Y65404069D01*
X35649725Y65445941D01*
X35632810Y65476918D01*
X35625658Y65496093D01*
X35583796Y65608331D01*
X35497546Y65723546D01*
X35382331Y65809796D01*
X35247483Y65860091D01*
X35210949Y65864019D01*
X35191166Y65866146D01*
X35191165Y65866147D01*
X35187873Y65866500D01*
X35184550Y65866500D01*
X33395439Y65866500D01*
X33395420Y65866500D01*
X33392128Y65866499D01*
X33388848Y65866147D01*
X33388840Y65866146D01*
X33332515Y65860091D01*
X33197669Y65809796D01*
X33082454Y65723546D01*
X32996204Y65608332D01*
X32996203Y65608331D01*
X32996204Y65608331D01*
X32945909Y65473483D01*
X32939500Y65413873D01*
X32939500Y65410552D01*
X32939500Y65410551D01*
X32939500Y63621440D01*
X32939500Y63621422D01*
X31241318Y63621422D01*
X31264495Y63644599D01*
X31400035Y63838170D01*
X31499903Y64052337D01*
X31561063Y64280592D01*
X31581659Y64516000D01*
X31561063Y64751408D01*
X31499903Y64979663D01*
X31400035Y65193829D01*
X31264495Y65387401D01*
X31097401Y65554495D01*
X30903830Y65690035D01*
X30689663Y65789903D01*
X30628502Y65806291D01*
X30461407Y65851064D01*
X30226000Y65871660D01*
X29990592Y65851064D01*
X29762336Y65789903D01*
X29548170Y65690035D01*
X29354598Y65554495D01*
X29187505Y65387402D01*
X29057575Y65201841D01*
X29002998Y65158216D01*
X28933500Y65151022D01*
X28871145Y65182545D01*
X28854425Y65201841D01*
X28724494Y65387402D01*
X28557404Y65554492D01*
X28557401Y65554495D01*
X28363830Y65690035D01*
X28149663Y65789903D01*
X28088501Y65806291D01*
X27921407Y65851064D01*
X27685999Y65871660D01*
X27450592Y65851064D01*
X27222336Y65789903D01*
X27008170Y65690035D01*
X26814601Y65554497D01*
X26692673Y65432569D01*
X26631350Y65399085D01*
X26561658Y65404069D01*
X26505725Y65445941D01*
X26488810Y65476918D01*
X26481658Y65496093D01*
X26439796Y65608331D01*
X26353546Y65723546D01*
X26238331Y65809796D01*
X26103483Y65860091D01*
X26066949Y65864019D01*
X26047166Y65866146D01*
X26047165Y65866147D01*
X26043873Y65866500D01*
X26040550Y65866500D01*
X24251439Y65866500D01*
X24251420Y65866500D01*
X24248128Y65866499D01*
X24244848Y65866147D01*
X24244840Y65866146D01*
X24188515Y65860091D01*
X24053669Y65809796D01*
X23938454Y65723546D01*
X23852204Y65608332D01*
X23852203Y65608331D01*
X23852204Y65608331D01*
X23801909Y65473483D01*
X23795500Y65413873D01*
X23795500Y65410552D01*
X23795500Y65410551D01*
X23795500Y63621440D01*
X23795500Y63621422D01*
X8835309Y63621422D01*
X8843643Y63722000D01*
X8823108Y63969821D01*
X8762063Y64210881D01*
X8662173Y64438607D01*
X8526164Y64646785D01*
X8357744Y64829738D01*
X8335612Y64846964D01*
X8161514Y64982471D01*
X8161510Y64982474D01*
X8161509Y64982474D01*
X7942810Y65100828D01*
X7942806Y65100830D01*
X7942805Y65100830D01*
X7707615Y65181571D01*
X7462335Y65222500D01*
X7213665Y65222500D01*
X6968384Y65181571D01*
X6733194Y65100830D01*
X6733190Y65100829D01*
X6733190Y65100828D01*
X6729341Y65098745D01*
X6514485Y64982471D01*
X6318259Y64829741D01*
X6318256Y64829739D01*
X6318256Y64829738D01*
X6149836Y64646785D01*
X6124297Y64607694D01*
X6013825Y64438605D01*
X5913938Y64210883D01*
X5852891Y63969817D01*
X5832356Y63722000D01*
X5852891Y63474184D01*
X5852891Y63474181D01*
X5852892Y63474179D01*
X5913937Y63233119D01*
X5913938Y63233117D01*
X5916460Y63223158D01*
X5915180Y63222834D01*
X5922728Y63164070D01*
X5892750Y63100958D01*
X5833410Y63064073D01*
X5789463Y63060034D01*
X5588000Y63077660D01*
X5352592Y63057064D01*
X5124336Y62995903D01*
X4910170Y62896035D01*
X4716598Y62760495D01*
X4549505Y62593402D01*
X4413965Y62399830D01*
X4314097Y62185664D01*
X4252936Y61957408D01*
X4232340Y61722000D01*
X-17902Y61722000D01*
X-21474Y62665057D01*
X-2044Y62732167D01*
X50587Y62778121D01*
X119707Y62788327D01*
X183372Y62759543D01*
X193755Y62749506D01*
X318256Y62614262D01*
X318259Y62614260D01*
X514485Y62461530D01*
X514487Y62461529D01*
X514491Y62461526D01*
X733190Y62343172D01*
X968386Y62262429D01*
X1213665Y62221500D01*
X1462335Y62221500D01*
X1707614Y62262429D01*
X1942810Y62343172D01*
X2161509Y62461526D01*
X2357744Y62614262D01*
X2526164Y62797215D01*
X2662173Y63005393D01*
X2762063Y63233119D01*
X2823108Y63474179D01*
X2843643Y63722000D01*
X2823108Y63969821D01*
X2762063Y64210881D01*
X2662173Y64438607D01*
X2526164Y64646785D01*
X2357744Y64829738D01*
X2335612Y64846964D01*
X2161514Y64982471D01*
X2161510Y64982474D01*
X2161509Y64982474D01*
X1942810Y65100828D01*
X1942806Y65100830D01*
X1942805Y65100830D01*
X1707615Y65181571D01*
X1462335Y65222500D01*
X1213665Y65222500D01*
X968384Y65181571D01*
X733194Y65100830D01*
X733190Y65100829D01*
X733190Y65100828D01*
X729341Y65098745D01*
X514485Y64982471D01*
X318255Y64829739D01*
X185784Y64685837D01*
X125897Y64649846D01*
X56059Y64651947D01*
X-1557Y64691471D01*
X-28658Y64755871D01*
X-29444Y64769350D01*
X-29556Y64798918D01*
X-48808Y69881462D01*
X-29378Y69948574D01*
X23253Y69994528D01*
X92373Y70004734D01*
X156038Y69975950D01*
X190955Y69926368D01*
X310079Y69616041D01*
X312716Y69610117D01*
X485833Y69270355D01*
X489079Y69264734D01*
X696757Y68944939D01*
X700581Y68939675D01*
X907095Y68684650D01*
X907096Y68684650D01*
X1804757Y69582312D01*
X1763449Y69520489D01*
X1744046Y69422944D01*
X1763449Y69325399D01*
X1818704Y69242704D01*
X1901399Y69187449D01*
X1974320Y69172944D01*
X2023568Y69172944D01*
X2096489Y69187449D01*
X2158304Y69228753D01*
X1260648Y68331097D01*
X1260649Y68331096D01*
X1515674Y68124582D01*
X1520938Y68120758D01*
X1840733Y67913080D01*
X1846354Y67909834D01*
X2186116Y67736717D01*
X2192040Y67734080D01*
X2548044Y67597422D01*
X2554197Y67595423D01*
X2922537Y67496727D01*
X2928879Y67495379D01*
X3305508Y67435727D01*
X3311951Y67435050D01*
X3692756Y67415092D01*
X3699244Y67415092D01*
X4080048Y67435050D01*
X4086491Y67435727D01*
X4463120Y67495379D01*
X4469462Y67496727D01*
X4837802Y67595423D01*
X4843955Y67597422D01*
X5199959Y67734080D01*
X5205883Y67736717D01*
X5545645Y67909834D01*
X5551266Y67913080D01*
X5871061Y68120758D01*
X5876315Y68124575D01*
X6131349Y68331098D01*
X5233691Y69228756D01*
X5295511Y69187449D01*
X5368432Y69172944D01*
X5417680Y69172944D01*
X5490601Y69187449D01*
X5573296Y69242704D01*
X5628551Y69325399D01*
X5647954Y69422944D01*
X5628551Y69520489D01*
X5587243Y69582310D01*
X6484902Y68684651D01*
X6691425Y68939685D01*
X6695242Y68944939D01*
X6902920Y69264734D01*
X6906166Y69270355D01*
X7079283Y69610117D01*
X7081920Y69616041D01*
X7122978Y69723001D01*
X10827150Y69723001D01*
X10846086Y69554944D01*
X10846086Y69554942D01*
X10846087Y69554941D01*
X10901944Y69395310D01*
X10991923Y69252110D01*
X11056584Y69187449D01*
X11111510Y69132523D01*
X11192057Y69081912D01*
X11213766Y69064599D01*
X15442199Y64836166D01*
X15452894Y64823971D01*
X15472117Y64798918D01*
X15528218Y64755871D01*
X15538064Y64748316D01*
X15597559Y64702664D01*
X15743638Y64642156D01*
X15869098Y64625639D01*
X15900399Y64621518D01*
X15900399Y64621519D01*
X15900400Y64621518D01*
X15931702Y64625640D01*
X15947887Y64626700D01*
X20578206Y64626700D01*
X20644177Y64607695D01*
X20732478Y64552211D01*
X20902745Y64492632D01*
X21082000Y64472435D01*
X21261255Y64492632D01*
X21431522Y64552211D01*
X21584262Y64648184D01*
X21711816Y64775738D01*
X21807789Y64928478D01*
X21867368Y65098745D01*
X21887565Y65278000D01*
X21867368Y65457255D01*
X21807789Y65627522D01*
X21711816Y65780262D01*
X21711815Y65780263D01*
X21711814Y65780265D01*
X21584264Y65907815D01*
X21521867Y65947021D01*
X21431522Y66003789D01*
X21261255Y66063368D01*
X21261253Y66063369D01*
X21261251Y66063369D01*
X21082000Y66083566D01*
X20902748Y66063369D01*
X20902745Y66063369D01*
X20902745Y66063368D01*
X20732478Y66003789D01*
X20732476Y66003789D01*
X20732476Y66003788D01*
X20579736Y65907816D01*
X20535942Y65864020D01*
X20474619Y65830534D01*
X20448260Y65827700D01*
X16200497Y65827700D01*
X16133458Y65847385D01*
X16112816Y65864019D01*
X13888260Y68088575D01*
X24585500Y68088575D01*
X24585779Y68085645D01*
X24585781Y68085620D01*
X24600471Y67931785D01*
X24659683Y67730127D01*
X24755990Y67543316D01*
X24885906Y67378116D01*
X25044745Y67240480D01*
X25226754Y67135397D01*
X25226756Y67135396D01*
X25311150Y67106187D01*
X25425366Y67066656D01*
X25460298Y67061634D01*
X25633398Y67036746D01*
X25843330Y67046746D01*
X26047576Y67096296D01*
X26134196Y67135854D01*
X26238752Y67183603D01*
X26318624Y67240480D01*
X26409952Y67305514D01*
X26554986Y67457622D01*
X26581828Y67499389D01*
X26634629Y67545143D01*
X26703787Y67555087D01*
X26767344Y67526063D01*
X26783612Y67509001D01*
X26886269Y67378462D01*
X27045036Y67240889D01*
X27226963Y67135854D01*
X27425485Y67067145D01*
X27436000Y67065634D01*
X27436000Y68135383D01*
X27505052Y68081637D01*
X27623424Y68041000D01*
X27717073Y68041000D01*
X27809446Y68056414D01*
X27919514Y68115981D01*
X27936000Y68133890D01*
X27936000Y67069743D01*
X28047410Y67096771D01*
X28238505Y67184040D01*
X28409624Y67305895D01*
X28507479Y67408522D01*
X28567987Y67443457D01*
X28637778Y67440133D01*
X28694692Y67399605D01*
X28702761Y67388049D01*
X28743288Y67322343D01*
X28867342Y67198289D01*
X28891152Y67183603D01*
X29016666Y67106186D01*
X29128017Y67069288D01*
X29183202Y67051001D01*
X29282858Y67040820D01*
X29282859Y67040820D01*
X29285991Y67040500D01*
X30086008Y67040501D01*
X30188797Y67051001D01*
X30355334Y67106186D01*
X30504656Y67198288D01*
X30628712Y67322344D01*
X30720814Y67471666D01*
X30775999Y67638203D01*
X30786500Y67740991D01*
X30786500Y68088575D01*
X33729500Y68088575D01*
X33729779Y68085645D01*
X33729781Y68085620D01*
X33744471Y67931785D01*
X33803683Y67730127D01*
X33899990Y67543316D01*
X34029906Y67378116D01*
X34188745Y67240480D01*
X34370754Y67135397D01*
X34370756Y67135396D01*
X34455150Y67106187D01*
X34569366Y67066656D01*
X34604298Y67061634D01*
X34777398Y67036746D01*
X34987330Y67046746D01*
X35191576Y67096296D01*
X35278196Y67135854D01*
X35382752Y67183603D01*
X35462624Y67240480D01*
X35553952Y67305514D01*
X35698986Y67457622D01*
X35725828Y67499389D01*
X35778629Y67545143D01*
X35847787Y67555087D01*
X35911344Y67526063D01*
X35927612Y67509001D01*
X36030269Y67378462D01*
X36189036Y67240889D01*
X36370963Y67135854D01*
X36569485Y67067145D01*
X36580000Y67065634D01*
X36579999Y68135384D01*
X36649052Y68081637D01*
X36767424Y68041000D01*
X36861073Y68041000D01*
X36953446Y68056414D01*
X37063514Y68115981D01*
X37080000Y68133890D01*
X37080000Y67069743D01*
X37191410Y67096771D01*
X37382505Y67184040D01*
X37553624Y67305895D01*
X37651479Y67408522D01*
X37711987Y67443457D01*
X37781778Y67440133D01*
X37838692Y67399605D01*
X37846761Y67388049D01*
X37887288Y67322343D01*
X38011342Y67198289D01*
X38035152Y67183603D01*
X38160666Y67106186D01*
X38272016Y67069288D01*
X38327202Y67051001D01*
X38426858Y67040820D01*
X38426859Y67040820D01*
X38429991Y67040500D01*
X39230008Y67040501D01*
X39332797Y67051001D01*
X39499334Y67106186D01*
X39648656Y67198288D01*
X39772712Y67322344D01*
X39864814Y67471666D01*
X39919999Y67638203D01*
X39930500Y67740991D01*
X39930499Y69091008D01*
X39919999Y69193797D01*
X39864814Y69360334D01*
X39772712Y69509656D01*
X39772711Y69509658D01*
X39648657Y69633712D01*
X39499334Y69725814D01*
X39332797Y69781000D01*
X39233141Y69791181D01*
X39233122Y69791182D01*
X39230009Y69791500D01*
X39226860Y69791500D01*
X38433141Y69791500D01*
X38433121Y69791500D01*
X38429992Y69791499D01*
X38426860Y69791180D01*
X38426858Y69791179D01*
X38327203Y69781000D01*
X38160665Y69725814D01*
X38011342Y69633712D01*
X37887287Y69509657D01*
X37847905Y69445808D01*
X37795957Y69399083D01*
X37726995Y69387862D01*
X37662913Y69415705D01*
X37644897Y69434252D01*
X37629728Y69453540D01*
X37470963Y69591112D01*
X37289036Y69696147D01*
X37090511Y69764857D01*
X37080000Y69766369D01*
X37080000Y68696618D01*
X37010948Y68750363D01*
X36892576Y68791000D01*
X36798927Y68791000D01*
X36706554Y68775586D01*
X36596486Y68716019D01*
X36579999Y68698110D01*
X36579999Y69762260D01*
X36468593Y69735232D01*
X36277494Y69647961D01*
X36106378Y69526108D01*
X35961405Y69374065D01*
X35934783Y69332641D01*
X35881979Y69286887D01*
X35812820Y69276944D01*
X35749265Y69305970D01*
X35732999Y69323030D01*
X35630093Y69453885D01*
X35471254Y69591521D01*
X35289245Y69696604D01*
X35090633Y69765345D01*
X34882603Y69795254D01*
X34882602Y69795254D01*
X34803794Y69791500D01*
X34672669Y69785254D01*
X34468419Y69735703D01*
X34277247Y69648398D01*
X34106050Y69526488D01*
X33961013Y69374377D01*
X33847387Y69197575D01*
X33769274Y69002455D01*
X33733636Y68817545D01*
X33729500Y68796085D01*
X33729500Y68088575D01*
X30786500Y68088575D01*
X30786499Y69091008D01*
X30775999Y69193797D01*
X30720814Y69360334D01*
X30628712Y69509656D01*
X30628711Y69509658D01*
X30504657Y69633712D01*
X30355334Y69725814D01*
X30188797Y69781000D01*
X30089141Y69791181D01*
X30089122Y69791182D01*
X30086009Y69791500D01*
X30082860Y69791500D01*
X29289141Y69791500D01*
X29289121Y69791500D01*
X29285992Y69791499D01*
X29282860Y69791180D01*
X29282858Y69791179D01*
X29183203Y69781000D01*
X29016665Y69725814D01*
X28867342Y69633712D01*
X28743287Y69509657D01*
X28703905Y69445808D01*
X28651957Y69399083D01*
X28582995Y69387862D01*
X28518913Y69415705D01*
X28500897Y69434252D01*
X28485728Y69453540D01*
X28326963Y69591112D01*
X28145036Y69696147D01*
X27946511Y69764857D01*
X27936000Y69766369D01*
X27936000Y68696618D01*
X27866948Y68750363D01*
X27748576Y68791000D01*
X27654927Y68791000D01*
X27562554Y68775586D01*
X27452486Y68716019D01*
X27436000Y68698111D01*
X27436000Y69762260D01*
X27324593Y69735232D01*
X27133494Y69647961D01*
X26962378Y69526108D01*
X26817405Y69374065D01*
X26790783Y69332641D01*
X26737979Y69286887D01*
X26668820Y69276944D01*
X26605265Y69305970D01*
X26588999Y69323030D01*
X26486093Y69453885D01*
X26327254Y69591521D01*
X26145245Y69696604D01*
X25946633Y69765345D01*
X25738603Y69795254D01*
X25738602Y69795254D01*
X25659794Y69791500D01*
X25528669Y69785254D01*
X25324419Y69735703D01*
X25133247Y69648398D01*
X24962050Y69526488D01*
X24817013Y69374377D01*
X24703387Y69197575D01*
X24625274Y69002455D01*
X24589636Y68817545D01*
X24585500Y68796085D01*
X24585500Y68088575D01*
X13888260Y68088575D01*
X12371386Y69605449D01*
X12337901Y69666772D01*
X12335847Y69707012D01*
X12337649Y69723000D01*
X12318713Y69891059D01*
X12262856Y70050690D01*
X12172877Y70193890D01*
X12053290Y70313477D01*
X11910090Y70403456D01*
X11750459Y70459313D01*
X11750458Y70459314D01*
X11750456Y70459314D01*
X11582400Y70478250D01*
X11414343Y70459314D01*
X11254710Y70403456D01*
X11111508Y70313476D01*
X10991924Y70193892D01*
X10901944Y70050690D01*
X10846086Y69891057D01*
X10827150Y69723001D01*
X7122978Y69723001D01*
X7218578Y69972045D01*
X7220577Y69978198D01*
X7319273Y70346538D01*
X7320621Y70352880D01*
X7380273Y70729509D01*
X7380950Y70735952D01*
X7400908Y71116757D01*
X7400908Y71123244D01*
X7380950Y71504049D01*
X7380273Y71510492D01*
X7320621Y71887121D01*
X7319273Y71893463D01*
X7220577Y72261803D01*
X7218578Y72267956D01*
X7081920Y72623960D01*
X7079283Y72629884D01*
X6906166Y72969646D01*
X6902920Y72975267D01*
X6695242Y73295062D01*
X6691418Y73300326D01*
X6544139Y73482201D01*
X8568740Y73482201D01*
X8588526Y73293943D01*
X8647020Y73113916D01*
X8741666Y72949984D01*
X8868329Y72809311D01*
X9021469Y72698049D01*
X9194397Y72621056D01*
X9379552Y72581700D01*
X9379554Y72581700D01*
X9568848Y72581700D01*
X9692283Y72607938D01*
X9754003Y72621056D01*
X9868263Y72671929D01*
X9937514Y72681214D01*
X9969136Y72671929D01*
X10083397Y72621056D01*
X10268552Y72581700D01*
X10268554Y72581700D01*
X10457848Y72581700D01*
X10581283Y72607938D01*
X10643003Y72621056D01*
X10757263Y72671929D01*
X10826514Y72681214D01*
X10858136Y72671929D01*
X10972397Y72621056D01*
X11157552Y72581700D01*
X11157554Y72581700D01*
X11346848Y72581700D01*
X11470283Y72607938D01*
X11532003Y72621056D01*
X11704930Y72698049D01*
X11745246Y72727340D01*
X11858070Y72809311D01*
X11984733Y72949984D01*
X12079379Y73113916D01*
X12090454Y73148000D01*
X12137874Y73293944D01*
X12157660Y73482200D01*
X12137874Y73670456D01*
X12079379Y73850484D01*
X12079379Y73850485D01*
X11984733Y74014417D01*
X11858070Y74155090D01*
X11704930Y74266352D01*
X11532002Y74343345D01*
X11346848Y74382700D01*
X11346846Y74382700D01*
X11157554Y74382700D01*
X11157552Y74382700D01*
X10972398Y74343346D01*
X10858134Y74292472D01*
X10788883Y74283188D01*
X10757264Y74292472D01*
X10643000Y74343346D01*
X10457848Y74382700D01*
X10457846Y74382700D01*
X10268554Y74382700D01*
X10268552Y74382700D01*
X10083398Y74343346D01*
X9969135Y74292472D01*
X9899885Y74283188D01*
X9868265Y74292472D01*
X9754001Y74343346D01*
X9568848Y74382700D01*
X9568846Y74382700D01*
X9379554Y74382700D01*
X9379552Y74382700D01*
X9194397Y74343345D01*
X9021469Y74266352D01*
X8868329Y74155090D01*
X8741666Y74014417D01*
X8647020Y73850485D01*
X8588526Y73670458D01*
X8568740Y73482201D01*
X6544139Y73482201D01*
X6484904Y73555351D01*
X6484903Y73555352D01*
X5587247Y72657697D01*
X5628551Y72719511D01*
X5647954Y72817056D01*
X5628551Y72914601D01*
X5573296Y72997296D01*
X5490601Y73052551D01*
X5417680Y73067056D01*
X5368432Y73067056D01*
X5295511Y73052551D01*
X5233688Y73011243D01*
X6131350Y73908904D01*
X6131350Y73908905D01*
X5876325Y74115419D01*
X5871061Y74119243D01*
X5551266Y74326921D01*
X5545645Y74330167D01*
X5205883Y74503284D01*
X5199959Y74505921D01*
X4843955Y74642579D01*
X4837802Y74644578D01*
X4482705Y74739725D01*
X4423044Y74776090D01*
X4392515Y74838937D01*
X4400810Y74908312D01*
X4445295Y74962190D01*
X4511847Y74983465D01*
X4514798Y74983500D01*
X44680057Y74983500D01*
X44747096Y74963815D01*
G37*
%TD.AperFunction*%
%TA.AperFunction,Conductor*%
G36*
X46414241Y40412497D02*
G01*
X46556745Y40362632D01*
X46564931Y40361710D01*
X46629343Y40334646D01*
X46668899Y40277052D01*
X46671039Y40207215D01*
X46638731Y40150810D01*
X46614183Y40126263D01*
X46518212Y39973524D01*
X46458631Y39803252D01*
X46438434Y39624000D01*
X46458631Y39444749D01*
X46458631Y39444747D01*
X46458632Y39444745D01*
X46518211Y39274478D01*
X46518212Y39274477D01*
X46614185Y39121736D01*
X46741735Y38994186D01*
X46741737Y38994185D01*
X46741738Y38994184D01*
X46894478Y38898211D01*
X47064745Y38838632D01*
X47244000Y38818435D01*
X47423255Y38838632D01*
X47593522Y38898211D01*
X47746262Y38994184D01*
X47873816Y39121738D01*
X47938506Y39224693D01*
X47990840Y39270983D01*
X48059894Y39281632D01*
X48123742Y39253257D01*
X48162114Y39194867D01*
X48167500Y39158720D01*
X48167500Y37182094D01*
X48147815Y37115055D01*
X48095011Y37069300D01*
X48025853Y37059356D01*
X47962969Y37087803D01*
X47959027Y37091170D01*
X47933659Y37112836D01*
X47718859Y37244466D01*
X47580471Y37301788D01*
X47486110Y37340874D01*
X47241149Y37399683D01*
X46990000Y37419449D01*
X46738850Y37399683D01*
X46493889Y37340874D01*
X46261139Y37244465D01*
X46046342Y37112837D01*
X45854776Y36949224D01*
X45691163Y36757658D01*
X45592478Y36596619D01*
X45559534Y36542859D01*
X45554817Y36531470D01*
X45463126Y36310111D01*
X45404317Y36065150D01*
X45384551Y35814000D01*
X45404317Y35562851D01*
X45463126Y35317890D01*
X45483097Y35269677D01*
X45559534Y35085141D01*
X45691164Y34870341D01*
X45854776Y34678776D01*
X46046341Y34515164D01*
X46261141Y34383534D01*
X46493889Y34287127D01*
X46738852Y34228317D01*
X46990000Y34208551D01*
X47241148Y34228317D01*
X47486111Y34287127D01*
X47718859Y34383534D01*
X47933659Y34515164D01*
X47962969Y34540198D01*
X48026729Y34568768D01*
X48095814Y34558331D01*
X48148291Y34512201D01*
X48167500Y34445907D01*
X48167500Y25192099D01*
X48147815Y25125060D01*
X48131179Y25104416D01*
X48107765Y25081003D01*
X48095581Y25070316D01*
X48087715Y25064280D01*
X48081679Y25056414D01*
X48071001Y25044237D01*
X48064413Y25037649D01*
X48064407Y25037643D01*
X48061550Y25034785D01*
X48059086Y25031575D01*
X48059079Y25031566D01*
X47989463Y24940841D01*
X47928956Y24794763D01*
X47908317Y24638001D01*
X47914439Y24591508D01*
X47915500Y24575322D01*
X47915500Y22007900D01*
X47895815Y21940861D01*
X47843011Y21895106D01*
X47777618Y21884679D01*
X47751997Y21887566D01*
X47572748Y21867369D01*
X47572745Y21867369D01*
X47572745Y21867368D01*
X47402478Y21807789D01*
X47402476Y21807789D01*
X47402476Y21807788D01*
X47249735Y21711815D01*
X47122185Y21584265D01*
X47031670Y21440210D01*
X47026211Y21431522D01*
X46966632Y21261255D01*
X46966631Y21261252D01*
X46946434Y21082001D01*
X46966631Y20902749D01*
X46966631Y20902747D01*
X46966632Y20902745D01*
X47026211Y20732478D01*
X47026212Y20732477D01*
X47122185Y20579736D01*
X47249735Y20452186D01*
X47249737Y20452185D01*
X47249738Y20452184D01*
X47402478Y20356211D01*
X47572745Y20296632D01*
X47606853Y20292789D01*
X47671267Y20265723D01*
X47710822Y20208129D01*
X47712961Y20138292D01*
X47680651Y20081888D01*
X46525584Y18926819D01*
X46464261Y18893334D01*
X46437903Y18890500D01*
X46021487Y18890500D01*
X46005302Y18891561D01*
X45974000Y18895682D01*
X45973999Y18895682D01*
X45957909Y18893564D01*
X45942697Y18891561D01*
X45926513Y18890500D01*
X31174491Y18890500D01*
X31108519Y18909506D01*
X31050772Y18945791D01*
X30896461Y18999787D01*
X30733999Y19018092D01*
X30571538Y18999787D01*
X30417227Y18945791D01*
X30278791Y18858806D01*
X30266355Y18846370D01*
X30205031Y18812888D01*
X30135339Y18817875D01*
X30090997Y18846374D01*
X29004851Y19932520D01*
X28994157Y19944714D01*
X28975943Y19968451D01*
X28945762Y19991609D01*
X28945759Y19991612D01*
X28855360Y20060978D01*
X28851968Y20062254D01*
X28715726Y20118688D01*
X28678799Y20123549D01*
X28629013Y20141495D01*
X28510776Y20215789D01*
X28356461Y20269787D01*
X28193999Y20288092D01*
X28031538Y20269787D01*
X27877227Y20215791D01*
X27738794Y20128807D01*
X27623193Y20013206D01*
X27536209Y19874773D01*
X27482213Y19720462D01*
X27463908Y19558000D01*
X27482213Y19395539D01*
X27536209Y19241228D01*
X27536211Y19241225D01*
X27623192Y19102796D01*
X27738796Y18987192D01*
X27877225Y18900211D01*
X27877227Y18900210D01*
X28031538Y18846214D01*
X28194000Y18827909D01*
X28356461Y18846214D01*
X28362131Y18848199D01*
X28431907Y18851764D01*
X28490771Y18818840D01*
X29418696Y17890915D01*
X29452181Y17829592D01*
X29447197Y17759900D01*
X29406501Y17704858D01*
X29368292Y17675540D01*
X29350681Y17652589D01*
X29339987Y17640396D01*
X29273730Y17574139D01*
X29212407Y17540654D01*
X29142715Y17545638D01*
X29120079Y17556825D01*
X29000775Y17631789D01*
X29000772Y17631791D01*
X28846461Y17685787D01*
X28684000Y17704092D01*
X28521538Y17685787D01*
X28367227Y17631791D01*
X28228794Y17544807D01*
X28113193Y17429206D01*
X28026209Y17290773D01*
X27972213Y17136463D01*
X27969406Y17111545D01*
X27942339Y17047131D01*
X27933867Y17037749D01*
X26747939Y15851819D01*
X26686616Y15818334D01*
X26660258Y15815500D01*
X24345783Y15815500D01*
X24278744Y15835185D01*
X24232989Y15887989D01*
X24223045Y15957147D01*
X24252070Y16020703D01*
X24304828Y16056541D01*
X24446772Y16106210D01*
X24446771Y16106210D01*
X24446775Y16106211D01*
X24547489Y16169495D01*
X24613461Y16188500D01*
X25608160Y16188500D01*
X25624345Y16187439D01*
X25654000Y16183535D01*
X25691714Y16188500D01*
X25691720Y16188500D01*
X25804236Y16203313D01*
X25944233Y16261302D01*
X25944789Y16261729D01*
X25945424Y16262215D01*
X26006127Y16308795D01*
X26034268Y16330388D01*
X26034269Y16330390D01*
X26050562Y16342892D01*
X26050561Y16342892D01*
X26064451Y16353549D01*
X26082670Y16377294D01*
X26093350Y16389472D01*
X26987748Y17283870D01*
X27049069Y17317353D01*
X27061525Y17319405D01*
X27086461Y17322214D01*
X27240775Y17376211D01*
X27379204Y17463192D01*
X27494808Y17578796D01*
X27581789Y17717225D01*
X27635786Y17871539D01*
X27654091Y18034000D01*
X27635786Y18196461D01*
X27635785Y18196463D01*
X27581790Y18350773D01*
X27501076Y18479228D01*
X27494808Y18489204D01*
X27379204Y18604808D01*
X27240775Y18691789D01*
X27240772Y18691791D01*
X27086461Y18745787D01*
X26924000Y18764092D01*
X26761538Y18745787D01*
X26607227Y18691791D01*
X26468794Y18604807D01*
X26353193Y18489206D01*
X26266209Y18350773D01*
X26212213Y18196463D01*
X26209406Y18171545D01*
X26182339Y18107131D01*
X26173867Y18097749D01*
X25451939Y17375819D01*
X25390616Y17342334D01*
X25364258Y17339500D01*
X24613461Y17339500D01*
X24547489Y17358506D01*
X24446772Y17421791D01*
X24369264Y17448912D01*
X24312488Y17489634D01*
X24286741Y17554586D01*
X24300197Y17623148D01*
X24322535Y17653631D01*
X28388739Y21719835D01*
X28450060Y21753318D01*
X28519752Y21748334D01*
X28575685Y21706462D01*
X28600102Y21640998D01*
X28599638Y21618268D01*
X28582103Y21462648D01*
X28601039Y21294591D01*
X28601039Y21294589D01*
X28601040Y21294588D01*
X28656897Y21134957D01*
X28746876Y20991757D01*
X28866463Y20872170D01*
X29009663Y20782191D01*
X29169294Y20726334D01*
X29281333Y20713711D01*
X29337352Y20707398D01*
X29337352Y20707399D01*
X29337353Y20707398D01*
X29505412Y20726334D01*
X29665043Y20782191D01*
X29737947Y20828000D01*
X41866434Y20828000D01*
X41886631Y20648749D01*
X41886631Y20648747D01*
X41886632Y20648745D01*
X41946211Y20478478D01*
X41962733Y20452184D01*
X42042185Y20325736D01*
X42169735Y20198186D01*
X42169737Y20198185D01*
X42169738Y20198184D01*
X42322478Y20102211D01*
X42492745Y20042632D01*
X42627186Y20027485D01*
X42671999Y20022435D01*
X42671999Y20022436D01*
X42672000Y20022435D01*
X42851255Y20042632D01*
X43021522Y20102211D01*
X43174262Y20198184D01*
X43301816Y20325738D01*
X43397789Y20478478D01*
X43457368Y20648745D01*
X43477565Y20828000D01*
X43457368Y21007255D01*
X43397789Y21177522D01*
X43301816Y21330262D01*
X43301815Y21330263D01*
X43301814Y21330265D01*
X43174264Y21457815D01*
X43063851Y21527192D01*
X43021522Y21553789D01*
X42851255Y21613368D01*
X42851253Y21613369D01*
X42851251Y21613369D01*
X42672000Y21633566D01*
X42492748Y21613369D01*
X42492745Y21613369D01*
X42492745Y21613368D01*
X42322478Y21553789D01*
X42322476Y21553789D01*
X42322476Y21553788D01*
X42169735Y21457815D01*
X42042185Y21330265D01*
X41946212Y21177524D01*
X41946211Y21177522D01*
X41895714Y21033210D01*
X41886631Y21007252D01*
X41866434Y20828000D01*
X29737947Y20828000D01*
X29808243Y20872170D01*
X29927830Y20991757D01*
X30017809Y21134957D01*
X30073666Y21294588D01*
X30092602Y21462647D01*
X30073666Y21630706D01*
X30017809Y21790337D01*
X29927830Y21933537D01*
X29808243Y22053124D01*
X29665043Y22143103D01*
X29505412Y22198960D01*
X29505411Y22198961D01*
X29505409Y22198961D01*
X29337352Y22217897D01*
X29181732Y22200362D01*
X29112910Y22212416D01*
X29061530Y22259765D01*
X29043906Y22327376D01*
X29065632Y22393781D01*
X29080162Y22411258D01*
X30279513Y23610609D01*
X30296162Y23623946D01*
X30297936Y23625836D01*
X30297940Y23625838D01*
X30345897Y23676909D01*
X30348515Y23679611D01*
X30368911Y23700005D01*
X30371610Y23703486D01*
X30379184Y23712355D01*
X30410448Y23745647D01*
X30420675Y23764253D01*
X30431348Y23780501D01*
X30444362Y23797276D01*
X30462495Y23839183D01*
X30467625Y23849653D01*
X30489627Y23889672D01*
X30494903Y23910227D01*
X30501206Y23928638D01*
X30509635Y23948113D01*
X30516777Y23993215D01*
X30519140Y24004622D01*
X30530500Y24048863D01*
X30530500Y24070092D01*
X30532027Y24089492D01*
X30535346Y24110445D01*
X30531050Y24155893D01*
X30530500Y24167562D01*
X30530500Y24968935D01*
X30550185Y25035974D01*
X30602989Y25081729D01*
X30651296Y25088675D01*
X30651168Y25092748D01*
X30666824Y25093241D01*
X30666825Y25093240D01*
X30736791Y25095440D01*
X30740686Y25095500D01*
X30765554Y25095500D01*
X30769454Y25095500D01*
X30773823Y25096053D01*
X30785468Y25096970D01*
X30831098Y25098403D01*
X30851478Y25104325D01*
X30870518Y25108268D01*
X30891587Y25110929D01*
X30934049Y25127742D01*
X30945086Y25131520D01*
X30988927Y25144256D01*
X31007199Y25155064D01*
X31024665Y25163620D01*
X31044400Y25171432D01*
X31081345Y25198275D01*
X31091077Y25204668D01*
X31130394Y25227919D01*
X31145403Y25242929D01*
X31160192Y25255561D01*
X31177366Y25268037D01*
X31206475Y25303226D01*
X31214319Y25311846D01*
X32572474Y26670001D01*
X38564434Y26670001D01*
X38584631Y26490749D01*
X38584631Y26490747D01*
X38584632Y26490745D01*
X38644211Y26320478D01*
X38679647Y26264082D01*
X38740185Y26167736D01*
X38867735Y26040186D01*
X38867737Y26040185D01*
X38867738Y26040184D01*
X39020478Y25944211D01*
X39190745Y25884632D01*
X39370000Y25864435D01*
X39549255Y25884632D01*
X39719522Y25944211D01*
X39872262Y26040184D01*
X39999816Y26167738D01*
X40095789Y26320478D01*
X40155368Y26490745D01*
X40175565Y26670000D01*
X40155368Y26849255D01*
X40095789Y27019522D01*
X39999816Y27172262D01*
X39999815Y27172263D01*
X39999814Y27172265D01*
X39872264Y27299815D01*
X39779166Y27358312D01*
X39719522Y27395789D01*
X39549255Y27455368D01*
X39549253Y27455369D01*
X39549251Y27455369D01*
X39370000Y27475566D01*
X39190748Y27455369D01*
X39190745Y27455369D01*
X39190745Y27455368D01*
X39020478Y27395789D01*
X39020476Y27395789D01*
X39020476Y27395788D01*
X38867735Y27299815D01*
X38740185Y27172265D01*
X38681783Y27079318D01*
X38644211Y27019522D01*
X38622087Y26956295D01*
X38584631Y26849252D01*
X38564434Y26670001D01*
X32572474Y26670001D01*
X46285610Y40383137D01*
X46346931Y40416620D01*
X46414241Y40412497D01*
G37*
%TD.AperFunction*%
%TA.AperFunction,Conductor*%
G36*
X49522773Y24774861D02*
G01*
X49570384Y24723724D01*
X49583500Y24668219D01*
X49583500Y16871941D01*
X49563815Y16804902D01*
X49511011Y16759147D01*
X49441853Y16749203D01*
X49378297Y16778228D01*
X49371819Y16784260D01*
X49270264Y16885815D01*
X49207867Y16925021D01*
X49117522Y16981789D01*
X48947255Y17041368D01*
X48947253Y17041369D01*
X48947251Y17041369D01*
X48768000Y17061566D01*
X48588748Y17041369D01*
X48588745Y17041369D01*
X48588745Y17041368D01*
X48418478Y16981789D01*
X48418476Y16981789D01*
X48418476Y16981788D01*
X48265735Y16885815D01*
X48138185Y16758265D01*
X48065247Y16642184D01*
X48042211Y16605522D01*
X47985040Y16442136D01*
X47982631Y16435252D01*
X47962434Y16256000D01*
X47982631Y16076749D01*
X47982631Y16076747D01*
X47982632Y16076745D01*
X48042211Y15906478D01*
X48057400Y15882305D01*
X48138185Y15753736D01*
X48265735Y15626186D01*
X48265737Y15626185D01*
X48265738Y15626184D01*
X48418478Y15530211D01*
X48588745Y15470632D01*
X48768000Y15450435D01*
X48947255Y15470632D01*
X49117522Y15530211D01*
X49270262Y15626184D01*
X49371820Y15727743D01*
X49433141Y15761226D01*
X49502833Y15756242D01*
X49558767Y15714371D01*
X49583184Y15648907D01*
X49583500Y15640060D01*
X49583500Y5177242D01*
X49563815Y5110203D01*
X49511011Y5064448D01*
X49441853Y5054504D01*
X49378297Y5083529D01*
X49343736Y5132804D01*
X49273683Y5315297D01*
X49219214Y5457194D01*
X49205463Y5484181D01*
X49044599Y5799896D01*
X49043125Y5802789D01*
X48831876Y6128084D01*
X48587781Y6429516D01*
X48313516Y6703781D01*
X48308529Y6707819D01*
X48014609Y6945831D01*
X48012084Y6947876D01*
X47686789Y7159125D01*
X47683901Y7160597D01*
X47683895Y7160600D01*
X47344086Y7333741D01*
X47344077Y7333745D01*
X47341194Y7335214D01*
X47338162Y7336378D01*
X46982110Y7473054D01*
X46982102Y7473057D01*
X46979087Y7474214D01*
X46975962Y7475052D01*
X46975957Y7475053D01*
X46607566Y7573763D01*
X46607557Y7573765D01*
X46604433Y7574602D01*
X46601237Y7575109D01*
X46601224Y7575111D01*
X46224543Y7634771D01*
X46224531Y7634773D01*
X46221338Y7635278D01*
X46218103Y7635448D01*
X46218099Y7635448D01*
X45837244Y7655408D01*
X45834000Y7655578D01*
X45830756Y7655408D01*
X45449900Y7635448D01*
X45449894Y7635448D01*
X45446662Y7635278D01*
X45443470Y7634773D01*
X45443456Y7634771D01*
X45066775Y7575111D01*
X45066758Y7575108D01*
X45063567Y7574602D01*
X45060446Y7573766D01*
X45060433Y7573763D01*
X44692042Y7475053D01*
X44692031Y7475050D01*
X44688913Y7474214D01*
X44685902Y7473059D01*
X44685889Y7473054D01*
X44329837Y7336378D01*
X44329828Y7336375D01*
X44326806Y7335214D01*
X44323929Y7333749D01*
X44323913Y7333741D01*
X43984104Y7160600D01*
X43984090Y7160592D01*
X43981211Y7159125D01*
X43978491Y7157359D01*
X43978483Y7157354D01*
X43658644Y6949648D01*
X43658638Y6949645D01*
X43655916Y6947876D01*
X43653396Y6945836D01*
X43653390Y6945831D01*
X43357002Y6705821D01*
X43356991Y6705812D01*
X43354484Y6703781D01*
X43352199Y6701497D01*
X43352189Y6701487D01*
X43082513Y6431811D01*
X43082503Y6431801D01*
X43080219Y6429516D01*
X43078188Y6427009D01*
X43078179Y6426998D01*
X42838169Y6130610D01*
X42838164Y6130604D01*
X42836124Y6128084D01*
X42834355Y6125362D01*
X42834352Y6125356D01*
X42626646Y5805517D01*
X42626641Y5805509D01*
X42624875Y5802789D01*
X42623408Y5799910D01*
X42623400Y5799896D01*
X42450259Y5460087D01*
X42450251Y5460071D01*
X42448786Y5457194D01*
X42447625Y5454172D01*
X42447622Y5454163D01*
X42310946Y5098111D01*
X42310941Y5098098D01*
X42309786Y5095087D01*
X42308950Y5091969D01*
X42308947Y5091958D01*
X42210237Y4723567D01*
X42210234Y4723554D01*
X42209398Y4720433D01*
X42208892Y4717242D01*
X42208889Y4717225D01*
X42149229Y4340544D01*
X42149227Y4340530D01*
X42148722Y4337338D01*
X42148552Y4334106D01*
X42148552Y4334100D01*
X42132420Y4026286D01*
X42128422Y3950000D01*
X42128592Y3946757D01*
X42148428Y3568260D01*
X42148722Y3562662D01*
X42149227Y3559469D01*
X42149229Y3559457D01*
X42208889Y3182776D01*
X42208891Y3182763D01*
X42209398Y3179567D01*
X42210235Y3176443D01*
X42210237Y3176434D01*
X42308423Y2810000D01*
X42309786Y2804913D01*
X42310943Y2801898D01*
X42310946Y2801890D01*
X42431395Y2488111D01*
X42448786Y2442806D01*
X42450255Y2439923D01*
X42450259Y2439914D01*
X42623400Y2100105D01*
X42624875Y2097211D01*
X42836124Y1771916D01*
X42958919Y1620277D01*
X43017959Y1547368D01*
X43080219Y1470484D01*
X43354484Y1196219D01*
X43655916Y952124D01*
X43981211Y740875D01*
X43984104Y739401D01*
X44291551Y582749D01*
X44326806Y564786D01*
X44651197Y440264D01*
X44706729Y397862D01*
X44730522Y332168D01*
X44715021Y264040D01*
X44665147Y215107D01*
X44606759Y200500D01*
X30534956Y200500D01*
X30467917Y220185D01*
X30422162Y272989D01*
X30412218Y342147D01*
X30429961Y390471D01*
X30434605Y397862D01*
X30443789Y412478D01*
X30503368Y582745D01*
X30523565Y762000D01*
X30503368Y941255D01*
X30443789Y1111522D01*
X30347816Y1264262D01*
X30347815Y1264263D01*
X30347814Y1264265D01*
X30220264Y1391815D01*
X30157867Y1431022D01*
X30067522Y1487789D01*
X29897255Y1547368D01*
X29897253Y1547369D01*
X29897251Y1547369D01*
X29717999Y1567566D01*
X29658598Y1560873D01*
X29589776Y1572928D01*
X29538397Y1620277D01*
X29520773Y1687887D01*
X29542500Y1754293D01*
X29543005Y1755023D01*
X29632035Y1882170D01*
X29731903Y2096337D01*
X29793063Y2324592D01*
X29813659Y2560000D01*
X29801543Y2698478D01*
X29793063Y2795408D01*
X29790516Y2804913D01*
X29731903Y3023663D01*
X29632035Y3237829D01*
X29496495Y3431401D01*
X29329401Y3598495D01*
X29143839Y3728427D01*
X29100215Y3783003D01*
X29093023Y3852502D01*
X29124545Y3914856D01*
X29143831Y3931568D01*
X29329401Y4061505D01*
X29496495Y4228599D01*
X29632035Y4422170D01*
X29731903Y4636337D01*
X29793063Y4864592D01*
X29813659Y5100000D01*
X29793063Y5335408D01*
X29731903Y5563663D01*
X29632035Y5777829D01*
X29496495Y5971401D01*
X29329401Y6138495D01*
X29135830Y6274035D01*
X28921663Y6373903D01*
X28860502Y6390291D01*
X28693407Y6435064D01*
X28458000Y6455660D01*
X28222592Y6435064D01*
X27994336Y6373903D01*
X27780170Y6274035D01*
X27586598Y6138495D01*
X27419508Y5971405D01*
X27419507Y5971403D01*
X27419505Y5971401D01*
X27405502Y5951402D01*
X27289574Y5785840D01*
X27234997Y5742215D01*
X27165498Y5735023D01*
X27103144Y5766545D01*
X27086429Y5785836D01*
X26956495Y5971401D01*
X26789401Y6138495D01*
X26595830Y6274035D01*
X26381663Y6373903D01*
X26320501Y6390291D01*
X26153407Y6435064D01*
X25917999Y6455660D01*
X25682592Y6435064D01*
X25454336Y6373903D01*
X25240170Y6274035D01*
X25046598Y6138495D01*
X24879505Y5971402D01*
X24749575Y5785841D01*
X24694998Y5742216D01*
X24625500Y5735022D01*
X24563145Y5766545D01*
X24546425Y5785841D01*
X24454765Y5916745D01*
X24416495Y5971401D01*
X24249401Y6138495D01*
X24055830Y6274035D01*
X23841663Y6373903D01*
X23780501Y6390291D01*
X23613407Y6435064D01*
X23378000Y6455660D01*
X23142592Y6435064D01*
X22914336Y6373903D01*
X22700170Y6274035D01*
X22506601Y6138497D01*
X22384673Y6016569D01*
X22323350Y5983085D01*
X22253658Y5988069D01*
X22197725Y6029941D01*
X22180810Y6060918D01*
X22156776Y6125356D01*
X22131796Y6192331D01*
X22045546Y6307546D01*
X21930331Y6393796D01*
X21795483Y6444091D01*
X21735873Y6450500D01*
X21732550Y6450500D01*
X19943439Y6450500D01*
X19943420Y6450500D01*
X19940128Y6450499D01*
X19936848Y6450147D01*
X19936840Y6450146D01*
X19880515Y6444091D01*
X19745669Y6393796D01*
X19630454Y6307546D01*
X19544204Y6192332D01*
X19516664Y6118492D01*
X19493909Y6057483D01*
X19487500Y5997873D01*
X19487500Y5199604D01*
X19487501Y4509500D01*
X19467816Y4442461D01*
X19415013Y4396706D01*
X19363501Y4385500D01*
X17182742Y4385500D01*
X17115703Y4405185D01*
X17069948Y4457989D01*
X17060004Y4527147D01*
X17089029Y4590703D01*
X17095061Y4597181D01*
X18220096Y5722216D01*
X21597221Y9099343D01*
X21658542Y9132826D01*
X21728234Y9127842D01*
X21772579Y9099343D01*
X21849738Y9022184D01*
X22002478Y8926211D01*
X22073503Y8901359D01*
X22130279Y8860637D01*
X22149589Y8825273D01*
X22174443Y8754247D01*
X22270418Y8601503D01*
X22397968Y8473953D01*
X22397970Y8473952D01*
X22397971Y8473951D01*
X22550711Y8377978D01*
X22720978Y8318399D01*
X22855419Y8303252D01*
X22900232Y8298202D01*
X22900232Y8298203D01*
X22900233Y8298202D01*
X23079488Y8318399D01*
X23249755Y8377978D01*
X23402495Y8473951D01*
X23530049Y8601505D01*
X23626022Y8754245D01*
X23685601Y8924512D01*
X23705798Y9103767D01*
X23701265Y9144001D01*
X25610434Y9144001D01*
X25630631Y8964749D01*
X25630631Y8964747D01*
X25630632Y8964745D01*
X25690211Y8794478D01*
X25706733Y8768184D01*
X25786185Y8641736D01*
X25913735Y8514186D01*
X25913737Y8514185D01*
X25913738Y8514184D01*
X26066478Y8418211D01*
X26236745Y8358632D01*
X26416000Y8338435D01*
X26595255Y8358632D01*
X26765522Y8418211D01*
X26858029Y8476338D01*
X26925264Y8495337D01*
X26989970Y8476338D01*
X27082478Y8418211D01*
X27252745Y8358632D01*
X27432000Y8338435D01*
X27611255Y8358632D01*
X27781522Y8418211D01*
X27934262Y8514184D01*
X28061816Y8641738D01*
X28157789Y8794478D01*
X28217368Y8964745D01*
X28237565Y9144000D01*
X28217368Y9323255D01*
X28157789Y9493522D01*
X28061816Y9646262D01*
X28061815Y9646263D01*
X28061814Y9646265D01*
X27934264Y9773815D01*
X27845551Y9829557D01*
X27781522Y9869789D01*
X27611255Y9929368D01*
X27611253Y9929369D01*
X27611251Y9929369D01*
X27432000Y9949566D01*
X27252748Y9929369D01*
X27252745Y9929369D01*
X27252745Y9929368D01*
X27082478Y9869789D01*
X27082476Y9869789D01*
X27082476Y9869788D01*
X26989972Y9811664D01*
X26922735Y9792664D01*
X26858028Y9811664D01*
X26789996Y9854411D01*
X26765522Y9869789D01*
X26595255Y9929368D01*
X26595253Y9929369D01*
X26595251Y9929369D01*
X26416000Y9949566D01*
X26236748Y9929369D01*
X26236745Y9929369D01*
X26236745Y9929368D01*
X26066478Y9869789D01*
X26066476Y9869789D01*
X26066476Y9869788D01*
X25913735Y9773815D01*
X25786185Y9646265D01*
X25735237Y9565181D01*
X25690211Y9493522D01*
X25656191Y9396297D01*
X25630631Y9323252D01*
X25610434Y9144001D01*
X23701265Y9144001D01*
X23685601Y9283022D01*
X23626022Y9453289D01*
X23530049Y9606029D01*
X23530048Y9606030D01*
X23530047Y9606032D01*
X23402497Y9733582D01*
X23249753Y9829557D01*
X23178727Y9854411D01*
X23121951Y9895133D01*
X23102641Y9930497D01*
X23095969Y9949565D01*
X23077789Y10001522D01*
X22981816Y10154262D01*
X22904657Y10231421D01*
X22871174Y10292741D01*
X22876158Y10362433D01*
X22904657Y10406779D01*
X25012528Y12514650D01*
X25024706Y12525330D01*
X25048451Y12543549D01*
X25059110Y12557440D01*
X25071610Y12573731D01*
X25071612Y12573732D01*
X25140698Y12663767D01*
X25148083Y12681596D01*
X25153330Y12694262D01*
X25159546Y12709272D01*
X25198687Y12803764D01*
X25213500Y12916280D01*
X25213500Y12916286D01*
X25218465Y12954000D01*
X25214560Y12983656D01*
X25213500Y12999840D01*
X25213500Y13486540D01*
X25232506Y13552512D01*
X25295789Y13653225D01*
X25349786Y13807539D01*
X25368091Y13970000D01*
X25366332Y13985616D01*
X25378386Y14054438D01*
X25425735Y14105817D01*
X25489552Y14123500D01*
X27131388Y14123500D01*
X27147574Y14122439D01*
X27176261Y14118662D01*
X27244092Y14127594D01*
X27251985Y14128632D01*
X27260197Y14129714D01*
X27322581Y14137926D01*
X27390754Y14166166D01*
X27418994Y14177863D01*
X27428977Y14181999D01*
X27458930Y14194404D01*
X27546615Y14261687D01*
X27546614Y14261687D01*
X27576015Y14284246D01*
X27576017Y14284250D01*
X27584657Y14290878D01*
X27590663Y14303338D01*
X27593629Y14307204D01*
X27604314Y14319388D01*
X29727064Y16442138D01*
X29788385Y16475621D01*
X29858077Y16470637D01*
X29914010Y16428765D01*
X29938427Y16363301D01*
X29937963Y16340572D01*
X29928434Y16256001D01*
X29948631Y16076749D01*
X29948631Y16076747D01*
X29948632Y16076745D01*
X30008211Y15906478D01*
X30023400Y15882305D01*
X30104185Y15753736D01*
X30231735Y15626186D01*
X30231737Y15626185D01*
X30231738Y15626184D01*
X30384478Y15530211D01*
X30554745Y15470632D01*
X30689186Y15455485D01*
X30733999Y15450435D01*
X30733999Y15450436D01*
X30734000Y15450435D01*
X30913255Y15470632D01*
X31083522Y15530211D01*
X31236262Y15626184D01*
X31258985Y15648907D01*
X31372164Y15762085D01*
X31433487Y15795570D01*
X31503179Y15790586D01*
X31547526Y15762085D01*
X34450182Y12859429D01*
X34483666Y12798108D01*
X34486500Y12771750D01*
X34486500Y6380749D01*
X34466815Y6313710D01*
X34414906Y6268368D01*
X34384173Y6254037D01*
X34190601Y6118497D01*
X34068285Y5996181D01*
X34006962Y5962697D01*
X33937270Y5967681D01*
X33881337Y6009553D01*
X33864422Y6040529D01*
X33815352Y6172089D01*
X33729188Y6287189D01*
X33614089Y6373353D01*
X33479371Y6423600D01*
X33423132Y6429646D01*
X33416518Y6430000D01*
X32772000Y6430000D01*
X32772000Y5515502D01*
X32664315Y5564680D01*
X32557763Y5580000D01*
X32486237Y5580000D01*
X32379685Y5564680D01*
X32272000Y5515502D01*
X32272000Y6430000D01*
X31627482Y6430000D01*
X31620867Y6429646D01*
X31564628Y6423600D01*
X31429910Y6373353D01*
X31314811Y6287189D01*
X31228647Y6172090D01*
X31178400Y6037372D01*
X31172354Y5981133D01*
X31172000Y5974519D01*
X31172000Y5330000D01*
X32088314Y5330000D01*
X32062507Y5289844D01*
X32022000Y5151889D01*
X32022000Y5008111D01*
X32062507Y4870156D01*
X32088314Y4830000D01*
X31172000Y4830000D01*
X31172000Y4185482D01*
X31172354Y4178868D01*
X31178400Y4122629D01*
X31228647Y3987911D01*
X31314811Y3872812D01*
X31429911Y3786648D01*
X31561471Y3737578D01*
X31617404Y3695706D01*
X31641821Y3630242D01*
X31626969Y3561969D01*
X31605819Y3533715D01*
X31483503Y3411399D01*
X31347965Y3217830D01*
X31248097Y3003664D01*
X31186936Y2775408D01*
X31166340Y2540001D01*
X31186936Y2304593D01*
X31231709Y2137499D01*
X31248097Y2076337D01*
X31347965Y1862170D01*
X31483505Y1668599D01*
X31650599Y1501505D01*
X31844170Y1365965D01*
X32058337Y1266097D01*
X32286592Y1204937D01*
X32522000Y1184341D01*
X32757408Y1204937D01*
X32985663Y1266097D01*
X33199830Y1365965D01*
X33393401Y1501505D01*
X33560495Y1668599D01*
X33690426Y1854161D01*
X33745002Y1897784D01*
X33814500Y1904978D01*
X33876855Y1873455D01*
X33893571Y1854163D01*
X34023505Y1668599D01*
X34190599Y1501505D01*
X34384170Y1365965D01*
X34598337Y1266097D01*
X34826592Y1204937D01*
X35062000Y1184341D01*
X35297408Y1204937D01*
X35525663Y1266097D01*
X35739830Y1365965D01*
X35933401Y1501505D01*
X36100495Y1668599D01*
X36230427Y1854162D01*
X36285001Y1897784D01*
X36354499Y1904978D01*
X36416854Y1873455D01*
X36433572Y1854162D01*
X36563505Y1668599D01*
X36730599Y1501505D01*
X36924170Y1365965D01*
X37138337Y1266097D01*
X37366592Y1204937D01*
X37602000Y1184341D01*
X37837408Y1204937D01*
X38065663Y1266097D01*
X38279830Y1365965D01*
X38473401Y1501505D01*
X38640495Y1668599D01*
X38770426Y1854161D01*
X38825002Y1897784D01*
X38894500Y1904978D01*
X38956855Y1873455D01*
X38973571Y1854163D01*
X39103505Y1668599D01*
X39270599Y1501505D01*
X39464170Y1365965D01*
X39678337Y1266097D01*
X39906592Y1204937D01*
X40142000Y1184341D01*
X40377408Y1204937D01*
X40605663Y1266097D01*
X40819830Y1365965D01*
X41013401Y1501505D01*
X41180495Y1668599D01*
X41316035Y1862170D01*
X41415903Y2076337D01*
X41477063Y2304592D01*
X41497659Y2540000D01*
X41477063Y2775408D01*
X41415903Y3003663D01*
X41316035Y3217829D01*
X41180495Y3411401D01*
X41013401Y3578495D01*
X40827839Y3708427D01*
X40784215Y3763003D01*
X40777023Y3832502D01*
X40808545Y3894856D01*
X40827831Y3911568D01*
X41013401Y4041505D01*
X41180495Y4208599D01*
X41316035Y4402170D01*
X41415903Y4616337D01*
X41477063Y4844592D01*
X41497659Y5080000D01*
X41477063Y5315408D01*
X41415903Y5543663D01*
X41316035Y5757829D01*
X41180495Y5951401D01*
X41013401Y6118495D01*
X40819830Y6254035D01*
X40605663Y6353903D01*
X40531021Y6373903D01*
X40377407Y6415064D01*
X40142000Y6435660D01*
X39906592Y6415064D01*
X39678336Y6353903D01*
X39464170Y6254035D01*
X39270598Y6118495D01*
X39103505Y5951402D01*
X38973575Y5765841D01*
X38918998Y5722216D01*
X38849500Y5715022D01*
X38787145Y5746545D01*
X38770425Y5765841D01*
X38640494Y5951402D01*
X38473404Y6118492D01*
X38473404Y6118493D01*
X38473401Y6118495D01*
X38279830Y6254035D01*
X38065663Y6353903D01*
X37991021Y6373903D01*
X37837407Y6415064D01*
X37602000Y6435660D01*
X37366592Y6415064D01*
X37138336Y6353903D01*
X36924170Y6254035D01*
X36730598Y6118495D01*
X36563505Y5951402D01*
X36433575Y5765841D01*
X36378998Y5722216D01*
X36309500Y5715022D01*
X36247145Y5746545D01*
X36230425Y5765841D01*
X36100494Y5951402D01*
X35933404Y6118492D01*
X35933404Y6118493D01*
X35933401Y6118495D01*
X35739830Y6254035D01*
X35739826Y6254037D01*
X35709092Y6268369D01*
X35656654Y6314543D01*
X35637500Y6380750D01*
X35637500Y13015652D01*
X35638561Y13031838D01*
X35642465Y13061492D01*
X35637500Y13099205D01*
X35637500Y13099211D01*
X35622687Y13211727D01*
X35614551Y13231369D01*
X35564698Y13351724D01*
X35560152Y13357648D01*
X35554931Y13364453D01*
X35526616Y13401353D01*
X35495612Y13441759D01*
X35495609Y13441762D01*
X35488533Y13450984D01*
X35488532Y13450986D01*
X35472452Y13471942D01*
X35448717Y13490154D01*
X35436522Y13500849D01*
X31459552Y17477819D01*
X31426067Y17539142D01*
X31431051Y17608834D01*
X31472923Y17664767D01*
X31538387Y17689184D01*
X31547233Y17689500D01*
X37428101Y17689500D01*
X37495140Y17669815D01*
X37540895Y17617011D01*
X37551321Y17551615D01*
X37548434Y17525999D01*
X37568631Y17346749D01*
X37568631Y17346747D01*
X37568632Y17346745D01*
X37628211Y17176478D01*
X37669011Y17111545D01*
X37724185Y17023736D01*
X37851735Y16896186D01*
X37851737Y16896185D01*
X37851738Y16896184D01*
X38004478Y16800211D01*
X38174745Y16740632D01*
X38354000Y16720435D01*
X38533255Y16740632D01*
X38703522Y16800211D01*
X38856262Y16896184D01*
X38983816Y17023738D01*
X39079789Y17176478D01*
X39139368Y17346745D01*
X39159565Y17526000D01*
X39156678Y17551615D01*
X39168733Y17620437D01*
X39216081Y17671817D01*
X39279899Y17689500D01*
X45097236Y17689500D01*
X45164275Y17669815D01*
X45210030Y17617011D01*
X45219974Y17547853D01*
X45214279Y17524552D01*
X45197927Y17477819D01*
X45188631Y17451252D01*
X45168434Y17272001D01*
X45188631Y17092749D01*
X45188631Y17092747D01*
X45188632Y17092745D01*
X45248211Y16922478D01*
X45271248Y16885815D01*
X45344185Y16769736D01*
X45471735Y16642186D01*
X45471737Y16642185D01*
X45471738Y16642184D01*
X45624478Y16546211D01*
X45794745Y16486632D01*
X45974000Y16466435D01*
X46153255Y16486632D01*
X46323522Y16546211D01*
X46476262Y16642184D01*
X46603816Y16769738D01*
X46699789Y16922478D01*
X46759368Y17092745D01*
X46779565Y17272000D01*
X46759368Y17451255D01*
X46731427Y17531104D01*
X46727867Y17600880D01*
X46762596Y17661508D01*
X46824589Y17693735D01*
X46832261Y17694992D01*
X46892762Y17702956D01*
X47038841Y17763464D01*
X47132785Y17835550D01*
X47142232Y17844998D01*
X47154421Y17855687D01*
X47162282Y17861718D01*
X47168319Y17869587D01*
X47179001Y17881768D01*
X48712450Y19415214D01*
X48784536Y19509159D01*
X48784538Y19509165D01*
X48789491Y19515619D01*
X48812382Y19538509D01*
X48818837Y19543463D01*
X48818841Y19543464D01*
X48944282Y19639718D01*
X49040536Y19765159D01*
X49101044Y19911238D01*
X49116500Y20028639D01*
X49116500Y24339905D01*
X49136185Y24406943D01*
X49152812Y24427578D01*
X49152811Y24427579D01*
X49159036Y24433803D01*
X49171223Y24444491D01*
X49196282Y24463718D01*
X49292536Y24589159D01*
X49344939Y24715672D01*
X49388780Y24770075D01*
X49455074Y24792140D01*
X49522773Y24774861D01*
G37*
%TD.AperFunction*%
%TA.AperFunction,Conductor*%
G36*
X22517165Y14103815D02*
G01*
X22562920Y14051011D01*
X22572864Y13981853D01*
X22549162Y13929954D01*
X22550626Y13929034D01*
X22543193Y13917206D01*
X22543192Y13917204D01*
X22505065Y13856526D01*
X22456209Y13778773D01*
X22402213Y13624462D01*
X22383908Y13462000D01*
X22402213Y13299539D01*
X22439584Y13192742D01*
X22443146Y13122963D01*
X22410224Y13064106D01*
X20134939Y10788819D01*
X20073616Y10755334D01*
X20047258Y10752500D01*
X18668291Y10752500D01*
X18601252Y10772185D01*
X18555497Y10824989D01*
X18545553Y10894147D01*
X18574578Y10957703D01*
X18580610Y10964181D01*
X21703610Y14087181D01*
X21764933Y14120666D01*
X21791291Y14123500D01*
X22450126Y14123500D01*
X22517165Y14103815D01*
G37*
%TD.AperFunction*%
%TA.AperFunction,Conductor*%
G36*
X2561130Y69985130D02*
G01*
X2751819Y69822267D01*
X2193135Y69263584D01*
X2234439Y69325399D01*
X2253842Y69422944D01*
X2234439Y69520489D01*
X2179184Y69603184D01*
X2096489Y69658439D01*
X2023568Y69672944D01*
X1974320Y69672944D01*
X1901399Y69658439D01*
X1839576Y69617131D01*
X2398266Y70175821D01*
X2561130Y69985130D01*
G37*
%TD.AperFunction*%
%TA.AperFunction,Conductor*%
G36*
X5552421Y69617132D02*
G01*
X5490601Y69658439D01*
X5417680Y69672944D01*
X5368432Y69672944D01*
X5295511Y69658439D01*
X5212816Y69603184D01*
X5157561Y69520489D01*
X5138158Y69422944D01*
X5157561Y69325399D01*
X5198867Y69263580D01*
X4640180Y69822267D01*
X4830870Y69985130D01*
X4993733Y70175820D01*
X5552421Y69617132D01*
G37*
%TD.AperFunction*%
%TA.AperFunction,Conductor*%
G36*
X47657364Y69698077D02*
G01*
X47595545Y69739383D01*
X47522624Y69753888D01*
X47473376Y69753888D01*
X47400455Y69739383D01*
X47317760Y69684128D01*
X47262505Y69601433D01*
X47243102Y69503888D01*
X47262505Y69406343D01*
X47303811Y69344524D01*
X46745124Y69903211D01*
X46935814Y70066074D01*
X47098677Y70256764D01*
X47657364Y69698077D01*
G37*
%TD.AperFunction*%
%TA.AperFunction,Conductor*%
G36*
X44666074Y70066074D02*
G01*
X44856763Y69903211D01*
X44298079Y69344528D01*
X44339383Y69406343D01*
X44358786Y69503888D01*
X44339383Y69601433D01*
X44284128Y69684128D01*
X44201433Y69739383D01*
X44128512Y69753888D01*
X44079264Y69753888D01*
X44006343Y69739383D01*
X43944521Y69698076D01*
X44503210Y70256764D01*
X44666074Y70066074D01*
G37*
%TD.AperFunction*%
%TA.AperFunction,Conductor*%
G36*
X5157561Y72914601D02*
G01*
X5138158Y72817056D01*
X5157561Y72719511D01*
X5212816Y72636816D01*
X5295511Y72581561D01*
X5368432Y72567056D01*
X5417680Y72567056D01*
X5490601Y72581561D01*
X5552415Y72622865D01*
X4993732Y72064182D01*
X4830870Y72254870D01*
X4640179Y72417734D01*
X5198869Y72976424D01*
X5157561Y72914601D01*
G37*
%TD.AperFunction*%
%TA.AperFunction,Conductor*%
G36*
X44856763Y72498678D02*
G01*
X44666074Y72335814D01*
X44503211Y72145126D01*
X43944527Y72703809D01*
X44006343Y72662505D01*
X44079264Y72648000D01*
X44128512Y72648000D01*
X44201433Y72662505D01*
X44284128Y72717760D01*
X44339383Y72800455D01*
X44358786Y72898000D01*
X44339383Y72995545D01*
X44298077Y73057363D01*
X44856763Y72498678D01*
G37*
%TD.AperFunction*%
%TD*%
M02*
