%TF.GenerationSoftware,KiCad,Pcbnew,7.0.2-0*%
%TF.CreationDate,2023-07-08T17:29:12+12:00*%
%TF.ProjectId,RpiFly v3,52706946-6c79-4207-9633-2e6b69636164,rev?*%
%TF.SameCoordinates,PX753dac0PY7a91ee0*%
%TF.FileFunction,Copper,L3,Inr*%
%TF.FilePolarity,Positive*%
%FSLAX46Y46*%
G04 Gerber Fmt 4.6, Leading zero omitted, Abs format (unit mm)*
G04 Created by KiCad (PCBNEW 7.0.2-0) date 2023-07-08 17:29:12*
%MOMM*%
%LPD*%
G01*
G04 APERTURE LIST*
G04 Aperture macros list*
%AMRoundRect*
0 Rectangle with rounded corners*
0 $1 Rounding radius*
0 $2 $3 $4 $5 $6 $7 $8 $9 X,Y pos of 4 corners*
0 Add a 4 corners polygon primitive as box body*
4,1,4,$2,$3,$4,$5,$6,$7,$8,$9,$2,$3,0*
0 Add four circle primitives for the rounded corners*
1,1,$1+$1,$2,$3*
1,1,$1+$1,$4,$5*
1,1,$1+$1,$6,$7*
1,1,$1+$1,$8,$9*
0 Add four rect primitives between the rounded corners*
20,1,$1+$1,$2,$3,$4,$5,0*
20,1,$1+$1,$4,$5,$6,$7,0*
20,1,$1+$1,$6,$7,$8,$9,0*
20,1,$1+$1,$8,$9,$2,$3,0*%
G04 Aperture macros list end*
%TA.AperFunction,ComponentPad*%
%ADD10C,0.600000*%
%TD*%
%TA.AperFunction,ComponentPad*%
%ADD11C,2.200000*%
%TD*%
%TA.AperFunction,ComponentPad*%
%ADD12C,2.286000*%
%TD*%
%TA.AperFunction,ComponentPad*%
%ADD13C,0.800000*%
%TD*%
%TA.AperFunction,ComponentPad*%
%ADD14C,6.400000*%
%TD*%
%TA.AperFunction,ComponentPad*%
%ADD15R,1.700000X1.700000*%
%TD*%
%TA.AperFunction,ComponentPad*%
%ADD16O,1.700000X1.700000*%
%TD*%
%TA.AperFunction,ComponentPad*%
%ADD17RoundRect,0.250000X0.350000X0.625000X-0.350000X0.625000X-0.350000X-0.625000X0.350000X-0.625000X0*%
%TD*%
%TA.AperFunction,ComponentPad*%
%ADD18O,1.200000X1.750000*%
%TD*%
%TA.AperFunction,ComponentPad*%
%ADD19O,1.750000X1.200000*%
%TD*%
%TA.AperFunction,ComponentPad*%
%ADD20RoundRect,0.250000X-0.625000X0.350000X-0.625000X-0.350000X0.625000X-0.350000X0.625000X0.350000X0*%
%TD*%
%TA.AperFunction,ComponentPad*%
%ADD21C,2.000000*%
%TD*%
%TA.AperFunction,ComponentPad*%
%ADD22C,1.700000*%
%TD*%
%TA.AperFunction,ComponentPad*%
%ADD23O,1.550000X0.890000*%
%TD*%
%TA.AperFunction,ComponentPad*%
%ADD24O,0.950000X1.250000*%
%TD*%
%TA.AperFunction,ComponentPad*%
%ADD25R,2.000000X1.905000*%
%TD*%
%TA.AperFunction,ComponentPad*%
%ADD26O,2.000000X1.905000*%
%TD*%
%TA.AperFunction,ComponentPad*%
%ADD27R,2.200000X2.200000*%
%TD*%
%TA.AperFunction,ComponentPad*%
%ADD28O,2.200000X2.200000*%
%TD*%
%TA.AperFunction,ViaPad*%
%ADD29C,0.600000*%
%TD*%
%TA.AperFunction,ViaPad*%
%ADD30C,0.450000*%
%TD*%
%TA.AperFunction,ViaPad*%
%ADD31C,0.500000*%
%TD*%
%TA.AperFunction,ViaPad*%
%ADD32C,0.800000*%
%TD*%
G04 APERTURE END LIST*
D10*
%TO.N,N/C*%
%TO.C,U5*%
X27716000Y58263000D03*
X27716000Y59563000D03*
X27716000Y60863000D03*
X26416000Y58263000D03*
X26416000Y59563000D03*
X26416000Y60863000D03*
%TD*%
%TO.N,N/C*%
%TO.C,U6*%
X36546000Y60863000D03*
X37846000Y60863000D03*
X36546000Y59563000D03*
X37846000Y59563000D03*
X36546000Y58263000D03*
X37846000Y58263000D03*
%TD*%
D11*
%TO.N,N/C*%
%TO.C,H6*%
X2794000Y35560000D03*
%TD*%
%TO.N,N/C*%
%TO.C,H5*%
X46990000Y35814000D03*
%TD*%
D12*
%TO.N,GND*%
%TO.C,BZ1*%
X33528000Y50800000D03*
%TO.N,GPIO_11 (BUZZER)*%
X33528000Y45800000D03*
%TD*%
D13*
%TO.N,GND*%
%TO.C,H2*%
X43400944Y71200944D03*
X44103888Y72898000D03*
X44103888Y69503888D03*
X45800944Y73600944D03*
D14*
X45800944Y71200944D03*
D13*
X45800944Y68800944D03*
X47498000Y72898000D03*
X47498000Y69503888D03*
X48200944Y71200944D03*
%TD*%
D15*
%TO.N,+3V3*%
%TO.C,J4*%
X25146000Y64516000D03*
D16*
%TO.N,P_SWITCH_2_IN*%
X27686000Y64516000D03*
%TO.N,/Connectors/P_SWITCH_2_V+*%
X30226000Y64516000D03*
%TD*%
D17*
%TO.N,/Connectors/P_SWITCH_2_V+*%
%TO.C,J6*%
X29686000Y68416000D03*
D18*
%TO.N,GND*%
X27686000Y68416000D03*
%TO.N,P_SWITCH_2_OUT*%
X25686000Y68416000D03*
%TD*%
D17*
%TO.N,/Connectors/P_SWITCH_1_V+*%
%TO.C,J5*%
X38830000Y68416000D03*
D18*
%TO.N,GND*%
X36830000Y68416000D03*
%TO.N,P_SWITCH_1_OUT*%
X34830000Y68416000D03*
%TD*%
D19*
%TO.N,GND*%
%TO.C,J2*%
X6768000Y43450000D03*
D20*
%TO.N,VS*%
X6768000Y45450000D03*
%TD*%
D15*
%TO.N,+3V3*%
%TO.C,J3*%
X34290000Y64516000D03*
D16*
%TO.N,P_SWITCH_1_IN*%
X36830000Y64516000D03*
%TO.N,/Connectors/P_SWITCH_1_V+*%
X39370000Y64516000D03*
%TD*%
D21*
%TO.N,*%
%TO.C,S1*%
X7338000Y63722000D03*
X1338000Y63722000D03*
X7338000Y51722000D03*
X1338000Y51722000D03*
D22*
%TO.N,VSS*%
X5588000Y61722000D03*
%TO.N,Net-(D5-K)*%
X5588000Y57722000D03*
%TO.N,unconnected-(S1-Pad3)*%
X5588000Y53722000D03*
%TD*%
D23*
%TO.N,unconnected-(J1-Pad6)*%
%TO.C,J1*%
X2764000Y28940000D03*
D24*
X5464000Y27940000D03*
X5464000Y22940000D03*
D23*
X2764000Y21940000D03*
%TD*%
D25*
%TO.N,GND*%
%TO.C,U4*%
X13122000Y38100000D03*
D26*
%TO.N,Net-(U4-VO)*%
X13122000Y35560000D03*
%TO.N,Net-(U4-VI)*%
X13122000Y33020000D03*
%TD*%
D13*
%TO.N,N/C*%
%TO.C,H4*%
X43434000Y3950000D03*
X44136944Y5647056D03*
X44136944Y2252944D03*
X45834000Y6350000D03*
D14*
X45834000Y3950000D03*
D13*
X45834000Y1550000D03*
X47531056Y5647056D03*
X47531056Y2252944D03*
X48234000Y3950000D03*
%TD*%
D15*
%TO.N,Net-(J7-Pin_1)*%
%TO.C,J7*%
X20838000Y5100000D03*
D16*
%TO.N,GND*%
X20838000Y2560000D03*
%TO.N,GPIO_3 (CSN)*%
X23378000Y5100000D03*
%TO.N,GPIO_5 (CE)*%
X23378000Y2560000D03*
%TO.N,GPIO_7 (MOSI)*%
X25918000Y5100000D03*
%TO.N,GPIO_6 (SCK)*%
X25918000Y2560000D03*
%TO.N,GPIO_2 (IRQ)*%
X28458000Y5100000D03*
%TO.N,GPIO_4 (MISO)*%
X28458000Y2560000D03*
%TD*%
D13*
%TO.N,GND*%
%TO.C,H1*%
X6096000Y71120000D03*
X5393056Y72817056D03*
X5393056Y69422944D03*
X3696000Y73520000D03*
D14*
X3696000Y71120000D03*
D13*
X3696000Y68720000D03*
X1998944Y72817056D03*
X1998944Y69422944D03*
X1296000Y71120000D03*
%TD*%
D27*
%TO.N,VSS*%
%TO.C,D7*%
X9144000Y39370000D03*
D28*
%TO.N,GND*%
X9144000Y31750000D03*
%TD*%
D13*
%TO.N,N/C*%
%TO.C,H3*%
X1664000Y4064000D03*
X2366944Y5761056D03*
X2366944Y2366944D03*
X4064000Y6464000D03*
D14*
X4064000Y4064000D03*
D13*
X4064000Y1664000D03*
X5761056Y5761056D03*
X5761056Y2366944D03*
X6464000Y4064000D03*
%TD*%
D15*
%TO.N,GND*%
%TO.C,J8*%
X32522000Y5080000D03*
D16*
%TO.N,+3V3*%
X32522000Y2540000D03*
%TO.N,GPIO_ADC0 (OUT 5)*%
X35062000Y5080000D03*
%TO.N,+3.3VA*%
X35062000Y2540000D03*
%TO.N,GPIO_15 (OUT 4)*%
X37602000Y5080000D03*
%TO.N,GPIO_12 (OUT 1)*%
X37602000Y2540000D03*
%TO.N,GPIO_14 (OUT 3)*%
X40142000Y5080000D03*
%TO.N,GPIO_13 (OUT 2)*%
X40142000Y2540000D03*
%TD*%
D29*
%TO.N,GND*%
X10414000Y52832000D03*
X12446000Y18796000D03*
X33020000Y10922000D03*
D30*
X28194000Y14224000D03*
D29*
%TO.N,/RUN*%
X48260000Y55372000D03*
D30*
%TO.N,SWCLK*%
X28684000Y16974000D03*
%TO.N,GND*%
X40184000Y16644000D03*
%TO.N,SWD*%
X30141307Y17275784D03*
%TO.N,/RUN*%
X30734000Y18288000D03*
%TO.N,GPIO_3 (CSN)*%
X15494000Y3810000D03*
D29*
%TO.N,/QSPI_SS*%
X12700000Y12446000D03*
%TO.N,SWD*%
X7366000Y12192000D03*
%TO.N,SWCLK*%
X7366000Y13970000D03*
%TO.N,GND*%
X3810000Y15240000D03*
D30*
%TO.N,GPIO_10 (LED)*%
X24638000Y13970000D03*
%TO.N,GPIO_8 (LED)*%
X23114000Y13462000D03*
%TO.N,GPIO_9 (LED)*%
X23876000Y13716000D03*
%TO.N,GND*%
X19050000Y41656000D03*
%TO.N,+3V3*%
X19304000Y18796000D03*
%TO.N,+1V1*%
X24130000Y16764000D03*
X26924000Y18034000D03*
%TO.N,GPIO_ADC0 (OUT 5)*%
X28194000Y19558000D03*
%TO.N,GPIO_11 (BUZZER)*%
X25146000Y22098000D03*
%TO.N,GND*%
X38608000Y31750000D03*
X40132000Y34290000D03*
%TO.N,+3V3*%
X41164500Y37575500D03*
%TO.N,GPIO_22 (PSWITCH 1)*%
X41148000Y59944000D03*
%TO.N,GPIO_23 (PSENSE 1)*%
X33274000Y60198000D03*
%TO.N,GPIO_24 (PSWITCH 2)*%
X30988000Y60198000D03*
D29*
%TO.N,GPIO_25 (PSENSE 2)*%
X23114000Y60198000D03*
%TO.N,GND*%
X29718000Y56134000D03*
%TO.N,+3V3*%
X11176000Y48514000D03*
%TO.N,GND*%
X16764000Y41910000D03*
X1016000Y57658000D03*
X1778000Y44450000D03*
%TO.N,+3V3*%
X20320000Y51562000D03*
%TO.N,GPIO_25 (PSENSE 2)*%
X23114000Y52832000D03*
%TO.N,GND*%
X43688000Y60706000D03*
X39878000Y53848000D03*
X37084000Y55880000D03*
X41910000Y56388000D03*
X43688000Y50038000D03*
%TO.N,/QSPI_SS*%
X46736000Y41148000D03*
%TO.N,+3V3*%
X43434000Y44450000D03*
X39878000Y43180000D03*
%TO.N,GPIO_23 (PSENSE 1)*%
X37338000Y42164000D03*
%TO.N,GND*%
X46482000Y25146000D03*
X47244000Y28956000D03*
X34798000Y27940000D03*
X42418000Y27432000D03*
%TO.N,+3V3*%
X39370000Y26670000D03*
%TO.N,GND*%
X35814000Y23114000D03*
X38862000Y21590000D03*
X40894000Y24892000D03*
%TO.N,+3V3*%
X42672000Y20828000D03*
%TO.N,GND*%
X43942000Y21082000D03*
X46482000Y21082000D03*
%TO.N,+3V3*%
X47752000Y21082000D03*
X38354000Y17526000D03*
%TO.N,GND*%
X32258000Y19050000D03*
X31750000Y15494000D03*
%TO.N,+3V3*%
X30734000Y16256000D03*
%TO.N,GND*%
X41148000Y9144000D03*
X41148000Y12700000D03*
%TO.N,/RUN*%
X45974000Y17272000D03*
%TO.N,GND*%
X44196000Y17018000D03*
%TO.N,+3V3*%
X48768000Y16256000D03*
%TO.N,GND*%
X48768000Y12700000D03*
X48768000Y7366000D03*
%TO.N,+3.3VA*%
X29718000Y762000D03*
%TO.N,GND*%
X29210000Y8128000D03*
%TO.N,+3.3VA*%
X22900233Y9103767D03*
X22352000Y9652000D03*
%TO.N,+3V3*%
X27432000Y9144000D03*
X26416000Y9144000D03*
%TO.N,GND*%
X25146000Y11430000D03*
X20574000Y11684000D03*
X20066000Y7112000D03*
X17780000Y9398000D03*
%TO.N,+3.3VA*%
X17780000Y2540000D03*
%TO.N,GND*%
X10160000Y1016000D03*
%TO.N,GPIO_10 (LED)*%
X14224000Y3048000D03*
%TO.N,GPIO_9 (LED)*%
X14224000Y6096000D03*
%TO.N,GPIO_8 (LED)*%
X14224000Y9144000D03*
%TO.N,GND*%
X6858000Y9144000D03*
%TO.N,+3.3VA*%
X3810000Y9398000D03*
%TO.N,GND*%
X1270000Y15240000D03*
X31496000Y33274000D03*
X27940000Y33274000D03*
X47244000Y31496000D03*
%TO.N,+3V3*%
X47244000Y39624000D03*
%TO.N,GND*%
X36830000Y72898000D03*
X27686000Y72898000D03*
X3810000Y66040000D03*
X15240000Y74422000D03*
X12192000Y66294000D03*
X9906000Y65786000D03*
X13208000Y66294000D03*
%TO.N,Net-(D1-A)*%
X21082000Y65278000D03*
%TO.N,GND*%
X22352000Y56642000D03*
X26670000Y55880000D03*
X24130000Y45720000D03*
%TO.N,+3V3*%
X24130000Y49530000D03*
%TO.N,GND*%
X19558000Y49276000D03*
X29464000Y45720000D03*
X22352000Y33274000D03*
X26162000Y39116000D03*
X22352000Y39116000D03*
X18542000Y33274000D03*
X18542000Y37338000D03*
X1778000Y32258000D03*
X1778000Y38608000D03*
X13208000Y28956000D03*
%TO.N,+3.3VA*%
X5588000Y33782000D03*
X5588000Y32766000D03*
%TO.N,Net-(U4-VO)*%
X6604000Y36576000D03*
X5651000Y35623000D03*
%TO.N,GND*%
X41910000Y762000D03*
X7620000Y73914000D03*
X11430000Y45466000D03*
X8128000Y18796000D03*
D31*
X26060400Y19354800D03*
X16205200Y61036200D03*
X7620000Y24130000D03*
X24739600Y18034000D03*
X20828000Y27178000D03*
X18542000Y46482000D03*
X26416000Y28448000D03*
X22352000Y29210000D03*
X30480000Y25146000D03*
X21082000Y44450000D03*
X14732000Y14732000D03*
X24739600Y20828000D03*
X21082000Y46482000D03*
X16256000Y24424008D03*
X17526000Y29210000D03*
X16764000Y16002000D03*
X23368000Y19354800D03*
X27686000Y27178000D03*
X6858000Y24140000D03*
X18542000Y44450000D03*
%TO.N,+3V3*%
X19812000Y23114000D03*
X18796000Y29210000D03*
D32*
X9474200Y73482200D03*
X11252200Y73482200D03*
X10363200Y73482200D03*
D31*
X8128000Y23114000D03*
X29337353Y21462647D03*
X24307800Y25222200D03*
%TO.N,GPIO_25 (PSENSE 2)*%
X28829000Y28829000D03*
%TO.N,GPIO_23 (PSENSE 1)*%
X30226000Y27686000D03*
%TO.N,GPIO_22 (PSWITCH 1)*%
X30734000Y26670000D03*
%TO.N,GPIO_24 (PSWITCH 2)*%
X29464000Y28194000D03*
%TO.N,Net-(D1-A)*%
X11582400Y69723000D03*
%TD*%
%TA.AperFunction,Conductor*%
%TO.N,+3.3VA*%
G36*
X3854050Y34305173D02*
G01*
X3942188Y34292500D01*
X7242000Y34292500D01*
X7309039Y34272815D01*
X7354794Y34220011D01*
X7366000Y34168500D01*
X7366000Y33594363D01*
X7346315Y33527324D01*
X7310783Y33491189D01*
X6604000Y33020001D01*
X6604000Y28524575D01*
X6584315Y28457536D01*
X6531511Y28411781D01*
X6462353Y28401837D01*
X6398797Y28430862D01*
X6374699Y28467602D01*
X6371187Y28465652D01*
X6315570Y28565854D01*
X6268784Y28650146D01*
X6268783Y28650148D01*
X6268782Y28650149D01*
X6139553Y28800683D01*
X5982668Y28922122D01*
X5804544Y29009495D01*
X5804543Y29009496D01*
X5612480Y29059224D01*
X5414337Y29069272D01*
X5414336Y29069272D01*
X5414334Y29069272D01*
X5218227Y29039231D01*
X5032182Y28970327D01*
X4863812Y28865381D01*
X4720012Y28728690D01*
X4606676Y28565855D01*
X4528437Y28383536D01*
X4488499Y28189198D01*
X4488500Y27933249D01*
X4488500Y27740527D01*
X4488816Y27737416D01*
X4488817Y27737404D01*
X4503541Y27592617D01*
X4562930Y27403327D01*
X4659217Y27229852D01*
X4788446Y27079318D01*
X4945331Y26957879D01*
X5030951Y26915881D01*
X5123456Y26870505D01*
X5315520Y26820776D01*
X5513663Y26810728D01*
X5709773Y26840770D01*
X5895820Y26909675D01*
X6064189Y27014620D01*
X6207986Y27151309D01*
X6321324Y27314146D01*
X6366049Y27418371D01*
X6410575Y27472213D01*
X6477143Y27493437D01*
X6544619Y27475302D01*
X6591578Y27423566D01*
X6604000Y27369470D01*
X6604000Y24934225D01*
X6584315Y24867186D01*
X6541020Y24829672D01*
X6542140Y24827890D01*
X6387109Y24730477D01*
X6267524Y24610892D01*
X6177544Y24467690D01*
X6121686Y24308057D01*
X6102750Y24140000D01*
X6110424Y24071895D01*
X6098370Y24003073D01*
X6051021Y23951693D01*
X5983410Y23934069D01*
X5932595Y23946683D01*
X5804544Y24009495D01*
X5804543Y24009496D01*
X5612480Y24059224D01*
X5414337Y24069272D01*
X5414336Y24069272D01*
X5414334Y24069272D01*
X5218227Y24039231D01*
X5032182Y23970327D01*
X4863812Y23865381D01*
X4720012Y23728690D01*
X4606676Y23565855D01*
X4528437Y23383536D01*
X4488499Y23189198D01*
X4488500Y22945941D01*
X4488500Y22740527D01*
X4488816Y22737416D01*
X4488817Y22737404D01*
X4503541Y22592617D01*
X4562930Y22403327D01*
X4659217Y22229852D01*
X4788446Y22079318D01*
X4945331Y21957879D01*
X5030951Y21915881D01*
X5123456Y21870505D01*
X5315520Y21820776D01*
X5513663Y21810728D01*
X5709773Y21840770D01*
X5895820Y21909675D01*
X6064189Y22014620D01*
X6207986Y22151309D01*
X6321324Y22314146D01*
X6366050Y22418371D01*
X6410574Y22472212D01*
X6477142Y22493436D01*
X6544617Y22475301D01*
X6591577Y22423566D01*
X6603999Y22369469D01*
X6603999Y14237105D01*
X6597041Y14196153D01*
X6580631Y14149256D01*
X6560434Y13970000D01*
X6580631Y13790747D01*
X6597041Y13743850D01*
X6603999Y13702896D01*
X6603999Y12459105D01*
X6597041Y12418153D01*
X6580631Y12371256D01*
X6560434Y12192000D01*
X6580631Y12012747D01*
X6597041Y11965850D01*
X6603999Y11924896D01*
X6603999Y11176001D01*
X6604000Y11176000D01*
X7620000Y10160000D01*
X13974042Y10160000D01*
X14041081Y10140315D01*
X14086836Y10087511D01*
X14096780Y10018353D01*
X14067755Y9954797D01*
X14014999Y9918960D01*
X13874478Y9869789D01*
X13874476Y9869789D01*
X13874476Y9869788D01*
X13721735Y9773815D01*
X13594185Y9646265D01*
X13498212Y9493524D01*
X13498211Y9493522D01*
X13452379Y9362541D01*
X13438631Y9323252D01*
X13418434Y9144001D01*
X13438631Y8964749D01*
X13438631Y8964747D01*
X13438632Y8964745D01*
X13498211Y8794478D01*
X13554978Y8704133D01*
X13594185Y8641736D01*
X13721735Y8514186D01*
X13721737Y8514185D01*
X13721738Y8514184D01*
X13874478Y8418211D01*
X14044745Y8358632D01*
X14224000Y8338435D01*
X14403255Y8358632D01*
X14573522Y8418211D01*
X14726262Y8514184D01*
X14853816Y8641738D01*
X14949789Y8794478D01*
X15009368Y8964745D01*
X15029565Y9144000D01*
X15009368Y9323255D01*
X14949789Y9493522D01*
X14853816Y9646262D01*
X14853815Y9646263D01*
X14853814Y9646265D01*
X14726264Y9773815D01*
X14663867Y9813021D01*
X14573522Y9869789D01*
X14433001Y9918960D01*
X14376227Y9959680D01*
X14350480Y10024633D01*
X14363936Y10093194D01*
X14412323Y10143597D01*
X14473958Y10160000D01*
X17110559Y10160000D01*
X17177598Y10140315D01*
X17223353Y10087511D01*
X17233297Y10018353D01*
X17204272Y9954797D01*
X17198240Y9948319D01*
X17150185Y9900265D01*
X17054212Y9747524D01*
X16994631Y9577252D01*
X16974434Y9398000D01*
X16994631Y9218749D01*
X16994631Y9218747D01*
X16994632Y9218745D01*
X17054211Y9048478D01*
X17054212Y9048477D01*
X17150185Y8895736D01*
X17277735Y8768186D01*
X17277737Y8768185D01*
X17277738Y8768184D01*
X17430478Y8672211D01*
X17600745Y8612632D01*
X17735186Y8597485D01*
X17779999Y8592435D01*
X17779999Y8592436D01*
X17780000Y8592435D01*
X17959255Y8612632D01*
X18129522Y8672211D01*
X18282262Y8768184D01*
X18409816Y8895738D01*
X18505789Y9048478D01*
X18565368Y9218745D01*
X18585565Y9398000D01*
X18565368Y9577255D01*
X18505789Y9747522D01*
X18409816Y9900262D01*
X18409815Y9900263D01*
X18409814Y9900265D01*
X18361760Y9948319D01*
X18328275Y10009642D01*
X18333259Y10079334D01*
X18375131Y10135267D01*
X18440595Y10159684D01*
X18449441Y10160000D01*
X23047637Y10160000D01*
X23114676Y10140315D01*
X23150811Y10104783D01*
X23247547Y9959680D01*
X23601174Y9429239D01*
X23621982Y9362541D01*
X23622000Y9360457D01*
X23622000Y6569635D01*
X23602315Y6502596D01*
X23549511Y6456841D01*
X23487193Y6446107D01*
X23378000Y6455660D01*
X23142592Y6435064D01*
X22914336Y6373903D01*
X22700170Y6274035D01*
X22506601Y6138497D01*
X22384673Y6016569D01*
X22323350Y5983085D01*
X22253658Y5988069D01*
X22197725Y6029941D01*
X22180810Y6060918D01*
X22167725Y6096000D01*
X22131796Y6192331D01*
X22045546Y6307546D01*
X21930331Y6393796D01*
X21795483Y6444091D01*
X21735873Y6450500D01*
X21732551Y6450500D01*
X20820122Y6450500D01*
X20753083Y6470185D01*
X20707328Y6522989D01*
X20697384Y6592147D01*
X20715128Y6640472D01*
X20736444Y6674399D01*
X20791789Y6762478D01*
X20851368Y6932745D01*
X20871565Y7112000D01*
X20851368Y7291255D01*
X20791789Y7461522D01*
X20695816Y7614262D01*
X20695815Y7614263D01*
X20695814Y7614265D01*
X20568264Y7741815D01*
X20505867Y7781021D01*
X20415522Y7837789D01*
X20245255Y7897368D01*
X20245253Y7897369D01*
X20245251Y7897369D01*
X20066000Y7917566D01*
X19886748Y7897369D01*
X19886745Y7897369D01*
X19886745Y7897368D01*
X19716478Y7837789D01*
X19716476Y7837789D01*
X19716476Y7837788D01*
X19563735Y7741815D01*
X19436185Y7614265D01*
X19363247Y7498184D01*
X19340211Y7461522D01*
X19335389Y7447741D01*
X19280631Y7291252D01*
X19260434Y7112000D01*
X19280631Y6932749D01*
X19280631Y6932747D01*
X19280632Y6932745D01*
X19340211Y6762478D01*
X19363248Y6725815D01*
X19436185Y6609736D01*
X19563736Y6482185D01*
X19584091Y6469395D01*
X19630382Y6417060D01*
X19641030Y6348007D01*
X19617386Y6290091D01*
X19544205Y6192334D01*
X19544203Y6192331D01*
X19544204Y6192331D01*
X19493909Y6057483D01*
X19487500Y5997873D01*
X19487500Y5994552D01*
X19487500Y5994551D01*
X19487500Y4205440D01*
X19487500Y4205422D01*
X19487501Y4202128D01*
X19487853Y4198848D01*
X19487854Y4198841D01*
X19493909Y4142516D01*
X19499780Y4126775D01*
X19544204Y4007669D01*
X19630454Y3892454D01*
X19745669Y3806204D01*
X19832581Y3773788D01*
X19877082Y3757190D01*
X19933016Y3715319D01*
X19957433Y3649854D01*
X19942581Y3581581D01*
X19921431Y3553327D01*
X19799503Y3431399D01*
X19663965Y3237830D01*
X19564097Y3023664D01*
X19502936Y2795408D01*
X19482340Y2560001D01*
X19502936Y2324593D01*
X19547709Y2157498D01*
X19564097Y2096337D01*
X19663965Y1882170D01*
X19799505Y1688599D01*
X19966599Y1521505D01*
X20160170Y1385965D01*
X20374337Y1286097D01*
X20602592Y1224937D01*
X20837999Y1204341D01*
X20837999Y1204342D01*
X20838000Y1204341D01*
X21073408Y1224937D01*
X21301663Y1286097D01*
X21515830Y1385965D01*
X21709401Y1521505D01*
X21876495Y1688599D01*
X22006426Y1874161D01*
X22061002Y1917784D01*
X22130500Y1924978D01*
X22192855Y1893455D01*
X22209571Y1874163D01*
X22339505Y1688599D01*
X22506599Y1521505D01*
X22700170Y1385965D01*
X22914337Y1286097D01*
X23142592Y1224937D01*
X23378000Y1204341D01*
X23613408Y1224937D01*
X23841663Y1286097D01*
X24055830Y1385965D01*
X24249401Y1521505D01*
X24416495Y1688599D01*
X24546426Y1874161D01*
X24601002Y1917784D01*
X24670500Y1924978D01*
X24732855Y1893455D01*
X24749571Y1874163D01*
X24879505Y1688599D01*
X25046599Y1521505D01*
X25240170Y1385965D01*
X25454337Y1286097D01*
X25682591Y1224937D01*
X25682592Y1224937D01*
X25917999Y1204341D01*
X25917999Y1204342D01*
X25918000Y1204341D01*
X26153408Y1224937D01*
X26381663Y1286097D01*
X26595830Y1385965D01*
X26789401Y1521505D01*
X26956495Y1688599D01*
X27086426Y1874161D01*
X27141002Y1917784D01*
X27210500Y1924978D01*
X27272855Y1893455D01*
X27289571Y1874163D01*
X27419505Y1688599D01*
X27586599Y1521505D01*
X27780170Y1385965D01*
X27994337Y1286097D01*
X28222592Y1224937D01*
X28458000Y1204341D01*
X28693408Y1224937D01*
X28921663Y1286097D01*
X29135830Y1385965D01*
X29329401Y1521505D01*
X29496495Y1688599D01*
X29632035Y1882170D01*
X29685385Y1996581D01*
X29731557Y2049020D01*
X29798750Y2068172D01*
X29865632Y2047957D01*
X29872141Y2043394D01*
X30176401Y1815199D01*
X30218221Y1759230D01*
X30226000Y1716001D01*
X30226000Y324500D01*
X30206315Y257461D01*
X30153511Y211706D01*
X30102000Y200500D01*
X10775941Y200500D01*
X10708902Y220185D01*
X10663147Y272989D01*
X10653203Y342147D01*
X10682228Y405703D01*
X10688260Y412181D01*
X10789814Y513736D01*
X10789813Y513736D01*
X10789816Y513738D01*
X10885789Y666478D01*
X10945368Y836745D01*
X10965565Y1016000D01*
X10945368Y1195255D01*
X10885789Y1365522D01*
X10789816Y1518262D01*
X10789815Y1518263D01*
X10789814Y1518265D01*
X10662264Y1645815D01*
X10550563Y1716001D01*
X10509522Y1741789D01*
X10339255Y1801368D01*
X10339253Y1801369D01*
X10339251Y1801369D01*
X10160000Y1821566D01*
X9980748Y1801369D01*
X9980745Y1801369D01*
X9980745Y1801368D01*
X9810478Y1741789D01*
X9810476Y1741789D01*
X9810476Y1741788D01*
X9657735Y1645815D01*
X9530185Y1518265D01*
X9447056Y1385965D01*
X9434211Y1365522D01*
X9406419Y1286097D01*
X9374631Y1195252D01*
X9354434Y1016001D01*
X9374631Y836749D01*
X9374631Y836747D01*
X9374632Y836745D01*
X9434211Y666478D01*
X9434212Y666477D01*
X9530185Y513736D01*
X9631740Y412181D01*
X9665225Y350858D01*
X9660241Y281166D01*
X9618369Y225233D01*
X9552905Y200816D01*
X9544059Y200500D01*
X4884727Y200500D01*
X4817688Y220185D01*
X4771933Y272989D01*
X4761989Y342147D01*
X4791014Y405703D01*
X4849792Y443477D01*
X4852634Y444275D01*
X5209087Y539786D01*
X5571194Y678786D01*
X5916789Y854875D01*
X6242084Y1066124D01*
X6543516Y1310219D01*
X6817781Y1584484D01*
X7061876Y1885916D01*
X7273125Y2211211D01*
X7449214Y2556806D01*
X7588214Y2918913D01*
X7622803Y3048001D01*
X13418434Y3048001D01*
X13438631Y2868749D01*
X13438631Y2868747D01*
X13438632Y2868745D01*
X13498211Y2698478D01*
X13498212Y2698477D01*
X13594185Y2545736D01*
X13721735Y2418186D01*
X13721737Y2418185D01*
X13721738Y2418184D01*
X13874478Y2322211D01*
X14044745Y2262632D01*
X14179186Y2247485D01*
X14223999Y2242435D01*
X14223999Y2242436D01*
X14224000Y2242435D01*
X14403255Y2262632D01*
X14573522Y2322211D01*
X14726262Y2418184D01*
X14853816Y2545738D01*
X14949789Y2698478D01*
X15009368Y2868745D01*
X15029053Y3043453D01*
X15056119Y3107867D01*
X15113714Y3147423D01*
X15183551Y3149560D01*
X15193228Y3146611D01*
X15331538Y3098214D01*
X15494000Y3079909D01*
X15656461Y3098214D01*
X15810775Y3152211D01*
X15949204Y3239192D01*
X16064808Y3354796D01*
X16151789Y3493225D01*
X16205786Y3647539D01*
X16224091Y3810000D01*
X16219303Y3852500D01*
X16205786Y3972462D01*
X16151790Y4126773D01*
X16141898Y4142516D01*
X16064808Y4265204D01*
X15949204Y4380808D01*
X15810775Y4467789D01*
X15810772Y4467791D01*
X15656461Y4521787D01*
X15493999Y4540092D01*
X15331538Y4521787D01*
X15177227Y4467791D01*
X15038794Y4380807D01*
X14923193Y4265206D01*
X14836209Y4126773D01*
X14782213Y3972462D01*
X14769606Y3860569D01*
X14742539Y3796155D01*
X14684944Y3756600D01*
X14615107Y3754463D01*
X14580417Y3769457D01*
X14573524Y3773788D01*
X14573523Y3773789D01*
X14573522Y3773789D01*
X14403255Y3833368D01*
X14403253Y3833369D01*
X14403251Y3833369D01*
X14223999Y3853566D01*
X14044748Y3833369D01*
X14044745Y3833369D01*
X14044745Y3833368D01*
X13874478Y3773789D01*
X13874476Y3773789D01*
X13874476Y3773788D01*
X13721735Y3677815D01*
X13594185Y3550265D01*
X13519497Y3431399D01*
X13498211Y3397522D01*
X13460739Y3290434D01*
X13438631Y3227252D01*
X13418434Y3048001D01*
X7622803Y3048001D01*
X7688602Y3293567D01*
X7749278Y3676662D01*
X7769578Y4064000D01*
X7749278Y4451338D01*
X7688602Y4834433D01*
X7588214Y5209087D01*
X7449214Y5571194D01*
X7273125Y5916789D01*
X7156744Y6096000D01*
X13418434Y6096000D01*
X13438631Y5916749D01*
X13438631Y5916747D01*
X13438632Y5916745D01*
X13498211Y5746478D01*
X13554979Y5656133D01*
X13594185Y5593736D01*
X13721735Y5466186D01*
X13721737Y5466185D01*
X13721738Y5466184D01*
X13874478Y5370211D01*
X14044745Y5310632D01*
X14179186Y5295485D01*
X14223999Y5290435D01*
X14223999Y5290436D01*
X14224000Y5290435D01*
X14403255Y5310632D01*
X14573522Y5370211D01*
X14726262Y5466184D01*
X14853816Y5593738D01*
X14949789Y5746478D01*
X15009368Y5916745D01*
X15029565Y6096000D01*
X15009368Y6275255D01*
X14949789Y6445522D01*
X14853816Y6598262D01*
X14853815Y6598263D01*
X14853814Y6598265D01*
X14726264Y6725815D01*
X14663867Y6765021D01*
X14573522Y6821789D01*
X14403255Y6881368D01*
X14403253Y6881369D01*
X14403251Y6881369D01*
X14224000Y6901566D01*
X14044748Y6881369D01*
X14044745Y6881369D01*
X14044745Y6881368D01*
X13874478Y6821789D01*
X13874476Y6821789D01*
X13874476Y6821788D01*
X13721735Y6725815D01*
X13594185Y6598265D01*
X13498212Y6445524D01*
X13498211Y6445522D01*
X13464089Y6348007D01*
X13438631Y6275252D01*
X13418434Y6096000D01*
X7156744Y6096000D01*
X7061876Y6242084D01*
X6817781Y6543516D01*
X6543516Y6817781D01*
X6242084Y7061876D01*
X5916789Y7273125D01*
X5913901Y7274597D01*
X5913895Y7274600D01*
X5574086Y7447741D01*
X5574077Y7447745D01*
X5571194Y7449214D01*
X5539131Y7461522D01*
X5212110Y7587054D01*
X5212102Y7587057D01*
X5209087Y7588214D01*
X5205962Y7589052D01*
X5205957Y7589053D01*
X4837566Y7687763D01*
X4837557Y7687765D01*
X4834433Y7688602D01*
X4831237Y7689109D01*
X4831224Y7689111D01*
X4454543Y7748771D01*
X4454531Y7748773D01*
X4451338Y7749278D01*
X4448103Y7749448D01*
X4448099Y7749448D01*
X4067244Y7769408D01*
X4064000Y7769578D01*
X4060756Y7769408D01*
X3679900Y7749448D01*
X3679894Y7749448D01*
X3676662Y7749278D01*
X3673470Y7748773D01*
X3673456Y7748771D01*
X3296775Y7689111D01*
X3296758Y7689108D01*
X3293567Y7688602D01*
X3290446Y7687766D01*
X3290433Y7687763D01*
X2922042Y7589053D01*
X2922031Y7589050D01*
X2918913Y7588214D01*
X2915902Y7587059D01*
X2915889Y7587054D01*
X2559837Y7450378D01*
X2559828Y7450375D01*
X2556806Y7449214D01*
X2553929Y7447749D01*
X2553913Y7447741D01*
X2214104Y7274600D01*
X2214090Y7274592D01*
X2211211Y7273125D01*
X2208491Y7271359D01*
X2208483Y7271354D01*
X1888644Y7063648D01*
X1888638Y7063645D01*
X1885916Y7061876D01*
X1883396Y7059836D01*
X1883390Y7059831D01*
X1587002Y6819821D01*
X1586991Y6819812D01*
X1584484Y6817781D01*
X1582199Y6815497D01*
X1582189Y6815487D01*
X1312513Y6545811D01*
X1312503Y6545801D01*
X1310219Y6543516D01*
X1308188Y6541009D01*
X1308179Y6540998D01*
X1068169Y6244610D01*
X1068164Y6244604D01*
X1066124Y6242084D01*
X1064355Y6239362D01*
X1064352Y6239356D01*
X856646Y5919517D01*
X856641Y5919509D01*
X854875Y5916789D01*
X853408Y5913910D01*
X853400Y5913896D01*
X680259Y5574087D01*
X680251Y5574071D01*
X678786Y5571194D01*
X677625Y5568172D01*
X677622Y5568163D01*
X540946Y5212111D01*
X540941Y5212098D01*
X539786Y5209087D01*
X538949Y5205963D01*
X441210Y4841198D01*
X404845Y4781538D01*
X341998Y4751009D01*
X272622Y4759304D01*
X218744Y4803789D01*
X197470Y4870341D01*
X197437Y4872749D01*
X181258Y9144001D01*
X6052434Y9144001D01*
X6072631Y8964749D01*
X6072631Y8964747D01*
X6072632Y8964745D01*
X6132211Y8794478D01*
X6188979Y8704133D01*
X6228185Y8641736D01*
X6355735Y8514186D01*
X6355737Y8514185D01*
X6355738Y8514184D01*
X6508478Y8418211D01*
X6678745Y8358632D01*
X6813186Y8343485D01*
X6857999Y8338435D01*
X6857999Y8338436D01*
X6858000Y8338435D01*
X7037255Y8358632D01*
X7207522Y8418211D01*
X7360262Y8514184D01*
X7487816Y8641738D01*
X7583789Y8794478D01*
X7643368Y8964745D01*
X7663565Y9144000D01*
X7643368Y9323255D01*
X7583789Y9493522D01*
X7487816Y9646262D01*
X7487815Y9646263D01*
X7487814Y9646265D01*
X7360264Y9773815D01*
X7297867Y9813021D01*
X7207522Y9869789D01*
X7037255Y9929368D01*
X7037253Y9929369D01*
X7037251Y9929369D01*
X6858000Y9949566D01*
X6678748Y9929369D01*
X6678745Y9929369D01*
X6678745Y9929368D01*
X6508478Y9869789D01*
X6508476Y9869789D01*
X6508476Y9869788D01*
X6355735Y9773815D01*
X6228185Y9646265D01*
X6132212Y9493524D01*
X6132211Y9493522D01*
X6086379Y9362541D01*
X6072631Y9323252D01*
X6052434Y9144001D01*
X181258Y9144001D01*
X158167Y15240000D01*
X464434Y15240000D01*
X484631Y15060749D01*
X484631Y15060747D01*
X484632Y15060745D01*
X544211Y14890478D01*
X544212Y14890477D01*
X640185Y14737736D01*
X767735Y14610186D01*
X767737Y14610185D01*
X767738Y14610184D01*
X920478Y14514211D01*
X1090745Y14454632D01*
X1225186Y14439485D01*
X1269999Y14434435D01*
X1269999Y14434436D01*
X1270000Y14434435D01*
X1449255Y14454632D01*
X1619522Y14514211D01*
X1772262Y14610184D01*
X1899816Y14737738D01*
X1995789Y14890478D01*
X2055368Y15060745D01*
X2075565Y15240000D01*
X3004434Y15240000D01*
X3024631Y15060749D01*
X3024631Y15060747D01*
X3024632Y15060745D01*
X3084211Y14890478D01*
X3084212Y14890477D01*
X3180185Y14737736D01*
X3307735Y14610186D01*
X3307737Y14610185D01*
X3307738Y14610184D01*
X3460478Y14514211D01*
X3630745Y14454632D01*
X3765186Y14439485D01*
X3809999Y14434435D01*
X3809999Y14434436D01*
X3810000Y14434435D01*
X3989255Y14454632D01*
X4159522Y14514211D01*
X4312262Y14610184D01*
X4439816Y14737738D01*
X4535789Y14890478D01*
X4595368Y15060745D01*
X4615565Y15240000D01*
X4595368Y15419255D01*
X4535789Y15589522D01*
X4439816Y15742262D01*
X4439815Y15742263D01*
X4439814Y15742265D01*
X4312264Y15869815D01*
X4249867Y15909021D01*
X4159522Y15965789D01*
X3989255Y16025368D01*
X3989253Y16025369D01*
X3989251Y16025369D01*
X3809999Y16045566D01*
X3630748Y16025369D01*
X3630745Y16025369D01*
X3630745Y16025368D01*
X3460478Y15965789D01*
X3460476Y15965789D01*
X3460476Y15965788D01*
X3307735Y15869815D01*
X3180185Y15742265D01*
X3084212Y15589524D01*
X3024631Y15419252D01*
X3004434Y15240000D01*
X2075565Y15240000D01*
X2055368Y15419255D01*
X1995789Y15589522D01*
X1899816Y15742262D01*
X1899815Y15742263D01*
X1899814Y15742265D01*
X1772264Y15869815D01*
X1709867Y15909022D01*
X1619522Y15965789D01*
X1449255Y16025368D01*
X1449253Y16025369D01*
X1449251Y16025369D01*
X1269999Y16045566D01*
X1090748Y16025369D01*
X1090745Y16025369D01*
X1090745Y16025368D01*
X920478Y15965789D01*
X920476Y15965789D01*
X920476Y15965788D01*
X767735Y15869815D01*
X640185Y15742265D01*
X544212Y15589524D01*
X484631Y15419252D01*
X464434Y15240000D01*
X158167Y15240000D01*
X132970Y21891863D01*
X1484844Y21891863D01*
X1513962Y21701786D01*
X1580746Y21521463D01*
X1580748Y21521460D01*
X1682466Y21358269D01*
X1814951Y21218894D01*
X1972781Y21109042D01*
X2149492Y21033209D01*
X2337852Y20994500D01*
X2337853Y20994500D01*
X3138808Y20994500D01*
X3141950Y20994500D01*
X3285309Y21009078D01*
X3468786Y21066645D01*
X3636920Y21159966D01*
X3782826Y21285222D01*
X3851735Y21374246D01*
X3900530Y21437283D01*
X3935442Y21508456D01*
X3985217Y21609929D01*
X4033417Y21796087D01*
X4043156Y21988136D01*
X4014037Y22178214D01*
X3999340Y22217896D01*
X3947253Y22358538D01*
X3940440Y22369469D01*
X3845534Y22521731D01*
X3713049Y22661106D01*
X3555219Y22770958D01*
X3378508Y22846791D01*
X3190148Y22885500D01*
X2386050Y22885500D01*
X2382939Y22885184D01*
X2382926Y22885183D01*
X2242690Y22870922D01*
X2059213Y22813355D01*
X1891080Y22720035D01*
X1745173Y22594778D01*
X1627469Y22442718D01*
X1542783Y22270072D01*
X1529274Y22217896D01*
X1498231Y22098000D01*
X1494583Y22083912D01*
X1484844Y21891863D01*
X132970Y21891863D01*
X106455Y28891863D01*
X1484844Y28891863D01*
X1513962Y28701786D01*
X1580746Y28521463D01*
X1580748Y28521460D01*
X1682466Y28358269D01*
X1814951Y28218894D01*
X1972781Y28109042D01*
X2149492Y28033209D01*
X2337852Y27994500D01*
X2337853Y27994500D01*
X3138808Y27994500D01*
X3141950Y27994500D01*
X3285309Y28009078D01*
X3468786Y28066645D01*
X3636920Y28159966D01*
X3782826Y28285222D01*
X3858926Y28383536D01*
X3900530Y28437283D01*
X3905787Y28448000D01*
X3985217Y28609929D01*
X4033417Y28796087D01*
X4043156Y28988136D01*
X4014037Y29178214D01*
X4011778Y29184313D01*
X3947253Y29358538D01*
X3947252Y29358540D01*
X3845534Y29521731D01*
X3713049Y29661106D01*
X3555219Y29770958D01*
X3378508Y29846791D01*
X3190148Y29885500D01*
X2386050Y29885500D01*
X2382939Y29885184D01*
X2382926Y29885183D01*
X2242690Y29870922D01*
X2059213Y29813355D01*
X1891080Y29720035D01*
X1745173Y29594778D01*
X1627469Y29442718D01*
X1542783Y29270072D01*
X1542783Y29270071D01*
X1507877Y29135255D01*
X1494583Y29083912D01*
X1484844Y28891863D01*
X106455Y28891863D01*
X93705Y32258001D01*
X972434Y32258001D01*
X992631Y32078749D01*
X992631Y32078747D01*
X992632Y32078745D01*
X1052211Y31908478D01*
X1052212Y31908477D01*
X1148185Y31755736D01*
X1275735Y31628186D01*
X1275737Y31628185D01*
X1275738Y31628184D01*
X1428478Y31532211D01*
X1598745Y31472632D01*
X1733186Y31457485D01*
X1777999Y31452435D01*
X1777999Y31452436D01*
X1778000Y31452435D01*
X1957255Y31472632D01*
X2127522Y31532211D01*
X2280262Y31628184D01*
X2407816Y31755738D01*
X2503789Y31908478D01*
X2563368Y32078745D01*
X2583565Y32258000D01*
X2563368Y32437255D01*
X2503789Y32607522D01*
X2407816Y32760262D01*
X2407815Y32760263D01*
X2407814Y32760265D01*
X2280264Y32887815D01*
X2217867Y32927021D01*
X2127522Y32983789D01*
X1957255Y33043368D01*
X1957253Y33043369D01*
X1957251Y33043369D01*
X1777999Y33063566D01*
X1598748Y33043369D01*
X1598745Y33043369D01*
X1598745Y33043368D01*
X1428478Y32983789D01*
X1428476Y32983789D01*
X1428476Y32983788D01*
X1275735Y32887815D01*
X1148185Y32760265D01*
X1052212Y32607524D01*
X992631Y32437252D01*
X972434Y32258001D01*
X93705Y32258001D01*
X86470Y34168031D01*
X105900Y34235144D01*
X158531Y34281098D01*
X210469Y34292500D01*
X1645812Y34292500D01*
X1655829Y34292599D01*
X1731299Y34304982D01*
X1800640Y34296412D01*
X1831906Y34276909D01*
X1850341Y34261164D01*
X2065141Y34129534D01*
X2297889Y34033127D01*
X2542852Y33974317D01*
X2794000Y33954551D01*
X3045148Y33974317D01*
X3290111Y34033127D01*
X3522859Y34129534D01*
X3737659Y34261164D01*
X3755875Y34276723D01*
X3819635Y34305294D01*
X3854050Y34305173D01*
G37*
%TD.AperFunction*%
%TD*%
%TA.AperFunction,Conductor*%
%TO.N,Net-(U4-VO)*%
G36*
X7640960Y37582090D02*
G01*
X7922657Y37369172D01*
X8636000Y36830000D01*
X13949704Y36830000D01*
X13984352Y36815648D01*
X14463648Y36336352D01*
X14478000Y36301704D01*
X14478000Y34818297D01*
X14463648Y34783649D01*
X13984352Y34304352D01*
X13949704Y34290000D01*
X8647479Y34290000D01*
X8625717Y34295097D01*
X8607046Y34304352D01*
X7611147Y34798000D01*
X7611145Y34798000D01*
X3942188Y34798000D01*
X3907540Y34812352D01*
X3893188Y34847000D01*
X3902049Y34875105D01*
X3904486Y34878587D01*
X3924568Y34907266D01*
X4020739Y35113504D01*
X4079635Y35333308D01*
X4099468Y35560000D01*
X4079635Y35786692D01*
X4020739Y36006496D01*
X3924568Y36212734D01*
X3794047Y36399139D01*
X3794046Y36399140D01*
X3794044Y36399143D01*
X3633142Y36560045D01*
X3446731Y36690570D01*
X3240495Y36786740D01*
X3020696Y36845635D01*
X2839338Y36861502D01*
X2794000Y36865468D01*
X2793999Y36865468D01*
X2567303Y36845635D01*
X2347504Y36786740D01*
X2141268Y36690570D01*
X1954857Y36560045D01*
X1793955Y36399143D01*
X1663430Y36212732D01*
X1567260Y36006496D01*
X1508365Y35786697D01*
X1488532Y35560001D01*
X1508365Y35333304D01*
X1567260Y35113505D01*
X1663431Y34907268D01*
X1685951Y34875105D01*
X1694067Y34838491D01*
X1673917Y34806861D01*
X1645812Y34798000D01*
X132900Y34798000D01*
X98252Y34812352D01*
X83900Y34846814D01*
X78389Y36301704D01*
X73687Y37542816D01*
X87908Y37577517D01*
X122501Y37592000D01*
X7611414Y37592000D01*
X7640960Y37582090D01*
G37*
%TD.AperFunction*%
%TD*%
%TA.AperFunction,Conductor*%
%TO.N,+3V3*%
G36*
X14490083Y74963815D02*
G01*
X14535838Y74911011D01*
X14545782Y74841853D01*
X14528039Y74793529D01*
X14514211Y74771523D01*
X14454631Y74601252D01*
X14434434Y74422000D01*
X14454631Y74242749D01*
X14454631Y74242747D01*
X14454632Y74242745D01*
X14514211Y74072478D01*
X14514212Y74072477D01*
X14610185Y73919736D01*
X14737735Y73792186D01*
X14737737Y73792185D01*
X14737738Y73792184D01*
X14890478Y73696211D01*
X15060745Y73636632D01*
X15240000Y73616435D01*
X15419255Y73636632D01*
X15589522Y73696211D01*
X15742262Y73792184D01*
X15869816Y73919738D01*
X15965789Y74072478D01*
X16025368Y74242745D01*
X16045565Y74422000D01*
X16025368Y74601255D01*
X15965789Y74771522D01*
X15951960Y74793530D01*
X15932962Y74860766D01*
X15953331Y74927601D01*
X16006599Y74972815D01*
X16056956Y74983500D01*
X44678129Y74983500D01*
X44745168Y74963815D01*
X44790923Y74911011D01*
X44800867Y74841853D01*
X44771842Y74778297D01*
X44713064Y74740523D01*
X44710222Y74739725D01*
X44658986Y74725997D01*
X44658975Y74725994D01*
X44655857Y74725158D01*
X44652846Y74724003D01*
X44652833Y74723998D01*
X44296781Y74587322D01*
X44296772Y74587319D01*
X44293750Y74586158D01*
X44290873Y74584693D01*
X44290857Y74584685D01*
X43951048Y74411544D01*
X43951034Y74411536D01*
X43948155Y74410069D01*
X43945435Y74408303D01*
X43945427Y74408298D01*
X43625588Y74200592D01*
X43625582Y74200589D01*
X43622860Y74198820D01*
X43620340Y74196780D01*
X43620334Y74196775D01*
X43323946Y73956765D01*
X43323935Y73956756D01*
X43321428Y73954725D01*
X43319143Y73952441D01*
X43319133Y73952431D01*
X43049457Y73682755D01*
X43049447Y73682745D01*
X43047163Y73680460D01*
X43045132Y73677953D01*
X43045123Y73677942D01*
X42805113Y73381554D01*
X42805108Y73381548D01*
X42803068Y73379028D01*
X42801299Y73376306D01*
X42801296Y73376300D01*
X42593590Y73056461D01*
X42593585Y73056453D01*
X42591819Y73053733D01*
X42590352Y73050854D01*
X42590344Y73050840D01*
X42417203Y72711031D01*
X42417195Y72711015D01*
X42415730Y72708138D01*
X42414569Y72705116D01*
X42414566Y72705107D01*
X42277890Y72349055D01*
X42277885Y72349042D01*
X42276730Y72346031D01*
X42275894Y72342913D01*
X42275891Y72342902D01*
X42177181Y71974511D01*
X42177178Y71974498D01*
X42176342Y71971377D01*
X42175836Y71968186D01*
X42175833Y71968169D01*
X42116173Y71591488D01*
X42116171Y71591474D01*
X42115666Y71588282D01*
X42115496Y71585050D01*
X42115496Y71585044D01*
X42101457Y71317160D01*
X42095366Y71200944D01*
X42115666Y70813606D01*
X42116171Y70810413D01*
X42116173Y70810401D01*
X42175833Y70433720D01*
X42175835Y70433707D01*
X42176342Y70430511D01*
X42177179Y70427387D01*
X42177181Y70427378D01*
X42270762Y70078129D01*
X42276730Y70055857D01*
X42277887Y70052842D01*
X42277890Y70052834D01*
X42404502Y69723000D01*
X42415730Y69693750D01*
X42417199Y69690867D01*
X42417203Y69690858D01*
X42590344Y69351049D01*
X42591819Y69348155D01*
X42803068Y69022860D01*
X43047163Y68721428D01*
X43321428Y68447163D01*
X43622860Y68203068D01*
X43948155Y67991819D01*
X44293750Y67815730D01*
X44655857Y67676730D01*
X45030511Y67576342D01*
X45413606Y67515666D01*
X45800944Y67495366D01*
X46188282Y67515666D01*
X46571377Y67576342D01*
X46946031Y67676730D01*
X47308138Y67815730D01*
X47653733Y67991819D01*
X47979028Y68203068D01*
X48280460Y68447163D01*
X48554725Y68721428D01*
X48798820Y69022860D01*
X49010069Y69348155D01*
X49186158Y69693750D01*
X49325158Y70055857D01*
X49339725Y70110223D01*
X49376090Y70169883D01*
X49438937Y70200412D01*
X49508313Y70192117D01*
X49562190Y70147632D01*
X49583465Y70081080D01*
X49583500Y70078129D01*
X49583500Y13315941D01*
X49563815Y13248902D01*
X49511011Y13203147D01*
X49441853Y13193203D01*
X49378297Y13222228D01*
X49371819Y13228260D01*
X49270264Y13329815D01*
X49159851Y13399192D01*
X49117522Y13425789D01*
X48947255Y13485368D01*
X48947253Y13485369D01*
X48947251Y13485369D01*
X48768000Y13505566D01*
X48588748Y13485369D01*
X48588745Y13485369D01*
X48588745Y13485368D01*
X48418478Y13425789D01*
X48418476Y13425789D01*
X48418476Y13425788D01*
X48265735Y13329815D01*
X48138185Y13202265D01*
X48047670Y13058210D01*
X48042211Y13049522D01*
X48006780Y12948265D01*
X47982631Y12879252D01*
X47962434Y12700000D01*
X47982631Y12520749D01*
X47982631Y12520747D01*
X47982632Y12520745D01*
X48042211Y12350478D01*
X48065248Y12313815D01*
X48138185Y12197736D01*
X48265735Y12070186D01*
X48265737Y12070185D01*
X48265738Y12070184D01*
X48418478Y11974211D01*
X48588745Y11914632D01*
X48768000Y11894435D01*
X48947255Y11914632D01*
X49117522Y11974211D01*
X49270262Y12070184D01*
X49371820Y12171743D01*
X49433141Y12205226D01*
X49502833Y12200242D01*
X49558767Y12158371D01*
X49583184Y12092907D01*
X49583500Y12084060D01*
X49583500Y7981941D01*
X49563815Y7914902D01*
X49511011Y7869147D01*
X49441853Y7859203D01*
X49378297Y7888228D01*
X49371819Y7894260D01*
X49270264Y7995815D01*
X49207867Y8035021D01*
X49117522Y8091789D01*
X48947255Y8151368D01*
X48947253Y8151369D01*
X48947251Y8151369D01*
X48768000Y8171566D01*
X48588748Y8151369D01*
X48588745Y8151369D01*
X48588745Y8151368D01*
X48418478Y8091789D01*
X48418476Y8091789D01*
X48418476Y8091788D01*
X48265735Y7995815D01*
X48138185Y7868265D01*
X48081768Y7778477D01*
X48042211Y7715522D01*
X48013955Y7634771D01*
X47982631Y7545252D01*
X47962434Y7366000D01*
X47979955Y7210497D01*
X47967900Y7141676D01*
X47920551Y7090296D01*
X47852941Y7072672D01*
X47789200Y7092619D01*
X47689516Y7157354D01*
X47686789Y7159125D01*
X47683901Y7160597D01*
X47683895Y7160600D01*
X47344086Y7333741D01*
X47344077Y7333745D01*
X47341194Y7335214D01*
X47338162Y7336378D01*
X46982110Y7473054D01*
X46982102Y7473057D01*
X46979087Y7474214D01*
X46975962Y7475052D01*
X46975957Y7475053D01*
X46607566Y7573763D01*
X46607557Y7573765D01*
X46604433Y7574602D01*
X46601237Y7575109D01*
X46601224Y7575111D01*
X46224543Y7634771D01*
X46224531Y7634773D01*
X46221338Y7635278D01*
X46218103Y7635448D01*
X46218099Y7635448D01*
X45837244Y7655408D01*
X45834000Y7655578D01*
X45830756Y7655408D01*
X45449900Y7635448D01*
X45449894Y7635448D01*
X45446662Y7635278D01*
X45443470Y7634773D01*
X45443456Y7634771D01*
X45066775Y7575111D01*
X45066758Y7575108D01*
X45063567Y7574602D01*
X45060446Y7573766D01*
X45060433Y7573763D01*
X44692042Y7475053D01*
X44692031Y7475050D01*
X44688913Y7474214D01*
X44685902Y7473059D01*
X44685889Y7473054D01*
X44329837Y7336378D01*
X44329828Y7336375D01*
X44326806Y7335214D01*
X44323929Y7333749D01*
X44323913Y7333741D01*
X43984104Y7160600D01*
X43984090Y7160592D01*
X43981211Y7159125D01*
X43978491Y7157359D01*
X43978483Y7157354D01*
X43658644Y6949648D01*
X43658638Y6949645D01*
X43655916Y6947876D01*
X43653396Y6945836D01*
X43653390Y6945831D01*
X43357002Y6705821D01*
X43356991Y6705812D01*
X43354484Y6703781D01*
X43352199Y6701497D01*
X43352189Y6701487D01*
X43082513Y6431811D01*
X43082503Y6431801D01*
X43080219Y6429516D01*
X43078188Y6427009D01*
X43078179Y6426998D01*
X42838169Y6130610D01*
X42838164Y6130604D01*
X42836124Y6128084D01*
X42834355Y6125362D01*
X42834352Y6125356D01*
X42626646Y5805517D01*
X42626641Y5805509D01*
X42624875Y5802789D01*
X42623408Y5799910D01*
X42623400Y5799896D01*
X42450259Y5460087D01*
X42450251Y5460071D01*
X42448786Y5457194D01*
X42447625Y5454172D01*
X42447622Y5454163D01*
X42310946Y5098111D01*
X42310941Y5098098D01*
X42309786Y5095087D01*
X42308950Y5091969D01*
X42308947Y5091958D01*
X42210237Y4723567D01*
X42210234Y4723554D01*
X42209398Y4720433D01*
X42208892Y4717242D01*
X42208889Y4717225D01*
X42149229Y4340544D01*
X42149227Y4340530D01*
X42148722Y4337338D01*
X42148552Y4334106D01*
X42148552Y4334100D01*
X42140415Y4178841D01*
X42128422Y3950000D01*
X42128592Y3946757D01*
X42139959Y3729855D01*
X42148722Y3562662D01*
X42149227Y3559469D01*
X42149229Y3559457D01*
X42208889Y3182776D01*
X42208891Y3182763D01*
X42209398Y3179567D01*
X42210235Y3176443D01*
X42210237Y3176434D01*
X42308947Y2808043D01*
X42309786Y2804913D01*
X42310943Y2801898D01*
X42310946Y2801890D01*
X42446871Y2447794D01*
X42448786Y2442806D01*
X42450255Y2439923D01*
X42450259Y2439914D01*
X42623400Y2100105D01*
X42624875Y2097211D01*
X42836124Y1771916D01*
X42964794Y1613022D01*
X43017959Y1547368D01*
X43080219Y1470484D01*
X43354484Y1196219D01*
X43655916Y952124D01*
X43981211Y740875D01*
X43984104Y739401D01*
X44291551Y582749D01*
X44326806Y564786D01*
X44651197Y440264D01*
X44706729Y397862D01*
X44730522Y332168D01*
X44715021Y264040D01*
X44665147Y215107D01*
X44606759Y200500D01*
X42726956Y200500D01*
X42659917Y220185D01*
X42614162Y272989D01*
X42604218Y342147D01*
X42621961Y390471D01*
X42626605Y397862D01*
X42635789Y412478D01*
X42695368Y582745D01*
X42715565Y762000D01*
X42695368Y941255D01*
X42635789Y1111522D01*
X42539816Y1264262D01*
X42539815Y1264263D01*
X42539814Y1264265D01*
X42412264Y1391815D01*
X42349867Y1431022D01*
X42259522Y1487789D01*
X42089255Y1547368D01*
X42089253Y1547369D01*
X42089251Y1547369D01*
X41909999Y1567566D01*
X41730748Y1547369D01*
X41730745Y1547369D01*
X41730745Y1547368D01*
X41560478Y1487789D01*
X41560476Y1487789D01*
X41560476Y1487788D01*
X41407735Y1391815D01*
X41280185Y1264265D01*
X41184212Y1111524D01*
X41124631Y941252D01*
X41104434Y762000D01*
X41124631Y582749D01*
X41124631Y582747D01*
X41124632Y582745D01*
X41174488Y440264D01*
X41184211Y412478D01*
X41198039Y390471D01*
X41217038Y323234D01*
X41196669Y256399D01*
X41143401Y211185D01*
X41093044Y200500D01*
X30855500Y200500D01*
X30788461Y220185D01*
X30742706Y272989D01*
X30731500Y324500D01*
X30731500Y1713246D01*
X30731500Y1716001D01*
X30723509Y1805527D01*
X30715730Y1848756D01*
X30692007Y1935461D01*
X30623165Y2061804D01*
X30581345Y2117773D01*
X30479701Y2219599D01*
X30479700Y2219600D01*
X30479699Y2219601D01*
X30175441Y2447794D01*
X30162312Y2457315D01*
X30162289Y2457331D01*
X30162223Y2457379D01*
X30155640Y2461993D01*
X30142293Y2471030D01*
X30011883Y2531839D01*
X29945003Y2552053D01*
X29909001Y2557521D01*
X29845678Y2587050D01*
X29808372Y2646127D01*
X29804095Y2669308D01*
X29800768Y2707331D01*
X29793063Y2795408D01*
X29731903Y3023663D01*
X29632035Y3237829D01*
X29496495Y3431401D01*
X29329401Y3598495D01*
X29143839Y3728427D01*
X29100215Y3783003D01*
X29093023Y3852502D01*
X29124545Y3914856D01*
X29143831Y3931568D01*
X29329401Y4061505D01*
X29453318Y4185422D01*
X31171500Y4185422D01*
X31171501Y4182128D01*
X31171853Y4178848D01*
X31171854Y4178841D01*
X31177909Y4122516D01*
X31184723Y4104247D01*
X31228204Y3987669D01*
X31314454Y3872454D01*
X31429669Y3786204D01*
X31564517Y3735909D01*
X31624127Y3729500D01*
X33419872Y3729501D01*
X33479483Y3735909D01*
X33614331Y3786204D01*
X33729546Y3872454D01*
X33815796Y3987669D01*
X33864810Y4119084D01*
X33906681Y4175017D01*
X33972146Y4199434D01*
X34040419Y4184582D01*
X34068673Y4163431D01*
X34190599Y4041505D01*
X34376160Y3911574D01*
X34419783Y3856998D01*
X34426976Y3787499D01*
X34395454Y3725145D01*
X34376159Y3708425D01*
X34190595Y3578492D01*
X34023505Y3411402D01*
X33887965Y3217830D01*
X33788097Y3003664D01*
X33726936Y2775408D01*
X33706340Y2540001D01*
X33726936Y2304593D01*
X33751958Y2211211D01*
X33788097Y2076337D01*
X33887965Y1862170D01*
X34023505Y1668599D01*
X34190599Y1501505D01*
X34384170Y1365965D01*
X34598337Y1266097D01*
X34826592Y1204937D01*
X35062000Y1184341D01*
X35297408Y1204937D01*
X35525663Y1266097D01*
X35739830Y1365965D01*
X35933401Y1501505D01*
X36100495Y1668599D01*
X36230427Y1854162D01*
X36285001Y1897784D01*
X36354499Y1904978D01*
X36416854Y1873455D01*
X36433572Y1854162D01*
X36563505Y1668599D01*
X36730599Y1501505D01*
X36924170Y1365965D01*
X37138337Y1266097D01*
X37366592Y1204937D01*
X37602000Y1184341D01*
X37837408Y1204937D01*
X38065663Y1266097D01*
X38279830Y1365965D01*
X38473401Y1501505D01*
X38640495Y1668599D01*
X38770426Y1854161D01*
X38825002Y1897784D01*
X38894500Y1904978D01*
X38956855Y1873455D01*
X38973571Y1854163D01*
X39103505Y1668599D01*
X39270599Y1501505D01*
X39464170Y1365965D01*
X39678337Y1266097D01*
X39906592Y1204937D01*
X40142000Y1184341D01*
X40377408Y1204937D01*
X40605663Y1266097D01*
X40819830Y1365965D01*
X41013401Y1501505D01*
X41180495Y1668599D01*
X41316035Y1862170D01*
X41415903Y2076337D01*
X41477063Y2304592D01*
X41497659Y2540000D01*
X41477063Y2775408D01*
X41415903Y3003663D01*
X41316035Y3217829D01*
X41180495Y3411401D01*
X41013401Y3578495D01*
X40827839Y3708427D01*
X40784215Y3763003D01*
X40777023Y3832502D01*
X40808545Y3894856D01*
X40827831Y3911568D01*
X41013401Y4041505D01*
X41180495Y4208599D01*
X41316035Y4402170D01*
X41415903Y4616337D01*
X41477063Y4844592D01*
X41497659Y5080000D01*
X41477063Y5315408D01*
X41415903Y5543663D01*
X41316035Y5757829D01*
X41180495Y5951401D01*
X41013401Y6118495D01*
X40819830Y6254035D01*
X40605663Y6353903D01*
X40544501Y6370291D01*
X40377407Y6415064D01*
X40142000Y6435660D01*
X39906592Y6415064D01*
X39678336Y6353903D01*
X39464170Y6254035D01*
X39270598Y6118495D01*
X39103505Y5951402D01*
X38973575Y5765841D01*
X38918998Y5722216D01*
X38849500Y5715022D01*
X38787145Y5746545D01*
X38770425Y5765841D01*
X38640494Y5951402D01*
X38473404Y6118492D01*
X38473404Y6118493D01*
X38473401Y6118495D01*
X38279830Y6254035D01*
X38065663Y6353903D01*
X38004502Y6370291D01*
X37837407Y6415064D01*
X37602000Y6435660D01*
X37366592Y6415064D01*
X37138336Y6353903D01*
X36924170Y6254035D01*
X36730598Y6118495D01*
X36563505Y5951402D01*
X36433575Y5765841D01*
X36378998Y5722216D01*
X36309500Y5715022D01*
X36247145Y5746545D01*
X36230425Y5765841D01*
X36100494Y5951402D01*
X35933404Y6118492D01*
X35933404Y6118493D01*
X35933401Y6118495D01*
X35739830Y6254035D01*
X35525663Y6353903D01*
X35464502Y6370291D01*
X35297407Y6415064D01*
X35062000Y6435660D01*
X34826592Y6415064D01*
X34598336Y6353903D01*
X34384170Y6254035D01*
X34190601Y6118497D01*
X34068673Y5996569D01*
X34007350Y5963085D01*
X33937658Y5968069D01*
X33881725Y6009941D01*
X33864810Y6040918D01*
X33857658Y6060093D01*
X33815796Y6172331D01*
X33729546Y6287546D01*
X33614331Y6373796D01*
X33479483Y6424091D01*
X33468424Y6425280D01*
X33423166Y6430146D01*
X33423165Y6430147D01*
X33419873Y6430500D01*
X33416550Y6430500D01*
X31627439Y6430500D01*
X31627420Y6430500D01*
X31624128Y6430499D01*
X31620848Y6430147D01*
X31620840Y6430146D01*
X31564515Y6424091D01*
X31429669Y6373796D01*
X31314454Y6287546D01*
X31228204Y6172332D01*
X31228203Y6172331D01*
X31228204Y6172331D01*
X31177909Y6037483D01*
X31171500Y5977873D01*
X31171500Y5974552D01*
X31171500Y5974551D01*
X31171500Y4185440D01*
X31171500Y4185422D01*
X29453318Y4185422D01*
X29496495Y4228599D01*
X29632035Y4422170D01*
X29731903Y4636337D01*
X29793063Y4864592D01*
X29813659Y5100000D01*
X29793063Y5335408D01*
X29731903Y5563663D01*
X29632035Y5777829D01*
X29496495Y5971401D01*
X29329401Y6138495D01*
X29135830Y6274035D01*
X28921663Y6373903D01*
X28860502Y6390291D01*
X28693407Y6435064D01*
X28458000Y6455660D01*
X28222592Y6435064D01*
X27994336Y6373903D01*
X27780170Y6274035D01*
X27586598Y6138495D01*
X27419508Y5971405D01*
X27289574Y5785840D01*
X27234997Y5742215D01*
X27165498Y5735023D01*
X27103144Y5766545D01*
X27086429Y5785836D01*
X26956495Y5971401D01*
X26789401Y6138495D01*
X26595830Y6274035D01*
X26381663Y6373903D01*
X26320501Y6390291D01*
X26153407Y6435064D01*
X25917999Y6455660D01*
X25682592Y6435064D01*
X25454336Y6373903D01*
X25240170Y6274035D01*
X25046598Y6138495D01*
X24879505Y5971402D01*
X24749575Y5785841D01*
X24694998Y5742216D01*
X24625500Y5735022D01*
X24563145Y5766545D01*
X24546425Y5785841D01*
X24416494Y5971402D01*
X24249400Y6138496D01*
X24133924Y6219354D01*
X24090299Y6273931D01*
X24083107Y6343429D01*
X24086072Y6355865D01*
X24106524Y6425515D01*
X24106524Y6425517D01*
X24107023Y6427215D01*
X24107024Y6427219D01*
X24127500Y6569635D01*
X24127489Y8128000D01*
X28404434Y8128000D01*
X28424631Y7948749D01*
X28424631Y7948747D01*
X28424632Y7948745D01*
X28484211Y7778478D01*
X28484212Y7778477D01*
X28580185Y7625736D01*
X28707735Y7498186D01*
X28707737Y7498185D01*
X28707738Y7498184D01*
X28860478Y7402211D01*
X29030745Y7342632D01*
X29210000Y7322435D01*
X29389255Y7342632D01*
X29559522Y7402211D01*
X29712262Y7498184D01*
X29839816Y7625738D01*
X29935789Y7778478D01*
X29995368Y7948745D01*
X30015565Y8128000D01*
X29995368Y8307255D01*
X29935789Y8477522D01*
X29839816Y8630262D01*
X29839815Y8630263D01*
X29839814Y8630265D01*
X29712264Y8757815D01*
X29649867Y8797021D01*
X29559522Y8853789D01*
X29389255Y8913368D01*
X29389253Y8913369D01*
X29389251Y8913369D01*
X29210000Y8933566D01*
X29030748Y8913369D01*
X29030745Y8913369D01*
X29030745Y8913368D01*
X28860478Y8853789D01*
X28860476Y8853789D01*
X28860476Y8853788D01*
X28707735Y8757815D01*
X28580185Y8630265D01*
X28484212Y8477524D01*
X28424631Y8307252D01*
X28404434Y8128000D01*
X24127489Y8128000D01*
X24127482Y9144000D01*
X40342434Y9144000D01*
X40362631Y8964749D01*
X40362631Y8964747D01*
X40362632Y8964745D01*
X40422211Y8794478D01*
X40445248Y8757815D01*
X40518185Y8641736D01*
X40645735Y8514186D01*
X40645737Y8514185D01*
X40645738Y8514184D01*
X40798478Y8418211D01*
X40968745Y8358632D01*
X41148000Y8338435D01*
X41327255Y8358632D01*
X41497522Y8418211D01*
X41650262Y8514184D01*
X41777816Y8641738D01*
X41873789Y8794478D01*
X41933368Y8964745D01*
X41953565Y9144000D01*
X41933368Y9323255D01*
X41873789Y9493522D01*
X41777816Y9646262D01*
X41777815Y9646263D01*
X41777814Y9646265D01*
X41650264Y9773815D01*
X41587867Y9813022D01*
X41497522Y9869789D01*
X41327255Y9929368D01*
X41327253Y9929369D01*
X41327251Y9929369D01*
X41148000Y9949566D01*
X40968748Y9929369D01*
X40968745Y9929369D01*
X40968745Y9929368D01*
X40798478Y9869789D01*
X40798476Y9869789D01*
X40798476Y9869788D01*
X40645735Y9773815D01*
X40518185Y9646265D01*
X40434504Y9513086D01*
X40422211Y9493522D01*
X40377177Y9364823D01*
X40362631Y9323252D01*
X40342434Y9144000D01*
X24127482Y9144000D01*
X24127481Y9364823D01*
X24127463Y9366907D01*
X24127411Y9371036D01*
X24104544Y9513087D01*
X24083736Y9579785D01*
X24021775Y9709640D01*
X23571412Y10385184D01*
X23564759Y10393231D01*
X23507266Y10462762D01*
X23507260Y10462769D01*
X23505233Y10465220D01*
X23469098Y10500752D01*
X23420044Y10539944D01*
X23387971Y10565569D01*
X23257097Y10625338D01*
X23191750Y10644526D01*
X23191748Y10644527D01*
X23190057Y10645023D01*
X23190053Y10645024D01*
X23186927Y10645474D01*
X23186914Y10645476D01*
X23047637Y10665500D01*
X20816814Y10665500D01*
X20749775Y10685185D01*
X20704020Y10737989D01*
X20694076Y10807147D01*
X20723101Y10870703D01*
X20775859Y10906541D01*
X20923519Y10958210D01*
X20923518Y10958210D01*
X20923522Y10958211D01*
X21076262Y11054184D01*
X21203816Y11181738D01*
X21299789Y11334478D01*
X21333214Y11430000D01*
X24340434Y11430000D01*
X24360631Y11250749D01*
X24360631Y11250747D01*
X24360632Y11250745D01*
X24420211Y11080478D01*
X24436733Y11054184D01*
X24516185Y10927736D01*
X24643735Y10800186D01*
X24643737Y10800185D01*
X24643738Y10800184D01*
X24796478Y10704211D01*
X24966745Y10644632D01*
X25146000Y10624435D01*
X25325255Y10644632D01*
X25495522Y10704211D01*
X25648262Y10800184D01*
X25770078Y10922000D01*
X32214434Y10922000D01*
X32234631Y10742749D01*
X32234631Y10742747D01*
X32234632Y10742745D01*
X32294211Y10572478D01*
X32350979Y10482133D01*
X32390185Y10419736D01*
X32517735Y10292186D01*
X32517737Y10292185D01*
X32517738Y10292184D01*
X32670478Y10196211D01*
X32840745Y10136632D01*
X33020000Y10116435D01*
X33199255Y10136632D01*
X33369522Y10196211D01*
X33522262Y10292184D01*
X33649816Y10419738D01*
X33745789Y10572478D01*
X33805368Y10742745D01*
X33825565Y10922000D01*
X33805368Y11101255D01*
X33745789Y11271522D01*
X33649816Y11424262D01*
X33649815Y11424263D01*
X33649814Y11424265D01*
X33522264Y11551815D01*
X33430848Y11609255D01*
X33369522Y11647789D01*
X33199255Y11707368D01*
X33199253Y11707369D01*
X33199251Y11707369D01*
X33019999Y11727566D01*
X32840748Y11707369D01*
X32840745Y11707369D01*
X32840745Y11707368D01*
X32670478Y11647789D01*
X32670476Y11647789D01*
X32670476Y11647788D01*
X32517735Y11551815D01*
X32390185Y11424265D01*
X32294212Y11271524D01*
X32234631Y11101252D01*
X32214434Y10922000D01*
X25770078Y10922000D01*
X25775816Y10927738D01*
X25871789Y11080478D01*
X25931368Y11250745D01*
X25951565Y11430000D01*
X25931368Y11609255D01*
X25871789Y11779522D01*
X25775816Y11932262D01*
X25775815Y11932263D01*
X25775814Y11932265D01*
X25648264Y12059815D01*
X25585867Y12099021D01*
X25495522Y12155789D01*
X25325255Y12215368D01*
X25325253Y12215369D01*
X25325251Y12215369D01*
X25146000Y12235566D01*
X24966748Y12215369D01*
X24966745Y12215369D01*
X24966745Y12215368D01*
X24796478Y12155789D01*
X24796476Y12155789D01*
X24796476Y12155788D01*
X24643735Y12059815D01*
X24516185Y11932265D01*
X24443247Y11816184D01*
X24420211Y11779522D01*
X24378610Y11660632D01*
X24360631Y11609252D01*
X24340434Y11430000D01*
X21333214Y11430000D01*
X21359368Y11504745D01*
X21379565Y11684000D01*
X21359368Y11863255D01*
X21299789Y12033522D01*
X21203816Y12186262D01*
X21203815Y12186263D01*
X21203814Y12186265D01*
X21076264Y12313815D01*
X20984848Y12371255D01*
X20923522Y12409789D01*
X20753255Y12469368D01*
X20753253Y12469369D01*
X20753251Y12469369D01*
X20574000Y12489566D01*
X20394748Y12469369D01*
X20394745Y12469369D01*
X20394745Y12469368D01*
X20224478Y12409789D01*
X20224476Y12409789D01*
X20224476Y12409788D01*
X20071735Y12313815D01*
X19944185Y12186265D01*
X19848212Y12033524D01*
X19788631Y11863252D01*
X19768434Y11684000D01*
X19788631Y11504749D01*
X19788631Y11504747D01*
X19788632Y11504745D01*
X19848211Y11334478D01*
X19848212Y11334477D01*
X19944185Y11181736D01*
X20071735Y11054186D01*
X20224480Y10958210D01*
X20372141Y10906541D01*
X20428917Y10865820D01*
X20454664Y10800867D01*
X20441208Y10732305D01*
X20392820Y10681903D01*
X20331186Y10665500D01*
X18449441Y10665500D01*
X18431276Y10665176D01*
X18422324Y10664854D01*
X18404541Y10663899D01*
X18263938Y10633312D01*
X18198478Y10608897D01*
X18072199Y10539944D01*
X17970462Y10438209D01*
X17928589Y10382274D01*
X17928584Y10382268D01*
X17890988Y10313414D01*
X17841583Y10264008D01*
X17773310Y10249156D01*
X17707845Y10273572D01*
X17677840Y10305800D01*
X17628698Y10382266D01*
X17605384Y10418543D01*
X17559629Y10471347D01*
X17450895Y10565567D01*
X17450894Y10565568D01*
X17320019Y10625338D01*
X17254672Y10644526D01*
X17254670Y10644527D01*
X17252979Y10645023D01*
X17252975Y10645024D01*
X17249849Y10645474D01*
X17249836Y10645476D01*
X17110559Y10665500D01*
X14473958Y10665500D01*
X14469972Y10664979D01*
X14469961Y10664978D01*
X14347958Y10649021D01*
X14347953Y10649021D01*
X14343954Y10648497D01*
X14340052Y10647459D01*
X14340049Y10647458D01*
X14286222Y10633133D01*
X14286217Y10633132D01*
X14282319Y10632094D01*
X14278595Y10630563D01*
X14278587Y10630560D01*
X14271852Y10627790D01*
X14202363Y10620505D01*
X14189766Y10623499D01*
X14118158Y10644526D01*
X14118147Y10644529D01*
X14116462Y10645023D01*
X14116458Y10645024D01*
X14113332Y10645474D01*
X14113319Y10645476D01*
X13974042Y10665500D01*
X7880746Y10665500D01*
X7813707Y10685185D01*
X7793065Y10701819D01*
X7316601Y11178283D01*
X7283116Y11239606D01*
X7288100Y11309298D01*
X7329972Y11365231D01*
X7390399Y11389184D01*
X7409968Y11391389D01*
X7545255Y11406632D01*
X7715522Y11466211D01*
X7868262Y11562184D01*
X7995816Y11689738D01*
X8091789Y11842478D01*
X8151368Y12012745D01*
X8171565Y12192000D01*
X8151368Y12371255D01*
X8125214Y12446000D01*
X11894434Y12446000D01*
X11914631Y12266749D01*
X11914631Y12266747D01*
X11914632Y12266745D01*
X11974211Y12096478D01*
X11997248Y12059815D01*
X12070185Y11943736D01*
X12197735Y11816186D01*
X12197737Y11816185D01*
X12197738Y11816184D01*
X12350478Y11720211D01*
X12520745Y11660632D01*
X12634731Y11647789D01*
X12699999Y11640435D01*
X12699999Y11640436D01*
X12700000Y11640435D01*
X12879255Y11660632D01*
X13049522Y11720211D01*
X13202262Y11816184D01*
X13329816Y11943738D01*
X13425789Y12096478D01*
X13485368Y12266745D01*
X13505565Y12446000D01*
X13485368Y12625255D01*
X13459214Y12700000D01*
X40342434Y12700000D01*
X40362631Y12520749D01*
X40362631Y12520747D01*
X40362632Y12520745D01*
X40422211Y12350478D01*
X40445248Y12313815D01*
X40518185Y12197736D01*
X40645735Y12070186D01*
X40645737Y12070185D01*
X40645738Y12070184D01*
X40798478Y11974211D01*
X40968745Y11914632D01*
X41103186Y11899485D01*
X41147999Y11894435D01*
X41147999Y11894436D01*
X41148000Y11894435D01*
X41327255Y11914632D01*
X41497522Y11974211D01*
X41650262Y12070184D01*
X41777816Y12197738D01*
X41873789Y12350478D01*
X41933368Y12520745D01*
X41953565Y12700000D01*
X41933368Y12879255D01*
X41873789Y13049522D01*
X41777816Y13202262D01*
X41777815Y13202263D01*
X41777814Y13202265D01*
X41650264Y13329815D01*
X41539851Y13399192D01*
X41497522Y13425789D01*
X41327255Y13485368D01*
X41327253Y13485369D01*
X41327251Y13485369D01*
X41147999Y13505566D01*
X40968748Y13485369D01*
X40968745Y13485369D01*
X40968745Y13485368D01*
X40798478Y13425789D01*
X40798476Y13425789D01*
X40798476Y13425788D01*
X40645735Y13329815D01*
X40518185Y13202265D01*
X40427670Y13058210D01*
X40422211Y13049522D01*
X40386780Y12948265D01*
X40362631Y12879252D01*
X40342434Y12700000D01*
X13459214Y12700000D01*
X13425789Y12795522D01*
X13329816Y12948262D01*
X13329815Y12948263D01*
X13329814Y12948265D01*
X13202264Y13075815D01*
X13091851Y13145192D01*
X13049522Y13171789D01*
X12879255Y13231368D01*
X12879253Y13231369D01*
X12879251Y13231369D01*
X12699999Y13251566D01*
X12520748Y13231369D01*
X12520745Y13231369D01*
X12520745Y13231368D01*
X12350478Y13171789D01*
X12350476Y13171789D01*
X12350476Y13171788D01*
X12197735Y13075815D01*
X12070185Y12948265D01*
X11979670Y12804210D01*
X11974211Y12795522D01*
X11938780Y12694265D01*
X11914631Y12625252D01*
X11894434Y12446000D01*
X8125214Y12446000D01*
X8091789Y12541522D01*
X7995816Y12694262D01*
X7995815Y12694263D01*
X7995814Y12694265D01*
X7868264Y12821815D01*
X7715522Y12917789D01*
X7715521Y12917790D01*
X7583575Y12963960D01*
X7526800Y13004680D01*
X7501053Y13069633D01*
X7514509Y13138194D01*
X7562896Y13188597D01*
X7583571Y13198040D01*
X7715522Y13244211D01*
X7868262Y13340184D01*
X7990078Y13462000D01*
X22383908Y13462000D01*
X22402213Y13299539D01*
X22456209Y13145228D01*
X22456211Y13145225D01*
X22543192Y13006796D01*
X22658796Y12891192D01*
X22797225Y12804211D01*
X22797227Y12804210D01*
X22951538Y12750214D01*
X23114000Y12731909D01*
X23276461Y12750214D01*
X23430775Y12804211D01*
X23569204Y12891192D01*
X23643171Y12965160D01*
X23704495Y12998645D01*
X23744735Y13000699D01*
X23876000Y12985909D01*
X24038461Y13004214D01*
X24192772Y13058210D01*
X24192771Y13058210D01*
X24192775Y13058211D01*
X24331204Y13145192D01*
X24405172Y13219160D01*
X24466495Y13252645D01*
X24506735Y13254699D01*
X24638000Y13239909D01*
X24800461Y13258214D01*
X24954772Y13312210D01*
X24954771Y13312210D01*
X24954775Y13312211D01*
X25093204Y13399192D01*
X25208808Y13514796D01*
X25295789Y13653225D01*
X25349786Y13807539D01*
X25368091Y13970000D01*
X25349786Y14132461D01*
X25346614Y14141525D01*
X25317755Y14224000D01*
X27463908Y14224000D01*
X27482213Y14061539D01*
X27536209Y13907228D01*
X27536211Y13907225D01*
X27623192Y13768796D01*
X27738796Y13653192D01*
X27877225Y13566211D01*
X27877227Y13566210D01*
X28031538Y13512214D01*
X28194000Y13493909D01*
X28356461Y13512214D01*
X28510775Y13566211D01*
X28649204Y13653192D01*
X28764808Y13768796D01*
X28851789Y13907225D01*
X28905786Y14061539D01*
X28924091Y14224000D01*
X28905786Y14386461D01*
X28899540Y14404310D01*
X28851790Y14540773D01*
X28851768Y14540808D01*
X28764808Y14679204D01*
X28649204Y14794808D01*
X28510775Y14881789D01*
X28510772Y14881791D01*
X28356461Y14935787D01*
X28193999Y14954092D01*
X28031538Y14935787D01*
X27877227Y14881791D01*
X27738794Y14794807D01*
X27623193Y14679206D01*
X27536209Y14540773D01*
X27482213Y14386462D01*
X27463908Y14224000D01*
X25317755Y14224000D01*
X25295790Y14286773D01*
X25295768Y14286808D01*
X25208808Y14425204D01*
X25093204Y14540808D01*
X24954775Y14627789D01*
X24954772Y14627791D01*
X24800461Y14681787D01*
X24638000Y14700092D01*
X24475538Y14681787D01*
X24321227Y14627791D01*
X24182796Y14540808D01*
X24108828Y14466840D01*
X24047504Y14433356D01*
X24007264Y14431302D01*
X23876000Y14446092D01*
X23713538Y14427787D01*
X23559227Y14373791D01*
X23420796Y14286808D01*
X23346828Y14212840D01*
X23285504Y14179356D01*
X23245264Y14177302D01*
X23114000Y14192092D01*
X22951538Y14173787D01*
X22797227Y14119791D01*
X22658794Y14032807D01*
X22543193Y13917206D01*
X22456209Y13778773D01*
X22402213Y13624462D01*
X22383908Y13462000D01*
X7990078Y13462000D01*
X7995816Y13467738D01*
X8091789Y13620478D01*
X8151368Y13790745D01*
X8171565Y13970000D01*
X8151368Y14149255D01*
X8091789Y14319522D01*
X7995816Y14472262D01*
X7995815Y14472263D01*
X7995814Y14472265D01*
X7868264Y14599815D01*
X7805867Y14639022D01*
X7715522Y14695789D01*
X7612037Y14732000D01*
X13976750Y14732000D01*
X13995686Y14563944D01*
X13995686Y14563942D01*
X13995687Y14563941D01*
X14051544Y14404310D01*
X14141523Y14261110D01*
X14261110Y14141523D01*
X14404310Y14051544D01*
X14563941Y13995687D01*
X14675980Y13983063D01*
X14731999Y13976751D01*
X14731999Y13976752D01*
X14732000Y13976751D01*
X14900059Y13995687D01*
X15059690Y14051544D01*
X15202890Y14141523D01*
X15322477Y14261110D01*
X15412456Y14404310D01*
X15468313Y14563941D01*
X15487249Y14732000D01*
X15468313Y14900059D01*
X15412456Y15059690D01*
X15322477Y15202890D01*
X15202890Y15322477D01*
X15059690Y15412456D01*
X14900059Y15468313D01*
X14900058Y15468314D01*
X14900056Y15468314D01*
X14732000Y15487250D01*
X14563943Y15468314D01*
X14404310Y15412456D01*
X14261108Y15322476D01*
X14141524Y15202892D01*
X14051544Y15059690D01*
X13995686Y14900057D01*
X13976750Y14732000D01*
X7612037Y14732000D01*
X7545255Y14755368D01*
X7545253Y14755369D01*
X7545251Y14755369D01*
X7365999Y14775566D01*
X7247382Y14762201D01*
X7178560Y14774256D01*
X7127181Y14821605D01*
X7109499Y14885421D01*
X7109499Y16002000D01*
X16008750Y16002000D01*
X16027686Y15833944D01*
X16027686Y15833942D01*
X16027687Y15833941D01*
X16083544Y15674310D01*
X16173523Y15531110D01*
X16293110Y15411523D01*
X16436310Y15321544D01*
X16595941Y15265687D01*
X16764000Y15246751D01*
X16932059Y15265687D01*
X17091690Y15321544D01*
X17234890Y15411523D01*
X17317367Y15494000D01*
X30944434Y15494000D01*
X30964631Y15314749D01*
X30964631Y15314747D01*
X30964632Y15314745D01*
X31024211Y15144478D01*
X31024212Y15144477D01*
X31120185Y14991736D01*
X31247735Y14864186D01*
X31247737Y14864185D01*
X31247738Y14864184D01*
X31400478Y14768211D01*
X31570745Y14708632D01*
X31750000Y14688435D01*
X31929255Y14708632D01*
X32099522Y14768211D01*
X32252262Y14864184D01*
X32379816Y14991738D01*
X32475789Y15144478D01*
X32535368Y15314745D01*
X32555565Y15494000D01*
X32535368Y15673255D01*
X32475789Y15843522D01*
X32379816Y15996262D01*
X32379815Y15996263D01*
X32379814Y15996265D01*
X32252264Y16123815D01*
X32178667Y16170059D01*
X32099522Y16219789D01*
X31929255Y16279368D01*
X31929253Y16279369D01*
X31929251Y16279369D01*
X31750000Y16299566D01*
X31570748Y16279369D01*
X31570745Y16279369D01*
X31570745Y16279368D01*
X31400478Y16219789D01*
X31400476Y16219789D01*
X31400476Y16219788D01*
X31247735Y16123815D01*
X31120185Y15996265D01*
X31068438Y15913909D01*
X31024211Y15843522D01*
X30965002Y15674311D01*
X30964631Y15673252D01*
X30944434Y15494000D01*
X17317367Y15494000D01*
X17354477Y15531110D01*
X17444456Y15674310D01*
X17500313Y15833941D01*
X17519249Y16002000D01*
X17500313Y16170059D01*
X17444456Y16329690D01*
X17354477Y16472890D01*
X17234890Y16592477D01*
X17091690Y16682456D01*
X16932059Y16738313D01*
X16932058Y16738314D01*
X16932056Y16738314D01*
X16764000Y16757250D01*
X16595943Y16738314D01*
X16436310Y16682456D01*
X16293108Y16592476D01*
X16173524Y16472892D01*
X16083544Y16329690D01*
X16027686Y16170057D01*
X16008750Y16002000D01*
X7109499Y16002000D01*
X7109499Y16764000D01*
X23399908Y16764000D01*
X23418213Y16601539D01*
X23472209Y16447228D01*
X23472211Y16447225D01*
X23559192Y16308796D01*
X23674796Y16193192D01*
X23813225Y16106211D01*
X23813227Y16106210D01*
X23967538Y16052214D01*
X24129999Y16033909D01*
X24129999Y16033910D01*
X24130000Y16033909D01*
X24292461Y16052214D01*
X24446775Y16106211D01*
X24585204Y16193192D01*
X24700808Y16308796D01*
X24787789Y16447225D01*
X24841786Y16601539D01*
X24860091Y16764000D01*
X24841786Y16926461D01*
X24825151Y16974000D01*
X27953908Y16974000D01*
X27972213Y16811539D01*
X28026209Y16657228D01*
X28026211Y16657225D01*
X28113192Y16518796D01*
X28228796Y16403192D01*
X28367225Y16316211D01*
X28367227Y16316210D01*
X28521538Y16262214D01*
X28684000Y16243909D01*
X28846461Y16262214D01*
X29000775Y16316211D01*
X29139204Y16403192D01*
X29254808Y16518796D01*
X29341789Y16657225D01*
X29378239Y16761395D01*
X29418960Y16818168D01*
X29483913Y16843915D01*
X29552475Y16830459D01*
X29582961Y16808118D01*
X29686103Y16704976D01*
X29786036Y16642184D01*
X29824534Y16617994D01*
X29978845Y16563998D01*
X30141306Y16545693D01*
X30141306Y16545694D01*
X30141307Y16545693D01*
X30303768Y16563998D01*
X30458082Y16617995D01*
X30499469Y16644000D01*
X39453908Y16644000D01*
X39472213Y16481539D01*
X39526209Y16327228D01*
X39526211Y16327225D01*
X39613192Y16188796D01*
X39728796Y16073192D01*
X39851229Y15996262D01*
X39867227Y15986210D01*
X40021538Y15932214D01*
X40184000Y15913909D01*
X40346461Y15932214D01*
X40500775Y15986211D01*
X40639204Y16073192D01*
X40754808Y16188796D01*
X40841789Y16327225D01*
X40895786Y16481539D01*
X40914091Y16644000D01*
X40907220Y16704978D01*
X40895786Y16806462D01*
X40841790Y16960773D01*
X40841789Y16960775D01*
X40805832Y17018000D01*
X43390434Y17018000D01*
X43410631Y16838749D01*
X43410631Y16838747D01*
X43410632Y16838745D01*
X43470211Y16668478D01*
X43486733Y16642184D01*
X43566185Y16515736D01*
X43693735Y16388186D01*
X43693737Y16388185D01*
X43693738Y16388184D01*
X43846478Y16292211D01*
X44016745Y16232632D01*
X44130731Y16219789D01*
X44195999Y16212435D01*
X44195999Y16212436D01*
X44196000Y16212435D01*
X44375255Y16232632D01*
X44545522Y16292211D01*
X44698262Y16388184D01*
X44825816Y16515738D01*
X44921789Y16668478D01*
X44981368Y16838745D01*
X44987234Y16890810D01*
X44992672Y16939068D01*
X45019739Y17003482D01*
X45077333Y17043037D01*
X45147170Y17045174D01*
X45207077Y17009216D01*
X45232932Y16966142D01*
X45248211Y16922478D01*
X45300821Y16838749D01*
X45344185Y16769736D01*
X45471735Y16642186D01*
X45471737Y16642185D01*
X45471738Y16642184D01*
X45624478Y16546211D01*
X45794745Y16486632D01*
X45974000Y16466435D01*
X46153255Y16486632D01*
X46323522Y16546211D01*
X46476262Y16642184D01*
X46603816Y16769738D01*
X46699789Y16922478D01*
X46759368Y17092745D01*
X46779565Y17272000D01*
X46759368Y17451255D01*
X46699789Y17621522D01*
X46603816Y17774262D01*
X46603815Y17774263D01*
X46603814Y17774265D01*
X46476264Y17901815D01*
X46365798Y17971225D01*
X46323522Y17997789D01*
X46153255Y18057368D01*
X46153253Y18057369D01*
X46153251Y18057369D01*
X45974000Y18077566D01*
X45794748Y18057369D01*
X45794745Y18057369D01*
X45794745Y18057368D01*
X45624478Y17997789D01*
X45624476Y17997789D01*
X45624476Y17997788D01*
X45471735Y17901815D01*
X45344185Y17774265D01*
X45248212Y17621524D01*
X45248211Y17621522D01*
X45188938Y17452128D01*
X45188631Y17451251D01*
X45177327Y17350932D01*
X45150260Y17286518D01*
X45092664Y17246964D01*
X45022827Y17244827D01*
X44962921Y17280786D01*
X44937066Y17323862D01*
X44921789Y17367522D01*
X44825816Y17520262D01*
X44825815Y17520263D01*
X44825814Y17520265D01*
X44698264Y17647815D01*
X44587851Y17717192D01*
X44545522Y17743789D01*
X44375255Y17803368D01*
X44375253Y17803369D01*
X44375251Y17803369D01*
X44195999Y17823566D01*
X44016748Y17803369D01*
X44016745Y17803369D01*
X44016745Y17803368D01*
X43846478Y17743789D01*
X43846476Y17743789D01*
X43846476Y17743788D01*
X43693735Y17647815D01*
X43566185Y17520265D01*
X43470212Y17367524D01*
X43470211Y17367522D01*
X43428026Y17246964D01*
X43410631Y17197252D01*
X43390434Y17018000D01*
X40805832Y17018000D01*
X40754808Y17099204D01*
X40639204Y17214808D01*
X40500775Y17301789D01*
X40500772Y17301791D01*
X40346461Y17355787D01*
X40184000Y17374092D01*
X40021538Y17355787D01*
X39867227Y17301791D01*
X39728794Y17214807D01*
X39613193Y17099206D01*
X39526209Y16960773D01*
X39472213Y16806462D01*
X39453908Y16644000D01*
X30499469Y16644000D01*
X30596511Y16704976D01*
X30712115Y16820580D01*
X30799096Y16959009D01*
X30853093Y17113323D01*
X30871398Y17275784D01*
X30871064Y17278751D01*
X30851529Y17452128D01*
X30854650Y17452480D01*
X30852203Y17500375D01*
X30886928Y17561004D01*
X30931848Y17588597D01*
X31050775Y17630211D01*
X31189204Y17717192D01*
X31304808Y17832796D01*
X31391789Y17971225D01*
X31445786Y18125539D01*
X31464091Y18288000D01*
X31449949Y18413505D01*
X31462004Y18482327D01*
X31509353Y18533706D01*
X31576963Y18551331D01*
X31643369Y18529605D01*
X31660851Y18515070D01*
X31755735Y18420186D01*
X31755737Y18420185D01*
X31755738Y18420184D01*
X31908478Y18324211D01*
X32078745Y18264632D01*
X32213186Y18249485D01*
X32257999Y18244435D01*
X32257999Y18244436D01*
X32258000Y18244435D01*
X32437255Y18264632D01*
X32607522Y18324211D01*
X32760262Y18420184D01*
X32887816Y18547738D01*
X32983789Y18700478D01*
X33043368Y18870745D01*
X33063565Y19050000D01*
X33043368Y19229255D01*
X32983789Y19399522D01*
X32887816Y19552262D01*
X32887815Y19552263D01*
X32887814Y19552265D01*
X32760264Y19679815D01*
X32695574Y19720462D01*
X32607522Y19775789D01*
X32437255Y19835368D01*
X32437253Y19835369D01*
X32437251Y19835369D01*
X32258000Y19855566D01*
X32078748Y19835369D01*
X32078745Y19835369D01*
X32078745Y19835368D01*
X31908478Y19775789D01*
X31908476Y19775789D01*
X31908476Y19775788D01*
X31755735Y19679815D01*
X31628185Y19552265D01*
X31548732Y19425815D01*
X31532211Y19399522D01*
X31472632Y19229255D01*
X31472631Y19229252D01*
X31452434Y19050000D01*
X31470460Y18890018D01*
X31458406Y18821196D01*
X31411057Y18769816D01*
X31343446Y18752192D01*
X31277040Y18773918D01*
X31259559Y18788453D01*
X31189205Y18858807D01*
X31189204Y18858808D01*
X31050775Y18945789D01*
X31050772Y18945791D01*
X30896461Y18999787D01*
X30733999Y19018092D01*
X30571538Y18999787D01*
X30417227Y18945791D01*
X30278794Y18858807D01*
X30163193Y18743206D01*
X30076209Y18604773D01*
X30022213Y18450462D01*
X30003908Y18288001D01*
X30023778Y18111656D01*
X30020656Y18111305D01*
X30023102Y18063405D01*
X29988373Y18002777D01*
X29943454Y17975187D01*
X29824533Y17933574D01*
X29686101Y17846591D01*
X29570500Y17730990D01*
X29483517Y17592558D01*
X29447067Y17488392D01*
X29406345Y17431617D01*
X29341392Y17405870D01*
X29272830Y17419327D01*
X29242345Y17441667D01*
X29139205Y17544807D01*
X29139204Y17544808D01*
X29017112Y17621524D01*
X29000772Y17631791D01*
X28846461Y17685787D01*
X28684000Y17704092D01*
X28521538Y17685787D01*
X28367227Y17631791D01*
X28228794Y17544807D01*
X28113193Y17429206D01*
X28026209Y17290773D01*
X27972213Y17136462D01*
X27953908Y16974000D01*
X24825151Y16974000D01*
X24787790Y17080773D01*
X24787789Y17080775D01*
X24773423Y17103638D01*
X24754424Y17170872D01*
X24774791Y17237708D01*
X24828059Y17282922D01*
X24864535Y17292828D01*
X24866433Y17293042D01*
X24907659Y17297687D01*
X25067290Y17353544D01*
X25210490Y17443523D01*
X25330077Y17563110D01*
X25420056Y17706310D01*
X25475913Y17865941D01*
X25494849Y18034000D01*
X25475913Y18202059D01*
X25420056Y18361690D01*
X25330077Y18504890D01*
X25210490Y18624477D01*
X25067290Y18714456D01*
X24907659Y18770313D01*
X24907658Y18770314D01*
X24907656Y18770314D01*
X24739600Y18789250D01*
X24571543Y18770314D01*
X24411910Y18714456D01*
X24268708Y18624476D01*
X24149124Y18504892D01*
X24059144Y18361690D01*
X24003286Y18202057D01*
X23984350Y18034000D01*
X24003286Y17865944D01*
X24003286Y17865942D01*
X24003287Y17865941D01*
X24010058Y17846591D01*
X24059144Y17706310D01*
X24083364Y17667765D01*
X24102365Y17600528D01*
X24081998Y17533693D01*
X24028730Y17488479D01*
X23992258Y17478572D01*
X23967538Y17475787D01*
X23813227Y17421791D01*
X23674794Y17334807D01*
X23559193Y17219206D01*
X23472209Y17080773D01*
X23418213Y16926462D01*
X23399908Y16764000D01*
X7109499Y16764000D01*
X7109499Y18553190D01*
X7129184Y18620229D01*
X7181988Y18665984D01*
X7251146Y18675928D01*
X7314702Y18646903D01*
X7350539Y18594146D01*
X7389667Y18482327D01*
X7402211Y18446478D01*
X7498185Y18293736D01*
X7625735Y18166186D01*
X7625737Y18166185D01*
X7625738Y18166184D01*
X7778478Y18070211D01*
X7948745Y18010632D01*
X8083186Y17995485D01*
X8127999Y17990435D01*
X8127999Y17990436D01*
X8128000Y17990435D01*
X8307255Y18010632D01*
X8477522Y18070211D01*
X8630262Y18166184D01*
X8757816Y18293738D01*
X8853789Y18446478D01*
X8913368Y18616745D01*
X8933565Y18796000D01*
X11640434Y18796000D01*
X11660631Y18616749D01*
X11660631Y18616747D01*
X11660632Y18616745D01*
X11720211Y18446478D01*
X11773487Y18361690D01*
X11816185Y18293736D01*
X11943735Y18166186D01*
X11943737Y18166185D01*
X11943738Y18166184D01*
X12096478Y18070211D01*
X12266745Y18010632D01*
X12446000Y17990435D01*
X12625255Y18010632D01*
X12795522Y18070211D01*
X12948262Y18166184D01*
X13075816Y18293738D01*
X13171789Y18446478D01*
X13231368Y18616745D01*
X13251565Y18796000D01*
X13231368Y18975255D01*
X13171789Y19145522D01*
X13075816Y19298262D01*
X13075815Y19298263D01*
X13075814Y19298265D01*
X13019279Y19354800D01*
X22612750Y19354800D01*
X22631686Y19186744D01*
X22631686Y19186742D01*
X22631687Y19186741D01*
X22687544Y19027110D01*
X22777523Y18883910D01*
X22897110Y18764323D01*
X23040310Y18674344D01*
X23199941Y18618487D01*
X23311980Y18605863D01*
X23367999Y18599551D01*
X23367999Y18599552D01*
X23368000Y18599551D01*
X23536059Y18618487D01*
X23695690Y18674344D01*
X23838890Y18764323D01*
X23958477Y18883910D01*
X24048456Y19027110D01*
X24104313Y19186741D01*
X24123249Y19354800D01*
X25305150Y19354800D01*
X25324086Y19186744D01*
X25324086Y19186742D01*
X25324087Y19186741D01*
X25379944Y19027110D01*
X25469923Y18883910D01*
X25589510Y18764323D01*
X25732710Y18674344D01*
X25892341Y18618487D01*
X26004380Y18605863D01*
X26060399Y18599551D01*
X26060399Y18599552D01*
X26060400Y18599551D01*
X26194249Y18614633D01*
X26263069Y18602579D01*
X26314449Y18555231D01*
X26332074Y18487621D01*
X26313126Y18425442D01*
X26266210Y18350776D01*
X26212213Y18196462D01*
X26193908Y18034001D01*
X26212213Y17871539D01*
X26266209Y17717228D01*
X26266211Y17717225D01*
X26353192Y17578796D01*
X26468796Y17463192D01*
X26607225Y17376211D01*
X26607227Y17376210D01*
X26761538Y17322214D01*
X26924000Y17303909D01*
X27086461Y17322214D01*
X27240775Y17376211D01*
X27379204Y17463192D01*
X27494808Y17578796D01*
X27581789Y17717225D01*
X27635786Y17871539D01*
X27654091Y18034000D01*
X27649183Y18077565D01*
X27635786Y18196462D01*
X27581790Y18350773D01*
X27581788Y18350776D01*
X27494808Y18489204D01*
X27379204Y18604808D01*
X27240775Y18691789D01*
X27240772Y18691791D01*
X27086461Y18745787D01*
X26923999Y18764092D01*
X26804912Y18750674D01*
X26736090Y18762729D01*
X26684711Y18810078D01*
X26667087Y18877688D01*
X26686034Y18939863D01*
X26740856Y19027110D01*
X26796713Y19186741D01*
X26815649Y19354800D01*
X26796713Y19522859D01*
X26784417Y19558000D01*
X27463908Y19558000D01*
X27482213Y19395539D01*
X27536209Y19241228D01*
X27536211Y19241225D01*
X27623192Y19102796D01*
X27738796Y18987192D01*
X27831744Y18928789D01*
X27877227Y18900210D01*
X28031538Y18846214D01*
X28193999Y18827909D01*
X28193999Y18827910D01*
X28194000Y18827909D01*
X28356461Y18846214D01*
X28510775Y18900211D01*
X28649204Y18987192D01*
X28764808Y19102796D01*
X28851789Y19241225D01*
X28905786Y19395539D01*
X28924091Y19558000D01*
X28919183Y19601565D01*
X28905786Y19720462D01*
X28851790Y19874773D01*
X28807490Y19945276D01*
X28764808Y20013204D01*
X28649204Y20128808D01*
X28510775Y20215789D01*
X28510772Y20215791D01*
X28356461Y20269787D01*
X28193999Y20288092D01*
X28031538Y20269787D01*
X27877227Y20215791D01*
X27738794Y20128807D01*
X27623193Y20013206D01*
X27536209Y19874773D01*
X27482213Y19720462D01*
X27463908Y19558000D01*
X26784417Y19558000D01*
X26740856Y19682490D01*
X26650877Y19825690D01*
X26531290Y19945277D01*
X26388090Y20035256D01*
X26228459Y20091113D01*
X26228458Y20091114D01*
X26228456Y20091114D01*
X26060399Y20110050D01*
X25892343Y20091114D01*
X25732710Y20035256D01*
X25589508Y19945276D01*
X25469924Y19825692D01*
X25379944Y19682490D01*
X25324086Y19522857D01*
X25305150Y19354800D01*
X24123249Y19354800D01*
X24104313Y19522859D01*
X24048456Y19682490D01*
X23958477Y19825690D01*
X23838890Y19945277D01*
X23695690Y20035256D01*
X23536059Y20091113D01*
X23536058Y20091114D01*
X23536056Y20091114D01*
X23368000Y20110050D01*
X23199943Y20091114D01*
X23040310Y20035256D01*
X22897108Y19945276D01*
X22777524Y19825692D01*
X22687544Y19682490D01*
X22631686Y19522857D01*
X22612750Y19354800D01*
X13019279Y19354800D01*
X12948264Y19425815D01*
X12885867Y19465022D01*
X12795522Y19521789D01*
X12625255Y19581368D01*
X12625253Y19581369D01*
X12625251Y19581369D01*
X12446000Y19601566D01*
X12266748Y19581369D01*
X12266745Y19581369D01*
X12266745Y19581368D01*
X12096478Y19521789D01*
X12096476Y19521789D01*
X12096476Y19521788D01*
X11943735Y19425815D01*
X11816185Y19298265D01*
X11720212Y19145524D01*
X11720211Y19145522D01*
X11664810Y18987194D01*
X11660631Y18975252D01*
X11640434Y18796000D01*
X8933565Y18796000D01*
X8913368Y18975255D01*
X8853789Y19145522D01*
X8757816Y19298262D01*
X8757815Y19298263D01*
X8757814Y19298265D01*
X8630264Y19425815D01*
X8567867Y19465021D01*
X8477522Y19521789D01*
X8307255Y19581368D01*
X8307253Y19581369D01*
X8307251Y19581369D01*
X8128000Y19601566D01*
X7948748Y19581369D01*
X7948745Y19581369D01*
X7948745Y19581368D01*
X7778478Y19521789D01*
X7778476Y19521789D01*
X7778476Y19521788D01*
X7625735Y19425815D01*
X7498185Y19298265D01*
X7402212Y19145524D01*
X7402211Y19145522D01*
X7350539Y18997855D01*
X7309819Y18941080D01*
X7244866Y18915333D01*
X7176304Y18928789D01*
X7125902Y18977177D01*
X7109499Y19038811D01*
X7109499Y20828001D01*
X23984350Y20828001D01*
X24003286Y20659944D01*
X24003286Y20659942D01*
X24003287Y20659941D01*
X24059144Y20500310D01*
X24149123Y20357110D01*
X24268710Y20237523D01*
X24411910Y20147544D01*
X24571541Y20091687D01*
X24739600Y20072751D01*
X24907659Y20091687D01*
X25067290Y20147544D01*
X25210490Y20237523D01*
X25330077Y20357110D01*
X25420056Y20500310D01*
X25475913Y20659941D01*
X25494849Y20828000D01*
X25475913Y20996059D01*
X25420056Y21155690D01*
X25363926Y21245020D01*
X25344926Y21312254D01*
X25365293Y21379089D01*
X25418561Y21424303D01*
X25427947Y21428025D01*
X25462775Y21440211D01*
X25601204Y21527192D01*
X25664012Y21590000D01*
X38056434Y21590000D01*
X38076631Y21410749D01*
X38076631Y21410747D01*
X38076632Y21410745D01*
X38136211Y21240478D01*
X38136212Y21240477D01*
X38232185Y21087736D01*
X38359735Y20960186D01*
X38359737Y20960185D01*
X38359738Y20960184D01*
X38512478Y20864211D01*
X38682745Y20804632D01*
X38817186Y20789485D01*
X38861999Y20784435D01*
X38861999Y20784436D01*
X38862000Y20784435D01*
X39041255Y20804632D01*
X39211522Y20864211D01*
X39364262Y20960184D01*
X39486079Y21082001D01*
X43136434Y21082001D01*
X43156631Y20902749D01*
X43156631Y20902747D01*
X43156632Y20902745D01*
X43216211Y20732478D01*
X43216212Y20732477D01*
X43312185Y20579736D01*
X43439735Y20452186D01*
X43439737Y20452185D01*
X43439738Y20452184D01*
X43592478Y20356211D01*
X43762745Y20296632D01*
X43942000Y20276435D01*
X44121255Y20296632D01*
X44291522Y20356211D01*
X44444262Y20452184D01*
X44571816Y20579738D01*
X44667789Y20732478D01*
X44727368Y20902745D01*
X44747565Y21082000D01*
X44747565Y21082001D01*
X45676434Y21082001D01*
X45696631Y20902749D01*
X45696631Y20902747D01*
X45696632Y20902745D01*
X45756211Y20732478D01*
X45756212Y20732477D01*
X45852185Y20579736D01*
X45979735Y20452186D01*
X45979737Y20452185D01*
X45979738Y20452184D01*
X46132478Y20356211D01*
X46302745Y20296632D01*
X46437186Y20281485D01*
X46481999Y20276435D01*
X46481999Y20276436D01*
X46482000Y20276435D01*
X46661255Y20296632D01*
X46831522Y20356211D01*
X46984262Y20452184D01*
X47111816Y20579738D01*
X47207789Y20732478D01*
X47267368Y20902745D01*
X47287565Y21082000D01*
X47286918Y21087738D01*
X47269709Y21240478D01*
X47267368Y21261255D01*
X47207789Y21431522D01*
X47111816Y21584262D01*
X47111815Y21584263D01*
X47111814Y21584265D01*
X46984264Y21711815D01*
X46873798Y21781225D01*
X46831522Y21807789D01*
X46661255Y21867368D01*
X46661253Y21867369D01*
X46661251Y21867369D01*
X46482000Y21887566D01*
X46302748Y21867369D01*
X46302745Y21867369D01*
X46302745Y21867368D01*
X46132478Y21807789D01*
X46132476Y21807789D01*
X46132476Y21807788D01*
X45979735Y21711815D01*
X45852185Y21584265D01*
X45756212Y21431524D01*
X45756211Y21431522D01*
X45751646Y21418476D01*
X45696631Y21261252D01*
X45676434Y21082001D01*
X44747565Y21082001D01*
X44727368Y21261255D01*
X44667789Y21431522D01*
X44571816Y21584262D01*
X44571815Y21584263D01*
X44571814Y21584265D01*
X44444264Y21711815D01*
X44333798Y21781225D01*
X44291522Y21807789D01*
X44121255Y21867368D01*
X44121253Y21867369D01*
X44121251Y21867369D01*
X43941999Y21887566D01*
X43762748Y21867369D01*
X43762745Y21867369D01*
X43762745Y21867368D01*
X43592478Y21807789D01*
X43592476Y21807789D01*
X43592476Y21807788D01*
X43439735Y21711815D01*
X43312185Y21584265D01*
X43216212Y21431524D01*
X43216211Y21431522D01*
X43211646Y21418476D01*
X43156631Y21261252D01*
X43136434Y21082001D01*
X39486079Y21082001D01*
X39491816Y21087738D01*
X39587789Y21240478D01*
X39647368Y21410745D01*
X39667565Y21590000D01*
X39647368Y21769255D01*
X39587789Y21939522D01*
X39491816Y22092262D01*
X39491815Y22092263D01*
X39491814Y22092265D01*
X39364264Y22219815D01*
X39299574Y22260462D01*
X39211522Y22315789D01*
X39041255Y22375368D01*
X39041253Y22375369D01*
X39041251Y22375369D01*
X38861999Y22395566D01*
X38682748Y22375369D01*
X38682745Y22375369D01*
X38682745Y22375368D01*
X38512478Y22315789D01*
X38512476Y22315789D01*
X38512476Y22315788D01*
X38359735Y22219815D01*
X38232185Y22092265D01*
X38136212Y21939524D01*
X38136211Y21939522D01*
X38076632Y21769255D01*
X38076631Y21769252D01*
X38056434Y21590000D01*
X25664012Y21590000D01*
X25716808Y21642796D01*
X25803789Y21781225D01*
X25857786Y21935539D01*
X25876091Y22098000D01*
X25857786Y22260461D01*
X25838426Y22315788D01*
X25803790Y22414773D01*
X25803789Y22414775D01*
X25716808Y22553204D01*
X25601204Y22668808D01*
X25462775Y22755789D01*
X25462772Y22755791D01*
X25308461Y22809787D01*
X25145999Y22828092D01*
X24983538Y22809787D01*
X24829227Y22755791D01*
X24690794Y22668807D01*
X24575193Y22553206D01*
X24488209Y22414773D01*
X24434213Y22260462D01*
X24415908Y22098001D01*
X24434213Y21935539D01*
X24488209Y21781228D01*
X24488211Y21781225D01*
X24531824Y21711815D01*
X24532233Y21711165D01*
X24551233Y21643928D01*
X24530865Y21577093D01*
X24477597Y21531879D01*
X24468195Y21528152D01*
X24411911Y21508457D01*
X24268708Y21418476D01*
X24149124Y21298892D01*
X24059144Y21155690D01*
X24003286Y20996057D01*
X23984350Y20828001D01*
X7109499Y20828001D01*
X7109499Y22365961D01*
X7109499Y22365962D01*
X7109499Y22369469D01*
X7096677Y22482600D01*
X7084255Y22536697D01*
X7046433Y22644103D01*
X7026293Y22673907D01*
X6965878Y22763315D01*
X6956380Y22773779D01*
X6918915Y22815053D01*
X6875079Y22851302D01*
X6808042Y22906738D01*
X6705336Y22950812D01*
X6675822Y22963477D01*
X6675820Y22963478D01*
X6675819Y22963478D01*
X6606214Y22982186D01*
X6600966Y22982500D01*
X6588402Y22984012D01*
X6548683Y22988792D01*
X6484476Y23016346D01*
X6445359Y23074239D01*
X6439500Y23111904D01*
X6439500Y23114000D01*
X35008434Y23114000D01*
X35028631Y22934749D01*
X35028631Y22934747D01*
X35028632Y22934745D01*
X35088211Y22764478D01*
X35093671Y22755789D01*
X35184185Y22611736D01*
X35311735Y22484186D01*
X35311737Y22484185D01*
X35311738Y22484184D01*
X35464478Y22388211D01*
X35634745Y22328632D01*
X35814000Y22308435D01*
X35993255Y22328632D01*
X36163522Y22388211D01*
X36316262Y22484184D01*
X36443816Y22611738D01*
X36539789Y22764478D01*
X36599368Y22934745D01*
X36619565Y23114000D01*
X36599368Y23293255D01*
X36539789Y23463522D01*
X36443816Y23616262D01*
X36443815Y23616263D01*
X36443814Y23616265D01*
X36316264Y23743815D01*
X36223168Y23802311D01*
X36163522Y23839789D01*
X35993255Y23899368D01*
X35993253Y23899369D01*
X35993251Y23899369D01*
X35814000Y23919566D01*
X35634748Y23899369D01*
X35634745Y23899369D01*
X35634745Y23899368D01*
X35464478Y23839789D01*
X35464476Y23839789D01*
X35464476Y23839788D01*
X35311735Y23743815D01*
X35184185Y23616265D01*
X35103618Y23488042D01*
X35088211Y23463522D01*
X35031011Y23300054D01*
X35028631Y23293252D01*
X35008434Y23114000D01*
X6439500Y23114000D01*
X6439500Y23136332D01*
X6439500Y23136333D01*
X6439500Y23139473D01*
X6424459Y23287379D01*
X6424458Y23287381D01*
X6423183Y23299924D01*
X6424453Y23300054D01*
X6423415Y23356466D01*
X6460101Y23415929D01*
X6523112Y23446119D01*
X6583968Y23440769D01*
X6689941Y23403687D01*
X6858000Y23384751D01*
X7026059Y23403687D01*
X7185690Y23459544D01*
X7185690Y23459545D01*
X7187587Y23460208D01*
X7257365Y23463769D01*
X7285782Y23451829D01*
X7292307Y23449546D01*
X7292310Y23449544D01*
X7451941Y23393687D01*
X7620000Y23374751D01*
X7788059Y23393687D01*
X7947690Y23449544D01*
X8090890Y23539523D01*
X8210477Y23659110D01*
X8300456Y23802310D01*
X8356313Y23961941D01*
X8375249Y24130000D01*
X8356313Y24298059D01*
X8312242Y24424008D01*
X15500750Y24424008D01*
X15519686Y24255952D01*
X15519686Y24255950D01*
X15519687Y24255949D01*
X15575544Y24096318D01*
X15665523Y23953118D01*
X15785110Y23833531D01*
X15928310Y23743552D01*
X16087941Y23687695D01*
X16256000Y23668759D01*
X16424059Y23687695D01*
X16583690Y23743552D01*
X16726890Y23833531D01*
X16846477Y23953118D01*
X16936456Y24096318D01*
X16992313Y24255949D01*
X17011249Y24424008D01*
X16992313Y24592067D01*
X16936456Y24751698D01*
X16846477Y24894898D01*
X16726890Y25014485D01*
X16583690Y25104464D01*
X16424059Y25160321D01*
X16424058Y25160322D01*
X16424056Y25160322D01*
X16256000Y25179258D01*
X16087943Y25160322D01*
X15928310Y25104464D01*
X15785108Y25014484D01*
X15665524Y24894900D01*
X15575544Y24751698D01*
X15519686Y24592065D01*
X15500750Y24424008D01*
X8312242Y24424008D01*
X8300456Y24457690D01*
X8210477Y24600890D01*
X8090890Y24720477D01*
X7947690Y24810456D01*
X7788059Y24866313D01*
X7788058Y24866314D01*
X7788056Y24866314D01*
X7620000Y24885250D01*
X7451943Y24866314D01*
X7290412Y24809792D01*
X7220633Y24806231D01*
X7183481Y24821843D01*
X7173855Y24827892D01*
X7175401Y24830353D01*
X7135766Y24858784D01*
X7110022Y24923738D01*
X7109500Y24935099D01*
X7109500Y27178000D01*
X20072750Y27178000D01*
X20091686Y27009944D01*
X20091686Y27009942D01*
X20091687Y27009941D01*
X20147544Y26850310D01*
X20237523Y26707110D01*
X20357110Y26587523D01*
X20500310Y26497544D01*
X20659941Y26441687D01*
X20828000Y26422751D01*
X20996059Y26441687D01*
X21155690Y26497544D01*
X21298890Y26587523D01*
X21418477Y26707110D01*
X21508456Y26850310D01*
X21564313Y27009941D01*
X21583249Y27178000D01*
X26930750Y27178000D01*
X26949686Y27009944D01*
X26949686Y27009942D01*
X26949687Y27009941D01*
X27005544Y26850310D01*
X27095523Y26707110D01*
X27215110Y26587523D01*
X27358310Y26497544D01*
X27517941Y26441687D01*
X27686000Y26422751D01*
X27854059Y26441687D01*
X28013690Y26497544D01*
X28156890Y26587523D01*
X28276477Y26707110D01*
X28366456Y26850310D01*
X28422313Y27009941D01*
X28441249Y27178000D01*
X28422313Y27346059D01*
X28366456Y27505690D01*
X28276477Y27648890D01*
X28156890Y27768477D01*
X28013690Y27858456D01*
X27854059Y27914313D01*
X27854058Y27914314D01*
X27854056Y27914314D01*
X27685999Y27933250D01*
X27517943Y27914314D01*
X27358310Y27858456D01*
X27215108Y27768476D01*
X27095524Y27648892D01*
X27005544Y27505690D01*
X26949686Y27346057D01*
X26930750Y27178000D01*
X21583249Y27178000D01*
X21564313Y27346059D01*
X21508456Y27505690D01*
X21418477Y27648890D01*
X21298890Y27768477D01*
X21155690Y27858456D01*
X20996059Y27914313D01*
X20996058Y27914314D01*
X20996056Y27914314D01*
X20828000Y27933250D01*
X20659943Y27914314D01*
X20500310Y27858456D01*
X20357108Y27768476D01*
X20237524Y27648892D01*
X20147544Y27505690D01*
X20091686Y27346057D01*
X20072750Y27178000D01*
X7109500Y27178000D01*
X7109500Y27365962D01*
X7109500Y27365963D01*
X7109500Y27369470D01*
X7096678Y27482603D01*
X7084256Y27536699D01*
X7046438Y27644094D01*
X6965883Y27763310D01*
X6949351Y27781524D01*
X6919949Y27813918D01*
X6919926Y27813942D01*
X6918924Y27815046D01*
X6918922Y27815048D01*
X6914031Y27819093D01*
X6876172Y27850401D01*
X6837054Y27908294D01*
X6835445Y27978145D01*
X6871856Y28037777D01*
X6873920Y28039609D01*
X6915347Y28075505D01*
X7009567Y28184239D01*
X7069338Y28315116D01*
X7089023Y28382155D01*
X7089024Y28382159D01*
X7109500Y28524575D01*
X7109500Y28956000D01*
X12402434Y28956000D01*
X12422631Y28776749D01*
X12422631Y28776747D01*
X12422632Y28776745D01*
X12482211Y28606478D01*
X12533674Y28524575D01*
X12578185Y28453736D01*
X12705735Y28326186D01*
X12705737Y28326185D01*
X12705738Y28326184D01*
X12858478Y28230211D01*
X13028745Y28170632D01*
X13208000Y28150435D01*
X13387255Y28170632D01*
X13557522Y28230211D01*
X13710262Y28326184D01*
X13832078Y28448000D01*
X25660750Y28448000D01*
X25679686Y28279944D01*
X25679686Y28279942D01*
X25679687Y28279941D01*
X25735544Y28120310D01*
X25825523Y27977110D01*
X25945110Y27857523D01*
X26088310Y27767544D01*
X26247941Y27711687D01*
X26359980Y27699064D01*
X26415999Y27692751D01*
X26415999Y27692752D01*
X26416000Y27692751D01*
X26584059Y27711687D01*
X26743690Y27767544D01*
X26886890Y27857523D01*
X27006477Y27977110D01*
X27096456Y28120310D01*
X27152313Y28279941D01*
X27171249Y28448000D01*
X27152313Y28616059D01*
X27096456Y28775690D01*
X27062958Y28829001D01*
X28073750Y28829001D01*
X28092686Y28660944D01*
X28092686Y28660942D01*
X28092687Y28660941D01*
X28148544Y28501310D01*
X28238523Y28358110D01*
X28358110Y28238523D01*
X28501310Y28148544D01*
X28654020Y28095109D01*
X28710797Y28054387D01*
X28730107Y28019022D01*
X28783542Y27866313D01*
X28783544Y27866310D01*
X28873523Y27723110D01*
X28993110Y27603523D01*
X29136310Y27513544D01*
X29295941Y27457687D01*
X29351750Y27451399D01*
X29442164Y27441211D01*
X29506578Y27414144D01*
X29537662Y27369859D01*
X29538111Y27370140D01*
X29543632Y27361353D01*
X29545321Y27358947D01*
X29545544Y27358310D01*
X29635523Y27215110D01*
X29755110Y27095523D01*
X29898310Y27005544D01*
X29922017Y26997249D01*
X29978792Y26956531D01*
X30004541Y26891579D01*
X29998106Y26839257D01*
X29997686Y26838059D01*
X29978750Y26670000D01*
X29997686Y26501944D01*
X29997686Y26501942D01*
X29997687Y26501941D01*
X30053544Y26342310D01*
X30143523Y26199110D01*
X30263110Y26079523D01*
X30264147Y26078871D01*
X30267102Y26075531D01*
X30272989Y26069644D01*
X30272628Y26069284D01*
X30310438Y26026540D01*
X30321088Y25957487D01*
X30292715Y25893638D01*
X30239131Y25856837D01*
X30152312Y25826458D01*
X30009108Y25736476D01*
X29889524Y25616892D01*
X29799544Y25473690D01*
X29743686Y25314057D01*
X29724750Y25146000D01*
X29743686Y24977944D01*
X29743686Y24977942D01*
X29743687Y24977941D01*
X29799544Y24818310D01*
X29889523Y24675110D01*
X30009110Y24555523D01*
X30152310Y24465544D01*
X30311941Y24409687D01*
X30423980Y24397064D01*
X30479999Y24390751D01*
X30479999Y24390752D01*
X30480000Y24390751D01*
X30648059Y24409687D01*
X30807690Y24465544D01*
X30950890Y24555523D01*
X31070477Y24675110D01*
X31160456Y24818310D01*
X31186241Y24892000D01*
X40088434Y24892000D01*
X40108631Y24712749D01*
X40108631Y24712747D01*
X40108632Y24712745D01*
X40168211Y24542478D01*
X40184733Y24516184D01*
X40264185Y24389736D01*
X40391735Y24262186D01*
X40391737Y24262185D01*
X40391738Y24262184D01*
X40544478Y24166211D01*
X40714745Y24106632D01*
X40894000Y24086435D01*
X41073255Y24106632D01*
X41243522Y24166211D01*
X41396262Y24262184D01*
X41523816Y24389738D01*
X41619789Y24542478D01*
X41679368Y24712745D01*
X41699565Y24892000D01*
X41679368Y25071255D01*
X41653213Y25146001D01*
X45676434Y25146001D01*
X45696631Y24966749D01*
X45696631Y24966747D01*
X45696632Y24966745D01*
X45756211Y24796478D01*
X45756212Y24796477D01*
X45852185Y24643736D01*
X45979735Y24516186D01*
X45979737Y24516185D01*
X45979738Y24516184D01*
X46132478Y24420211D01*
X46302745Y24360632D01*
X46437186Y24345485D01*
X46481999Y24340435D01*
X46481999Y24340436D01*
X46482000Y24340435D01*
X46661255Y24360632D01*
X46831522Y24420211D01*
X46984262Y24516184D01*
X47111816Y24643738D01*
X47207789Y24796478D01*
X47267368Y24966745D01*
X47287565Y25146000D01*
X47285951Y25160321D01*
X47276802Y25241524D01*
X47267368Y25325255D01*
X47207789Y25495522D01*
X47111816Y25648262D01*
X47111815Y25648263D01*
X47111814Y25648265D01*
X46984264Y25775815D01*
X46855318Y25856837D01*
X46831522Y25871789D01*
X46661255Y25931368D01*
X46661253Y25931369D01*
X46661251Y25931369D01*
X46482000Y25951566D01*
X46302748Y25931369D01*
X46302745Y25931369D01*
X46302745Y25931368D01*
X46132478Y25871789D01*
X46132476Y25871789D01*
X46132476Y25871788D01*
X45979735Y25775815D01*
X45852185Y25648265D01*
X45756212Y25495524D01*
X45696631Y25325252D01*
X45676434Y25146001D01*
X41653213Y25146001D01*
X41619789Y25241522D01*
X41523816Y25394262D01*
X41523815Y25394263D01*
X41523814Y25394265D01*
X41396264Y25521815D01*
X41333867Y25561021D01*
X41243522Y25617789D01*
X41073255Y25677368D01*
X41073253Y25677369D01*
X41073251Y25677369D01*
X40893999Y25697566D01*
X40714748Y25677369D01*
X40714745Y25677369D01*
X40714745Y25677368D01*
X40544478Y25617789D01*
X40544476Y25617789D01*
X40544476Y25617788D01*
X40391735Y25521815D01*
X40264185Y25394265D01*
X40168212Y25241524D01*
X40168211Y25241522D01*
X40120252Y25104464D01*
X40108631Y25071252D01*
X40088434Y24892000D01*
X31186241Y24892000D01*
X31216313Y24977941D01*
X31235249Y25146000D01*
X31216313Y25314059D01*
X31160456Y25473690D01*
X31070477Y25616890D01*
X30950890Y25736477D01*
X30949851Y25737130D01*
X30946894Y25740473D01*
X30941011Y25746356D01*
X30941371Y25746717D01*
X30903560Y25789463D01*
X30892911Y25858516D01*
X30921286Y25922365D01*
X30974866Y25959164D01*
X31061690Y25989544D01*
X31204890Y26079523D01*
X31324477Y26199110D01*
X31414456Y26342310D01*
X31470313Y26501941D01*
X31489249Y26670000D01*
X31470313Y26838059D01*
X31414456Y26997690D01*
X31324477Y27140890D01*
X31204890Y27260477D01*
X31061690Y27350456D01*
X31061689Y27350457D01*
X31061688Y27350457D01*
X31037980Y27358753D01*
X30981205Y27399476D01*
X30955459Y27464429D01*
X30961897Y27516753D01*
X30962313Y27517941D01*
X30981249Y27686000D01*
X30962313Y27854059D01*
X30932241Y27940001D01*
X33992434Y27940001D01*
X34012631Y27760749D01*
X34012631Y27760747D01*
X34012632Y27760745D01*
X34072211Y27590478D01*
X34072212Y27590477D01*
X34168185Y27437736D01*
X34295735Y27310186D01*
X34295737Y27310185D01*
X34295738Y27310184D01*
X34448478Y27214211D01*
X34618745Y27154632D01*
X34798000Y27134435D01*
X34977255Y27154632D01*
X35147522Y27214211D01*
X35300262Y27310184D01*
X35422079Y27432001D01*
X41612434Y27432001D01*
X41632631Y27252749D01*
X41632631Y27252747D01*
X41632632Y27252745D01*
X41692211Y27082478D01*
X41692212Y27082477D01*
X41788185Y26929736D01*
X41915735Y26802186D01*
X41915737Y26802185D01*
X41915738Y26802184D01*
X42068478Y26706211D01*
X42238745Y26646632D01*
X42418000Y26626435D01*
X42597255Y26646632D01*
X42767522Y26706211D01*
X42920262Y26802184D01*
X43047816Y26929738D01*
X43143789Y27082478D01*
X43203368Y27252745D01*
X43223565Y27432000D01*
X43222918Y27437738D01*
X43213882Y27517941D01*
X43203368Y27611255D01*
X43143789Y27781522D01*
X43047816Y27934262D01*
X43047815Y27934263D01*
X43047814Y27934265D01*
X42920264Y28061815D01*
X42782235Y28148544D01*
X42767522Y28157789D01*
X42597255Y28217368D01*
X42597253Y28217369D01*
X42597251Y28217369D01*
X42418000Y28237566D01*
X42238748Y28217369D01*
X42238745Y28217369D01*
X42238745Y28217368D01*
X42068478Y28157789D01*
X42068476Y28157789D01*
X42068476Y28157788D01*
X41915735Y28061815D01*
X41788185Y27934265D01*
X41692212Y27781524D01*
X41692211Y27781522D01*
X41645802Y27648892D01*
X41632631Y27611252D01*
X41612434Y27432001D01*
X35422079Y27432001D01*
X35427816Y27437738D01*
X35523789Y27590478D01*
X35583368Y27760745D01*
X35603565Y27940000D01*
X35583368Y28119255D01*
X35523789Y28289522D01*
X35427816Y28442262D01*
X35427815Y28442263D01*
X35427814Y28442265D01*
X35300264Y28569815D01*
X35221151Y28619525D01*
X35147522Y28665789D01*
X34977255Y28725368D01*
X34977253Y28725369D01*
X34977251Y28725369D01*
X34798000Y28745566D01*
X34618748Y28725369D01*
X34618745Y28725369D01*
X34618745Y28725368D01*
X34448478Y28665789D01*
X34448476Y28665789D01*
X34448476Y28665788D01*
X34295735Y28569815D01*
X34168185Y28442265D01*
X34088292Y28315115D01*
X34072211Y28289522D01*
X34051458Y28230213D01*
X34012631Y28119252D01*
X33992434Y27940001D01*
X30932241Y27940001D01*
X30906456Y28013690D01*
X30816477Y28156890D01*
X30696890Y28276477D01*
X30553690Y28366456D01*
X30394059Y28422313D01*
X30394058Y28422314D01*
X30394056Y28422314D01*
X30247834Y28438790D01*
X30183421Y28465857D01*
X30152338Y28510143D01*
X30151889Y28509860D01*
X30146357Y28518664D01*
X30144677Y28521057D01*
X30144456Y28521690D01*
X30054477Y28664890D01*
X29934890Y28784477D01*
X29791690Y28874456D01*
X29791687Y28874458D01*
X29638978Y28927893D01*
X29599789Y28956000D01*
X46438434Y28956000D01*
X46458631Y28776749D01*
X46458631Y28776747D01*
X46458632Y28776745D01*
X46518211Y28606478D01*
X46569674Y28524575D01*
X46614185Y28453736D01*
X46741735Y28326186D01*
X46741737Y28326185D01*
X46741738Y28326184D01*
X46894478Y28230211D01*
X47064745Y28170632D01*
X47244000Y28150435D01*
X47423255Y28170632D01*
X47593522Y28230211D01*
X47746262Y28326184D01*
X47873816Y28453738D01*
X47969789Y28606478D01*
X48029368Y28776745D01*
X48049565Y28956000D01*
X48029368Y29135255D01*
X47969789Y29305522D01*
X47873816Y29458262D01*
X47873815Y29458263D01*
X47873814Y29458265D01*
X47746264Y29585815D01*
X47683867Y29625021D01*
X47593522Y29681789D01*
X47423255Y29741368D01*
X47423253Y29741369D01*
X47423251Y29741369D01*
X47244000Y29761566D01*
X47064748Y29741369D01*
X47064745Y29741369D01*
X47064745Y29741368D01*
X46894478Y29681789D01*
X46894476Y29681789D01*
X46894476Y29681788D01*
X46741735Y29585815D01*
X46614185Y29458265D01*
X46518212Y29305524D01*
X46518211Y29305522D01*
X46458632Y29135255D01*
X46458631Y29135252D01*
X46438434Y28956000D01*
X29599789Y28956000D01*
X29582202Y28968614D01*
X29562891Y29003980D01*
X29509456Y29156690D01*
X29419477Y29299890D01*
X29299890Y29419477D01*
X29156690Y29509456D01*
X28997059Y29565313D01*
X28997058Y29565314D01*
X28997056Y29565314D01*
X28828999Y29584250D01*
X28660943Y29565314D01*
X28501310Y29509456D01*
X28358108Y29419476D01*
X28238524Y29299892D01*
X28148544Y29156690D01*
X28092686Y28997057D01*
X28073750Y28829001D01*
X27062958Y28829001D01*
X27006477Y28918890D01*
X26886890Y29038477D01*
X26743690Y29128456D01*
X26584059Y29184313D01*
X26584058Y29184314D01*
X26584056Y29184314D01*
X26416000Y29203250D01*
X26247943Y29184314D01*
X26088310Y29128456D01*
X25945108Y29038476D01*
X25825524Y28918892D01*
X25735544Y28775690D01*
X25679686Y28616057D01*
X25660750Y28448000D01*
X13832078Y28448000D01*
X13837816Y28453738D01*
X13933789Y28606478D01*
X13993368Y28776745D01*
X14013565Y28956000D01*
X13993368Y29135255D01*
X13967213Y29210001D01*
X16770750Y29210001D01*
X16789686Y29041944D01*
X16789686Y29041942D01*
X16789687Y29041941D01*
X16845544Y28882310D01*
X16935523Y28739110D01*
X17055110Y28619523D01*
X17198310Y28529544D01*
X17357941Y28473687D01*
X17469980Y28461064D01*
X17525999Y28454751D01*
X17525999Y28454752D01*
X17526000Y28454751D01*
X17694059Y28473687D01*
X17853690Y28529544D01*
X17996890Y28619523D01*
X18116477Y28739110D01*
X18206456Y28882310D01*
X18262313Y29041941D01*
X18281249Y29210000D01*
X21596750Y29210000D01*
X21615686Y29041944D01*
X21615686Y29041942D01*
X21615687Y29041941D01*
X21671544Y28882310D01*
X21761523Y28739110D01*
X21881110Y28619523D01*
X22024310Y28529544D01*
X22183941Y28473687D01*
X22295980Y28461064D01*
X22351999Y28454751D01*
X22351999Y28454752D01*
X22352000Y28454751D01*
X22520059Y28473687D01*
X22679690Y28529544D01*
X22822890Y28619523D01*
X22942477Y28739110D01*
X23032456Y28882310D01*
X23088313Y29041941D01*
X23107249Y29210000D01*
X23088313Y29378059D01*
X23032456Y29537690D01*
X22942477Y29680890D01*
X22822890Y29800477D01*
X22679690Y29890456D01*
X22520059Y29946313D01*
X22520058Y29946314D01*
X22520056Y29946314D01*
X22352000Y29965250D01*
X22183943Y29946314D01*
X22024310Y29890456D01*
X21881108Y29800476D01*
X21761524Y29680892D01*
X21671544Y29537690D01*
X21615686Y29378057D01*
X21596750Y29210000D01*
X18281249Y29210000D01*
X18262313Y29378059D01*
X18206456Y29537690D01*
X18116477Y29680890D01*
X17996890Y29800477D01*
X17853690Y29890456D01*
X17694059Y29946313D01*
X17694058Y29946314D01*
X17694056Y29946314D01*
X17526000Y29965250D01*
X17357943Y29946314D01*
X17198310Y29890456D01*
X17055108Y29800476D01*
X16935524Y29680892D01*
X16845544Y29537690D01*
X16789686Y29378057D01*
X16770750Y29210001D01*
X13967213Y29210001D01*
X13933789Y29305522D01*
X13837816Y29458262D01*
X13837815Y29458263D01*
X13837814Y29458265D01*
X13710264Y29585815D01*
X13647867Y29625022D01*
X13557522Y29681789D01*
X13387255Y29741368D01*
X13387253Y29741369D01*
X13387251Y29741369D01*
X13207999Y29761566D01*
X13028748Y29741369D01*
X13028745Y29741369D01*
X13028745Y29741368D01*
X12858478Y29681789D01*
X12858476Y29681789D01*
X12858476Y29681788D01*
X12705735Y29585815D01*
X12578185Y29458265D01*
X12482212Y29305524D01*
X12482211Y29305522D01*
X12422632Y29135255D01*
X12422631Y29135252D01*
X12402434Y28956000D01*
X7109500Y28956000D01*
X7109499Y31750000D01*
X7538551Y31750000D01*
X7558317Y31498851D01*
X7617126Y31253890D01*
X7648067Y31179192D01*
X7713534Y31021141D01*
X7845164Y30806341D01*
X8008776Y30614776D01*
X8200341Y30451164D01*
X8415141Y30319534D01*
X8647889Y30223127D01*
X8892852Y30164317D01*
X9144000Y30144551D01*
X9395148Y30164317D01*
X9640111Y30223127D01*
X9872859Y30319534D01*
X10087659Y30451164D01*
X10279224Y30614776D01*
X10442836Y30806341D01*
X10574466Y31021141D01*
X10670873Y31253889D01*
X10729683Y31498852D01*
X10749449Y31750000D01*
X10729683Y32001148D01*
X10670873Y32246111D01*
X10574466Y32478859D01*
X10442836Y32693659D01*
X10279224Y32885224D01*
X10087659Y33048836D01*
X9872859Y33180466D01*
X9756485Y33228670D01*
X9640110Y33276874D01*
X9395149Y33335683D01*
X9144000Y33355449D01*
X8892850Y33335683D01*
X8647889Y33276874D01*
X8415139Y33180465D01*
X8200342Y33048837D01*
X8008776Y32885224D01*
X7845163Y32693658D01*
X7713535Y32478861D01*
X7617126Y32246111D01*
X7558317Y32001150D01*
X7538551Y31750000D01*
X7109499Y31750000D01*
X7109499Y32683103D01*
X7129185Y32750142D01*
X7164714Y32786275D01*
X7591184Y33070587D01*
X7671220Y33136767D01*
X7706752Y33172902D01*
X7771567Y33254027D01*
X7831338Y33384904D01*
X7851023Y33451943D01*
X7851024Y33451947D01*
X7871500Y33594363D01*
X7871500Y33904895D01*
X7891185Y33971933D01*
X7943989Y34017688D01*
X8013147Y34027632D01*
X8050564Y34015997D01*
X8401217Y33842184D01*
X8510441Y33802917D01*
X8532203Y33797820D01*
X8647479Y33784500D01*
X11628003Y33784500D01*
X11695042Y33764815D01*
X11740797Y33712011D01*
X11750741Y33642853D01*
X11741757Y33615691D01*
X11742657Y33615382D01*
X11661134Y33377916D01*
X11621500Y33140399D01*
X11621500Y32899602D01*
X11661134Y32662085D01*
X11729897Y32461787D01*
X11739321Y32434336D01*
X11853928Y32222561D01*
X12001829Y32032537D01*
X12178990Y31869449D01*
X12380578Y31737745D01*
X12601095Y31641017D01*
X12834524Y31581905D01*
X13014400Y31567000D01*
X13016970Y31567000D01*
X13227030Y31567000D01*
X13229600Y31567000D01*
X13409476Y31581905D01*
X13642905Y31641017D01*
X13863422Y31737745D01*
X13882180Y31750000D01*
X37877908Y31750000D01*
X37896213Y31587539D01*
X37950209Y31433228D01*
X37950211Y31433225D01*
X38037192Y31294796D01*
X38152796Y31179192D01*
X38291225Y31092211D01*
X38291227Y31092210D01*
X38445538Y31038214D01*
X38608000Y31019909D01*
X38770461Y31038214D01*
X38924775Y31092211D01*
X39063204Y31179192D01*
X39178808Y31294796D01*
X39265789Y31433225D01*
X39287755Y31496000D01*
X46438434Y31496000D01*
X46458631Y31316749D01*
X46458631Y31316747D01*
X46458632Y31316745D01*
X46518211Y31146478D01*
X46518212Y31146477D01*
X46614185Y30993736D01*
X46741735Y30866186D01*
X46741737Y30866185D01*
X46741738Y30866184D01*
X46894478Y30770211D01*
X47064745Y30710632D01*
X47244000Y30690435D01*
X47423255Y30710632D01*
X47593522Y30770211D01*
X47746262Y30866184D01*
X47873816Y30993738D01*
X47969789Y31146478D01*
X48029368Y31316745D01*
X48049565Y31496000D01*
X48029368Y31675255D01*
X47969789Y31845522D01*
X47873816Y31998262D01*
X47873815Y31998263D01*
X47873814Y31998265D01*
X47746264Y32125815D01*
X47683867Y32165022D01*
X47593522Y32221789D01*
X47423255Y32281368D01*
X47423253Y32281369D01*
X47423251Y32281369D01*
X47244000Y32301566D01*
X47064748Y32281369D01*
X47064745Y32281369D01*
X47064745Y32281368D01*
X46894478Y32221789D01*
X46894476Y32221789D01*
X46894476Y32221788D01*
X46741735Y32125815D01*
X46614185Y31998265D01*
X46533245Y31869449D01*
X46518211Y31845522D01*
X46480499Y31737746D01*
X46458631Y31675252D01*
X46438434Y31496000D01*
X39287755Y31496000D01*
X39319786Y31587539D01*
X39338091Y31750000D01*
X39319786Y31912461D01*
X39288752Y32001150D01*
X39265790Y32066773D01*
X39265789Y32066775D01*
X39178808Y32205204D01*
X39063204Y32320808D01*
X38924775Y32407789D01*
X38924772Y32407791D01*
X38770461Y32461787D01*
X38608000Y32480092D01*
X38445538Y32461787D01*
X38291227Y32407791D01*
X38152794Y32320807D01*
X38037193Y32205206D01*
X37950209Y32066773D01*
X37896213Y31912462D01*
X37877908Y31750000D01*
X13882180Y31750000D01*
X14065010Y31869449D01*
X14242171Y32032537D01*
X14390072Y32222561D01*
X14504679Y32434336D01*
X14582866Y32662087D01*
X14622500Y32899601D01*
X14622500Y33140399D01*
X14600206Y33274000D01*
X17736434Y33274000D01*
X17756631Y33094749D01*
X17756631Y33094747D01*
X17756632Y33094745D01*
X17816211Y32924478D01*
X17840876Y32885224D01*
X17912185Y32771736D01*
X18039735Y32644186D01*
X18039737Y32644185D01*
X18039738Y32644184D01*
X18192478Y32548211D01*
X18362745Y32488632D01*
X18542000Y32468435D01*
X18721255Y32488632D01*
X18891522Y32548211D01*
X19044262Y32644184D01*
X19171816Y32771738D01*
X19267789Y32924478D01*
X19327368Y33094745D01*
X19347565Y33274000D01*
X19347565Y33274001D01*
X21546434Y33274001D01*
X21566631Y33094749D01*
X21566631Y33094747D01*
X21566632Y33094745D01*
X21626211Y32924478D01*
X21650876Y32885224D01*
X21722185Y32771736D01*
X21849735Y32644186D01*
X21849737Y32644185D01*
X21849738Y32644184D01*
X22002478Y32548211D01*
X22172745Y32488632D01*
X22352000Y32468435D01*
X22531255Y32488632D01*
X22701522Y32548211D01*
X22854262Y32644184D01*
X22981816Y32771738D01*
X23077789Y32924478D01*
X23137368Y33094745D01*
X23157565Y33274000D01*
X27134434Y33274000D01*
X27154631Y33094749D01*
X27154631Y33094747D01*
X27154632Y33094745D01*
X27214211Y32924478D01*
X27238876Y32885224D01*
X27310185Y32771736D01*
X27437735Y32644186D01*
X27437737Y32644185D01*
X27437738Y32644184D01*
X27590478Y32548211D01*
X27760745Y32488632D01*
X27895186Y32473485D01*
X27939999Y32468435D01*
X27939999Y32468436D01*
X27940000Y32468435D01*
X28119255Y32488632D01*
X28289522Y32548211D01*
X28442262Y32644184D01*
X28569816Y32771738D01*
X28665789Y32924478D01*
X28725368Y33094745D01*
X28745565Y33274000D01*
X28741554Y33309601D01*
X28736626Y33353340D01*
X28748680Y33422162D01*
X28796029Y33473542D01*
X28863640Y33491166D01*
X28913865Y33478640D01*
X28911529Y33479698D01*
X28914416Y33478502D01*
X28914697Y33478432D01*
X28918923Y33476348D01*
X28975585Y33457114D01*
X28984134Y33453856D01*
X29042128Y33429264D01*
X29116578Y33408871D01*
X29118832Y33408253D01*
X29125916Y33406084D01*
X29198278Y33381519D01*
X29260232Y33369196D01*
X29268786Y33367176D01*
X29332729Y33349660D01*
X29408297Y33339498D01*
X29415934Y33338226D01*
X29487620Y33323966D01*
X29491660Y33323702D01*
X29491662Y33323701D01*
X29498676Y33323242D01*
X29553972Y33319618D01*
X29562339Y33318782D01*
X29631347Y33309500D01*
X29704273Y33309500D01*
X29712383Y33309234D01*
X29782000Y33304671D01*
X29854239Y33309406D01*
X29856143Y33309500D01*
X29857244Y33309500D01*
X29930842Y33314427D01*
X30076380Y33323966D01*
X30077453Y33324181D01*
X30077685Y33324203D01*
X30078487Y33324311D01*
X30082634Y33324588D01*
X30225658Y33353659D01*
X30365722Y33381519D01*
X30368833Y33382576D01*
X30373192Y33383602D01*
X30373828Y33383777D01*
X30377903Y33384604D01*
X30512821Y33431453D01*
X30531007Y33437627D01*
X30600806Y33440536D01*
X30661106Y33405242D01*
X30692753Y33342950D01*
X30694076Y33306324D01*
X30690434Y33274001D01*
X30710631Y33094749D01*
X30710631Y33094747D01*
X30710632Y33094745D01*
X30770211Y32924478D01*
X30794876Y32885224D01*
X30866185Y32771736D01*
X30993735Y32644186D01*
X30993737Y32644185D01*
X30993738Y32644184D01*
X31146478Y32548211D01*
X31316745Y32488632D01*
X31496000Y32468435D01*
X31675255Y32488632D01*
X31845522Y32548211D01*
X31998262Y32644184D01*
X32125816Y32771738D01*
X32221789Y32924478D01*
X32281368Y33094745D01*
X32301565Y33274000D01*
X32297549Y33309639D01*
X32289857Y33377913D01*
X32281368Y33453255D01*
X32221789Y33623522D01*
X32125816Y33776262D01*
X32125815Y33776263D01*
X32125814Y33776265D01*
X31998264Y33903815D01*
X31845519Y33999791D01*
X31674948Y34059476D01*
X31618172Y34100197D01*
X31592425Y34165150D01*
X31605881Y34233712D01*
X31611378Y34243231D01*
X31641235Y34290001D01*
X39401908Y34290001D01*
X39420213Y34127539D01*
X39474209Y33973228D01*
X39490746Y33946910D01*
X39561192Y33834796D01*
X39676796Y33719192D01*
X39815225Y33632211D01*
X39815227Y33632210D01*
X39969538Y33578214D01*
X40132000Y33559909D01*
X40294461Y33578214D01*
X40448775Y33632211D01*
X40587204Y33719192D01*
X40702808Y33834796D01*
X40789789Y33973225D01*
X40843786Y34127539D01*
X40862091Y34290000D01*
X40857794Y34328142D01*
X40843786Y34452462D01*
X40789790Y34606773D01*
X40789789Y34606775D01*
X40702808Y34745204D01*
X40587204Y34860808D01*
X40448775Y34947789D01*
X40448772Y34947791D01*
X40294461Y35001787D01*
X40132000Y35020092D01*
X39969538Y35001787D01*
X39815227Y34947791D01*
X39676794Y34860807D01*
X39561193Y34745206D01*
X39474209Y34606773D01*
X39420213Y34452462D01*
X39401908Y34290001D01*
X31641235Y34290001D01*
X31665611Y34328185D01*
X31666972Y34330268D01*
X31735172Y34432335D01*
X31742588Y34447375D01*
X31749274Y34459241D01*
X31759993Y34476030D01*
X31811611Y34587267D01*
X31812806Y34589764D01*
X31865652Y34696923D01*
X31872109Y34715947D01*
X31877048Y34728278D01*
X31885078Y34745581D01*
X31885079Y34745586D01*
X31886823Y34749342D01*
X31922150Y34863227D01*
X31923150Y34866309D01*
X31960481Y34976278D01*
X31965047Y34999241D01*
X31968225Y35011762D01*
X31976093Y35037121D01*
X31995383Y35151484D01*
X31996023Y35154967D01*
X32018034Y35265620D01*
X32019781Y35292288D01*
X32021239Y35304771D01*
X32026209Y35334230D01*
X32029973Y35446827D01*
X32030169Y35450773D01*
X32032389Y35484631D01*
X32037329Y35560000D01*
X32035363Y35589978D01*
X32035167Y35602197D01*
X32036277Y35635369D01*
X32025336Y35744120D01*
X32024979Y35748416D01*
X32022802Y35781633D01*
X32020681Y35814000D01*
X45384551Y35814000D01*
X45404317Y35562851D01*
X45463126Y35317890D01*
X45483097Y35269677D01*
X45559534Y35085141D01*
X45691164Y34870341D01*
X45854776Y34678776D01*
X46046341Y34515164D01*
X46261141Y34383534D01*
X46493889Y34287127D01*
X46738852Y34228317D01*
X46990000Y34208551D01*
X47241148Y34228317D01*
X47486111Y34287127D01*
X47718859Y34383534D01*
X47933659Y34515164D01*
X48125224Y34678776D01*
X48288836Y34870341D01*
X48420466Y35085141D01*
X48516873Y35317889D01*
X48575683Y35562852D01*
X48595449Y35814000D01*
X48575683Y36065148D01*
X48516873Y36310111D01*
X48420466Y36542859D01*
X48288836Y36757659D01*
X48125224Y36949224D01*
X47933659Y37112836D01*
X47718859Y37244466D01*
X47602484Y37292670D01*
X47486110Y37340874D01*
X47241149Y37399683D01*
X46990000Y37419449D01*
X46738850Y37399683D01*
X46493889Y37340874D01*
X46261139Y37244465D01*
X46046342Y37112837D01*
X45854776Y36949224D01*
X45691163Y36757658D01*
X45565523Y36552632D01*
X45559534Y36542859D01*
X45555216Y36532435D01*
X45463126Y36310111D01*
X45404317Y36065150D01*
X45384551Y35814000D01*
X32020681Y35814000D01*
X32018034Y35854380D01*
X32011528Y35887088D01*
X32009770Y35898857D01*
X32006533Y35931033D01*
X32006118Y35935162D01*
X31981532Y36038325D01*
X31980556Y36042790D01*
X31960481Y36143722D01*
X31948695Y36178441D01*
X31945496Y36189543D01*
X31937229Y36224231D01*
X31936269Y36228261D01*
X31899351Y36324116D01*
X31897655Y36328800D01*
X31874245Y36397763D01*
X31865652Y36423077D01*
X31847973Y36458927D01*
X31843479Y36469184D01*
X31827977Y36509434D01*
X31809658Y36542861D01*
X31780198Y36596619D01*
X31777755Y36601312D01*
X31735172Y36687664D01*
X31732912Y36691047D01*
X31732911Y36691048D01*
X31711133Y36723640D01*
X31705491Y36732942D01*
X31704782Y36734235D01*
X31683175Y36773665D01*
X31626169Y36851034D01*
X31622897Y36855696D01*
X31606118Y36880808D01*
X31571273Y36932957D01*
X31540553Y36967987D01*
X31533954Y36976190D01*
X31506908Y37012897D01*
X31506905Y37012900D01*
X31504446Y37016238D01*
X31439934Y37082944D01*
X31435842Y37087387D01*
X31388165Y37141751D01*
X31376758Y37154758D01*
X31373717Y37157425D01*
X31373707Y37157435D01*
X31339237Y37187665D01*
X31331864Y37194687D01*
X31297861Y37229845D01*
X31294980Y37232824D01*
X31291730Y37235391D01*
X31291725Y37235395D01*
X31224768Y37288270D01*
X31219858Y37292357D01*
X31158015Y37346592D01*
X31158007Y37346598D01*
X31154957Y37349273D01*
X31151583Y37351527D01*
X31151572Y37351536D01*
X31110701Y37378846D01*
X31102745Y37384631D01*
X31061770Y37416988D01*
X31061766Y37416991D01*
X31058515Y37419558D01*
X31054945Y37421673D01*
X31054940Y37421676D01*
X30984387Y37463465D01*
X30978690Y37467052D01*
X30913042Y37510916D01*
X30913037Y37510919D01*
X30909665Y37513172D01*
X30906030Y37514965D01*
X30906026Y37514967D01*
X30858949Y37538184D01*
X30850615Y37542698D01*
X30799270Y37573109D01*
X30722997Y37605452D01*
X30716570Y37608397D01*
X30648720Y37641857D01*
X30648701Y37641865D01*
X30645077Y37643652D01*
X30641247Y37644953D01*
X30641245Y37644953D01*
X30588409Y37662889D01*
X30579863Y37666147D01*
X30525700Y37689114D01*
X30525684Y37689120D01*
X30521872Y37690736D01*
X30517874Y37691832D01*
X30517866Y37691834D01*
X30445154Y37711752D01*
X30438074Y37713921D01*
X30365722Y37738481D01*
X30361749Y37739272D01*
X30361739Y37739274D01*
X30303777Y37750803D01*
X30295210Y37752826D01*
X30235270Y37769245D01*
X30235264Y37769247D01*
X30231271Y37770340D01*
X30227170Y37770892D01*
X30227158Y37770894D01*
X30155717Y37780503D01*
X30148058Y37781778D01*
X30080361Y37795243D01*
X30080348Y37795245D01*
X30076380Y37796034D01*
X30072328Y37796300D01*
X30072325Y37796300D01*
X30010070Y37800381D01*
X30001655Y37801221D01*
X29936756Y37809949D01*
X29936744Y37809950D01*
X29932653Y37810500D01*
X29928512Y37810500D01*
X29859727Y37810500D01*
X29851617Y37810766D01*
X29786058Y37815063D01*
X29782000Y37815329D01*
X29709776Y37810596D01*
X29707855Y37810500D01*
X29706756Y37810500D01*
X29704696Y37810363D01*
X29704692Y37810362D01*
X29633157Y37805574D01*
X29490845Y37796246D01*
X29490827Y37796245D01*
X29487620Y37796034D01*
X29486533Y37795819D01*
X29486259Y37795791D01*
X29485504Y37795690D01*
X29481366Y37795412D01*
X29477301Y37794586D01*
X29477295Y37794585D01*
X29338341Y37766342D01*
X29202257Y37739273D01*
X29202249Y37739272D01*
X29198278Y37738481D01*
X29195169Y37737427D01*
X29190810Y37736400D01*
X29190160Y37736223D01*
X29186097Y37735396D01*
X29182182Y37734037D01*
X29182176Y37734035D01*
X29051178Y37688548D01*
X28922765Y37644957D01*
X28922754Y37644953D01*
X28918923Y37643652D01*
X28915284Y37641859D01*
X28911538Y37640306D01*
X28918357Y37643388D01*
X28908377Y37639225D01*
X28909192Y37639538D01*
X28905363Y37637915D01*
X28901463Y37636560D01*
X28897782Y37634701D01*
X28897775Y37634697D01*
X28776757Y37573544D01*
X28657967Y37514963D01*
X28657962Y37514961D01*
X28654336Y37513172D01*
X28650972Y37510926D01*
X28647446Y37508889D01*
X28647844Y37509137D01*
X28638491Y37503676D01*
X28636242Y37502540D01*
X28636223Y37502530D01*
X28632541Y37500668D01*
X28629133Y37498329D01*
X28629127Y37498325D01*
X28519943Y37423374D01*
X28412426Y37351535D01*
X28412410Y37351523D01*
X28409043Y37349273D01*
X28405996Y37346602D01*
X28405979Y37346588D01*
X28403914Y37344776D01*
X28392353Y37335789D01*
X28387554Y37332495D01*
X28387543Y37332487D01*
X28384131Y37330144D01*
X28381058Y37327366D01*
X28381052Y37327360D01*
X28285175Y37240644D01*
X28190286Y37157428D01*
X28190282Y37157425D01*
X28187242Y37154758D01*
X28184580Y37151724D01*
X28184567Y37151710D01*
X28180557Y37147137D01*
X28170520Y37136945D01*
X28163735Y37130809D01*
X28163720Y37130794D01*
X28160667Y37128032D01*
X28157998Y37124876D01*
X28157993Y37124870D01*
X28076556Y37028546D01*
X27995406Y36936013D01*
X27995398Y36936004D01*
X27992727Y36932957D01*
X27990471Y36929583D01*
X27990467Y36929576D01*
X27985247Y36921765D01*
X27976852Y36910618D01*
X27968813Y36901109D01*
X27968800Y36901093D01*
X27966135Y36897939D01*
X27963913Y36894459D01*
X27963909Y36894453D01*
X27898420Y36791868D01*
X27897005Y36789703D01*
X27831087Y36691047D01*
X27831078Y36691032D01*
X27828828Y36687664D01*
X27827034Y36684029D01*
X27827033Y36684025D01*
X27821412Y36672628D01*
X27814727Y36660766D01*
X27806236Y36647464D01*
X27806227Y36647450D01*
X27804007Y36643970D01*
X27802271Y36640231D01*
X27802267Y36640222D01*
X27752412Y36532788D01*
X27751146Y36530143D01*
X27718508Y36463958D01*
X27698348Y36423077D01*
X27697046Y36419245D01*
X27697045Y36419240D01*
X27691891Y36404057D01*
X27686954Y36391729D01*
X27678923Y36374423D01*
X27678918Y36374411D01*
X27677177Y36370658D01*
X27675949Y36366702D01*
X27675946Y36366692D01*
X27641852Y36256785D01*
X27640850Y36253700D01*
X27603519Y36143722D01*
X27602727Y36139746D01*
X27602723Y36139727D01*
X27598951Y36120764D01*
X27595769Y36108226D01*
X27587907Y36082879D01*
X27587219Y36078806D01*
X27587214Y36078781D01*
X27568622Y35968566D01*
X27567968Y35965004D01*
X27546758Y35858364D01*
X27545966Y35854380D01*
X27545701Y35850338D01*
X27545700Y35850328D01*
X27544218Y35827726D01*
X27542758Y35815223D01*
X27542552Y35814000D01*
X27537791Y35785770D01*
X27537652Y35781643D01*
X27537652Y35781633D01*
X27534027Y35673221D01*
X27533831Y35669257D01*
X27531339Y35631226D01*
X27526671Y35560000D01*
X27526936Y35555957D01*
X27528635Y35530032D01*
X27528831Y35517781D01*
X27527861Y35488779D01*
X27527861Y35488770D01*
X27527723Y35484631D01*
X27528137Y35480510D01*
X27528138Y35480498D01*
X27538664Y35375864D01*
X27539021Y35371564D01*
X27543806Y35298568D01*
X27545966Y35265620D01*
X27546757Y35261643D01*
X27546759Y35261628D01*
X27552469Y35232917D01*
X27554228Y35221148D01*
X27557466Y35188967D01*
X27557467Y35188960D01*
X27557882Y35184838D01*
X27558843Y35180803D01*
X27558845Y35180795D01*
X27582457Y35081712D01*
X27583452Y35077159D01*
X27592201Y35033177D01*
X27603519Y34976278D01*
X27604822Y34972437D01*
X27604826Y34972425D01*
X27615300Y34941567D01*
X27618501Y34930462D01*
X27626769Y34895771D01*
X27626773Y34895757D01*
X27627731Y34891739D01*
X27629214Y34887888D01*
X27629217Y34887879D01*
X27664644Y34795895D01*
X27666348Y34791189D01*
X27691894Y34715933D01*
X27698348Y34696923D01*
X27700141Y34693287D01*
X27700142Y34693285D01*
X27716022Y34661084D01*
X27720523Y34650809D01*
X27730523Y34624847D01*
X27736023Y34610566D01*
X27738102Y34606773D01*
X27783787Y34523406D01*
X27786249Y34518675D01*
X27828828Y34432335D01*
X27831081Y34428963D01*
X27831084Y34428958D01*
X27852868Y34396356D01*
X27858507Y34387059D01*
X27880825Y34346335D01*
X27883284Y34342998D01*
X27883287Y34342993D01*
X27937826Y34268972D01*
X27941098Y34264311D01*
X27942689Y34261930D01*
X27963568Y34195253D01*
X27945085Y34127872D01*
X27893107Y34081181D01*
X27853473Y34069817D01*
X27760748Y34059369D01*
X27760745Y34059369D01*
X27760745Y34059368D01*
X27590478Y33999789D01*
X27590476Y33999789D01*
X27590476Y33999788D01*
X27437735Y33903815D01*
X27310185Y33776265D01*
X27219670Y33632210D01*
X27214211Y33623522D01*
X27163340Y33478140D01*
X27154631Y33453252D01*
X27134434Y33274000D01*
X23157565Y33274000D01*
X23137368Y33453255D01*
X23077789Y33623522D01*
X22981816Y33776262D01*
X22981815Y33776263D01*
X22981814Y33776265D01*
X22854264Y33903815D01*
X22757662Y33964514D01*
X22701522Y33999789D01*
X22531255Y34059368D01*
X22531253Y34059369D01*
X22531251Y34059369D01*
X22352000Y34079566D01*
X22172748Y34059369D01*
X22172745Y34059369D01*
X22172745Y34059368D01*
X22002478Y33999789D01*
X22002476Y33999789D01*
X22002476Y33999788D01*
X21849735Y33903815D01*
X21722185Y33776265D01*
X21631670Y33632210D01*
X21626211Y33623522D01*
X21575340Y33478140D01*
X21566631Y33453252D01*
X21546434Y33274001D01*
X19347565Y33274001D01*
X19327368Y33453255D01*
X19267789Y33623522D01*
X19171816Y33776262D01*
X19171815Y33776263D01*
X19171814Y33776265D01*
X19044264Y33903815D01*
X18947662Y33964514D01*
X18891522Y33999789D01*
X18721255Y34059368D01*
X18721253Y34059369D01*
X18721251Y34059369D01*
X18542000Y34079566D01*
X18362748Y34059369D01*
X18362745Y34059369D01*
X18362745Y34059368D01*
X18192478Y33999789D01*
X18192476Y33999789D01*
X18192476Y33999788D01*
X18039735Y33903815D01*
X17912185Y33776265D01*
X17821670Y33632210D01*
X17816211Y33623522D01*
X17765340Y33478140D01*
X17756631Y33453252D01*
X17736434Y33274000D01*
X14600206Y33274000D01*
X14582866Y33377913D01*
X14504679Y33605664D01*
X14390072Y33817439D01*
X14379533Y33830980D01*
X14353891Y33895974D01*
X14367458Y33964514D01*
X14389703Y33994819D01*
X14821091Y34426207D01*
X14857249Y34466460D01*
X14928893Y34587207D01*
X14930669Y34590200D01*
X14944378Y34623297D01*
X14944378Y34623299D01*
X14945020Y34624847D01*
X14963024Y34675881D01*
X14983500Y34818297D01*
X14983500Y36301704D01*
X14980603Y36355744D01*
X14945020Y36495154D01*
X14930668Y36529802D01*
X14907315Y36578612D01*
X14821090Y36693794D01*
X14634076Y36880808D01*
X14600591Y36942131D01*
X14605575Y37011823D01*
X14607222Y37016238D01*
X14616091Y37040017D01*
X14622500Y37099627D01*
X14622500Y37338000D01*
X17736434Y37338000D01*
X17756631Y37158749D01*
X17756631Y37158747D01*
X17756632Y37158745D01*
X17816211Y36988478D01*
X17851097Y36932957D01*
X17912185Y36835736D01*
X18039735Y36708186D01*
X18039737Y36708185D01*
X18039738Y36708184D01*
X18192478Y36612211D01*
X18362745Y36552632D01*
X18542000Y36532435D01*
X18721255Y36552632D01*
X18891522Y36612211D01*
X19044262Y36708184D01*
X19171816Y36835738D01*
X19267789Y36988478D01*
X19327368Y37158745D01*
X19347565Y37338000D01*
X19327368Y37517255D01*
X19267789Y37687522D01*
X19171816Y37840262D01*
X19171815Y37840263D01*
X19171814Y37840265D01*
X19044264Y37967815D01*
X18981867Y38007021D01*
X18891522Y38063789D01*
X18721255Y38123368D01*
X18721253Y38123369D01*
X18721251Y38123369D01*
X18541999Y38143566D01*
X18362748Y38123369D01*
X18362745Y38123369D01*
X18362745Y38123368D01*
X18192478Y38063789D01*
X18192476Y38063789D01*
X18192476Y38063788D01*
X18039735Y37967815D01*
X17912185Y37840265D01*
X17816212Y37687524D01*
X17816211Y37687522D01*
X17776176Y37573109D01*
X17756631Y37517252D01*
X17736434Y37338000D01*
X14622500Y37338000D01*
X14622499Y39100372D01*
X14620819Y39116000D01*
X21546434Y39116000D01*
X21566631Y38936749D01*
X21566631Y38936747D01*
X21566632Y38936745D01*
X21626211Y38766478D01*
X21626212Y38766477D01*
X21722185Y38613736D01*
X21849735Y38486186D01*
X21849737Y38486185D01*
X21849738Y38486184D01*
X22002478Y38390211D01*
X22172745Y38330632D01*
X22352000Y38310435D01*
X22531255Y38330632D01*
X22701522Y38390211D01*
X22854262Y38486184D01*
X22981816Y38613738D01*
X23077789Y38766478D01*
X23137368Y38936745D01*
X23157565Y39116000D01*
X25356434Y39116000D01*
X25376631Y38936749D01*
X25376631Y38936747D01*
X25376632Y38936745D01*
X25436211Y38766478D01*
X25436212Y38766477D01*
X25532185Y38613736D01*
X25659735Y38486186D01*
X25659737Y38486185D01*
X25659738Y38486184D01*
X25812478Y38390211D01*
X25982745Y38330632D01*
X26162000Y38310435D01*
X26341255Y38330632D01*
X26511522Y38390211D01*
X26664262Y38486184D01*
X26791816Y38613738D01*
X26887789Y38766478D01*
X26947368Y38936745D01*
X26967565Y39116000D01*
X26947368Y39295255D01*
X26887789Y39465522D01*
X26791816Y39618262D01*
X26791815Y39618263D01*
X26791814Y39618265D01*
X26664264Y39745815D01*
X26601867Y39785021D01*
X26511522Y39841789D01*
X26341255Y39901368D01*
X26341253Y39901369D01*
X26341251Y39901369D01*
X26162000Y39921566D01*
X25982748Y39901369D01*
X25982745Y39901369D01*
X25982745Y39901368D01*
X25812478Y39841789D01*
X25812476Y39841789D01*
X25812476Y39841788D01*
X25659735Y39745815D01*
X25532185Y39618265D01*
X25436212Y39465524D01*
X25376631Y39295252D01*
X25356434Y39116000D01*
X23157565Y39116000D01*
X23137368Y39295255D01*
X23077789Y39465522D01*
X22981816Y39618262D01*
X22981815Y39618263D01*
X22981814Y39618265D01*
X22854264Y39745815D01*
X22791867Y39785021D01*
X22701522Y39841789D01*
X22531255Y39901368D01*
X22531253Y39901369D01*
X22531251Y39901369D01*
X22352000Y39921566D01*
X22172748Y39901369D01*
X22172745Y39901369D01*
X22172745Y39901368D01*
X22002478Y39841789D01*
X22002476Y39841789D01*
X22002476Y39841788D01*
X21849735Y39745815D01*
X21722185Y39618265D01*
X21626212Y39465524D01*
X21566631Y39295252D01*
X21546434Y39116000D01*
X14620819Y39116000D01*
X14616091Y39159983D01*
X14565796Y39294831D01*
X14479546Y39410046D01*
X14364331Y39496296D01*
X14229483Y39546591D01*
X14169873Y39553000D01*
X14166550Y39553000D01*
X12077439Y39553000D01*
X12077420Y39553000D01*
X12074128Y39552999D01*
X12070848Y39552647D01*
X12070840Y39552646D01*
X12014515Y39546591D01*
X11879669Y39496296D01*
X11764454Y39410046D01*
X11678204Y39294832D01*
X11627910Y39159985D01*
X11627909Y39159983D01*
X11621500Y39100373D01*
X11621500Y38219115D01*
X11621501Y37459500D01*
X11601816Y37392461D01*
X11549013Y37346706D01*
X11497501Y37335500D01*
X11090193Y37335500D01*
X11023154Y37355185D01*
X10977399Y37407989D01*
X10967455Y37477147D01*
X10996479Y37540702D01*
X11073567Y37629664D01*
X11133338Y37760541D01*
X11153023Y37827580D01*
X11153024Y37827584D01*
X11173500Y37970000D01*
X11173500Y40770000D01*
X11161947Y40877456D01*
X11150741Y40928967D01*
X11145666Y40944214D01*
X11116614Y41031504D01*
X11038826Y41152542D01*
X11011384Y41184211D01*
X10993070Y41205347D01*
X10884336Y41299567D01*
X10884335Y41299568D01*
X10753460Y41359338D01*
X10688113Y41378526D01*
X10688111Y41378527D01*
X10686420Y41379023D01*
X10686416Y41379024D01*
X10683290Y41379474D01*
X10683277Y41379476D01*
X10544000Y41399500D01*
X5340747Y41399500D01*
X5273708Y41419185D01*
X5253066Y41435819D01*
X5110103Y41578782D01*
X5076618Y41640105D01*
X5073797Y41664692D01*
X5070293Y41910000D01*
X15958434Y41910000D01*
X15978631Y41730749D01*
X15978631Y41730747D01*
X15978632Y41730745D01*
X16038211Y41560478D01*
X16054733Y41534184D01*
X16134185Y41407736D01*
X16261735Y41280186D01*
X16261737Y41280185D01*
X16261738Y41280184D01*
X16414478Y41184211D01*
X16584745Y41124632D01*
X16719186Y41109485D01*
X16763999Y41104435D01*
X16763999Y41104436D01*
X16764000Y41104435D01*
X16943255Y41124632D01*
X17113522Y41184211D01*
X17266262Y41280184D01*
X17393816Y41407738D01*
X17489789Y41560478D01*
X17523214Y41656001D01*
X18319908Y41656001D01*
X18338213Y41493539D01*
X18392209Y41339228D01*
X18392211Y41339225D01*
X18479192Y41200796D01*
X18594796Y41085192D01*
X18680240Y41031504D01*
X18733227Y40998210D01*
X18887538Y40944214D01*
X19050000Y40925909D01*
X19212461Y40944214D01*
X19366775Y40998211D01*
X19505204Y41085192D01*
X19568012Y41148000D01*
X45930434Y41148000D01*
X45950631Y40968749D01*
X45950631Y40968747D01*
X45950632Y40968745D01*
X46010211Y40798478D01*
X46010212Y40798477D01*
X46106185Y40645736D01*
X46233735Y40518186D01*
X46233737Y40518185D01*
X46233738Y40518184D01*
X46386478Y40422211D01*
X46556745Y40362632D01*
X46736000Y40342435D01*
X46915255Y40362632D01*
X47085522Y40422211D01*
X47238262Y40518184D01*
X47365816Y40645738D01*
X47461789Y40798478D01*
X47521368Y40968745D01*
X47541565Y41148000D01*
X47521368Y41327255D01*
X47461789Y41497522D01*
X47365816Y41650262D01*
X47365815Y41650263D01*
X47365814Y41650265D01*
X47238264Y41777815D01*
X47173574Y41818462D01*
X47085522Y41873789D01*
X46915255Y41933368D01*
X46915253Y41933369D01*
X46915251Y41933369D01*
X46736000Y41953566D01*
X46556748Y41933369D01*
X46556745Y41933369D01*
X46556745Y41933368D01*
X46386478Y41873789D01*
X46386476Y41873789D01*
X46386476Y41873788D01*
X46233735Y41777815D01*
X46106185Y41650265D01*
X46033247Y41534184D01*
X46010211Y41497522D01*
X45950632Y41327255D01*
X45950631Y41327252D01*
X45930434Y41148000D01*
X19568012Y41148000D01*
X19620808Y41200796D01*
X19707789Y41339225D01*
X19761786Y41493539D01*
X19780091Y41656000D01*
X19761786Y41818461D01*
X19742426Y41873788D01*
X19707790Y41972773D01*
X19707789Y41972775D01*
X19620808Y42111204D01*
X19568011Y42164001D01*
X36532434Y42164001D01*
X36552631Y41984749D01*
X36552631Y41984747D01*
X36552632Y41984745D01*
X36612211Y41814478D01*
X36635248Y41777815D01*
X36708185Y41661736D01*
X36835735Y41534186D01*
X36835737Y41534185D01*
X36835738Y41534184D01*
X36988478Y41438211D01*
X37158745Y41378632D01*
X37338000Y41358435D01*
X37517255Y41378632D01*
X37687522Y41438211D01*
X37840262Y41534184D01*
X37967816Y41661738D01*
X38063789Y41814478D01*
X38123368Y41984745D01*
X38143565Y42164000D01*
X38123368Y42343255D01*
X38063789Y42513522D01*
X37967816Y42666262D01*
X37967815Y42666263D01*
X37967814Y42666265D01*
X37840264Y42793815D01*
X37777867Y42833021D01*
X37687522Y42889789D01*
X37517255Y42949368D01*
X37517253Y42949369D01*
X37517251Y42949369D01*
X37338000Y42969566D01*
X37158748Y42949369D01*
X37158745Y42949369D01*
X37158745Y42949368D01*
X36988478Y42889789D01*
X36988476Y42889789D01*
X36988476Y42889788D01*
X36835735Y42793815D01*
X36708185Y42666265D01*
X36612212Y42513524D01*
X36552631Y42343252D01*
X36532434Y42164001D01*
X19568011Y42164001D01*
X19505204Y42226808D01*
X19366775Y42313789D01*
X19366772Y42313791D01*
X19212461Y42367787D01*
X19050000Y42386092D01*
X18887538Y42367787D01*
X18733227Y42313791D01*
X18594794Y42226807D01*
X18479193Y42111206D01*
X18392209Y41972773D01*
X18338213Y41818462D01*
X18319908Y41656001D01*
X17523214Y41656001D01*
X17549368Y41730745D01*
X17569565Y41910000D01*
X17549368Y42089255D01*
X17489789Y42259522D01*
X17393816Y42412262D01*
X17393815Y42412263D01*
X17393814Y42412265D01*
X17266264Y42539815D01*
X17200696Y42581014D01*
X17113522Y42635789D01*
X16943255Y42695368D01*
X16943253Y42695369D01*
X16943251Y42695369D01*
X16764000Y42715566D01*
X16584748Y42695369D01*
X16584745Y42695369D01*
X16584745Y42695368D01*
X16414478Y42635789D01*
X16414476Y42635789D01*
X16414476Y42635788D01*
X16261735Y42539815D01*
X16134185Y42412265D01*
X16072309Y42313789D01*
X16038211Y42259522D01*
X15986313Y42111206D01*
X15978631Y42089252D01*
X15958434Y41910000D01*
X5070293Y41910000D01*
X5061671Y42513524D01*
X5047541Y43502604D01*
X5388746Y43502604D01*
X5398746Y43292670D01*
X5448297Y43088420D01*
X5535602Y42897248D01*
X5609257Y42793815D01*
X5657514Y42726048D01*
X5809622Y42581014D01*
X5873727Y42539816D01*
X5986425Y42467388D01*
X6025580Y42451713D01*
X6181543Y42389275D01*
X6310233Y42364472D01*
X6387914Y42349500D01*
X6387915Y42349500D01*
X7092471Y42349500D01*
X7095425Y42349500D01*
X7098376Y42349782D01*
X7098380Y42349782D01*
X7155644Y42355251D01*
X7252218Y42364472D01*
X7453875Y42423684D01*
X7640682Y42519989D01*
X7805886Y42649908D01*
X7943519Y42808744D01*
X8048604Y42990756D01*
X8117344Y43189367D01*
X8147254Y43397398D01*
X8137254Y43607330D01*
X8087704Y43811576D01*
X8087702Y43811581D01*
X8000397Y44002753D01*
X7894532Y44151418D01*
X7878486Y44173952D01*
X7786309Y44261843D01*
X7775917Y44271751D01*
X7740982Y44332260D01*
X7744307Y44402050D01*
X7778451Y44450000D01*
X17786750Y44450000D01*
X17805686Y44281944D01*
X17805686Y44281942D01*
X17805687Y44281941D01*
X17861544Y44122310D01*
X17951523Y43979110D01*
X18071110Y43859523D01*
X18214310Y43769544D01*
X18373941Y43713687D01*
X18542000Y43694751D01*
X18710059Y43713687D01*
X18869690Y43769544D01*
X19012890Y43859523D01*
X19132477Y43979110D01*
X19222456Y44122310D01*
X19278313Y44281941D01*
X19297249Y44450000D01*
X19297249Y44450001D01*
X20326750Y44450001D01*
X20345686Y44281944D01*
X20345686Y44281942D01*
X20345687Y44281941D01*
X20401544Y44122310D01*
X20491523Y43979110D01*
X20611110Y43859523D01*
X20754310Y43769544D01*
X20913941Y43713687D01*
X21025980Y43701064D01*
X21081999Y43694751D01*
X21081999Y43694752D01*
X21082000Y43694751D01*
X21250059Y43713687D01*
X21409690Y43769544D01*
X21552890Y43859523D01*
X21672477Y43979110D01*
X21762456Y44122310D01*
X21818313Y44281941D01*
X21837249Y44450000D01*
X21818313Y44618059D01*
X21762456Y44777690D01*
X21672477Y44920890D01*
X21552890Y45040477D01*
X21409690Y45130456D01*
X21250059Y45186313D01*
X21250058Y45186314D01*
X21250056Y45186314D01*
X21082000Y45205250D01*
X20913943Y45186314D01*
X20754310Y45130456D01*
X20611108Y45040476D01*
X20491524Y44920892D01*
X20401544Y44777690D01*
X20345686Y44618057D01*
X20326750Y44450001D01*
X19297249Y44450001D01*
X19278313Y44618059D01*
X19222456Y44777690D01*
X19132477Y44920890D01*
X19012890Y45040477D01*
X18869690Y45130456D01*
X18710059Y45186313D01*
X18710058Y45186314D01*
X18710056Y45186314D01*
X18542000Y45205250D01*
X18373943Y45186314D01*
X18214310Y45130456D01*
X18071108Y45040476D01*
X17951524Y44920892D01*
X17861544Y44777690D01*
X17805686Y44618057D01*
X17786750Y44450000D01*
X7778451Y44450000D01*
X7784835Y44458965D01*
X7796392Y44467033D01*
X7861656Y44507288D01*
X7985711Y44631343D01*
X8003655Y44660435D01*
X8077814Y44780666D01*
X8132999Y44947203D01*
X8143500Y45049991D01*
X8143499Y45466001D01*
X10624434Y45466001D01*
X10644631Y45286749D01*
X10644631Y45286747D01*
X10644632Y45286745D01*
X10704211Y45116478D01*
X10720733Y45090184D01*
X10800185Y44963736D01*
X10927735Y44836186D01*
X10927737Y44836185D01*
X10927738Y44836184D01*
X11080478Y44740211D01*
X11250745Y44680632D01*
X11430000Y44660435D01*
X11609255Y44680632D01*
X11779522Y44740211D01*
X11932262Y44836184D01*
X12059816Y44963738D01*
X12155789Y45116478D01*
X12215368Y45286745D01*
X12235565Y45466000D01*
X12215368Y45645255D01*
X12189213Y45720001D01*
X23324434Y45720001D01*
X23344631Y45540749D01*
X23344631Y45540747D01*
X23344632Y45540745D01*
X23404211Y45370478D01*
X23404212Y45370477D01*
X23500185Y45217736D01*
X23627735Y45090186D01*
X23627737Y45090185D01*
X23627738Y45090184D01*
X23780478Y44994211D01*
X23950745Y44934632D01*
X24130000Y44914435D01*
X24309255Y44934632D01*
X24479522Y44994211D01*
X24632262Y45090184D01*
X24759816Y45217738D01*
X24855789Y45370478D01*
X24915368Y45540745D01*
X24935565Y45720000D01*
X24935565Y45720001D01*
X28658434Y45720001D01*
X28678631Y45540749D01*
X28678631Y45540747D01*
X28678632Y45540745D01*
X28738211Y45370478D01*
X28738212Y45370477D01*
X28834185Y45217736D01*
X28961735Y45090186D01*
X28961737Y45090185D01*
X28961738Y45090184D01*
X29114478Y44994211D01*
X29284745Y44934632D01*
X29464000Y44914435D01*
X29643255Y44934632D01*
X29813522Y44994211D01*
X29966262Y45090184D01*
X30093816Y45217738D01*
X30189789Y45370478D01*
X30249368Y45540745D01*
X30269565Y45720000D01*
X30260551Y45800000D01*
X31879418Y45800000D01*
X31899715Y45542104D01*
X31960104Y45290560D01*
X32022533Y45139845D01*
X32059103Y45051559D01*
X32065894Y45040477D01*
X32194270Y44830986D01*
X32362275Y44634276D01*
X32558985Y44466271D01*
X32558987Y44466270D01*
X32558988Y44466269D01*
X32779559Y44331103D01*
X32922847Y44271751D01*
X33018559Y44232105D01*
X33098027Y44213027D01*
X33270105Y44171715D01*
X33528000Y44151418D01*
X33785895Y44171715D01*
X34037440Y44232105D01*
X34276441Y44331103D01*
X34497012Y44466269D01*
X34693724Y44634276D01*
X34861731Y44830988D01*
X34996897Y45051559D01*
X35095895Y45290560D01*
X35156285Y45542105D01*
X35176582Y45800000D01*
X35156285Y46057895D01*
X35109837Y46251368D01*
X35095895Y46309441D01*
X35039417Y46445789D01*
X34996897Y46548441D01*
X34861731Y46769012D01*
X34861730Y46769013D01*
X34861729Y46769015D01*
X34693724Y46965725D01*
X34497014Y47133730D01*
X34415811Y47183492D01*
X34276441Y47268897D01*
X34188155Y47305467D01*
X34037440Y47367896D01*
X33785896Y47428285D01*
X33528000Y47448582D01*
X33270103Y47428285D01*
X33018559Y47367896D01*
X32779557Y47268896D01*
X32558985Y47133730D01*
X32362275Y46965725D01*
X32194270Y46769015D01*
X32059104Y46548443D01*
X31960104Y46309441D01*
X31899715Y46057897D01*
X31879418Y45800000D01*
X30260551Y45800000D01*
X30249368Y45899255D01*
X30189789Y46069522D01*
X30093816Y46222262D01*
X30093815Y46222263D01*
X30093814Y46222265D01*
X29966264Y46349815D01*
X29897993Y46392712D01*
X29813522Y46445789D01*
X29643255Y46505368D01*
X29643253Y46505369D01*
X29643251Y46505369D01*
X29464000Y46525566D01*
X29284748Y46505369D01*
X29284745Y46505369D01*
X29284745Y46505368D01*
X29114478Y46445789D01*
X29114476Y46445789D01*
X29114476Y46445788D01*
X28961735Y46349815D01*
X28834185Y46222265D01*
X28754732Y46095815D01*
X28738211Y46069522D01*
X28702780Y45968265D01*
X28678631Y45899252D01*
X28658434Y45720001D01*
X24935565Y45720001D01*
X24915368Y45899255D01*
X24855789Y46069522D01*
X24759816Y46222262D01*
X24759815Y46222263D01*
X24759814Y46222265D01*
X24632264Y46349815D01*
X24563993Y46392712D01*
X24479522Y46445789D01*
X24309255Y46505368D01*
X24309253Y46505369D01*
X24309251Y46505369D01*
X24130000Y46525566D01*
X23950748Y46505369D01*
X23950745Y46505369D01*
X23950745Y46505368D01*
X23780478Y46445789D01*
X23780476Y46445789D01*
X23780476Y46445788D01*
X23627735Y46349815D01*
X23500185Y46222265D01*
X23420732Y46095815D01*
X23404211Y46069522D01*
X23368780Y45968265D01*
X23344631Y45899252D01*
X23324434Y45720001D01*
X12189213Y45720001D01*
X12155789Y45815522D01*
X12059816Y45968262D01*
X12059815Y45968263D01*
X12059814Y45968265D01*
X11932264Y46095815D01*
X11839168Y46154311D01*
X11779522Y46191789D01*
X11609255Y46251368D01*
X11609253Y46251369D01*
X11609251Y46251369D01*
X11430000Y46271566D01*
X11250748Y46251369D01*
X11250745Y46251369D01*
X11250745Y46251368D01*
X11080478Y46191789D01*
X11080476Y46191789D01*
X11080476Y46191788D01*
X10927735Y46095815D01*
X10800185Y45968265D01*
X10723901Y45846859D01*
X10704211Y45815522D01*
X10644632Y45645255D01*
X10644631Y45645252D01*
X10624434Y45466001D01*
X8143499Y45466001D01*
X8143499Y45850008D01*
X8132999Y45952797D01*
X8077814Y46119334D01*
X7985712Y46268656D01*
X7985711Y46268658D01*
X7861657Y46392712D01*
X7716896Y46482000D01*
X17786750Y46482000D01*
X17805686Y46313944D01*
X17805686Y46313942D01*
X17805687Y46313941D01*
X17861544Y46154310D01*
X17951523Y46011110D01*
X18071110Y45891523D01*
X18214310Y45801544D01*
X18373941Y45745687D01*
X18542000Y45726751D01*
X18710059Y45745687D01*
X18869690Y45801544D01*
X19012890Y45891523D01*
X19132477Y46011110D01*
X19222456Y46154310D01*
X19278313Y46313941D01*
X19297249Y46482000D01*
X20326750Y46482000D01*
X20345686Y46313944D01*
X20345686Y46313942D01*
X20345687Y46313941D01*
X20401544Y46154310D01*
X20491523Y46011110D01*
X20611110Y45891523D01*
X20754310Y45801544D01*
X20913941Y45745687D01*
X21025980Y45733064D01*
X21081999Y45726751D01*
X21081999Y45726752D01*
X21082000Y45726751D01*
X21250059Y45745687D01*
X21409690Y45801544D01*
X21552890Y45891523D01*
X21672477Y46011110D01*
X21762456Y46154310D01*
X21818313Y46313941D01*
X21837249Y46482000D01*
X21818313Y46650059D01*
X21762456Y46809690D01*
X21672477Y46952890D01*
X21552890Y47072477D01*
X21409690Y47162456D01*
X21250059Y47218313D01*
X21250058Y47218314D01*
X21250056Y47218314D01*
X21082000Y47237250D01*
X20913943Y47218314D01*
X20754310Y47162456D01*
X20611108Y47072476D01*
X20491524Y46952892D01*
X20401544Y46809690D01*
X20345686Y46650057D01*
X20326750Y46482000D01*
X19297249Y46482000D01*
X19278313Y46650059D01*
X19222456Y46809690D01*
X19132477Y46952890D01*
X19012890Y47072477D01*
X18869690Y47162456D01*
X18710059Y47218313D01*
X18710058Y47218314D01*
X18710056Y47218314D01*
X18542000Y47237250D01*
X18373943Y47218314D01*
X18214310Y47162456D01*
X18071108Y47072476D01*
X17951524Y46952892D01*
X17861544Y46809690D01*
X17805686Y46650057D01*
X17786750Y46482000D01*
X7716896Y46482000D01*
X7712334Y46484814D01*
X7545797Y46540000D01*
X7446141Y46550181D01*
X7446122Y46550182D01*
X7443009Y46550500D01*
X7439860Y46550500D01*
X6096140Y46550500D01*
X6096120Y46550500D01*
X6092992Y46550499D01*
X6089860Y46550180D01*
X6089858Y46550179D01*
X5990203Y46540000D01*
X5823665Y46484814D01*
X5674342Y46392712D01*
X5550288Y46268658D01*
X5458186Y46119335D01*
X5403000Y45952798D01*
X5392819Y45853142D01*
X5392817Y45853122D01*
X5392500Y45850009D01*
X5392500Y45846862D01*
X5392500Y45846861D01*
X5392500Y45053142D01*
X5392500Y45053123D01*
X5392501Y45049992D01*
X5392820Y45046860D01*
X5392821Y45046859D01*
X5403000Y44947204D01*
X5458186Y44780666D01*
X5550288Y44631343D01*
X5674342Y44507289D01*
X5737739Y44468186D01*
X5784464Y44416239D01*
X5795687Y44347276D01*
X5767844Y44283194D01*
X5749296Y44265178D01*
X5730117Y44250095D01*
X5592479Y44091255D01*
X5487396Y43909246D01*
X5418655Y43710634D01*
X5388746Y43502604D01*
X5047541Y43502604D01*
X4965063Y49276000D01*
X18752434Y49276000D01*
X18772631Y49096749D01*
X18772631Y49096747D01*
X18772632Y49096745D01*
X18832211Y48926478D01*
X18832212Y48926477D01*
X18928185Y48773736D01*
X19055735Y48646186D01*
X19055737Y48646185D01*
X19055738Y48646184D01*
X19208478Y48550211D01*
X19378745Y48490632D01*
X19558000Y48470435D01*
X19737255Y48490632D01*
X19907522Y48550211D01*
X20060262Y48646184D01*
X20187816Y48773738D01*
X20283789Y48926478D01*
X20343368Y49096745D01*
X20363565Y49276000D01*
X20343368Y49455255D01*
X20283789Y49625522D01*
X20187816Y49778262D01*
X20187815Y49778263D01*
X20187814Y49778265D01*
X20060264Y49905815D01*
X19997867Y49945021D01*
X19907522Y50001789D01*
X19737255Y50061368D01*
X19737253Y50061369D01*
X19737251Y50061369D01*
X19558000Y50081566D01*
X19378748Y50061369D01*
X19378745Y50061369D01*
X19378745Y50061368D01*
X19208478Y50001789D01*
X19208476Y50001789D01*
X19208476Y50001788D01*
X19055735Y49905815D01*
X18928185Y49778265D01*
X18832212Y49625524D01*
X18772631Y49455252D01*
X18752434Y49276000D01*
X4965063Y49276000D01*
X4921200Y52346419D01*
X4939925Y52413730D01*
X4992070Y52460234D01*
X5061079Y52471164D01*
X5097591Y52460569D01*
X5110412Y52454590D01*
X5124336Y52448097D01*
X5352592Y52386937D01*
X5587999Y52366341D01*
X5587999Y52366342D01*
X5588000Y52366341D01*
X5789462Y52383967D01*
X5857962Y52370201D01*
X5908145Y52321586D01*
X5924079Y52253557D01*
X5916277Y52220889D01*
X5916460Y52220842D01*
X5913938Y52210884D01*
X5913937Y52210881D01*
X5887431Y52106211D01*
X5852891Y51969817D01*
X5832356Y51722000D01*
X5852891Y51474184D01*
X5852891Y51474181D01*
X5852892Y51474179D01*
X5913937Y51233119D01*
X5958960Y51130477D01*
X6013825Y51005396D01*
X6013827Y51005393D01*
X6149836Y50797215D01*
X6318256Y50614262D01*
X6383667Y50563350D01*
X6514485Y50461530D01*
X6514487Y50461529D01*
X6514491Y50461526D01*
X6733190Y50343172D01*
X6968386Y50262429D01*
X7213665Y50221500D01*
X7462335Y50221500D01*
X7707614Y50262429D01*
X7942810Y50343172D01*
X8161509Y50461526D01*
X8357744Y50614262D01*
X8526164Y50797215D01*
X8527984Y50800001D01*
X31879418Y50800001D01*
X31899715Y50542104D01*
X31960104Y50290560D01*
X31990469Y50217255D01*
X32059103Y50051559D01*
X32059104Y50051558D01*
X32194270Y49830986D01*
X32362275Y49634276D01*
X32558985Y49466271D01*
X32558987Y49466270D01*
X32558988Y49466269D01*
X32779559Y49331103D01*
X32912589Y49276000D01*
X33018559Y49232105D01*
X33098027Y49213027D01*
X33270105Y49171715D01*
X33528000Y49151418D01*
X33785895Y49171715D01*
X34037440Y49232105D01*
X34276441Y49331103D01*
X34497012Y49466269D01*
X34693724Y49634276D01*
X34861731Y49830988D01*
X34988588Y50038000D01*
X42882434Y50038000D01*
X42902631Y49858749D01*
X42902631Y49858747D01*
X42902632Y49858745D01*
X42962211Y49688478D01*
X43001768Y49625524D01*
X43058185Y49535736D01*
X43185735Y49408186D01*
X43185737Y49408185D01*
X43185738Y49408184D01*
X43338478Y49312211D01*
X43508745Y49252632D01*
X43688000Y49232435D01*
X43867255Y49252632D01*
X44037522Y49312211D01*
X44190262Y49408184D01*
X44317816Y49535738D01*
X44413789Y49688478D01*
X44473368Y49858745D01*
X44493565Y50038000D01*
X44473368Y50217255D01*
X44413789Y50387522D01*
X44317816Y50540262D01*
X44317815Y50540263D01*
X44317814Y50540265D01*
X44190264Y50667815D01*
X44127867Y50707021D01*
X44037522Y50763789D01*
X43867255Y50823368D01*
X43867253Y50823369D01*
X43867251Y50823369D01*
X43688000Y50843566D01*
X43508748Y50823369D01*
X43508745Y50823369D01*
X43508745Y50823368D01*
X43338478Y50763789D01*
X43338476Y50763789D01*
X43338476Y50763788D01*
X43185735Y50667815D01*
X43058185Y50540265D01*
X42962212Y50387524D01*
X42962211Y50387522D01*
X42918439Y50262429D01*
X42902631Y50217252D01*
X42882434Y50038000D01*
X34988588Y50038000D01*
X34996897Y50051559D01*
X35095895Y50290560D01*
X35156285Y50542105D01*
X35176582Y50800000D01*
X35156285Y51057895D01*
X35095895Y51309440D01*
X34996897Y51548441D01*
X34861731Y51769012D01*
X34861730Y51769013D01*
X34861729Y51769015D01*
X34693724Y51965725D01*
X34497014Y52133730D01*
X34385307Y52202184D01*
X34276441Y52268897D01*
X34188155Y52305467D01*
X34037440Y52367896D01*
X33785896Y52428285D01*
X33528000Y52448582D01*
X33270103Y52428285D01*
X33018559Y52367896D01*
X32779557Y52268896D01*
X32558985Y52133730D01*
X32362275Y51965725D01*
X32194270Y51769015D01*
X32059104Y51548443D01*
X31960104Y51309441D01*
X31899715Y51057897D01*
X31879418Y50800001D01*
X8527984Y50800001D01*
X8662173Y51005393D01*
X8762063Y51233119D01*
X8823108Y51474179D01*
X8843643Y51722000D01*
X8823108Y51969821D01*
X8762063Y52210881D01*
X8662173Y52438607D01*
X8526164Y52646785D01*
X8357744Y52829738D01*
X8354838Y52832000D01*
X9608434Y52832000D01*
X9628631Y52652749D01*
X9628631Y52652747D01*
X9628632Y52652745D01*
X9688211Y52482478D01*
X9709814Y52448097D01*
X9784185Y52329736D01*
X9911735Y52202186D01*
X9911737Y52202185D01*
X9911738Y52202184D01*
X10064478Y52106211D01*
X10234745Y52046632D01*
X10414000Y52026435D01*
X10593255Y52046632D01*
X10763522Y52106211D01*
X10916262Y52202184D01*
X11043816Y52329738D01*
X11139789Y52482478D01*
X11199368Y52652745D01*
X11219565Y52832000D01*
X22308434Y52832000D01*
X22328631Y52652749D01*
X22328631Y52652747D01*
X22328632Y52652745D01*
X22388211Y52482478D01*
X22409814Y52448097D01*
X22484185Y52329736D01*
X22611735Y52202186D01*
X22611737Y52202185D01*
X22611738Y52202184D01*
X22764478Y52106211D01*
X22934745Y52046632D01*
X23114000Y52026435D01*
X23293255Y52046632D01*
X23463522Y52106211D01*
X23616262Y52202184D01*
X23743816Y52329738D01*
X23839789Y52482478D01*
X23899368Y52652745D01*
X23919565Y52832000D01*
X23899368Y53011255D01*
X23839789Y53181522D01*
X23743816Y53334262D01*
X23743815Y53334263D01*
X23743814Y53334265D01*
X23616264Y53461815D01*
X23553867Y53501021D01*
X23463522Y53557789D01*
X23293255Y53617368D01*
X23293253Y53617369D01*
X23293251Y53617369D01*
X23114000Y53637566D01*
X22934748Y53617369D01*
X22934745Y53617369D01*
X22934745Y53617368D01*
X22764478Y53557789D01*
X22764476Y53557789D01*
X22764476Y53557788D01*
X22611735Y53461815D01*
X22484185Y53334265D01*
X22388212Y53181524D01*
X22328631Y53011252D01*
X22308434Y52832000D01*
X11219565Y52832000D01*
X11199368Y53011255D01*
X11139789Y53181522D01*
X11043816Y53334262D01*
X11043815Y53334263D01*
X11043814Y53334265D01*
X10916264Y53461815D01*
X10853867Y53501021D01*
X10763522Y53557789D01*
X10593255Y53617368D01*
X10593253Y53617369D01*
X10593251Y53617369D01*
X10413999Y53637566D01*
X10234748Y53617369D01*
X10234745Y53617369D01*
X10234745Y53617368D01*
X10064478Y53557789D01*
X10064476Y53557789D01*
X10064476Y53557788D01*
X9911735Y53461815D01*
X9784185Y53334265D01*
X9688212Y53181524D01*
X9628631Y53011252D01*
X9608434Y52832000D01*
X8354838Y52832000D01*
X8335612Y52846964D01*
X8161514Y52982471D01*
X8161510Y52982474D01*
X8161509Y52982474D01*
X7942810Y53100828D01*
X7942806Y53100830D01*
X7942805Y53100830D01*
X7707615Y53181571D01*
X7462335Y53222500D01*
X7213665Y53222500D01*
X7025440Y53191092D01*
X6956075Y53199474D01*
X6902253Y53244027D01*
X6881063Y53310606D01*
X6885255Y53345491D01*
X6923063Y53486592D01*
X6943659Y53722000D01*
X6932635Y53848000D01*
X39072434Y53848000D01*
X39092631Y53668749D01*
X39092631Y53668747D01*
X39092632Y53668745D01*
X39152211Y53498478D01*
X39175248Y53461815D01*
X39248185Y53345736D01*
X39375735Y53218186D01*
X39375737Y53218185D01*
X39375738Y53218184D01*
X39528478Y53122211D01*
X39698745Y53062632D01*
X39878000Y53042435D01*
X40057255Y53062632D01*
X40227522Y53122211D01*
X40380262Y53218184D01*
X40507816Y53345738D01*
X40603789Y53498478D01*
X40663368Y53668745D01*
X40683565Y53848000D01*
X40663368Y54027255D01*
X40603789Y54197522D01*
X40507816Y54350262D01*
X40507815Y54350263D01*
X40507814Y54350265D01*
X40380264Y54477815D01*
X40317867Y54517022D01*
X40227522Y54573789D01*
X40057255Y54633368D01*
X40057253Y54633369D01*
X40057251Y54633369D01*
X39877999Y54653566D01*
X39698748Y54633369D01*
X39698745Y54633369D01*
X39698745Y54633368D01*
X39528478Y54573789D01*
X39528476Y54573789D01*
X39528476Y54573788D01*
X39375735Y54477815D01*
X39248185Y54350265D01*
X39152212Y54197524D01*
X39152211Y54197522D01*
X39092632Y54027255D01*
X39092631Y54027252D01*
X39072434Y53848000D01*
X6932635Y53848000D01*
X6923063Y53957408D01*
X6861903Y54185663D01*
X6762035Y54399829D01*
X6626495Y54593401D01*
X6459401Y54760495D01*
X6265830Y54896035D01*
X6051663Y54995903D01*
X5990501Y55012291D01*
X5823407Y55057064D01*
X5587999Y55077660D01*
X5352592Y55057064D01*
X5124338Y54995904D01*
X5058600Y54965250D01*
X4989522Y54954759D01*
X4925738Y54983280D01*
X4887499Y55041757D01*
X4882209Y55075859D01*
X4863675Y56373242D01*
X4882400Y56440555D01*
X4934545Y56487059D01*
X5003554Y56497989D01*
X5040058Y56487397D01*
X5124337Y56448097D01*
X5352592Y56386937D01*
X5588000Y56366341D01*
X5823408Y56386937D01*
X6051663Y56448097D01*
X6265830Y56547965D01*
X6400127Y56642001D01*
X21546434Y56642001D01*
X21566631Y56462749D01*
X21566631Y56462747D01*
X21566632Y56462745D01*
X21626211Y56292478D01*
X21626212Y56292477D01*
X21722185Y56139736D01*
X21849735Y56012186D01*
X21849737Y56012185D01*
X21849738Y56012184D01*
X22002478Y55916211D01*
X22172745Y55856632D01*
X22352000Y55836435D01*
X22531255Y55856632D01*
X22598040Y55880001D01*
X25864434Y55880001D01*
X25884631Y55700749D01*
X25884631Y55700747D01*
X25884632Y55700745D01*
X25944211Y55530478D01*
X25960733Y55504184D01*
X26040185Y55377736D01*
X26167735Y55250186D01*
X26167737Y55250185D01*
X26167738Y55250184D01*
X26320478Y55154211D01*
X26490745Y55094632D01*
X26625186Y55079485D01*
X26669999Y55074435D01*
X26669999Y55074436D01*
X26670000Y55074435D01*
X26849255Y55094632D01*
X27019522Y55154211D01*
X27172262Y55250184D01*
X27299816Y55377738D01*
X27395789Y55530478D01*
X27455368Y55700745D01*
X27475565Y55880000D01*
X27455368Y56059255D01*
X27429214Y56134000D01*
X28912434Y56134000D01*
X28932631Y55954749D01*
X28932631Y55954747D01*
X28932632Y55954745D01*
X28992211Y55784478D01*
X29008733Y55758184D01*
X29088185Y55631736D01*
X29215735Y55504186D01*
X29215737Y55504185D01*
X29215738Y55504184D01*
X29368478Y55408211D01*
X29538745Y55348632D01*
X29673186Y55333485D01*
X29717999Y55328435D01*
X29717999Y55328436D01*
X29718000Y55328435D01*
X29897255Y55348632D01*
X30067522Y55408211D01*
X30220262Y55504184D01*
X30347816Y55631738D01*
X30443789Y55784478D01*
X30477214Y55880001D01*
X36278434Y55880001D01*
X36298631Y55700749D01*
X36298631Y55700747D01*
X36298632Y55700745D01*
X36358211Y55530478D01*
X36374733Y55504184D01*
X36454185Y55377736D01*
X36581735Y55250186D01*
X36581737Y55250185D01*
X36581738Y55250184D01*
X36734478Y55154211D01*
X36904745Y55094632D01*
X37084000Y55074435D01*
X37263255Y55094632D01*
X37433522Y55154211D01*
X37586262Y55250184D01*
X37708078Y55372000D01*
X47454434Y55372000D01*
X47474631Y55192749D01*
X47474631Y55192747D01*
X47474632Y55192745D01*
X47534211Y55022478D01*
X47534212Y55022477D01*
X47630185Y54869736D01*
X47757735Y54742186D01*
X47757737Y54742185D01*
X47757738Y54742184D01*
X47910478Y54646211D01*
X48080745Y54586632D01*
X48260000Y54566435D01*
X48439255Y54586632D01*
X48609522Y54646211D01*
X48762262Y54742184D01*
X48889816Y54869738D01*
X48985789Y55022478D01*
X49045368Y55192745D01*
X49065565Y55372000D01*
X49045368Y55551255D01*
X48985789Y55721522D01*
X48889816Y55874262D01*
X48889815Y55874263D01*
X48889814Y55874265D01*
X48762264Y56001815D01*
X48670848Y56059255D01*
X48609522Y56097789D01*
X48439255Y56157368D01*
X48439253Y56157369D01*
X48439251Y56157369D01*
X48260000Y56177566D01*
X48080748Y56157369D01*
X48080745Y56157369D01*
X48080745Y56157368D01*
X47910478Y56097789D01*
X47910476Y56097789D01*
X47910476Y56097788D01*
X47757735Y56001815D01*
X47630185Y55874265D01*
X47534212Y55721524D01*
X47474631Y55551252D01*
X47454434Y55372000D01*
X37708078Y55372000D01*
X37713816Y55377738D01*
X37809789Y55530478D01*
X37869368Y55700745D01*
X37889565Y55880000D01*
X37888918Y55885738D01*
X37875840Y56001816D01*
X37869368Y56059255D01*
X37809789Y56229522D01*
X37713816Y56382262D01*
X37713815Y56382263D01*
X37713814Y56382265D01*
X37708078Y56388001D01*
X41104434Y56388001D01*
X41124631Y56208749D01*
X41124631Y56208747D01*
X41124632Y56208745D01*
X41184211Y56038478D01*
X41207248Y56001815D01*
X41280185Y55885736D01*
X41407735Y55758186D01*
X41407737Y55758185D01*
X41407738Y55758184D01*
X41560478Y55662211D01*
X41730745Y55602632D01*
X41910000Y55582435D01*
X42089255Y55602632D01*
X42259522Y55662211D01*
X42412262Y55758184D01*
X42539816Y55885738D01*
X42635789Y56038478D01*
X42695368Y56208745D01*
X42715565Y56388000D01*
X42695368Y56567255D01*
X42635789Y56737522D01*
X42539816Y56890262D01*
X42539815Y56890263D01*
X42539814Y56890265D01*
X42412264Y57017815D01*
X42349867Y57057022D01*
X42259522Y57113789D01*
X42089255Y57173368D01*
X42089253Y57173369D01*
X42089251Y57173369D01*
X41910000Y57193566D01*
X41730748Y57173369D01*
X41730745Y57173369D01*
X41730745Y57173368D01*
X41560478Y57113789D01*
X41560476Y57113789D01*
X41560476Y57113788D01*
X41407735Y57017815D01*
X41280185Y56890265D01*
X41200732Y56763815D01*
X41184211Y56737522D01*
X41148780Y56636265D01*
X41124631Y56567252D01*
X41104434Y56388001D01*
X37708078Y56388001D01*
X37586264Y56509815D01*
X37494848Y56567255D01*
X37433522Y56605789D01*
X37263255Y56665368D01*
X37263253Y56665369D01*
X37263251Y56665369D01*
X37083999Y56685566D01*
X36904748Y56665369D01*
X36904745Y56665369D01*
X36904745Y56665368D01*
X36734478Y56605789D01*
X36734476Y56605789D01*
X36734476Y56605788D01*
X36581735Y56509815D01*
X36454185Y56382265D01*
X36397768Y56292477D01*
X36358211Y56229522D01*
X36312116Y56097789D01*
X36298631Y56059252D01*
X36278434Y55880001D01*
X30477214Y55880001D01*
X30503368Y55954745D01*
X30523565Y56134000D01*
X30503368Y56313255D01*
X30443789Y56483522D01*
X30347816Y56636262D01*
X30347815Y56636263D01*
X30347814Y56636265D01*
X30220264Y56763815D01*
X30128848Y56821255D01*
X30067522Y56859789D01*
X29897255Y56919368D01*
X29897253Y56919369D01*
X29897251Y56919369D01*
X29718000Y56939566D01*
X29538748Y56919369D01*
X29538745Y56919369D01*
X29538745Y56919368D01*
X29368478Y56859789D01*
X29368476Y56859789D01*
X29368476Y56859788D01*
X29215735Y56763815D01*
X29088185Y56636265D01*
X29008732Y56509815D01*
X28992211Y56483522D01*
X28956780Y56382265D01*
X28932631Y56313252D01*
X28912434Y56134000D01*
X27429214Y56134000D01*
X27395789Y56229522D01*
X27299816Y56382262D01*
X27299815Y56382263D01*
X27299814Y56382265D01*
X27172264Y56509815D01*
X27080848Y56567255D01*
X27019522Y56605789D01*
X26849255Y56665368D01*
X26849253Y56665369D01*
X26849251Y56665369D01*
X26670000Y56685566D01*
X26490748Y56665369D01*
X26490745Y56665369D01*
X26490745Y56665368D01*
X26320478Y56605789D01*
X26320476Y56605789D01*
X26320476Y56605788D01*
X26167735Y56509815D01*
X26040185Y56382265D01*
X25983768Y56292477D01*
X25944211Y56229522D01*
X25898116Y56097789D01*
X25884631Y56059252D01*
X25864434Y55880001D01*
X22598040Y55880001D01*
X22701522Y55916211D01*
X22854262Y56012184D01*
X22981816Y56139738D01*
X23077789Y56292478D01*
X23137368Y56462745D01*
X23157565Y56642000D01*
X23137368Y56821255D01*
X23077789Y56991522D01*
X22981816Y57144262D01*
X22981815Y57144263D01*
X22981814Y57144265D01*
X22854264Y57271815D01*
X22791867Y57311021D01*
X22701522Y57367789D01*
X22531255Y57427368D01*
X22531253Y57427369D01*
X22531251Y57427369D01*
X22352000Y57447566D01*
X22172748Y57427369D01*
X22172745Y57427369D01*
X22172745Y57427368D01*
X22002478Y57367789D01*
X22002476Y57367789D01*
X22002476Y57367788D01*
X21849735Y57271815D01*
X21722185Y57144265D01*
X21642732Y57017815D01*
X21626211Y56991522D01*
X21600964Y56919369D01*
X21566631Y56821252D01*
X21546434Y56642001D01*
X6400127Y56642001D01*
X6459401Y56683505D01*
X6626495Y56850599D01*
X6762035Y57044170D01*
X6861903Y57258337D01*
X6923063Y57486592D01*
X6943659Y57722000D01*
X6923063Y57957408D01*
X6861903Y58185663D01*
X6825839Y58263001D01*
X25610434Y58263001D01*
X25630631Y58083749D01*
X25630631Y58083747D01*
X25630632Y58083745D01*
X25690211Y57913478D01*
X25746978Y57823133D01*
X25786185Y57760736D01*
X25913735Y57633186D01*
X25913737Y57633185D01*
X25913738Y57633184D01*
X26066478Y57537211D01*
X26236745Y57477632D01*
X26416000Y57457435D01*
X26595255Y57477632D01*
X26765522Y57537211D01*
X26918262Y57633184D01*
X26942753Y57657675D01*
X26978319Y57693240D01*
X27039642Y57726725D01*
X27109334Y57721741D01*
X27153681Y57693240D01*
X27213735Y57633186D01*
X27213737Y57633185D01*
X27213738Y57633184D01*
X27366478Y57537211D01*
X27536745Y57477632D01*
X27671186Y57462485D01*
X27715999Y57457435D01*
X27715999Y57457436D01*
X27716000Y57457435D01*
X27895255Y57477632D01*
X28065522Y57537211D01*
X28218262Y57633184D01*
X28345816Y57760738D01*
X28441789Y57913478D01*
X28501368Y58083745D01*
X28521565Y58263000D01*
X35740434Y58263000D01*
X35760631Y58083749D01*
X35760631Y58083747D01*
X35760632Y58083745D01*
X35820211Y57913478D01*
X35876978Y57823133D01*
X35916185Y57760736D01*
X36043735Y57633186D01*
X36043737Y57633185D01*
X36043738Y57633184D01*
X36196478Y57537211D01*
X36366745Y57477632D01*
X36546000Y57457435D01*
X36725255Y57477632D01*
X36895522Y57537211D01*
X37048262Y57633184D01*
X37072753Y57657675D01*
X37108319Y57693240D01*
X37169642Y57726725D01*
X37239334Y57721741D01*
X37283681Y57693240D01*
X37343735Y57633186D01*
X37343737Y57633185D01*
X37343738Y57633184D01*
X37496478Y57537211D01*
X37666745Y57477632D01*
X37846000Y57457435D01*
X38025255Y57477632D01*
X38195522Y57537211D01*
X38348262Y57633184D01*
X38475816Y57760738D01*
X38571789Y57913478D01*
X38631368Y58083745D01*
X38651565Y58263000D01*
X38631368Y58442255D01*
X38571789Y58612522D01*
X38475816Y58765262D01*
X38475815Y58765263D01*
X38475814Y58765265D01*
X38415760Y58825319D01*
X38382275Y58886642D01*
X38387259Y58956334D01*
X38415760Y59000681D01*
X38475814Y59060736D01*
X38475813Y59060736D01*
X38475816Y59060738D01*
X38571789Y59213478D01*
X38631368Y59383745D01*
X38651565Y59563000D01*
X38631368Y59742255D01*
X38571789Y59912522D01*
X38552010Y59944000D01*
X40417908Y59944000D01*
X40436213Y59781539D01*
X40490209Y59627228D01*
X40490211Y59627225D01*
X40577192Y59488796D01*
X40692796Y59373192D01*
X40831225Y59286211D01*
X40831227Y59286210D01*
X40985538Y59232214D01*
X41148000Y59213909D01*
X41310461Y59232214D01*
X41464775Y59286211D01*
X41603204Y59373192D01*
X41718808Y59488796D01*
X41805789Y59627225D01*
X41859786Y59781539D01*
X41878091Y59944000D01*
X41867777Y60035539D01*
X41859786Y60106462D01*
X41805790Y60260773D01*
X41805789Y60260775D01*
X41718808Y60399204D01*
X41603204Y60514808D01*
X41464775Y60601789D01*
X41464772Y60601791D01*
X41310461Y60655787D01*
X41148000Y60674092D01*
X40985538Y60655787D01*
X40831227Y60601791D01*
X40692794Y60514807D01*
X40577193Y60399206D01*
X40490209Y60260773D01*
X40436213Y60106462D01*
X40417908Y59944000D01*
X38552010Y59944000D01*
X38475816Y60065262D01*
X38464892Y60076186D01*
X38415759Y60125320D01*
X38382275Y60186644D01*
X38387260Y60256335D01*
X38415758Y60300681D01*
X38475816Y60360738D01*
X38571789Y60513478D01*
X38631368Y60683745D01*
X38633876Y60706001D01*
X42882434Y60706001D01*
X42902631Y60526749D01*
X42902631Y60526747D01*
X42902632Y60526745D01*
X42962211Y60356478D01*
X42997269Y60300683D01*
X43058185Y60203736D01*
X43185735Y60076186D01*
X43185737Y60076185D01*
X43185738Y60076184D01*
X43338478Y59980211D01*
X43508745Y59920632D01*
X43643186Y59905485D01*
X43687999Y59900435D01*
X43687999Y59900436D01*
X43688000Y59900435D01*
X43867255Y59920632D01*
X44037522Y59980211D01*
X44190262Y60076184D01*
X44317816Y60203738D01*
X44413789Y60356478D01*
X44473368Y60526745D01*
X44493565Y60706000D01*
X44473368Y60885255D01*
X44413789Y61055522D01*
X44317816Y61208262D01*
X44317815Y61208263D01*
X44317814Y61208265D01*
X44190264Y61335815D01*
X44127867Y61375021D01*
X44037522Y61431789D01*
X43867255Y61491368D01*
X43867253Y61491369D01*
X43867251Y61491369D01*
X43688000Y61511566D01*
X43508748Y61491369D01*
X43508745Y61491369D01*
X43508745Y61491368D01*
X43338478Y61431789D01*
X43338476Y61431789D01*
X43338476Y61431788D01*
X43185735Y61335815D01*
X43058185Y61208265D01*
X43055667Y61204257D01*
X42962211Y61055522D01*
X42936964Y60983369D01*
X42902631Y60885252D01*
X42882434Y60706001D01*
X38633876Y60706001D01*
X38651565Y60863000D01*
X38631368Y61042255D01*
X38571789Y61212522D01*
X38475816Y61365262D01*
X38475815Y61365263D01*
X38475814Y61365265D01*
X38348264Y61492815D01*
X38285867Y61532021D01*
X38195522Y61588789D01*
X38025255Y61648368D01*
X38025253Y61648369D01*
X38025251Y61648369D01*
X37846000Y61668566D01*
X37666748Y61648369D01*
X37666745Y61648369D01*
X37666745Y61648368D01*
X37496478Y61588789D01*
X37496476Y61588789D01*
X37496476Y61588788D01*
X37343738Y61492817D01*
X37283680Y61432759D01*
X37222356Y61399275D01*
X37152665Y61404260D01*
X37108319Y61432759D01*
X37048262Y61492816D01*
X36895522Y61588789D01*
X36725255Y61648368D01*
X36725253Y61648369D01*
X36725251Y61648369D01*
X36546000Y61668566D01*
X36366748Y61648369D01*
X36366745Y61648369D01*
X36366745Y61648368D01*
X36196478Y61588789D01*
X36196476Y61588789D01*
X36196476Y61588788D01*
X36043735Y61492815D01*
X35916185Y61365265D01*
X35896000Y61333140D01*
X35820211Y61212522D01*
X35817320Y61204259D01*
X35760631Y61042252D01*
X35740434Y60863000D01*
X35760631Y60683749D01*
X35760631Y60683747D01*
X35760632Y60683745D01*
X35820211Y60513478D01*
X35820212Y60513477D01*
X35916185Y60360736D01*
X35976240Y60300681D01*
X36009725Y60239358D01*
X36004741Y60169666D01*
X35976240Y60125319D01*
X35916185Y60065265D01*
X35839990Y59944000D01*
X35820211Y59912522D01*
X35788043Y59820591D01*
X35760631Y59742252D01*
X35740434Y59563000D01*
X35760631Y59383749D01*
X35760631Y59383747D01*
X35760632Y59383745D01*
X35820211Y59213478D01*
X35820212Y59213477D01*
X35916185Y59060736D01*
X35976240Y59000681D01*
X36009725Y58939358D01*
X36004741Y58869666D01*
X35976240Y58825319D01*
X35916185Y58765265D01*
X35896000Y58733140D01*
X35820211Y58612522D01*
X35760632Y58442255D01*
X35760631Y58442252D01*
X35740434Y58263000D01*
X28521565Y58263000D01*
X28501368Y58442255D01*
X28441789Y58612522D01*
X28345816Y58765262D01*
X28345815Y58765263D01*
X28345814Y58765265D01*
X28285760Y58825319D01*
X28252275Y58886642D01*
X28257259Y58956334D01*
X28285760Y59000681D01*
X28345814Y59060736D01*
X28345816Y59060738D01*
X28441789Y59213478D01*
X28501368Y59383745D01*
X28521565Y59563000D01*
X28501368Y59742255D01*
X28441789Y59912522D01*
X28345816Y60065262D01*
X28334892Y60076186D01*
X28285759Y60125320D01*
X28252275Y60186644D01*
X28253087Y60198000D01*
X30257908Y60198000D01*
X30276213Y60035539D01*
X30330209Y59881228D01*
X30330211Y59881225D01*
X30417192Y59742796D01*
X30532796Y59627192D01*
X30634957Y59563000D01*
X30671227Y59540210D01*
X30825538Y59486214D01*
X30987999Y59467909D01*
X30987999Y59467910D01*
X30988000Y59467909D01*
X31150461Y59486214D01*
X31304775Y59540211D01*
X31443204Y59627192D01*
X31558808Y59742796D01*
X31645789Y59881225D01*
X31699786Y60035539D01*
X31718091Y60198000D01*
X32543908Y60198000D01*
X32562213Y60035539D01*
X32616209Y59881228D01*
X32616211Y59881225D01*
X32703192Y59742796D01*
X32818796Y59627192D01*
X32920957Y59563000D01*
X32957227Y59540210D01*
X33111538Y59486214D01*
X33274000Y59467909D01*
X33436461Y59486214D01*
X33590775Y59540211D01*
X33729204Y59627192D01*
X33844808Y59742796D01*
X33931789Y59881225D01*
X33985786Y60035539D01*
X34004091Y60198000D01*
X34003445Y60203738D01*
X33985786Y60360462D01*
X33931790Y60514773D01*
X33931768Y60514808D01*
X33844808Y60653204D01*
X33729204Y60768808D01*
X33590775Y60855789D01*
X33590772Y60855791D01*
X33436461Y60909787D01*
X33273999Y60928092D01*
X33111538Y60909787D01*
X32957227Y60855791D01*
X32818794Y60768807D01*
X32703193Y60653206D01*
X32616209Y60514773D01*
X32562213Y60360462D01*
X32543908Y60198000D01*
X31718091Y60198000D01*
X31706521Y60300683D01*
X31699786Y60360462D01*
X31645790Y60514773D01*
X31645768Y60514808D01*
X31558808Y60653204D01*
X31443204Y60768808D01*
X31304775Y60855789D01*
X31304772Y60855791D01*
X31150461Y60909787D01*
X30988000Y60928092D01*
X30825538Y60909787D01*
X30671227Y60855791D01*
X30532794Y60768807D01*
X30417193Y60653206D01*
X30330209Y60514773D01*
X30276213Y60360462D01*
X30257908Y60198000D01*
X28253087Y60198000D01*
X28257260Y60256335D01*
X28285758Y60300681D01*
X28345816Y60360738D01*
X28441789Y60513478D01*
X28501368Y60683745D01*
X28521565Y60863000D01*
X28501368Y61042255D01*
X28441789Y61212522D01*
X28345816Y61365262D01*
X28345815Y61365263D01*
X28345814Y61365265D01*
X28218264Y61492815D01*
X28155867Y61532021D01*
X28065522Y61588789D01*
X27895255Y61648368D01*
X27895253Y61648369D01*
X27895251Y61648369D01*
X27716000Y61668566D01*
X27536748Y61648369D01*
X27536745Y61648369D01*
X27536745Y61648368D01*
X27366478Y61588789D01*
X27366476Y61588789D01*
X27366476Y61588788D01*
X27213735Y61492815D01*
X27153681Y61432760D01*
X27092358Y61399275D01*
X27022666Y61404259D01*
X26978319Y61432760D01*
X26918264Y61492815D01*
X26855867Y61532021D01*
X26765522Y61588789D01*
X26595255Y61648368D01*
X26595253Y61648369D01*
X26595251Y61648369D01*
X26416000Y61668566D01*
X26236748Y61648369D01*
X26236745Y61648369D01*
X26236745Y61648368D01*
X26066478Y61588789D01*
X26066476Y61588789D01*
X26066476Y61588788D01*
X25913735Y61492815D01*
X25786185Y61365265D01*
X25766000Y61333140D01*
X25690211Y61212522D01*
X25687320Y61204259D01*
X25630631Y61042252D01*
X25610434Y60863000D01*
X25630631Y60683749D01*
X25630631Y60683747D01*
X25630632Y60683745D01*
X25690211Y60513478D01*
X25690212Y60513477D01*
X25786185Y60360736D01*
X25846240Y60300681D01*
X25879725Y60239358D01*
X25874741Y60169666D01*
X25846240Y60125319D01*
X25786185Y60065265D01*
X25709990Y59944000D01*
X25690211Y59912522D01*
X25658043Y59820591D01*
X25630631Y59742252D01*
X25610434Y59563001D01*
X25630631Y59383749D01*
X25630631Y59383747D01*
X25630632Y59383745D01*
X25690211Y59213478D01*
X25690212Y59213477D01*
X25786185Y59060736D01*
X25846240Y59000681D01*
X25879725Y58939358D01*
X25874741Y58869666D01*
X25846240Y58825319D01*
X25786185Y58765265D01*
X25766000Y58733140D01*
X25690211Y58612522D01*
X25630632Y58442255D01*
X25630631Y58442252D01*
X25610434Y58263001D01*
X6825839Y58263001D01*
X6762035Y58399829D01*
X6626495Y58593401D01*
X6459401Y58760495D01*
X6280891Y58885489D01*
X6237269Y58940064D01*
X6230076Y59009563D01*
X6261598Y59071917D01*
X6274555Y59083890D01*
X6436539Y59213477D01*
X7127245Y59766041D01*
X7186928Y59822310D01*
X7213781Y59852099D01*
X7263567Y59917262D01*
X7323338Y60048139D01*
X7343023Y60115178D01*
X7343024Y60115182D01*
X7354931Y60198000D01*
X22308434Y60198000D01*
X22328631Y60018749D01*
X22328631Y60018747D01*
X22328632Y60018745D01*
X22388211Y59848478D01*
X22405734Y59820591D01*
X22484185Y59695736D01*
X22611735Y59568186D01*
X22611737Y59568185D01*
X22611738Y59568184D01*
X22764478Y59472211D01*
X22934745Y59412632D01*
X23114000Y59392435D01*
X23293255Y59412632D01*
X23463522Y59472211D01*
X23616262Y59568184D01*
X23743816Y59695738D01*
X23839789Y59848478D01*
X23899368Y60018745D01*
X23919565Y60198000D01*
X23899368Y60377255D01*
X23839789Y60547522D01*
X23743816Y60700262D01*
X23743815Y60700263D01*
X23743814Y60700265D01*
X23616264Y60827815D01*
X23524848Y60885255D01*
X23463522Y60923789D01*
X23293255Y60983368D01*
X23293253Y60983369D01*
X23293251Y60983369D01*
X23114000Y61003566D01*
X22934748Y60983369D01*
X22934745Y60983369D01*
X22934745Y60983368D01*
X22764478Y60923789D01*
X22764476Y60923789D01*
X22764476Y60923788D01*
X22611735Y60827815D01*
X22484185Y60700265D01*
X22422309Y60601789D01*
X22388211Y60547522D01*
X22376298Y60513477D01*
X22328631Y60377252D01*
X22308434Y60198000D01*
X7354931Y60198000D01*
X7363500Y60257598D01*
X7363500Y61036200D01*
X15449950Y61036200D01*
X15468886Y60868144D01*
X15468886Y60868142D01*
X15468887Y60868141D01*
X15524744Y60708510D01*
X15614723Y60565310D01*
X15734310Y60445723D01*
X15877510Y60355744D01*
X16037141Y60299887D01*
X16149180Y60287264D01*
X16205199Y60280951D01*
X16205199Y60280952D01*
X16205200Y60280951D01*
X16373259Y60299887D01*
X16532890Y60355744D01*
X16676090Y60445723D01*
X16795677Y60565310D01*
X16885656Y60708510D01*
X16941513Y60868141D01*
X16960449Y61036200D01*
X16941513Y61204259D01*
X16885656Y61363890D01*
X16795677Y61507090D01*
X16676090Y61626677D01*
X16532890Y61716656D01*
X16373259Y61772513D01*
X16373258Y61772514D01*
X16373256Y61772514D01*
X16205200Y61791450D01*
X16037143Y61772514D01*
X15877510Y61716656D01*
X15734308Y61626676D01*
X15614724Y61507092D01*
X15524744Y61363890D01*
X15468886Y61204257D01*
X15449950Y61036200D01*
X7363500Y61036200D01*
X7363499Y62099986D01*
X7383184Y62167024D01*
X7435987Y62212779D01*
X7467086Y62222293D01*
X7707614Y62262429D01*
X7942810Y62343172D01*
X8161509Y62461526D01*
X8357744Y62614262D01*
X8526164Y62797215D01*
X8662173Y63005393D01*
X8762063Y63233119D01*
X8823108Y63474179D01*
X8843643Y63722000D01*
X8823108Y63969821D01*
X8762063Y64210881D01*
X8662173Y64438607D01*
X8526164Y64646785D01*
X8357744Y64829738D01*
X8335612Y64846964D01*
X8161514Y64982471D01*
X8161510Y64982474D01*
X8161509Y64982474D01*
X7942810Y65100828D01*
X7942806Y65100830D01*
X7942805Y65100830D01*
X7707615Y65181571D01*
X7462335Y65222500D01*
X7213665Y65222500D01*
X6968384Y65181571D01*
X6733194Y65100830D01*
X6733190Y65100829D01*
X6733190Y65100828D01*
X6729341Y65098745D01*
X6514485Y64982471D01*
X6318259Y64829741D01*
X6149837Y64646786D01*
X6013825Y64438605D01*
X5913938Y64210883D01*
X5852891Y63969817D01*
X5832356Y63722001D01*
X5839836Y63631740D01*
X5825755Y63563304D01*
X5776910Y63513345D01*
X5716260Y63497500D01*
X2959740Y63497500D01*
X2892701Y63517185D01*
X2846946Y63569989D01*
X2836164Y63631740D01*
X2843643Y63722001D01*
X2823108Y63969817D01*
X2823108Y63969821D01*
X2762063Y64210881D01*
X2662173Y64438607D01*
X2526164Y64646785D01*
X2357744Y64829738D01*
X2335612Y64846964D01*
X2161514Y64982471D01*
X2161510Y64982474D01*
X2161509Y64982474D01*
X1942810Y65100828D01*
X1942806Y65100830D01*
X1942805Y65100830D01*
X1707615Y65181571D01*
X1462335Y65222500D01*
X1213665Y65222500D01*
X968384Y65181571D01*
X733194Y65100830D01*
X733190Y65100829D01*
X733190Y65100828D01*
X729341Y65098745D01*
X514485Y64982471D01*
X318255Y64829739D01*
X185784Y64685837D01*
X125897Y64649846D01*
X56059Y64651947D01*
X-1557Y64691471D01*
X-28658Y64755871D01*
X-29444Y64769350D01*
X-29468Y64775738D01*
X-34257Y66040001D01*
X3004434Y66040001D01*
X3024631Y65860749D01*
X3024631Y65860747D01*
X3024632Y65860745D01*
X3084211Y65690478D01*
X3100733Y65664184D01*
X3180185Y65537736D01*
X3307735Y65410186D01*
X3307737Y65410185D01*
X3307738Y65410184D01*
X3460478Y65314211D01*
X3630745Y65254632D01*
X3810000Y65234435D01*
X3989255Y65254632D01*
X4159522Y65314211D01*
X4312262Y65410184D01*
X4439816Y65537738D01*
X4535789Y65690478D01*
X4569214Y65786001D01*
X9100434Y65786001D01*
X9120631Y65606749D01*
X9120631Y65606747D01*
X9120632Y65606745D01*
X9180211Y65436478D01*
X9196733Y65410184D01*
X9276185Y65283736D01*
X9403735Y65156186D01*
X9403737Y65156185D01*
X9403738Y65156184D01*
X9556478Y65060211D01*
X9726745Y65000632D01*
X9906000Y64980435D01*
X10085255Y65000632D01*
X10255522Y65060211D01*
X10408262Y65156184D01*
X10530079Y65278001D01*
X20276434Y65278001D01*
X20296631Y65098749D01*
X20296631Y65098747D01*
X20296632Y65098745D01*
X20356211Y64928478D01*
X20356212Y64928477D01*
X20452185Y64775736D01*
X20579735Y64648186D01*
X20579737Y64648185D01*
X20579738Y64648184D01*
X20732478Y64552211D01*
X20902745Y64492632D01*
X21082000Y64472435D01*
X21261255Y64492632D01*
X21328040Y64516001D01*
X26330340Y64516001D01*
X26350936Y64280593D01*
X26395709Y64113498D01*
X26412097Y64052337D01*
X26511965Y63838170D01*
X26647505Y63644599D01*
X26814599Y63477505D01*
X27008170Y63341965D01*
X27222337Y63242097D01*
X27450592Y63180937D01*
X27686000Y63160341D01*
X27921408Y63180937D01*
X28149663Y63242097D01*
X28363830Y63341965D01*
X28557401Y63477505D01*
X28724495Y63644599D01*
X28854427Y63830162D01*
X28909001Y63873784D01*
X28978499Y63880978D01*
X29040854Y63849455D01*
X29057572Y63830162D01*
X29187505Y63644599D01*
X29354599Y63477505D01*
X29548170Y63341965D01*
X29762337Y63242097D01*
X29990592Y63180937D01*
X30226000Y63160341D01*
X30461408Y63180937D01*
X30689663Y63242097D01*
X30903830Y63341965D01*
X31097401Y63477505D01*
X31264495Y63644599D01*
X31400035Y63838170D01*
X31499903Y64052337D01*
X31561063Y64280592D01*
X31581659Y64516000D01*
X31581659Y64516001D01*
X35474340Y64516001D01*
X35494936Y64280593D01*
X35539709Y64113498D01*
X35556097Y64052337D01*
X35655965Y63838170D01*
X35791505Y63644599D01*
X35958599Y63477505D01*
X36152170Y63341965D01*
X36366337Y63242097D01*
X36594592Y63180937D01*
X36830000Y63160341D01*
X37065408Y63180937D01*
X37293663Y63242097D01*
X37507830Y63341965D01*
X37701401Y63477505D01*
X37868495Y63644599D01*
X37998426Y63830161D01*
X38053002Y63873784D01*
X38122500Y63880978D01*
X38184855Y63849455D01*
X38201571Y63830163D01*
X38331505Y63644599D01*
X38498599Y63477505D01*
X38692170Y63341965D01*
X38906337Y63242097D01*
X39134592Y63180937D01*
X39370000Y63160341D01*
X39605408Y63180937D01*
X39833663Y63242097D01*
X40047830Y63341965D01*
X40241401Y63477505D01*
X40408495Y63644599D01*
X40544035Y63838170D01*
X40643903Y64052337D01*
X40705063Y64280592D01*
X40725659Y64516000D01*
X40705063Y64751408D01*
X40643903Y64979663D01*
X40544035Y65193829D01*
X40408495Y65387401D01*
X40241401Y65554495D01*
X40047830Y65690035D01*
X39833663Y65789903D01*
X39772502Y65806291D01*
X39605407Y65851064D01*
X39370000Y65871660D01*
X39134592Y65851064D01*
X38906336Y65789903D01*
X38692170Y65690035D01*
X38498598Y65554495D01*
X38331505Y65387402D01*
X38201575Y65201841D01*
X38146998Y65158216D01*
X38077500Y65151022D01*
X38015145Y65182545D01*
X37998425Y65201841D01*
X37919743Y65314211D01*
X37868495Y65387401D01*
X37701401Y65554495D01*
X37507830Y65690035D01*
X37293663Y65789903D01*
X37232501Y65806291D01*
X37065407Y65851064D01*
X36830000Y65871660D01*
X36594592Y65851064D01*
X36366336Y65789903D01*
X36152170Y65690035D01*
X35958598Y65554495D01*
X35791505Y65387402D01*
X35655965Y65193830D01*
X35556097Y64979664D01*
X35494936Y64751408D01*
X35474340Y64516001D01*
X31581659Y64516001D01*
X31561063Y64751408D01*
X31499903Y64979663D01*
X31400035Y65193829D01*
X31264495Y65387401D01*
X31097401Y65554495D01*
X30903830Y65690035D01*
X30689663Y65789903D01*
X30628502Y65806291D01*
X30461407Y65851064D01*
X30226000Y65871660D01*
X29990592Y65851064D01*
X29762336Y65789903D01*
X29548170Y65690035D01*
X29354598Y65554495D01*
X29187505Y65387402D01*
X29057575Y65201841D01*
X29002998Y65158216D01*
X28933500Y65151022D01*
X28871145Y65182545D01*
X28854425Y65201841D01*
X28775743Y65314211D01*
X28724495Y65387401D01*
X28557401Y65554495D01*
X28363830Y65690035D01*
X28149663Y65789903D01*
X28088501Y65806291D01*
X27921407Y65851064D01*
X27685999Y65871660D01*
X27450592Y65851064D01*
X27222336Y65789903D01*
X27008170Y65690035D01*
X26814598Y65554495D01*
X26647505Y65387402D01*
X26511965Y65193830D01*
X26412097Y64979664D01*
X26350936Y64751408D01*
X26330340Y64516001D01*
X21328040Y64516001D01*
X21431522Y64552211D01*
X21584262Y64648184D01*
X21711816Y64775738D01*
X21807789Y64928478D01*
X21867368Y65098745D01*
X21887565Y65278000D01*
X21886918Y65283738D01*
X21882515Y65322814D01*
X21867368Y65457255D01*
X21807789Y65627522D01*
X21711816Y65780262D01*
X21711815Y65780263D01*
X21711814Y65780265D01*
X21584264Y65907815D01*
X21492848Y65965255D01*
X21431522Y66003789D01*
X21261255Y66063368D01*
X21261253Y66063369D01*
X21261251Y66063369D01*
X21082000Y66083566D01*
X20902748Y66063369D01*
X20902745Y66063369D01*
X20902745Y66063368D01*
X20732478Y66003789D01*
X20732476Y66003789D01*
X20732476Y66003788D01*
X20579735Y65907815D01*
X20452185Y65780265D01*
X20379247Y65664184D01*
X20356211Y65627522D01*
X20348942Y65606749D01*
X20296631Y65457252D01*
X20276434Y65278001D01*
X10530079Y65278001D01*
X10535816Y65283738D01*
X10631789Y65436478D01*
X10691368Y65606745D01*
X10711565Y65786000D01*
X10710918Y65791738D01*
X10701914Y65871659D01*
X10691368Y65965255D01*
X10631789Y66135522D01*
X10535816Y66288262D01*
X10535815Y66288263D01*
X10535814Y66288265D01*
X10530079Y66294000D01*
X11386434Y66294000D01*
X11406631Y66114749D01*
X11406631Y66114747D01*
X11406632Y66114745D01*
X11466211Y65944478D01*
X11489248Y65907815D01*
X11562185Y65791736D01*
X11689735Y65664186D01*
X11689737Y65664185D01*
X11689738Y65664184D01*
X11842478Y65568211D01*
X12012745Y65508632D01*
X12192000Y65488435D01*
X12371255Y65508632D01*
X12541522Y65568211D01*
X12634029Y65626338D01*
X12701264Y65645337D01*
X12765970Y65626338D01*
X12858478Y65568211D01*
X13028745Y65508632D01*
X13208000Y65488435D01*
X13387255Y65508632D01*
X13557522Y65568211D01*
X13710262Y65664184D01*
X13837816Y65791738D01*
X13933789Y65944478D01*
X13993368Y66114745D01*
X14013565Y66294000D01*
X13993368Y66473255D01*
X13933789Y66643522D01*
X13837816Y66796262D01*
X13837815Y66796263D01*
X13837814Y66796265D01*
X13710264Y66923815D01*
X13647867Y66963021D01*
X13557522Y67019789D01*
X13387255Y67079368D01*
X13387253Y67079369D01*
X13387251Y67079369D01*
X13208000Y67099566D01*
X13028748Y67079369D01*
X13028745Y67079369D01*
X13028745Y67079368D01*
X12858478Y67019789D01*
X12858476Y67019789D01*
X12858476Y67019788D01*
X12765972Y66961664D01*
X12698735Y66942664D01*
X12634028Y66961664D01*
X12584353Y66992877D01*
X12541522Y67019789D01*
X12371255Y67079368D01*
X12371253Y67079369D01*
X12371251Y67079369D01*
X12192000Y67099566D01*
X12012748Y67079369D01*
X12012745Y67079369D01*
X12012745Y67079368D01*
X11842478Y67019789D01*
X11842476Y67019789D01*
X11842476Y67019788D01*
X11689735Y66923815D01*
X11562185Y66796265D01*
X11482732Y66669815D01*
X11466211Y66643522D01*
X11440964Y66571369D01*
X11406631Y66473252D01*
X11386434Y66294000D01*
X10530079Y66294000D01*
X10408264Y66415815D01*
X10316848Y66473255D01*
X10255522Y66511789D01*
X10085255Y66571368D01*
X10085253Y66571369D01*
X10085251Y66571369D01*
X9906000Y66591566D01*
X9726748Y66571369D01*
X9726745Y66571369D01*
X9726745Y66571368D01*
X9556478Y66511789D01*
X9556476Y66511789D01*
X9556476Y66511788D01*
X9403735Y66415815D01*
X9276185Y66288265D01*
X9180212Y66135524D01*
X9180211Y66135522D01*
X9134116Y66003789D01*
X9120631Y65965252D01*
X9100434Y65786001D01*
X4569214Y65786001D01*
X4595368Y65860745D01*
X4615565Y66040000D01*
X4595368Y66219255D01*
X4535789Y66389522D01*
X4439816Y66542262D01*
X4439815Y66542263D01*
X4439814Y66542265D01*
X4312264Y66669815D01*
X4249867Y66709021D01*
X4159522Y66765789D01*
X3989255Y66825368D01*
X3989253Y66825369D01*
X3989251Y66825369D01*
X3809999Y66845566D01*
X3630748Y66825369D01*
X3630745Y66825369D01*
X3630745Y66825368D01*
X3460478Y66765789D01*
X3460476Y66765789D01*
X3460476Y66765788D01*
X3307735Y66669815D01*
X3180185Y66542265D01*
X3100732Y66415815D01*
X3084211Y66389522D01*
X3048780Y66288265D01*
X3024631Y66219252D01*
X3004434Y66040001D01*
X-34257Y66040001D01*
X-48803Y69880056D01*
X-29373Y69947167D01*
X23258Y69993121D01*
X92378Y70003327D01*
X156043Y69974543D01*
X190960Y69924961D01*
X297123Y69648398D01*
X310786Y69612806D01*
X312255Y69609923D01*
X312259Y69609914D01*
X485400Y69270105D01*
X486875Y69267211D01*
X698124Y68941916D01*
X942219Y68640484D01*
X1216484Y68366219D01*
X1517916Y68122124D01*
X1843211Y67910875D01*
X2188806Y67734786D01*
X2550913Y67595786D01*
X2925567Y67495398D01*
X3308662Y67434722D01*
X3696000Y67414422D01*
X4083338Y67434722D01*
X4466433Y67495398D01*
X4841087Y67595786D01*
X5203194Y67734786D01*
X5548789Y67910875D01*
X5822423Y68088575D01*
X24585500Y68088575D01*
X24585779Y68085645D01*
X24585781Y68085620D01*
X24600471Y67931785D01*
X24659683Y67730127D01*
X24755990Y67543316D01*
X24885906Y67378116D01*
X25044745Y67240480D01*
X25143259Y67183603D01*
X25226756Y67135396D01*
X25311150Y67106187D01*
X25425366Y67066656D01*
X25460298Y67061634D01*
X25633398Y67036746D01*
X25843330Y67046746D01*
X26047576Y67096296D01*
X26133195Y67135397D01*
X26238752Y67183603D01*
X26318624Y67240480D01*
X26409952Y67305514D01*
X26554986Y67457622D01*
X26581542Y67498944D01*
X26634344Y67544697D01*
X26703503Y67554641D01*
X26767058Y67525616D01*
X26783326Y67508556D01*
X26885908Y67378114D01*
X27044745Y67240480D01*
X27143259Y67183603D01*
X27226756Y67135396D01*
X27311150Y67106187D01*
X27425366Y67066656D01*
X27460298Y67061634D01*
X27633398Y67036746D01*
X27843330Y67046746D01*
X28047576Y67096296D01*
X28133195Y67135397D01*
X28238752Y67183603D01*
X28318624Y67240480D01*
X28409952Y67305514D01*
X28507749Y67408082D01*
X28568258Y67443018D01*
X28638049Y67439693D01*
X28694963Y67399165D01*
X28703032Y67387609D01*
X28743288Y67322343D01*
X28867342Y67198289D01*
X28891152Y67183603D01*
X29016666Y67106186D01*
X29128017Y67069288D01*
X29183202Y67051001D01*
X29282858Y67040820D01*
X29282859Y67040820D01*
X29285991Y67040500D01*
X30086008Y67040501D01*
X30188797Y67051001D01*
X30355334Y67106186D01*
X30504656Y67198288D01*
X30628712Y67322344D01*
X30720814Y67471666D01*
X30775999Y67638203D01*
X30786500Y67740991D01*
X30786500Y68088575D01*
X33729500Y68088575D01*
X33729779Y68085645D01*
X33729781Y68085620D01*
X33744471Y67931785D01*
X33803683Y67730127D01*
X33899990Y67543316D01*
X34029906Y67378116D01*
X34188745Y67240480D01*
X34287259Y67183603D01*
X34370756Y67135396D01*
X34455150Y67106187D01*
X34569366Y67066656D01*
X34604298Y67061634D01*
X34777398Y67036746D01*
X34987330Y67046746D01*
X35191576Y67096296D01*
X35277195Y67135397D01*
X35382752Y67183603D01*
X35462624Y67240480D01*
X35553952Y67305514D01*
X35698986Y67457622D01*
X35725542Y67498944D01*
X35778344Y67544697D01*
X35847503Y67554641D01*
X35911058Y67525616D01*
X35927326Y67508556D01*
X36029908Y67378114D01*
X36188745Y67240480D01*
X36287259Y67183603D01*
X36370756Y67135396D01*
X36455150Y67106187D01*
X36569366Y67066656D01*
X36604298Y67061634D01*
X36777398Y67036746D01*
X36987330Y67046746D01*
X37191576Y67096296D01*
X37277195Y67135397D01*
X37382752Y67183603D01*
X37462624Y67240480D01*
X37553952Y67305514D01*
X37651749Y67408082D01*
X37712258Y67443018D01*
X37782049Y67439693D01*
X37838963Y67399165D01*
X37847032Y67387609D01*
X37887288Y67322343D01*
X38011342Y67198289D01*
X38035152Y67183603D01*
X38160666Y67106186D01*
X38272016Y67069288D01*
X38327202Y67051001D01*
X38426858Y67040820D01*
X38426859Y67040820D01*
X38429991Y67040500D01*
X39230008Y67040501D01*
X39332797Y67051001D01*
X39499334Y67106186D01*
X39648656Y67198288D01*
X39772712Y67322344D01*
X39864814Y67471666D01*
X39919999Y67638203D01*
X39930500Y67740991D01*
X39930499Y69091008D01*
X39919999Y69193797D01*
X39864814Y69360334D01*
X39772712Y69509656D01*
X39772711Y69509658D01*
X39648657Y69633712D01*
X39499334Y69725814D01*
X39332797Y69781000D01*
X39233141Y69791181D01*
X39233122Y69791182D01*
X39230009Y69791500D01*
X39226860Y69791500D01*
X38433141Y69791500D01*
X38433121Y69791500D01*
X38429992Y69791499D01*
X38426860Y69791180D01*
X38426858Y69791179D01*
X38327203Y69781000D01*
X38160665Y69725814D01*
X38011342Y69633712D01*
X37887289Y69509659D01*
X37848185Y69446260D01*
X37796237Y69399536D01*
X37727274Y69388313D01*
X37663192Y69416157D01*
X37645175Y69434706D01*
X37630092Y69453886D01*
X37471254Y69591521D01*
X37289245Y69696604D01*
X37090633Y69765345D01*
X36882603Y69795254D01*
X36882602Y69795254D01*
X36803794Y69791500D01*
X36672669Y69785254D01*
X36468419Y69735703D01*
X36277247Y69648398D01*
X36106050Y69526488D01*
X35961011Y69374375D01*
X35934457Y69333057D01*
X35881652Y69287303D01*
X35812494Y69277360D01*
X35748939Y69306387D01*
X35732673Y69323446D01*
X35636089Y69446260D01*
X35630092Y69453886D01*
X35471256Y69591519D01*
X35471254Y69591521D01*
X35289245Y69696604D01*
X35090633Y69765345D01*
X34882603Y69795254D01*
X34882602Y69795254D01*
X34803794Y69791500D01*
X34672669Y69785254D01*
X34468419Y69735703D01*
X34277247Y69648398D01*
X34106050Y69526488D01*
X33961013Y69374377D01*
X33847387Y69197575D01*
X33769274Y69002455D01*
X33729500Y68796087D01*
X33729500Y68796085D01*
X33729500Y68088575D01*
X30786500Y68088575D01*
X30786499Y69091008D01*
X30775999Y69193797D01*
X30720814Y69360334D01*
X30628712Y69509656D01*
X30628711Y69509658D01*
X30504657Y69633712D01*
X30355334Y69725814D01*
X30188797Y69781000D01*
X30089141Y69791181D01*
X30089122Y69791182D01*
X30086009Y69791500D01*
X30082860Y69791500D01*
X29289141Y69791500D01*
X29289121Y69791500D01*
X29285992Y69791499D01*
X29282860Y69791180D01*
X29282858Y69791179D01*
X29183203Y69781000D01*
X29016665Y69725814D01*
X28867342Y69633712D01*
X28743289Y69509659D01*
X28704185Y69446260D01*
X28652237Y69399536D01*
X28583274Y69388313D01*
X28519192Y69416157D01*
X28501175Y69434706D01*
X28486092Y69453886D01*
X28327254Y69591521D01*
X28145245Y69696604D01*
X27946633Y69765345D01*
X27738603Y69795254D01*
X27738602Y69795254D01*
X27659794Y69791500D01*
X27528669Y69785254D01*
X27324419Y69735703D01*
X27133247Y69648398D01*
X26962050Y69526488D01*
X26817011Y69374375D01*
X26790457Y69333057D01*
X26737652Y69287303D01*
X26668494Y69277360D01*
X26604939Y69306387D01*
X26588673Y69323446D01*
X26492089Y69446260D01*
X26486092Y69453886D01*
X26327256Y69591519D01*
X26327254Y69591521D01*
X26145245Y69696604D01*
X25946633Y69765345D01*
X25738603Y69795254D01*
X25738602Y69795254D01*
X25659794Y69791500D01*
X25528669Y69785254D01*
X25324419Y69735703D01*
X25133247Y69648398D01*
X24962050Y69526488D01*
X24817013Y69374377D01*
X24703387Y69197575D01*
X24625274Y69002455D01*
X24585500Y68796087D01*
X24585500Y68796085D01*
X24585500Y68088575D01*
X5822423Y68088575D01*
X5874084Y68122124D01*
X6175516Y68366219D01*
X6449781Y68640484D01*
X6693876Y68941916D01*
X6905125Y69267211D01*
X7081214Y69612806D01*
X7123514Y69723001D01*
X10827150Y69723001D01*
X10846086Y69554944D01*
X10846086Y69554942D01*
X10846087Y69554941D01*
X10901944Y69395310D01*
X10991923Y69252110D01*
X11111510Y69132523D01*
X11254710Y69042544D01*
X11414341Y68986687D01*
X11582400Y68967751D01*
X11750459Y68986687D01*
X11910090Y69042544D01*
X12053290Y69132523D01*
X12172877Y69252110D01*
X12262856Y69395310D01*
X12318713Y69554941D01*
X12337649Y69723000D01*
X12318713Y69891059D01*
X12262856Y70050690D01*
X12172877Y70193890D01*
X12053290Y70313477D01*
X11910090Y70403456D01*
X11750459Y70459313D01*
X11750458Y70459314D01*
X11750456Y70459314D01*
X11582400Y70478250D01*
X11414343Y70459314D01*
X11254710Y70403456D01*
X11111508Y70313476D01*
X10991924Y70193892D01*
X10901944Y70050690D01*
X10846086Y69891057D01*
X10827150Y69723001D01*
X7123514Y69723001D01*
X7220214Y69974913D01*
X7320602Y70349567D01*
X7381278Y70732662D01*
X7401578Y71120000D01*
X7381278Y71507338D01*
X7320602Y71890433D01*
X7220214Y72265087D01*
X7081214Y72627194D01*
X6943231Y72898001D01*
X26880434Y72898001D01*
X26900631Y72718749D01*
X26900631Y72718747D01*
X26900632Y72718745D01*
X26960211Y72548478D01*
X26960212Y72548477D01*
X27056185Y72395736D01*
X27183735Y72268186D01*
X27183737Y72268185D01*
X27183738Y72268184D01*
X27336478Y72172211D01*
X27506745Y72112632D01*
X27686000Y72092435D01*
X27865255Y72112632D01*
X28035522Y72172211D01*
X28188262Y72268184D01*
X28315816Y72395738D01*
X28411789Y72548478D01*
X28471368Y72718745D01*
X28491565Y72898000D01*
X28491565Y72898001D01*
X36024434Y72898001D01*
X36044631Y72718749D01*
X36044631Y72718747D01*
X36044632Y72718745D01*
X36104211Y72548478D01*
X36104212Y72548477D01*
X36200185Y72395736D01*
X36327735Y72268186D01*
X36327737Y72268185D01*
X36327738Y72268184D01*
X36480478Y72172211D01*
X36650745Y72112632D01*
X36830000Y72092435D01*
X37009255Y72112632D01*
X37179522Y72172211D01*
X37332262Y72268184D01*
X37459816Y72395738D01*
X37555789Y72548478D01*
X37615368Y72718745D01*
X37635565Y72898000D01*
X37615368Y73077255D01*
X37555789Y73247522D01*
X37459816Y73400262D01*
X37459815Y73400263D01*
X37459814Y73400265D01*
X37332264Y73527815D01*
X37263570Y73570978D01*
X37179522Y73623789D01*
X37009255Y73683368D01*
X37009253Y73683369D01*
X37009251Y73683369D01*
X36830000Y73703566D01*
X36650748Y73683369D01*
X36650745Y73683369D01*
X36650745Y73683368D01*
X36480478Y73623789D01*
X36480476Y73623789D01*
X36480476Y73623788D01*
X36327735Y73527815D01*
X36200185Y73400265D01*
X36104212Y73247524D01*
X36044631Y73077252D01*
X36024434Y72898001D01*
X28491565Y72898001D01*
X28471368Y73077255D01*
X28411789Y73247522D01*
X28315816Y73400262D01*
X28315815Y73400263D01*
X28315814Y73400265D01*
X28188264Y73527815D01*
X28119570Y73570978D01*
X28035522Y73623789D01*
X27865255Y73683368D01*
X27865253Y73683369D01*
X27865251Y73683369D01*
X27686000Y73703566D01*
X27506748Y73683369D01*
X27506745Y73683369D01*
X27506745Y73683368D01*
X27336478Y73623789D01*
X27336476Y73623789D01*
X27336476Y73623788D01*
X27183735Y73527815D01*
X27056185Y73400265D01*
X26960212Y73247524D01*
X26900631Y73077252D01*
X26880434Y72898001D01*
X6943231Y72898001D01*
X6905125Y72972789D01*
X6693876Y73298084D01*
X6449781Y73599516D01*
X6175516Y73873781D01*
X6125850Y73914000D01*
X6814434Y73914000D01*
X6834631Y73734749D01*
X6834631Y73734747D01*
X6834632Y73734745D01*
X6894211Y73564478D01*
X6917248Y73527815D01*
X6990185Y73411736D01*
X7117735Y73284186D01*
X7117737Y73284185D01*
X7117738Y73284184D01*
X7270478Y73188211D01*
X7440745Y73128632D01*
X7620000Y73108435D01*
X7799255Y73128632D01*
X7969522Y73188211D01*
X8122262Y73284184D01*
X8249816Y73411738D01*
X8345789Y73564478D01*
X8405368Y73734745D01*
X8425565Y73914000D01*
X8405368Y74093255D01*
X8345789Y74263522D01*
X8249816Y74416262D01*
X8249815Y74416263D01*
X8249814Y74416265D01*
X8122264Y74543815D01*
X8030848Y74601255D01*
X7969522Y74639789D01*
X7799255Y74699368D01*
X7799253Y74699369D01*
X7799251Y74699369D01*
X7620000Y74719566D01*
X7440748Y74699369D01*
X7440745Y74699369D01*
X7440745Y74699368D01*
X7270478Y74639789D01*
X7270476Y74639789D01*
X7270476Y74639788D01*
X7117735Y74543815D01*
X6990185Y74416265D01*
X6894212Y74263524D01*
X6834631Y74093252D01*
X6814434Y73914000D01*
X6125850Y73914000D01*
X5874084Y74117876D01*
X5548789Y74329125D01*
X5545901Y74330597D01*
X5545895Y74330600D01*
X5206086Y74503741D01*
X5206077Y74503745D01*
X5203194Y74505214D01*
X5200162Y74506378D01*
X4844110Y74643054D01*
X4844102Y74643057D01*
X4841087Y74644214D01*
X4837962Y74645052D01*
X4837957Y74645053D01*
X4484634Y74739725D01*
X4424973Y74776090D01*
X4394444Y74838937D01*
X4402739Y74908313D01*
X4447224Y74962190D01*
X4513776Y74983465D01*
X4516727Y74983500D01*
X14423044Y74983500D01*
X14490083Y74963815D01*
G37*
%TD.AperFunction*%
%TD*%
%TA.AperFunction,Conductor*%
%TO.N,VSS*%
G36*
X6022510Y62972315D02*
G01*
X6059279Y62935823D01*
X6149836Y62797215D01*
X6318256Y62614262D01*
X6318259Y62614260D01*
X6514485Y62461530D01*
X6514487Y62461529D01*
X6514491Y62461526D01*
X6733190Y62343172D01*
X6733193Y62343171D01*
X6742229Y62338281D01*
X6740854Y62335741D01*
X6771198Y62316802D01*
X6821680Y62266320D01*
X6855165Y62204997D01*
X6857999Y62178639D01*
X6858000Y60257598D01*
X6838315Y60190559D01*
X6811462Y60160770D01*
X5621965Y59209172D01*
X5557319Y59182664D01*
X5544503Y59182000D01*
X4318000Y59182000D01*
X4331288Y58251819D01*
X4319684Y58197646D01*
X4314098Y58185667D01*
X4252936Y57957408D01*
X4232340Y57722001D01*
X4252936Y57486593D01*
X4314097Y57258335D01*
X4335246Y57212982D01*
X4346851Y57162349D01*
X4386732Y54370719D01*
X4375127Y54316544D01*
X4314097Y54185666D01*
X4252936Y53957408D01*
X4232340Y53722000D01*
X4252936Y53486593D01*
X4314097Y53258335D01*
X4394195Y53086565D01*
X4405800Y53035932D01*
X4571999Y41402001D01*
X4571999Y41402000D01*
X5079999Y40894002D01*
X5080000Y40894000D01*
X10544000Y40894000D01*
X10611039Y40874315D01*
X10656794Y40821511D01*
X10668000Y40770000D01*
X10668000Y37970000D01*
X10648315Y37902961D01*
X10595511Y37857206D01*
X10544000Y37846000D01*
X8171729Y37846000D01*
X8104690Y37865685D01*
X8096960Y37871078D01*
X7945765Y37985357D01*
X7930218Y37996651D01*
X7801706Y38061352D01*
X7772163Y38071260D01*
X7753830Y38077024D01*
X7611414Y38097500D01*
X2622222Y38097500D01*
X2555183Y38117185D01*
X2509428Y38169989D01*
X2499484Y38239147D01*
X2505178Y38262450D01*
X2563368Y38428745D01*
X2583565Y38608000D01*
X2563368Y38787255D01*
X2503789Y38957522D01*
X2407816Y39110262D01*
X2407815Y39110263D01*
X2407814Y39110265D01*
X2280264Y39237815D01*
X2217867Y39277021D01*
X2127522Y39333789D01*
X1957255Y39393368D01*
X1957253Y39393369D01*
X1957251Y39393369D01*
X1778000Y39413566D01*
X1598748Y39393369D01*
X1598745Y39393369D01*
X1598745Y39393368D01*
X1428478Y39333789D01*
X1428476Y39333789D01*
X1428476Y39333788D01*
X1275735Y39237815D01*
X1148185Y39110265D01*
X1052212Y38957524D01*
X992631Y38787252D01*
X972434Y38608000D01*
X992631Y38428749D01*
X992631Y38428747D01*
X992632Y38428745D01*
X1050820Y38262453D01*
X1054381Y38192676D01*
X1019652Y38132048D01*
X957659Y38099821D01*
X933778Y38097500D01*
X195117Y38097500D01*
X128078Y38117185D01*
X82323Y38169989D01*
X71118Y38221030D01*
X71049Y38239147D01*
X47523Y44450001D01*
X972434Y44450001D01*
X992631Y44270749D01*
X992631Y44270747D01*
X992632Y44270745D01*
X1052211Y44100478D01*
X1052212Y44100477D01*
X1148185Y43947736D01*
X1275735Y43820186D01*
X1275737Y43820185D01*
X1275738Y43820184D01*
X1428478Y43724211D01*
X1598745Y43664632D01*
X1733186Y43649485D01*
X1777999Y43644435D01*
X1777999Y43644436D01*
X1778000Y43644435D01*
X1957255Y43664632D01*
X2127522Y43724211D01*
X2280262Y43820184D01*
X2407816Y43947738D01*
X2503789Y44100478D01*
X2563368Y44270745D01*
X2583565Y44450000D01*
X2563368Y44629255D01*
X2503789Y44799522D01*
X2407816Y44952262D01*
X2407815Y44952263D01*
X2407814Y44952265D01*
X2280264Y45079815D01*
X2217867Y45119021D01*
X2127522Y45175789D01*
X1957255Y45235368D01*
X1957253Y45235369D01*
X1957251Y45235369D01*
X1777999Y45255566D01*
X1598748Y45235369D01*
X1598745Y45235369D01*
X1598745Y45235368D01*
X1428478Y45175789D01*
X1428476Y45175789D01*
X1428476Y45175788D01*
X1275735Y45079815D01*
X1148185Y44952265D01*
X1052212Y44799524D01*
X992631Y44629252D01*
X972434Y44450001D01*
X47523Y44450001D01*
X24169Y50615473D01*
X43599Y50682586D01*
X96230Y50728540D01*
X165350Y50738746D01*
X229015Y50709962D01*
X239395Y50699928D01*
X318256Y50614262D01*
X318259Y50614260D01*
X514485Y50461530D01*
X514487Y50461529D01*
X514491Y50461526D01*
X733190Y50343172D01*
X968386Y50262429D01*
X1213665Y50221500D01*
X1462335Y50221500D01*
X1707614Y50262429D01*
X1942810Y50343172D01*
X2161509Y50461526D01*
X2357744Y50614262D01*
X2526164Y50797215D01*
X2662173Y51005393D01*
X2762063Y51233119D01*
X2823108Y51474179D01*
X2843643Y51722000D01*
X2823108Y51969821D01*
X2762063Y52210881D01*
X2662173Y52438607D01*
X2526164Y52646785D01*
X2357744Y52829738D01*
X2330942Y52850599D01*
X2161514Y52982471D01*
X2161510Y52982474D01*
X2161509Y52982474D01*
X1942810Y53100828D01*
X1942806Y53100830D01*
X1942805Y53100830D01*
X1707615Y53181571D01*
X1462335Y53222500D01*
X1213665Y53222500D01*
X968384Y53181571D01*
X733194Y53100830D01*
X733190Y53100829D01*
X733190Y53100828D01*
X645710Y53053487D01*
X514485Y52982471D01*
X318255Y52829738D01*
X231052Y52735011D01*
X171165Y52699020D01*
X101327Y52701121D01*
X43711Y52740645D01*
X16610Y52805045D01*
X15824Y52818511D01*
X-1576Y57412081D01*
X17854Y57479192D01*
X70485Y57525146D01*
X139605Y57535352D01*
X203270Y57506568D01*
X239464Y57453503D01*
X290209Y57308481D01*
X386185Y57155736D01*
X513735Y57028186D01*
X513737Y57028185D01*
X513738Y57028184D01*
X666478Y56932211D01*
X836745Y56872632D01*
X1016000Y56852435D01*
X1195255Y56872632D01*
X1365522Y56932211D01*
X1518262Y57028184D01*
X1645816Y57155738D01*
X1741789Y57308478D01*
X1801368Y57478745D01*
X1821565Y57658000D01*
X1801368Y57837255D01*
X1741789Y58007522D01*
X1645816Y58160262D01*
X1645815Y58160263D01*
X1645814Y58160265D01*
X1518264Y58287815D01*
X1455867Y58327021D01*
X1365522Y58383789D01*
X1195255Y58443368D01*
X1195253Y58443369D01*
X1195251Y58443369D01*
X1016000Y58463566D01*
X836748Y58443369D01*
X836745Y58443369D01*
X836745Y58443368D01*
X666478Y58383789D01*
X666476Y58383789D01*
X666476Y58383788D01*
X513735Y58287815D01*
X386185Y58160265D01*
X290209Y58007520D01*
X237624Y57857241D01*
X196902Y57800465D01*
X131949Y57774718D01*
X63388Y57788175D01*
X12985Y57836562D01*
X-3415Y57897722D01*
X-21474Y62665058D01*
X-2044Y62732168D01*
X50587Y62778122D01*
X119707Y62788328D01*
X183372Y62759544D01*
X193748Y62749514D01*
X271499Y62665054D01*
X318259Y62614259D01*
X514485Y62461530D01*
X514487Y62461529D01*
X514491Y62461526D01*
X733190Y62343172D01*
X968386Y62262429D01*
X1213665Y62221500D01*
X1462335Y62221500D01*
X1707614Y62262429D01*
X1942810Y62343172D01*
X2161509Y62461526D01*
X2357744Y62614262D01*
X2526164Y62797215D01*
X2616720Y62935823D01*
X2669867Y62981178D01*
X2720529Y62992000D01*
X5955471Y62992000D01*
X6022510Y62972315D01*
G37*
%TD.AperFunction*%
%TD*%
M02*
